%TF.GenerationSoftware,Altium Limited,Altium Designer,19.1.9 (167)*%
G04 Layer_Color=0*
%FSLAX26Y26*%
%MOIN*%
%TF.FileFunction,Profile,NP*%
%TF.Part,Single*%
G01*
G75*
%TA.AperFunction,Profile*%
%ADD122C,0.001000*%
G36*
X4818110Y4312008D02*
X4294488D01*
X4292689Y4312091D01*
X4290925Y4312335D01*
X4289189Y4312736D01*
X4287476Y4313303D01*
X4285803Y4314024D01*
X4284209Y4314898D01*
X4282725Y4315909D01*
X4281339Y4317047D01*
X4280524Y4317819D01*
X4279762Y4318624D01*
X4278386Y4320354D01*
X4277272Y4322146D01*
X4276378Y4323976D01*
X4275685Y4325858D01*
X4275197Y4327795D01*
X4274898Y4329732D01*
X4274803Y4331693D01*
X4274878Y4333441D01*
X4275106Y4335165D01*
X4275508Y4336905D01*
X4276043Y4338579D01*
X4276748Y4340221D01*
X4277583Y4341779D01*
X4278063Y4342539D01*
X4278587Y4343291D01*
X4279677Y4344673D01*
X4280386Y4345425D01*
X4281134Y4346154D01*
X4281925Y4346846D01*
X4282748Y4347484D01*
X4283599Y4348087D01*
X4284469Y4348638D01*
X4286307Y4349598D01*
X4287284Y4350008D01*
X4288284Y4350378D01*
X4289303Y4350681D01*
X4290327Y4350929D01*
X4291347Y4351134D01*
X4292386Y4351264D01*
X4293437Y4351350D01*
X4294488Y4351378D01*
Y4676181D01*
X4293524Y4676201D01*
X4292559Y4676276D01*
X4290646Y4676555D01*
X4288713Y4677039D01*
X4286921Y4677685D01*
X4285118Y4678551D01*
X4283394Y4679595D01*
X4281827Y4680787D01*
X4280413Y4682091D01*
X4279071Y4683626D01*
X4277921Y4685232D01*
X4276941Y4686945D01*
X4276524Y4687827D01*
X4276158Y4688705D01*
X4275835Y4689583D01*
X4275559Y4690461D01*
X4275134Y4692268D01*
X4274878Y4694114D01*
X4274803Y4695866D01*
X4274878Y4697661D01*
X4275134Y4699480D01*
X4275559Y4701264D01*
X4276114Y4702941D01*
X4276894Y4704697D01*
X4277354Y4705551D01*
X4277862Y4706398D01*
X4278386Y4707181D01*
X4278941Y4707933D01*
X4280166Y4709366D01*
X4280874Y4710091D01*
X4281622Y4710768D01*
X4282382Y4711390D01*
X4283195Y4711990D01*
X4284020Y4712539D01*
X4284870Y4713039D01*
X4285744Y4713496D01*
X4286642Y4713925D01*
X4287575Y4714295D01*
X4288516Y4714622D01*
X4289488Y4714902D01*
X4290469Y4715138D01*
X4291461Y4715315D01*
X4292453Y4715445D01*
X4293473Y4715524D01*
X4294488Y4715551D01*
X4818110D01*
Y4312008D01*
D02*
G37*
G36*
X-10827Y4686024D02*
X512795D01*
X514595Y4685941D01*
X516358Y4685697D01*
X518095Y4685295D01*
X519807Y4684728D01*
X521480Y4684008D01*
X523075Y4683134D01*
X524559Y4682122D01*
X525945Y4680984D01*
X526760Y4680212D01*
X527522Y4679407D01*
X528898Y4677677D01*
X530012Y4675886D01*
X530905Y4674055D01*
X531598Y4672173D01*
X532087Y4670236D01*
X532386Y4668299D01*
X532480Y4666339D01*
X532405Y4664591D01*
X532177Y4662866D01*
X531776Y4661126D01*
X531240Y4659453D01*
X530535Y4657811D01*
X529701Y4656252D01*
X529221Y4655492D01*
X528697Y4654740D01*
X527606Y4653358D01*
X526898Y4652606D01*
X526150Y4651878D01*
X525358Y4651185D01*
X524535Y4650547D01*
X523685Y4649945D01*
X522815Y4649394D01*
X520976Y4648433D01*
X520000Y4648024D01*
X519000Y4647653D01*
X517980Y4647350D01*
X516957Y4647102D01*
X515937Y4646898D01*
X514898Y4646768D01*
X513846Y4646681D01*
X512795Y4646654D01*
Y4321850D01*
X513760Y4321831D01*
X514724Y4321756D01*
X516638Y4321476D01*
X518571Y4320992D01*
X520362Y4320346D01*
X522165Y4319480D01*
X523890Y4318437D01*
X525457Y4317244D01*
X526870Y4315941D01*
X528213Y4314405D01*
X529362Y4312799D01*
X530342Y4311087D01*
X530760Y4310205D01*
X531126Y4309327D01*
X531449Y4308449D01*
X531724Y4307571D01*
X532150Y4305764D01*
X532405Y4303917D01*
X532480Y4302165D01*
X532405Y4300370D01*
X532150Y4298551D01*
X531724Y4296768D01*
X531169Y4295091D01*
X530390Y4293335D01*
X529929Y4292480D01*
X529421Y4291634D01*
X528898Y4290850D01*
X528342Y4290098D01*
X527118Y4288665D01*
X526409Y4287941D01*
X525661Y4287264D01*
X524902Y4286642D01*
X524089Y4286041D01*
X523264Y4285492D01*
X522413Y4284992D01*
X521539Y4284535D01*
X520642Y4284106D01*
X519709Y4283736D01*
X518768Y4283409D01*
X517795Y4283130D01*
X516815Y4282894D01*
X515823Y4282716D01*
X514831Y4282587D01*
X513811Y4282508D01*
X512795Y4282480D01*
X-10827D01*
Y4686024D01*
D02*
G37*
G36*
X-14764Y4024606D02*
X508858D01*
X510658Y4024524D01*
X512421Y4024280D01*
X514158Y4023878D01*
X515870Y4023311D01*
X517543Y4022591D01*
X519138Y4021717D01*
X520622Y4020705D01*
X522008Y4019567D01*
X522823Y4018795D01*
X523585Y4017990D01*
X524961Y4016260D01*
X526075Y4014468D01*
X526969Y4012638D01*
X527662Y4010756D01*
X528150Y4008819D01*
X528449Y4006882D01*
X528543Y4004921D01*
X528469Y4003173D01*
X528240Y4001449D01*
X527839Y3999709D01*
X527303Y3998035D01*
X526599Y3996394D01*
X525764Y3994835D01*
X525284Y3994075D01*
X524760Y3993323D01*
X523669Y3991941D01*
X522961Y3991189D01*
X522213Y3990461D01*
X521421Y3989768D01*
X520599Y3989130D01*
X519748Y3988528D01*
X518878Y3987976D01*
X517039Y3987016D01*
X516063Y3986606D01*
X515063Y3986236D01*
X514043Y3985933D01*
X513020Y3985685D01*
X512000Y3985480D01*
X510961Y3985350D01*
X509910Y3985264D01*
X508858Y3985236D01*
Y3660433D01*
X509823Y3660413D01*
X510788Y3660339D01*
X512701Y3660059D01*
X514634Y3659575D01*
X516425Y3658929D01*
X518229Y3658063D01*
X519953Y3657020D01*
X521520Y3655827D01*
X522933Y3654524D01*
X524276Y3652988D01*
X525425Y3651382D01*
X526406Y3649669D01*
X526823Y3648787D01*
X527189Y3647910D01*
X527512Y3647032D01*
X527788Y3646154D01*
X528213Y3644347D01*
X528469Y3642500D01*
X528543Y3640748D01*
X528469Y3638953D01*
X528213Y3637134D01*
X527788Y3635350D01*
X527232Y3633673D01*
X526453Y3631917D01*
X525992Y3631063D01*
X525484Y3630217D01*
X524961Y3629433D01*
X524406Y3628681D01*
X523181Y3627248D01*
X522473Y3626524D01*
X521725Y3625847D01*
X520965Y3625224D01*
X520152Y3624624D01*
X519327Y3624075D01*
X518476Y3623575D01*
X517602Y3623118D01*
X516705Y3622689D01*
X515772Y3622319D01*
X514831Y3621992D01*
X513858Y3621713D01*
X512878Y3621476D01*
X511886Y3621299D01*
X510894Y3621169D01*
X509874Y3621091D01*
X508858Y3621063D01*
X-14764D01*
Y4024606D01*
D02*
G37*
G36*
Y3347441D02*
X508858D01*
X510658Y3347358D01*
X512421Y3347114D01*
X514158Y3346713D01*
X515870Y3346146D01*
X517543Y3345425D01*
X519138Y3344551D01*
X520622Y3343539D01*
X522008Y3342402D01*
X522823Y3341630D01*
X523585Y3340825D01*
X524961Y3339095D01*
X526075Y3337303D01*
X526969Y3335472D01*
X527662Y3333591D01*
X528150Y3331654D01*
X528449Y3329717D01*
X528543Y3327756D01*
X528469Y3326008D01*
X528240Y3324284D01*
X527839Y3322543D01*
X527303Y3320870D01*
X526599Y3319228D01*
X525764Y3317669D01*
X525284Y3316910D01*
X524760Y3316158D01*
X523669Y3314776D01*
X522961Y3314024D01*
X522213Y3313295D01*
X521421Y3312602D01*
X520599Y3311965D01*
X519748Y3311362D01*
X518878Y3310811D01*
X517039Y3309851D01*
X516063Y3309441D01*
X515063Y3309071D01*
X514043Y3308768D01*
X513020Y3308520D01*
X512000Y3308315D01*
X510961Y3308185D01*
X509910Y3308099D01*
X508858Y3308071D01*
Y2983268D01*
X509823Y2983248D01*
X510788Y2983173D01*
X512701Y2982894D01*
X514634Y2982410D01*
X516425Y2981764D01*
X518229Y2980898D01*
X519953Y2979854D01*
X521520Y2978662D01*
X522933Y2977358D01*
X524276Y2975823D01*
X525425Y2974217D01*
X526406Y2972504D01*
X526823Y2971622D01*
X527189Y2970744D01*
X527512Y2969866D01*
X527788Y2968988D01*
X528213Y2967181D01*
X528469Y2965335D01*
X528543Y2963583D01*
X528469Y2961787D01*
X528213Y2959969D01*
X527788Y2958185D01*
X527232Y2956508D01*
X526453Y2954752D01*
X525992Y2953898D01*
X525484Y2953051D01*
X524961Y2952268D01*
X524406Y2951516D01*
X523181Y2950083D01*
X522473Y2949358D01*
X521725Y2948681D01*
X520965Y2948059D01*
X520152Y2947459D01*
X519327Y2946910D01*
X518476Y2946410D01*
X517602Y2945953D01*
X516705Y2945524D01*
X515772Y2945154D01*
X514831Y2944827D01*
X513858Y2944547D01*
X512878Y2944311D01*
X511886Y2944134D01*
X510894Y2944004D01*
X509874Y2943925D01*
X508858Y2943898D01*
X-14764D01*
Y3347441D01*
D02*
G37*
G36*
Y2658465D02*
X508858D01*
X510658Y2658382D01*
X512421Y2658138D01*
X514158Y2657736D01*
X515870Y2657169D01*
X517543Y2656449D01*
X519138Y2655575D01*
X520622Y2654563D01*
X522008Y2653425D01*
X522823Y2652654D01*
X523585Y2651849D01*
X524961Y2650118D01*
X526075Y2648327D01*
X526969Y2646496D01*
X527662Y2644614D01*
X528150Y2642677D01*
X528449Y2640740D01*
X528543Y2638780D01*
X528469Y2637032D01*
X528240Y2635307D01*
X527839Y2633567D01*
X527303Y2631894D01*
X526599Y2630252D01*
X525764Y2628693D01*
X525284Y2627933D01*
X524760Y2627181D01*
X523669Y2625799D01*
X522961Y2625047D01*
X522213Y2624319D01*
X521421Y2623626D01*
X520599Y2622988D01*
X519748Y2622386D01*
X518878Y2621835D01*
X517039Y2620874D01*
X516063Y2620465D01*
X515063Y2620095D01*
X514043Y2619791D01*
X513020Y2619543D01*
X512000Y2619339D01*
X510961Y2619209D01*
X509910Y2619122D01*
X508858Y2619095D01*
Y2294291D01*
X509823Y2294272D01*
X510788Y2294197D01*
X512701Y2293917D01*
X514634Y2293433D01*
X516425Y2292787D01*
X518229Y2291921D01*
X519953Y2290878D01*
X521520Y2289685D01*
X522933Y2288382D01*
X524276Y2286847D01*
X525425Y2285240D01*
X526406Y2283528D01*
X526823Y2282646D01*
X527189Y2281768D01*
X527512Y2280890D01*
X527788Y2280012D01*
X528213Y2278205D01*
X528469Y2276358D01*
X528543Y2274606D01*
X528469Y2272811D01*
X528213Y2270992D01*
X527788Y2269209D01*
X527232Y2267532D01*
X526453Y2265776D01*
X525992Y2264921D01*
X525484Y2264075D01*
X524961Y2263291D01*
X524406Y2262539D01*
X523181Y2261106D01*
X522473Y2260382D01*
X521725Y2259705D01*
X520965Y2259083D01*
X520152Y2258482D01*
X519327Y2257933D01*
X518476Y2257433D01*
X517602Y2256976D01*
X516705Y2256547D01*
X515772Y2256177D01*
X514831Y2255851D01*
X513858Y2255571D01*
X512878Y2255335D01*
X511886Y2255157D01*
X510894Y2255028D01*
X509874Y2254949D01*
X508858Y2254921D01*
X-14764D01*
Y2658465D01*
D02*
G37*
G36*
Y1969488D02*
X508858D01*
X510658Y1969406D01*
X512421Y1969161D01*
X514158Y1968760D01*
X515870Y1968193D01*
X517543Y1967473D01*
X519138Y1966599D01*
X520622Y1965587D01*
X522008Y1964449D01*
X522823Y1963677D01*
X523585Y1962872D01*
X524961Y1961142D01*
X526075Y1959350D01*
X526969Y1957520D01*
X527662Y1955638D01*
X528150Y1953701D01*
X528449Y1951764D01*
X528543Y1949803D01*
X528469Y1948055D01*
X528240Y1946331D01*
X527839Y1944591D01*
X527303Y1942917D01*
X526599Y1941276D01*
X525764Y1939717D01*
X525284Y1938957D01*
X524760Y1938205D01*
X523669Y1936823D01*
X522961Y1936071D01*
X522213Y1935343D01*
X521421Y1934650D01*
X520599Y1934012D01*
X519748Y1933409D01*
X518878Y1932858D01*
X517039Y1931898D01*
X516063Y1931488D01*
X515063Y1931118D01*
X514043Y1930815D01*
X513020Y1930567D01*
X512000Y1930362D01*
X510961Y1930232D01*
X509910Y1930146D01*
X508858Y1930118D01*
Y1605315D01*
X509823Y1605295D01*
X510788Y1605220D01*
X512701Y1604941D01*
X514634Y1604457D01*
X516425Y1603811D01*
X518229Y1602945D01*
X519953Y1601902D01*
X521520Y1600709D01*
X522933Y1599406D01*
X524276Y1597870D01*
X525425Y1596264D01*
X526406Y1594551D01*
X526823Y1593669D01*
X527189Y1592791D01*
X527512Y1591913D01*
X527788Y1591035D01*
X528213Y1589228D01*
X528469Y1587382D01*
X528543Y1585630D01*
X528469Y1583835D01*
X528213Y1582016D01*
X527788Y1580232D01*
X527232Y1578555D01*
X526453Y1576799D01*
X525992Y1575945D01*
X525484Y1575099D01*
X524961Y1574315D01*
X524406Y1573563D01*
X523181Y1572130D01*
X522473Y1571406D01*
X521725Y1570728D01*
X520965Y1570106D01*
X520152Y1569506D01*
X519327Y1568957D01*
X518476Y1568457D01*
X517602Y1568000D01*
X516705Y1567571D01*
X515772Y1567201D01*
X514831Y1566874D01*
X513858Y1566594D01*
X512878Y1566358D01*
X511886Y1566181D01*
X510894Y1566051D01*
X509874Y1565973D01*
X508858Y1565945D01*
X-14764D01*
Y1969488D01*
D02*
G37*
G36*
Y1280512D02*
X508858D01*
X510658Y1280429D01*
X512421Y1280185D01*
X514158Y1279784D01*
X515870Y1279217D01*
X517543Y1278496D01*
X519138Y1277622D01*
X520622Y1276610D01*
X522008Y1275473D01*
X522823Y1274701D01*
X523585Y1273896D01*
X524961Y1272165D01*
X526075Y1270374D01*
X526969Y1268543D01*
X527662Y1266661D01*
X528150Y1264724D01*
X528449Y1262787D01*
X528543Y1260827D01*
X528469Y1259079D01*
X528240Y1257354D01*
X527839Y1255614D01*
X527303Y1253941D01*
X526599Y1252299D01*
X525764Y1250740D01*
X525284Y1249980D01*
X524760Y1249228D01*
X523669Y1247847D01*
X522961Y1247094D01*
X522213Y1246366D01*
X521421Y1245673D01*
X520599Y1245035D01*
X519748Y1244433D01*
X518878Y1243882D01*
X517039Y1242921D01*
X516063Y1242512D01*
X515063Y1242142D01*
X514043Y1241839D01*
X513020Y1241591D01*
X512000Y1241386D01*
X510961Y1241256D01*
X509910Y1241169D01*
X508858Y1241142D01*
Y916339D01*
X509823Y916319D01*
X510788Y916244D01*
X512701Y915965D01*
X514634Y915480D01*
X516425Y914835D01*
X518229Y913968D01*
X519953Y912925D01*
X521520Y911732D01*
X522933Y910429D01*
X524276Y908894D01*
X525425Y907287D01*
X526406Y905575D01*
X526823Y904693D01*
X527189Y903815D01*
X527512Y902937D01*
X527788Y902059D01*
X528213Y900252D01*
X528469Y898405D01*
X528543Y896654D01*
X528469Y894858D01*
X528213Y893039D01*
X527788Y891256D01*
X527232Y889579D01*
X526453Y887823D01*
X525992Y886968D01*
X525484Y886122D01*
X524961Y885339D01*
X524406Y884587D01*
X523181Y883154D01*
X522473Y882429D01*
X521725Y881752D01*
X520965Y881130D01*
X520152Y880529D01*
X519327Y879980D01*
X518476Y879480D01*
X517602Y879024D01*
X516705Y878595D01*
X515772Y878224D01*
X514831Y877898D01*
X513858Y877618D01*
X512878Y877382D01*
X511886Y877205D01*
X510894Y877075D01*
X509874Y876996D01*
X508858Y876968D01*
X-14764D01*
Y1280512D01*
D02*
G37*
G36*
X4813976Y1010827D02*
X4290354D01*
X4288555Y1010909D01*
X4286791Y1011153D01*
X4285055Y1011555D01*
X4283342Y1012122D01*
X4281669Y1012842D01*
X4280075Y1013716D01*
X4278591Y1014728D01*
X4277205Y1015866D01*
X4276390Y1016638D01*
X4275628Y1017443D01*
X4274252Y1019173D01*
X4273138Y1020964D01*
X4272244Y1022795D01*
X4271551Y1024677D01*
X4271063Y1026614D01*
X4270764Y1028551D01*
X4270669Y1030512D01*
X4270744Y1032260D01*
X4270972Y1033984D01*
X4271374Y1035724D01*
X4271909Y1037397D01*
X4272614Y1039039D01*
X4273449Y1040598D01*
X4273929Y1041358D01*
X4274453Y1042110D01*
X4275543Y1043492D01*
X4276252Y1044244D01*
X4277000Y1044972D01*
X4277791Y1045665D01*
X4278614Y1046303D01*
X4279465Y1046905D01*
X4280335Y1047457D01*
X4282173Y1048417D01*
X4283150Y1048827D01*
X4284150Y1049197D01*
X4285169Y1049500D01*
X4286193Y1049748D01*
X4287213Y1049953D01*
X4288252Y1050082D01*
X4289303Y1050169D01*
X4290354Y1050197D01*
Y1375000D01*
X4289390Y1375020D01*
X4288425Y1375094D01*
X4286512Y1375374D01*
X4284579Y1375858D01*
X4282787Y1376504D01*
X4280984Y1377370D01*
X4279260Y1378413D01*
X4277693Y1379606D01*
X4276279Y1380909D01*
X4274937Y1382445D01*
X4273787Y1384051D01*
X4272807Y1385764D01*
X4272390Y1386646D01*
X4272024Y1387523D01*
X4271701Y1388401D01*
X4271425Y1389279D01*
X4271000Y1391086D01*
X4270744Y1392933D01*
X4270669Y1394685D01*
X4270744Y1396480D01*
X4271000Y1398299D01*
X4271425Y1400082D01*
X4271980Y1401760D01*
X4272760Y1403515D01*
X4273220Y1404370D01*
X4273728Y1405216D01*
X4274252Y1406000D01*
X4274807Y1406752D01*
X4276032Y1408185D01*
X4276740Y1408909D01*
X4277488Y1409586D01*
X4278248Y1410208D01*
X4279061Y1410809D01*
X4279886Y1411358D01*
X4280736Y1411858D01*
X4281610Y1412315D01*
X4282508Y1412744D01*
X4283441Y1413114D01*
X4284382Y1413441D01*
X4285354Y1413720D01*
X4286335Y1413957D01*
X4287327Y1414134D01*
X4288319Y1414264D01*
X4289339Y1414342D01*
X4290354Y1414370D01*
X4813976D01*
Y1010827D01*
D02*
G37*
G36*
X4819882Y1619094D02*
X4296260D01*
X4294461Y1619177D01*
X4292697Y1619421D01*
X4290961Y1619823D01*
X4289248Y1620390D01*
X4287575Y1621110D01*
X4285980Y1621984D01*
X4284496Y1622996D01*
X4283110Y1624134D01*
X4282295Y1624905D01*
X4281533Y1625710D01*
X4280158Y1627441D01*
X4279043Y1629232D01*
X4278150Y1631063D01*
X4277457Y1632945D01*
X4276969Y1634882D01*
X4276669Y1636819D01*
X4276575Y1638779D01*
X4276650Y1640527D01*
X4276878Y1642252D01*
X4277280Y1643992D01*
X4277815Y1645665D01*
X4278520Y1647307D01*
X4279354Y1648866D01*
X4279835Y1649626D01*
X4280358Y1650378D01*
X4281449Y1651760D01*
X4282158Y1652512D01*
X4282906Y1653240D01*
X4283697Y1653933D01*
X4284520Y1654571D01*
X4285370Y1655173D01*
X4286240Y1655724D01*
X4288079Y1656685D01*
X4289055Y1657094D01*
X4290055Y1657465D01*
X4291075Y1657768D01*
X4292099Y1658016D01*
X4293118Y1658220D01*
X4294158Y1658350D01*
X4295209Y1658437D01*
X4296260Y1658464D01*
Y1983268D01*
X4295295Y1983287D01*
X4294331Y1983362D01*
X4292417Y1983642D01*
X4290484Y1984126D01*
X4288693Y1984772D01*
X4286890Y1985638D01*
X4285165Y1986681D01*
X4283599Y1987874D01*
X4282185Y1989177D01*
X4280843Y1990713D01*
X4279693Y1992319D01*
X4278713Y1994031D01*
X4278295Y1994913D01*
X4277929Y1995791D01*
X4277606Y1996669D01*
X4277331Y1997547D01*
X4276906Y1999354D01*
X4276650Y2001201D01*
X4276575Y2002953D01*
X4276650Y2004748D01*
X4276906Y2006567D01*
X4277331Y2008350D01*
X4277886Y2010027D01*
X4278665Y2011783D01*
X4279126Y2012638D01*
X4279634Y2013484D01*
X4280158Y2014268D01*
X4280713Y2015020D01*
X4281937Y2016453D01*
X4282646Y2017177D01*
X4283394Y2017854D01*
X4284154Y2018476D01*
X4284967Y2019077D01*
X4285791Y2019626D01*
X4286642Y2020126D01*
X4287516Y2020583D01*
X4288413Y2021012D01*
X4289346Y2021382D01*
X4290288Y2021708D01*
X4291260Y2021988D01*
X4292240Y2022224D01*
X4293232Y2022401D01*
X4294225Y2022531D01*
X4295244Y2022610D01*
X4296260Y2022638D01*
X4819882D01*
Y1619094D01*
D02*
G37*
G36*
Y2288386D02*
X4296260D01*
X4294461Y2288468D01*
X4292697Y2288712D01*
X4290961Y2289114D01*
X4289248Y2289681D01*
X4287575Y2290401D01*
X4285980Y2291275D01*
X4284496Y2292287D01*
X4283110Y2293425D01*
X4282295Y2294197D01*
X4281533Y2295002D01*
X4280158Y2296732D01*
X4279043Y2298523D01*
X4278150Y2300354D01*
X4277457Y2302236D01*
X4276969Y2304173D01*
X4276669Y2306110D01*
X4276575Y2308071D01*
X4276650Y2309819D01*
X4276878Y2311543D01*
X4277280Y2313283D01*
X4277815Y2314956D01*
X4278520Y2316598D01*
X4279354Y2318157D01*
X4279835Y2318917D01*
X4280358Y2319669D01*
X4281449Y2321051D01*
X4282158Y2321803D01*
X4282906Y2322531D01*
X4283697Y2323224D01*
X4284520Y2323862D01*
X4285370Y2324464D01*
X4286240Y2325016D01*
X4288079Y2325976D01*
X4289055Y2326386D01*
X4290055Y2326756D01*
X4291075Y2327059D01*
X4292099Y2327307D01*
X4293118Y2327512D01*
X4294158Y2327642D01*
X4295209Y2327728D01*
X4296260Y2327756D01*
Y2652559D01*
X4295295Y2652579D01*
X4294331Y2652653D01*
X4292417Y2652933D01*
X4290484Y2653417D01*
X4288693Y2654063D01*
X4286890Y2654929D01*
X4285165Y2655972D01*
X4283599Y2657165D01*
X4282185Y2658468D01*
X4280843Y2660004D01*
X4279693Y2661610D01*
X4278713Y2663323D01*
X4278295Y2664205D01*
X4277929Y2665082D01*
X4277606Y2665961D01*
X4277331Y2666838D01*
X4276906Y2668646D01*
X4276650Y2670492D01*
X4276575Y2672244D01*
X4276650Y2674039D01*
X4276906Y2675858D01*
X4277331Y2677642D01*
X4277886Y2679319D01*
X4278665Y2681075D01*
X4279126Y2681929D01*
X4279634Y2682775D01*
X4280158Y2683559D01*
X4280713Y2684311D01*
X4281937Y2685744D01*
X4282646Y2686468D01*
X4283394Y2687146D01*
X4284154Y2687768D01*
X4284967Y2688368D01*
X4285791Y2688917D01*
X4286642Y2689417D01*
X4287516Y2689874D01*
X4288413Y2690303D01*
X4289346Y2690673D01*
X4290288Y2691000D01*
X4291260Y2691279D01*
X4292240Y2691516D01*
X4293232Y2691693D01*
X4294225Y2691823D01*
X4295244Y2691901D01*
X4296260Y2691929D01*
X4819882D01*
Y2288386D01*
D02*
G37*
G36*
Y2957677D02*
X4296260D01*
X4294461Y2957760D01*
X4292697Y2958004D01*
X4290961Y2958405D01*
X4289248Y2958972D01*
X4287575Y2959693D01*
X4285980Y2960567D01*
X4284496Y2961579D01*
X4283110Y2962716D01*
X4282295Y2963488D01*
X4281533Y2964293D01*
X4280158Y2966023D01*
X4279043Y2967815D01*
X4278150Y2969646D01*
X4277457Y2971527D01*
X4276969Y2973464D01*
X4276669Y2975401D01*
X4276575Y2977362D01*
X4276650Y2979110D01*
X4276878Y2980834D01*
X4277280Y2982575D01*
X4277815Y2984248D01*
X4278520Y2985890D01*
X4279354Y2987449D01*
X4279835Y2988209D01*
X4280358Y2988960D01*
X4281449Y2990342D01*
X4282158Y2991094D01*
X4282906Y2991823D01*
X4283697Y2992516D01*
X4284520Y2993153D01*
X4285370Y2993756D01*
X4286240Y2994307D01*
X4288079Y2995267D01*
X4289055Y2995677D01*
X4290055Y2996047D01*
X4291075Y2996350D01*
X4292099Y2996598D01*
X4293118Y2996803D01*
X4294158Y2996933D01*
X4295209Y2997019D01*
X4296260Y2997047D01*
Y3321850D01*
X4295295Y3321870D01*
X4294331Y3321945D01*
X4292417Y3322224D01*
X4290484Y3322709D01*
X4288693Y3323354D01*
X4286890Y3324220D01*
X4285165Y3325264D01*
X4283599Y3326456D01*
X4282185Y3327760D01*
X4280843Y3329295D01*
X4279693Y3330901D01*
X4278713Y3332614D01*
X4278295Y3333496D01*
X4277929Y3334374D01*
X4277606Y3335252D01*
X4277331Y3336130D01*
X4276906Y3337937D01*
X4276650Y3339783D01*
X4276575Y3341535D01*
X4276650Y3343331D01*
X4276906Y3345149D01*
X4277331Y3346933D01*
X4277886Y3348610D01*
X4278665Y3350366D01*
X4279126Y3351220D01*
X4279634Y3352067D01*
X4280158Y3352850D01*
X4280713Y3353602D01*
X4281937Y3355035D01*
X4282646Y3355760D01*
X4283394Y3356437D01*
X4284154Y3357059D01*
X4284967Y3357659D01*
X4285791Y3358209D01*
X4286642Y3358709D01*
X4287516Y3359165D01*
X4288413Y3359594D01*
X4289346Y3359964D01*
X4290288Y3360291D01*
X4291260Y3360571D01*
X4292240Y3360807D01*
X4293232Y3360984D01*
X4294225Y3361114D01*
X4295244Y3361193D01*
X4296260Y3361220D01*
X4819882D01*
Y2957677D01*
D02*
G37*
G36*
Y3626968D02*
X4296260D01*
X4294461Y3627051D01*
X4292697Y3627295D01*
X4290961Y3627697D01*
X4289248Y3628264D01*
X4287575Y3628984D01*
X4285980Y3629858D01*
X4284496Y3630870D01*
X4283110Y3632008D01*
X4282295Y3632779D01*
X4281533Y3633584D01*
X4280158Y3635315D01*
X4279043Y3637106D01*
X4278150Y3638937D01*
X4277457Y3640819D01*
X4276969Y3642756D01*
X4276669Y3644693D01*
X4276575Y3646653D01*
X4276650Y3648401D01*
X4276878Y3650126D01*
X4277280Y3651866D01*
X4277815Y3653539D01*
X4278520Y3655181D01*
X4279354Y3656740D01*
X4279835Y3657500D01*
X4280358Y3658252D01*
X4281449Y3659634D01*
X4282158Y3660386D01*
X4282906Y3661114D01*
X4283697Y3661807D01*
X4284520Y3662445D01*
X4285370Y3663047D01*
X4286240Y3663598D01*
X4288079Y3664559D01*
X4289055Y3664968D01*
X4290055Y3665338D01*
X4291075Y3665642D01*
X4292099Y3665890D01*
X4293118Y3666094D01*
X4294158Y3666224D01*
X4295209Y3666311D01*
X4296260Y3666338D01*
Y3991142D01*
X4295295Y3991161D01*
X4294331Y3991236D01*
X4292417Y3991516D01*
X4290484Y3992000D01*
X4288693Y3992646D01*
X4286890Y3993512D01*
X4285165Y3994555D01*
X4283599Y3995748D01*
X4282185Y3997051D01*
X4280843Y3998586D01*
X4279693Y4000193D01*
X4278713Y4001905D01*
X4278295Y4002787D01*
X4277929Y4003665D01*
X4277606Y4004543D01*
X4277331Y4005421D01*
X4276906Y4007228D01*
X4276650Y4009075D01*
X4276575Y4010827D01*
X4276650Y4012622D01*
X4276906Y4014441D01*
X4277331Y4016224D01*
X4277886Y4017901D01*
X4278665Y4019657D01*
X4279126Y4020512D01*
X4279634Y4021358D01*
X4280158Y4022142D01*
X4280713Y4022894D01*
X4281937Y4024327D01*
X4282646Y4025051D01*
X4283394Y4025728D01*
X4284154Y4026350D01*
X4284967Y4026951D01*
X4285791Y4027500D01*
X4286642Y4028000D01*
X4287516Y4028457D01*
X4288413Y4028886D01*
X4289346Y4029256D01*
X4290288Y4029582D01*
X4291260Y4029862D01*
X4292240Y4030098D01*
X4293232Y4030276D01*
X4294225Y4030405D01*
X4295244Y4030484D01*
X4296260Y4030512D01*
X4819882D01*
Y3626968D01*
D02*
G37*
D122*
X0Y0D02*
Y4804724D01*
X2166929D01*
Y4385827D01*
X2650394D01*
Y4804724D01*
X4814961D01*
Y0D01*
X2649606D01*
X2647638Y1968D01*
Y415354D01*
X2163386D01*
Y0D01*
X0D01*
%TF.MD5,9d980b35bdf8630bc44d4f692352fd19*%
M02*
