%TF.GenerationSoftware,Altium Limited,Altium Designer,19.1.9 (167)*%
G04 Layer_Color=16711935*
%FSLAX26Y26*%
%MOIN*%
%TF.FileFunction,Soldermask,Bot*%
%TF.Part,Single*%
G01*
G75*
%TA.AperFunction,SMDPad,CuDef*%
%ADD74R,0.090551X0.110236*%
%ADD75R,0.027559X0.043307*%
%ADD76O,0.078740X0.027559*%
%ADD77R,0.070866X0.066929*%
%ADD78R,0.027559X0.041339*%
%ADD79R,0.041339X0.027559*%
%ADD80R,0.092520X0.047244*%
%ADD81R,0.090551X0.125984*%
%ADD82R,0.052756X0.059055*%
%ADD83R,0.124016X0.084252*%
%ADD84R,0.043307X0.094488*%
%ADD85R,0.055118X0.074803*%
%ADD86R,0.055118X0.059055*%
%ADD87O,0.090551X0.027559*%
%ADD88R,0.059055X0.055118*%
%ADD89R,0.074803X0.055118*%
%ADD90O,0.027559X0.078740*%
%ADD91R,0.157480X0.066929*%
%ADD92R,0.049213X0.057087*%
%ADD93R,0.068898X0.051181*%
%ADD94R,0.057087X0.049213*%
G04:AMPARAMS|DCode=95|XSize=21.654mil|YSize=57.087mil|CornerRadius=3.917mil|HoleSize=0mil|Usage=FLASHONLY|Rotation=90.000|XOffset=0mil|YOffset=0mil|HoleType=Round|Shape=RoundedRectangle|*
%AMROUNDEDRECTD95*
21,1,0.021654,0.049252,0,0,90.0*
21,1,0.013819,0.057087,0,0,90.0*
1,1,0.007835,0.024626,0.006910*
1,1,0.007835,0.024626,-0.006910*
1,1,0.007835,-0.024626,-0.006910*
1,1,0.007835,-0.024626,0.006910*
%
%ADD95ROUNDEDRECTD95*%
%TA.AperFunction,ComponentPad*%
%ADD96C,0.039370*%
%ADD97C,0.051181*%
%ADD98O,0.082677X0.122047*%
%ADD99O,0.062992X0.051181*%
%ADD100R,0.122047X0.062992*%
%ADD101C,0.059055*%
%ADD102R,0.062992X0.141732*%
%ADD103R,0.062992X0.114173*%
%ADD104R,0.086614X0.086614*%
%ADD105C,0.086614*%
%ADD106O,0.122047X0.082677*%
%TA.AperFunction,ViaPad*%
%ADD107C,0.150000*%
%ADD108R,0.086614X0.086614*%
%ADD109C,0.086614*%
%ADD110C,0.027559*%
%ADD111C,0.053937*%
G36*
X1211403Y3810821D02*
X1182261D01*
Y3853743D01*
X1211403D01*
Y3810821D01*
D02*
G37*
G36*
X1175973D02*
X1146831D01*
Y3853743D01*
X1175973D01*
Y3810821D01*
D02*
G37*
G36*
X1140543D02*
X1111401D01*
Y3853743D01*
X1140543D01*
Y3810821D01*
D02*
G37*
G36*
X1105113D02*
X1075971D01*
Y3853743D01*
X1105113D01*
Y3810821D01*
D02*
G37*
G36*
X1069683D02*
X1040541D01*
Y3853743D01*
X1069683D01*
Y3810821D01*
D02*
G37*
G36*
X1034253D02*
X1005111D01*
Y3853743D01*
X1034253D01*
Y3810821D01*
D02*
G37*
G36*
X998823D02*
X969681D01*
Y3853743D01*
X998823D01*
Y3810821D01*
D02*
G37*
G36*
X963393D02*
X934251D01*
Y3853743D01*
X963393D01*
Y3810821D01*
D02*
G37*
G36*
X927963D02*
X898821D01*
Y3853743D01*
X927963D01*
Y3810821D01*
D02*
G37*
G36*
X1290156Y3785428D02*
X1217706D01*
Y3853940D01*
X1290156D01*
Y3785428D01*
D02*
G37*
G36*
X892518D02*
X820068D01*
Y3853940D01*
X892518D01*
Y3785428D01*
D02*
G37*
G36*
X1290155Y3749986D02*
X1247234D01*
Y3779128D01*
X1290155D01*
Y3749986D01*
D02*
G37*
G36*
X862990D02*
X820069D01*
Y3779128D01*
X862990D01*
Y3749986D01*
D02*
G37*
G36*
X1290155Y3714556D02*
X1247234D01*
Y3743698D01*
X1290155D01*
Y3714556D01*
D02*
G37*
G36*
X862990D02*
X820069D01*
Y3743698D01*
X862990D01*
Y3714556D01*
D02*
G37*
G36*
X1290155Y3679126D02*
X1247234D01*
Y3708268D01*
X1290155D01*
Y3679126D01*
D02*
G37*
G36*
X862990D02*
X820069D01*
Y3708268D01*
X862990D01*
Y3679126D01*
D02*
G37*
G36*
X1290155Y3643696D02*
X1247234D01*
Y3672838D01*
X1290155D01*
Y3643696D01*
D02*
G37*
G36*
X862990D02*
X820069D01*
Y3672838D01*
X862990D01*
Y3643696D01*
D02*
G37*
G36*
X1290155Y3608266D02*
X1247234D01*
Y3637408D01*
X1290155D01*
Y3608266D01*
D02*
G37*
G36*
X862990D02*
X820069D01*
Y3637408D01*
X862990D01*
Y3608266D01*
D02*
G37*
G36*
X1290155Y3572836D02*
X1247234D01*
Y3601978D01*
X1290155D01*
Y3572836D01*
D02*
G37*
G36*
X862990D02*
X820069D01*
Y3601978D01*
X862990D01*
Y3572836D01*
D02*
G37*
G36*
X1290155Y3537406D02*
X1247234D01*
Y3566548D01*
X1290155D01*
Y3537406D01*
D02*
G37*
G36*
X862990D02*
X820069D01*
Y3566548D01*
X862990D01*
Y3537406D01*
D02*
G37*
G36*
X1211403Y3462791D02*
X1182261D01*
Y3505713D01*
X1211403D01*
Y3462791D01*
D02*
G37*
G36*
X1175973D02*
X1146831D01*
Y3505713D01*
X1175973D01*
Y3462791D01*
D02*
G37*
G36*
X1140543D02*
X1111401D01*
Y3505713D01*
X1140543D01*
Y3462791D01*
D02*
G37*
G36*
X1105113D02*
X1075971D01*
Y3505713D01*
X1105113D01*
Y3462791D01*
D02*
G37*
G36*
X1069683D02*
X1040541D01*
Y3505713D01*
X1069683D01*
Y3462791D01*
D02*
G37*
G36*
X1034253D02*
X1005111D01*
Y3505713D01*
X1034253D01*
Y3462791D01*
D02*
G37*
G36*
X998823D02*
X969681D01*
Y3505713D01*
X998823D01*
Y3462791D01*
D02*
G37*
G36*
X963393D02*
X934251D01*
Y3505713D01*
X963393D01*
Y3462791D01*
D02*
G37*
G36*
X927963D02*
X898821D01*
Y3505713D01*
X927963D01*
Y3462791D01*
D02*
G37*
G36*
X1290156Y3462593D02*
X1217706D01*
Y3531106D01*
X1290156D01*
Y3462593D01*
D02*
G37*
G36*
X892518D02*
X820068D01*
Y3531106D01*
X892518D01*
Y3462593D01*
D02*
G37*
G36*
X3863968Y1513386D02*
X3834826D01*
Y1556307D01*
X3863968D01*
Y1513386D01*
D02*
G37*
G36*
X3828538D02*
X3799396D01*
Y1556307D01*
X3828538D01*
Y1513386D01*
D02*
G37*
G36*
X3793108D02*
X3763966D01*
Y1556307D01*
X3793108D01*
Y1513386D01*
D02*
G37*
G36*
X3757678D02*
X3728536D01*
Y1556307D01*
X3757678D01*
Y1513386D01*
D02*
G37*
G36*
X3722248D02*
X3693106D01*
Y1556307D01*
X3722248D01*
Y1513386D01*
D02*
G37*
G36*
X3686818D02*
X3657676D01*
Y1556307D01*
X3686818D01*
Y1513386D01*
D02*
G37*
G36*
X3651388D02*
X3622246D01*
Y1556307D01*
X3651388D01*
Y1513386D01*
D02*
G37*
G36*
X3615958D02*
X3586816D01*
Y1556307D01*
X3615958D01*
Y1513386D01*
D02*
G37*
G36*
X3580528D02*
X3551386D01*
Y1556307D01*
X3580528D01*
Y1513386D01*
D02*
G37*
G36*
X3942721Y1487993D02*
X3870271D01*
Y1556505D01*
X3942721D01*
Y1487993D01*
D02*
G37*
G36*
X3545083D02*
X3472634D01*
Y1556505D01*
X3545083D01*
Y1487993D01*
D02*
G37*
G36*
X3942721Y1452551D02*
X3899799D01*
Y1481693D01*
X3942721D01*
Y1452551D01*
D02*
G37*
G36*
X3515555D02*
X3472634D01*
Y1481693D01*
X3515555D01*
Y1452551D01*
D02*
G37*
G36*
X3942721Y1417121D02*
X3899799D01*
Y1446263D01*
X3942721D01*
Y1417121D01*
D02*
G37*
G36*
X3515555D02*
X3472634D01*
Y1446263D01*
X3515555D01*
Y1417121D01*
D02*
G37*
G36*
X3942721Y1381691D02*
X3899799D01*
Y1410833D01*
X3942721D01*
Y1381691D01*
D02*
G37*
G36*
X3515555D02*
X3472634D01*
Y1410833D01*
X3515555D01*
Y1381691D01*
D02*
G37*
G36*
X3942721Y1346261D02*
X3899799D01*
Y1375403D01*
X3942721D01*
Y1346261D01*
D02*
G37*
G36*
X3515555D02*
X3472634D01*
Y1375403D01*
X3515555D01*
Y1346261D01*
D02*
G37*
G36*
X3942721Y1310831D02*
X3899799D01*
Y1339973D01*
X3942721D01*
Y1310831D01*
D02*
G37*
G36*
X3515555D02*
X3472634D01*
Y1339973D01*
X3515555D01*
Y1310831D01*
D02*
G37*
G36*
X3942721Y1275401D02*
X3899799D01*
Y1304543D01*
X3942721D01*
Y1275401D01*
D02*
G37*
G36*
X3515555D02*
X3472634D01*
Y1304543D01*
X3515555D01*
Y1275401D01*
D02*
G37*
G36*
X3942721Y1239971D02*
X3899799D01*
Y1269113D01*
X3942721D01*
Y1239971D01*
D02*
G37*
G36*
X3515555D02*
X3472634D01*
Y1269113D01*
X3515555D01*
Y1239971D01*
D02*
G37*
G36*
X3863968Y1165356D02*
X3834826D01*
Y1208277D01*
X3863968D01*
Y1165356D01*
D02*
G37*
G36*
X3828538D02*
X3799396D01*
Y1208277D01*
X3828538D01*
Y1165356D01*
D02*
G37*
G36*
X3793108D02*
X3763966D01*
Y1208277D01*
X3793108D01*
Y1165356D01*
D02*
G37*
G36*
X3757678D02*
X3728536D01*
Y1208277D01*
X3757678D01*
Y1165356D01*
D02*
G37*
G36*
X3722248D02*
X3693106D01*
Y1208277D01*
X3722248D01*
Y1165356D01*
D02*
G37*
G36*
X3686818D02*
X3657676D01*
Y1208277D01*
X3686818D01*
Y1165356D01*
D02*
G37*
G36*
X3651388D02*
X3622246D01*
Y1208277D01*
X3651388D01*
Y1165356D01*
D02*
G37*
G36*
X3615958D02*
X3586816D01*
Y1208277D01*
X3615958D01*
Y1165356D01*
D02*
G37*
G36*
X3580528D02*
X3551386D01*
Y1208277D01*
X3580528D01*
Y1165356D01*
D02*
G37*
G36*
X3942721Y1165158D02*
X3870271D01*
Y1233670D01*
X3942721D01*
Y1165158D01*
D02*
G37*
G36*
X3545083D02*
X3472634D01*
Y1233670D01*
X3545083D01*
Y1165158D01*
D02*
G37*
D74*
X3090551Y805118D02*
D03*
Y1005905D02*
D03*
D75*
X3427165Y634842D02*
D03*
X3464567D02*
D03*
X3501968D02*
D03*
Y743110D02*
D03*
X3464567D02*
D03*
X3427165D02*
D03*
D76*
X2688977Y3533661D02*
D03*
Y3583661D02*
D03*
Y3633661D02*
D03*
Y3683661D02*
D03*
Y3733661D02*
D03*
Y3783661D02*
D03*
Y3833661D02*
D03*
Y3883661D02*
D03*
X3059055Y3533661D02*
D03*
Y3583661D02*
D03*
Y3633661D02*
D03*
Y3683661D02*
D03*
Y3733661D02*
D03*
Y3783661D02*
D03*
Y3833661D02*
D03*
Y3883661D02*
D03*
X3131496Y3147638D02*
D03*
Y3097638D02*
D03*
Y3047638D02*
D03*
Y2997638D02*
D03*
Y2947638D02*
D03*
Y2897638D02*
D03*
Y2847638D02*
D03*
Y2797638D02*
D03*
X2761418Y3147638D02*
D03*
Y3097638D02*
D03*
Y3047638D02*
D03*
Y2997638D02*
D03*
Y2947638D02*
D03*
Y2897638D02*
D03*
Y2847638D02*
D03*
Y2797638D02*
D03*
X1248032Y1474213D02*
D03*
Y1424213D02*
D03*
Y1374213D02*
D03*
Y1324213D02*
D03*
Y1274213D02*
D03*
Y1224213D02*
D03*
Y1174213D02*
D03*
Y1124213D02*
D03*
X877953Y1474213D02*
D03*
Y1424213D02*
D03*
Y1374213D02*
D03*
Y1324213D02*
D03*
Y1274213D02*
D03*
Y1224213D02*
D03*
Y1174213D02*
D03*
Y1124213D02*
D03*
X2047244Y3657087D02*
D03*
Y3607087D02*
D03*
Y3557087D02*
D03*
Y3507087D02*
D03*
Y3457087D02*
D03*
Y3407087D02*
D03*
Y3357087D02*
D03*
Y3307087D02*
D03*
X1677165Y3657087D02*
D03*
Y3607087D02*
D03*
Y3557087D02*
D03*
Y3507087D02*
D03*
Y3457087D02*
D03*
Y3407087D02*
D03*
Y3357087D02*
D03*
Y3307087D02*
D03*
X2722047Y2114764D02*
D03*
Y2164764D02*
D03*
Y2214764D02*
D03*
Y2264764D02*
D03*
Y2314764D02*
D03*
Y2364764D02*
D03*
Y2414764D02*
D03*
Y2464764D02*
D03*
X3092126Y2114764D02*
D03*
Y2164764D02*
D03*
Y2214764D02*
D03*
Y2264764D02*
D03*
Y2314764D02*
D03*
Y2364764D02*
D03*
Y2414764D02*
D03*
Y2464764D02*
D03*
X1248032Y1926968D02*
D03*
Y1876968D02*
D03*
Y1826968D02*
D03*
Y1776968D02*
D03*
Y1726968D02*
D03*
Y1676968D02*
D03*
Y1626968D02*
D03*
Y1576968D02*
D03*
X877953Y1926968D02*
D03*
Y1876968D02*
D03*
Y1826968D02*
D03*
Y1776968D02*
D03*
Y1726968D02*
D03*
Y1676968D02*
D03*
Y1626968D02*
D03*
Y1576968D02*
D03*
X2812599Y1536024D02*
D03*
Y1586024D02*
D03*
Y1636024D02*
D03*
Y1686024D02*
D03*
Y1736024D02*
D03*
Y1786024D02*
D03*
Y1836024D02*
D03*
Y1886024D02*
D03*
X3182677Y1536024D02*
D03*
Y1586024D02*
D03*
Y1636024D02*
D03*
Y1686024D02*
D03*
Y1736024D02*
D03*
Y1786024D02*
D03*
Y1836024D02*
D03*
Y1886024D02*
D03*
X1267716Y2419095D02*
D03*
Y2369095D02*
D03*
Y2319095D02*
D03*
Y2269095D02*
D03*
Y2219095D02*
D03*
Y2169095D02*
D03*
Y2119095D02*
D03*
Y2069095D02*
D03*
X897638Y2419095D02*
D03*
Y2369095D02*
D03*
Y2319095D02*
D03*
Y2269095D02*
D03*
Y2219095D02*
D03*
Y2169095D02*
D03*
Y2119095D02*
D03*
Y2069095D02*
D03*
D77*
X856293Y3819684D02*
D03*
X1253931D02*
D03*
Y3496850D02*
D03*
X856293D02*
D03*
X3508858Y1522249D02*
D03*
X3906496D02*
D03*
Y1199414D02*
D03*
X3508858D02*
D03*
D78*
X913392Y3832282D02*
D03*
X948822D02*
D03*
X984252D02*
D03*
X1019682D02*
D03*
X1055112D02*
D03*
X1090542D02*
D03*
X1125972D02*
D03*
X1161402D02*
D03*
X1196832D02*
D03*
Y3484252D02*
D03*
X1161402D02*
D03*
X1125972D02*
D03*
X1090542D02*
D03*
X1055112D02*
D03*
X1019682D02*
D03*
X984252D02*
D03*
X948822D02*
D03*
X913392D02*
D03*
X3565957Y1534847D02*
D03*
X3601387D02*
D03*
X3636817D02*
D03*
X3672247D02*
D03*
X3707677D02*
D03*
X3743107D02*
D03*
X3778537D02*
D03*
X3813967D02*
D03*
X3849397D02*
D03*
Y1186817D02*
D03*
X3813967D02*
D03*
X3778537D02*
D03*
X3743107D02*
D03*
X3707677D02*
D03*
X3672247D02*
D03*
X3636817D02*
D03*
X3601387D02*
D03*
X3565957D02*
D03*
D79*
X1268695Y3764557D02*
D03*
Y3729127D02*
D03*
Y3693697D02*
D03*
Y3658267D02*
D03*
Y3622837D02*
D03*
Y3587407D02*
D03*
Y3551977D02*
D03*
X841529D02*
D03*
Y3587407D02*
D03*
Y3622837D02*
D03*
Y3658267D02*
D03*
Y3693697D02*
D03*
Y3729127D02*
D03*
Y3764557D02*
D03*
X3921260Y1467122D02*
D03*
Y1431692D02*
D03*
Y1396262D02*
D03*
Y1360832D02*
D03*
Y1325402D02*
D03*
Y1289972D02*
D03*
Y1254542D02*
D03*
X3494095D02*
D03*
Y1289972D02*
D03*
Y1325402D02*
D03*
Y1360832D02*
D03*
Y1396262D02*
D03*
Y1431692D02*
D03*
Y1467122D02*
D03*
D80*
X922238Y3663577D02*
D03*
X3574803Y1366142D02*
D03*
D81*
X1056490Y3705314D02*
D03*
X1193500D02*
D03*
X3709055Y1407879D02*
D03*
X3846065D02*
D03*
D82*
X1212002Y3562794D02*
D03*
X3864567Y1265359D02*
D03*
D83*
X1104128Y3550196D02*
D03*
X3756693Y1252761D02*
D03*
D84*
X3193701Y4090551D02*
D03*
X3093701D02*
D03*
X2893701D02*
D03*
Y4460630D02*
D03*
X3193701D02*
D03*
D85*
X3525591Y4374016D02*
D03*
X3411417D02*
D03*
X860236Y3318898D02*
D03*
X746063D02*
D03*
X2687008Y4314961D02*
D03*
X2572835D02*
D03*
X3761811Y1007874D02*
D03*
X3875984D02*
D03*
X3336614Y1598425D02*
D03*
X3450787D02*
D03*
X3336614Y1700787D02*
D03*
X3450787D02*
D03*
X860236Y3204724D02*
D03*
X746063D02*
D03*
X1273622Y3311024D02*
D03*
X1159449D02*
D03*
X1521654Y3551181D02*
D03*
X1407480D02*
D03*
X3423228Y925197D02*
D03*
X3309055D02*
D03*
X3421260Y1027559D02*
D03*
X3307087D02*
D03*
D86*
X3192913Y3956693D02*
D03*
X3129921D02*
D03*
X1051181Y2783465D02*
D03*
X988189D02*
D03*
X1476378Y4562992D02*
D03*
X1413386D02*
D03*
X3574803Y952756D02*
D03*
X3637795D02*
D03*
X3107874Y3250394D02*
D03*
X3044882D02*
D03*
X779528Y1606299D02*
D03*
X716535D02*
D03*
X2704724Y2559055D02*
D03*
X2767717D02*
D03*
X1876968Y2970472D02*
D03*
X1939961D02*
D03*
X1252953Y1048228D02*
D03*
X1315945D02*
D03*
X3350394Y610236D02*
D03*
X3287402D02*
D03*
D87*
X4216535Y338386D02*
D03*
Y388386D02*
D03*
Y438386D02*
D03*
Y488386D02*
D03*
X4405512Y338386D02*
D03*
Y388386D02*
D03*
Y438386D02*
D03*
Y488386D02*
D03*
D88*
X1224409Y2842520D02*
D03*
Y2905512D02*
D03*
X1240158Y4440945D02*
D03*
Y4503937D02*
D03*
X846457Y2787401D02*
D03*
Y2850394D02*
D03*
X1618110Y4496063D02*
D03*
Y4559055D02*
D03*
X1574803Y3299213D02*
D03*
Y3236220D02*
D03*
X1397638Y2377953D02*
D03*
Y2440945D02*
D03*
X2086614Y3228346D02*
D03*
Y3165354D02*
D03*
X3241732Y2478740D02*
D03*
Y2415748D02*
D03*
X728346Y2066929D02*
D03*
Y2129921D02*
D03*
X1358268Y1555118D02*
D03*
Y1492126D02*
D03*
X3271654Y1940945D02*
D03*
Y1877953D02*
D03*
X748032Y1051181D02*
D03*
Y1114173D02*
D03*
X2688976Y3220472D02*
D03*
Y3283465D02*
D03*
X2704724Y4102362D02*
D03*
Y4039370D02*
D03*
X3673228Y598425D02*
D03*
Y661417D02*
D03*
X2728347Y1551181D02*
D03*
Y1488189D02*
D03*
D89*
X4007874Y1076772D02*
D03*
Y1190945D02*
D03*
X4090551Y1568898D02*
D03*
Y1454724D02*
D03*
X3913386Y1730315D02*
D03*
Y1616142D02*
D03*
X1405512Y3781496D02*
D03*
Y3667323D02*
D03*
X1598425Y3844488D02*
D03*
Y3730315D02*
D03*
X1500000Y3781496D02*
D03*
Y3667323D02*
D03*
X3673228Y860236D02*
D03*
Y746063D02*
D03*
X3574803Y864173D02*
D03*
Y750000D02*
D03*
D90*
X1437402Y3000000D02*
D03*
X1487402D02*
D03*
X1537402D02*
D03*
X1587402D02*
D03*
X1637402D02*
D03*
X1687402D02*
D03*
X1737402D02*
D03*
X1787402D02*
D03*
X1437402Y2629921D02*
D03*
X1487402D02*
D03*
X1537402D02*
D03*
X1587402D02*
D03*
X1637402D02*
D03*
X1687402D02*
D03*
X1737402D02*
D03*
X1787402D02*
D03*
D91*
X3433071Y4242126D02*
D03*
Y4127953D02*
D03*
D92*
X3560039Y1114173D02*
D03*
X3628937D02*
D03*
X3575787Y1035433D02*
D03*
X3644685D02*
D03*
X3351378Y1421260D02*
D03*
X3420276D02*
D03*
X3351378Y1507874D02*
D03*
X3420276D02*
D03*
X997047Y3318898D02*
D03*
X1065945D02*
D03*
X3283465Y486221D02*
D03*
X3352362D02*
D03*
D93*
X3385827Y1291339D02*
D03*
Y1181102D02*
D03*
D94*
X755906Y3475394D02*
D03*
Y3406496D02*
D03*
X748032Y3764764D02*
D03*
Y3833661D02*
D03*
X3200787Y611221D02*
D03*
Y680118D02*
D03*
D95*
X936024Y2959646D02*
D03*
X1111220D02*
D03*
Y2934055D02*
D03*
Y2908465D02*
D03*
Y2882874D02*
D03*
X936024Y2934055D02*
D03*
Y2908465D02*
D03*
Y2882874D02*
D03*
X1528543Y4386811D02*
D03*
X1353347D02*
D03*
Y4412402D02*
D03*
Y4437992D02*
D03*
Y4463583D02*
D03*
X1528543Y4412402D02*
D03*
Y4437992D02*
D03*
Y4463583D02*
D03*
D96*
X907243Y800898D02*
D03*
X1174960D02*
D03*
X2915638Y919054D02*
D03*
Y651337D02*
D03*
D97*
X1989764Y1317323D02*
D03*
X1889764D02*
D03*
X1789764D02*
D03*
X1666339Y797244D02*
D03*
X1528543D02*
D03*
X4019685Y673228D02*
D03*
X3881890D02*
D03*
X2992126Y1379528D02*
D03*
X2892126D02*
D03*
X2792126D02*
D03*
X1789764Y4368504D02*
D03*
X1889764D02*
D03*
X1989764D02*
D03*
X1789764Y3758268D02*
D03*
X1889764D02*
D03*
X1989764D02*
D03*
X1789764Y3148031D02*
D03*
X1889764D02*
D03*
X1989764D02*
D03*
X1789764Y2537795D02*
D03*
X1889764D02*
D03*
X1989764D02*
D03*
X2992126Y2678110D02*
D03*
X2892126D02*
D03*
X2792126D02*
D03*
X1799606Y1907874D02*
D03*
X1899606D02*
D03*
X1999606D02*
D03*
X2992126Y3976693D02*
D03*
X2892126D02*
D03*
X2792126D02*
D03*
X2992126Y2028819D02*
D03*
X2892126D02*
D03*
X2792126D02*
D03*
X2992126Y3327402D02*
D03*
X2892126D02*
D03*
X2792126D02*
D03*
X2992126Y4625984D02*
D03*
X2892126D02*
D03*
X2792126D02*
D03*
D98*
X1994488Y157480D02*
D03*
X1594488D02*
D03*
X1394488D02*
D03*
X2094488D02*
D03*
X1494488D02*
D03*
X1694488D02*
D03*
X1794488D02*
D03*
X1894488D02*
D03*
X928346D02*
D03*
X528346D02*
D03*
X328346D02*
D03*
X1028347D02*
D03*
X428346D02*
D03*
X628346D02*
D03*
X728346D02*
D03*
X828346D02*
D03*
X4511024Y157480D02*
D03*
X4111024D02*
D03*
X3911024D02*
D03*
X4611024D02*
D03*
X4011024D02*
D03*
X4211024D02*
D03*
X4311024D02*
D03*
X4411024D02*
D03*
X3526772D02*
D03*
X3126772D02*
D03*
X2926772D02*
D03*
X3626772D02*
D03*
X3026772D02*
D03*
X3226772D02*
D03*
X3326772D02*
D03*
X3426772D02*
D03*
D99*
X4365354Y4281496D02*
D03*
X4436221D02*
D03*
X4745276D02*
D03*
X4586614D02*
D03*
Y4746063D02*
D03*
X4745276D02*
D03*
X4463780D02*
D03*
X4365354D02*
D03*
X441929Y4251968D02*
D03*
X343504D02*
D03*
X62008D02*
D03*
X220669D02*
D03*
Y4716535D02*
D03*
X62008D02*
D03*
X371063D02*
D03*
X441929D02*
D03*
X437992Y3590551D02*
D03*
X339567D02*
D03*
X58071D02*
D03*
X216732D02*
D03*
Y4055118D02*
D03*
X58071D02*
D03*
X367126D02*
D03*
X437992D02*
D03*
Y2913386D02*
D03*
X339567D02*
D03*
X58071D02*
D03*
X216732D02*
D03*
Y3377953D02*
D03*
X58071D02*
D03*
X367126D02*
D03*
X437992D02*
D03*
Y2224410D02*
D03*
X339567D02*
D03*
X58071D02*
D03*
X216732D02*
D03*
Y2688977D02*
D03*
X58071D02*
D03*
X367126D02*
D03*
X437992D02*
D03*
Y1535433D02*
D03*
X339567D02*
D03*
X58071D02*
D03*
X216732D02*
D03*
Y2000000D02*
D03*
X58071D02*
D03*
X367126D02*
D03*
X437992D02*
D03*
Y846457D02*
D03*
X339567D02*
D03*
X58071D02*
D03*
X216732D02*
D03*
Y1311024D02*
D03*
X58071D02*
D03*
X367126D02*
D03*
X437992D02*
D03*
X4361220Y1444882D02*
D03*
X4459646D02*
D03*
X4741142D02*
D03*
X4582480D02*
D03*
Y980315D02*
D03*
X4741142D02*
D03*
X4432087D02*
D03*
X4361220D02*
D03*
X4367126Y2053149D02*
D03*
X4465551D02*
D03*
X4747047D02*
D03*
X4588386D02*
D03*
Y1588582D02*
D03*
X4747047D02*
D03*
X4437992D02*
D03*
X4367126D02*
D03*
Y2257874D02*
D03*
X4437992D02*
D03*
X4747047D02*
D03*
X4588386D02*
D03*
Y2722441D02*
D03*
X4747047D02*
D03*
X4465551D02*
D03*
X4367126D02*
D03*
Y2927165D02*
D03*
X4437992D02*
D03*
X4747047D02*
D03*
X4588386D02*
D03*
Y3391732D02*
D03*
X4747047D02*
D03*
X4465551D02*
D03*
X4367126D02*
D03*
Y3596456D02*
D03*
X4437992D02*
D03*
X4747047D02*
D03*
X4588386D02*
D03*
Y4061023D02*
D03*
X4747047D02*
D03*
X4465551D02*
D03*
X4367126D02*
D03*
D100*
X4606299Y452756D02*
D03*
Y807087D02*
D03*
D101*
X4685039Y629921D02*
D03*
D102*
X4330709D02*
D03*
D103*
X4566929D02*
D03*
D104*
X2559055Y602362D02*
D03*
D105*
X2421260D02*
D03*
X2283465D02*
D03*
D106*
X2539370Y2765354D02*
D03*
Y2365354D02*
D03*
Y2165354D02*
D03*
Y2865354D02*
D03*
Y2265354D02*
D03*
Y2465354D02*
D03*
Y2565354D02*
D03*
Y2665354D02*
D03*
X2244095Y1373228D02*
D03*
Y1773228D02*
D03*
Y1973228D02*
D03*
Y1273228D02*
D03*
Y1873228D02*
D03*
Y1673228D02*
D03*
Y1573228D02*
D03*
Y1473228D02*
D03*
Y3418110D02*
D03*
Y3818110D02*
D03*
Y4018110D02*
D03*
Y3318110D02*
D03*
Y3918110D02*
D03*
Y3718110D02*
D03*
Y3618110D02*
D03*
Y3518110D02*
D03*
X2539370Y1873228D02*
D03*
Y1473228D02*
D03*
Y1273228D02*
D03*
Y1973228D02*
D03*
Y1373228D02*
D03*
Y1573228D02*
D03*
Y1673228D02*
D03*
Y1773228D02*
D03*
X2244095Y2265354D02*
D03*
Y2665354D02*
D03*
Y2865354D02*
D03*
Y2165354D02*
D03*
Y2765354D02*
D03*
Y2565354D02*
D03*
Y2465354D02*
D03*
Y2365354D02*
D03*
X2539370Y4052756D02*
D03*
Y3652756D02*
D03*
Y3452756D02*
D03*
Y4152756D02*
D03*
Y3552756D02*
D03*
Y3752756D02*
D03*
Y3852756D02*
D03*
Y3952756D02*
D03*
D107*
X3775591Y143701D02*
D03*
X1211614D02*
D03*
D108*
X1862204Y807087D02*
D03*
D109*
Y944882D02*
D03*
Y1082677D02*
D03*
D110*
X3707677Y946850D02*
D03*
X1435118Y3061102D02*
D03*
X2839567Y1473425D02*
D03*
X3481496Y1099601D02*
D03*
X1543307Y1446850D02*
D03*
X1237205Y1992126D02*
D03*
X1339567Y1978346D02*
D03*
X1242126Y4504921D02*
D03*
X3249016Y4056102D02*
D03*
X3248032Y3953740D02*
D03*
X3365157Y2124016D02*
D03*
X3347441Y1974409D02*
D03*
X3346457Y1868110D02*
D03*
X1430118Y3203740D02*
D03*
X1513780Y3289370D02*
D03*
X1098534Y1708798D02*
D03*
X1498032Y2446850D02*
D03*
X1437402Y2629921D02*
D03*
X1199803Y2664370D02*
D03*
X1125984Y2687992D02*
D03*
X1881890Y456693D02*
D03*
X1544291D02*
D03*
X1197835Y455709D02*
D03*
X847441Y458661D02*
D03*
X497047Y455709D02*
D03*
X141732Y457677D02*
D03*
X1234252Y4050197D02*
D03*
X1129921Y3981299D02*
D03*
X1543307Y3886811D02*
D03*
X1416795Y3815157D02*
D03*
X3525591Y4374016D02*
D03*
X3994095Y4687008D02*
D03*
X3597441Y4702756D02*
D03*
X4028543Y4062992D02*
D03*
X3468504Y1771653D02*
D03*
X3584646Y1595472D02*
D03*
X3342673Y1583815D02*
D03*
X3359252Y1229331D02*
D03*
X3372047Y1318898D02*
D03*
X2794291Y1428150D02*
D03*
X2917323Y1472441D02*
D03*
X2981299Y1542323D02*
D03*
X3585630Y2293307D02*
D03*
X4141732Y762795D02*
D03*
X3574803Y864173D02*
D03*
X2826772Y882874D02*
D03*
X1338583Y1368110D02*
D03*
X1619094Y1176971D02*
D03*
X1551181Y1366142D02*
D03*
X1921260Y676181D02*
D03*
X3166339Y737205D02*
D03*
X3065866Y703661D02*
D03*
X3201772Y682333D02*
D03*
X3889764Y796260D02*
D03*
X2403543Y1069882D02*
D03*
X3481496Y3166415D02*
D03*
X3360236Y3168307D02*
D03*
X3761811Y1007874D02*
D03*
X1178107Y2476575D02*
D03*
D111*
X1740158Y745079D02*
D03*
X1574055Y744843D02*
D03*
%TF.MD5,2eaa0fc48d8ba3a7b608a22ca9412fcf*%
M02*
