%TF.GenerationSoftware,Altium Limited,Altium Designer,19.1.9 (167)*%
G04 Layer_Color=8421504*
%FSLAX26Y26*%
%MOIN*%
%TF.FileFunction,Paste,Top*%
%TF.Part,Single*%
G01*
G75*
%TA.AperFunction,SMDPad,CuDef*%
%ADD10R,0.062992X0.153543*%
%ADD11R,0.047244X0.055118*%
%ADD12R,0.010787X0.029654*%
%ADD13R,0.047244X0.064961*%
%ADD14R,0.045276X0.053150*%
%ADD15R,0.059843X0.023622*%
%ADD16R,0.031496X0.023622*%
G04:AMPARAMS|DCode=17|XSize=17.716mil|YSize=53.15mil|CornerRadius=1.949mil|HoleSize=0mil|Usage=FLASHONLY|Rotation=270.000|XOffset=0mil|YOffset=0mil|HoleType=Round|Shape=RoundedRectangle|*
%AMROUNDEDRECTD17*
21,1,0.017716,0.049252,0,0,270.0*
21,1,0.013819,0.053150,0,0,270.0*
1,1,0.003898,-0.024626,-0.006910*
1,1,0.003898,-0.024626,0.006910*
1,1,0.003898,0.024626,0.006910*
1,1,0.003898,0.024626,-0.006910*
%
%ADD17ROUNDEDRECTD17*%
%ADD18R,0.059055X0.059055*%
%ADD19R,0.055118X0.051181*%
%ADD20R,0.051181X0.055118*%
%ADD21R,0.055118X0.047244*%
%ADD22R,0.053150X0.045276*%
%ADD23R,0.064961X0.047244*%
%ADD24O,0.086614X0.023622*%
D10*
X2718504Y4165354D02*
D03*
X2832677D02*
D03*
D11*
X942676Y887512D02*
D03*
X1041101Y714283D02*
D03*
X1139527Y887512D02*
D03*
D12*
X1236221Y2999957D02*
D03*
X1255906D02*
D03*
X1275591D02*
D03*
Y2921303D02*
D03*
X1255906D02*
D03*
X1236221D02*
D03*
D13*
X3360630Y4348819D02*
D03*
X3250394D02*
D03*
X3360630Y1102362D02*
D03*
X3250394D02*
D03*
X1421260Y4645669D02*
D03*
X1531496D02*
D03*
X1421260Y4035433D02*
D03*
X1531496D02*
D03*
X1421260Y3425197D02*
D03*
X1531496D02*
D03*
X1421260Y2814961D02*
D03*
X1531496D02*
D03*
X3360630Y2400945D02*
D03*
X3250394D02*
D03*
X1431102Y2185039D02*
D03*
X1541339D02*
D03*
X3360630Y3699528D02*
D03*
X3250394D02*
D03*
X1421260Y1594488D02*
D03*
X1531496D02*
D03*
X4161417Y901575D02*
D03*
X4271654D02*
D03*
X4157480Y3562992D02*
D03*
X4047244D02*
D03*
X2503937Y933071D02*
D03*
X2614173D02*
D03*
X3360630Y1751654D02*
D03*
X3250394D02*
D03*
X3360630Y3050236D02*
D03*
X3250394D02*
D03*
D14*
X3909646Y4335630D02*
D03*
X3840748D02*
D03*
X3748229Y890940D02*
D03*
X3679331D02*
D03*
X966535Y4648622D02*
D03*
X1035433D02*
D03*
X966535Y3994488D02*
D03*
X1035433D02*
D03*
X966535Y3340354D02*
D03*
X1035433D02*
D03*
X966535Y2686221D02*
D03*
X1035433D02*
D03*
X3748229Y2268816D02*
D03*
X3679331D02*
D03*
X966535Y2032087D02*
D03*
X1035433D02*
D03*
X3748229Y3646692D02*
D03*
X3679331D02*
D03*
X966535Y1377953D02*
D03*
X1035433D02*
D03*
X3691142Y1225586D02*
D03*
X3760039D02*
D03*
X954724Y4313976D02*
D03*
X1023622D02*
D03*
X954724Y3659843D02*
D03*
X1023622D02*
D03*
X954724Y3005709D02*
D03*
X1023622D02*
D03*
X954724Y2351575D02*
D03*
X1023622D02*
D03*
X3760039Y2603462D02*
D03*
X3691142D02*
D03*
X954724Y1697441D02*
D03*
X1023622D02*
D03*
X3760039Y3981338D02*
D03*
X3691142D02*
D03*
X954724Y1043307D02*
D03*
X1023622D02*
D03*
X3909646Y890940D02*
D03*
X3840748D02*
D03*
X876968Y4652559D02*
D03*
X808071D02*
D03*
Y3998425D02*
D03*
X876968D02*
D03*
X812008Y3346457D02*
D03*
X880905D02*
D03*
X808071Y2690158D02*
D03*
X876968D02*
D03*
X3840748Y2268816D02*
D03*
X3909646D02*
D03*
X808071Y2036024D02*
D03*
X876968D02*
D03*
X3840748Y3646692D02*
D03*
X3909646D02*
D03*
X808071Y1381890D02*
D03*
X876968D02*
D03*
X593504Y4157480D02*
D03*
X524606D02*
D03*
X593504Y3498032D02*
D03*
X524606D02*
D03*
X593504Y2818898D02*
D03*
X524606D02*
D03*
X593504Y2129921D02*
D03*
X524606D02*
D03*
X593504Y1440945D02*
D03*
X524606D02*
D03*
X593504Y751968D02*
D03*
X524606D02*
D03*
X4136811Y1393701D02*
D03*
X4205709D02*
D03*
X4142717Y2001968D02*
D03*
X4211614D02*
D03*
Y2671260D02*
D03*
X4142717D02*
D03*
X4211614Y3340551D02*
D03*
X4142717D02*
D03*
X4223425Y3972441D02*
D03*
X4154528D02*
D03*
X4223425Y4681102D02*
D03*
X4154528D02*
D03*
X3993110Y4685039D02*
D03*
X4062008D02*
D03*
X2613189Y822835D02*
D03*
X2544291D02*
D03*
X3748229Y1579878D02*
D03*
X3679331D02*
D03*
X3748229Y2957754D02*
D03*
X3679331D02*
D03*
X3748229Y4335630D02*
D03*
X3679331D02*
D03*
X3691142Y1914524D02*
D03*
X3760039D02*
D03*
X3691142Y3292400D02*
D03*
X3760039D02*
D03*
X3691142Y4670276D02*
D03*
X3760039D02*
D03*
X3909646Y1579878D02*
D03*
X3840748D02*
D03*
X3909646Y2957754D02*
D03*
X3840748D02*
D03*
D15*
X3149347Y4719094D02*
D03*
Y4669094D02*
D03*
Y4619094D02*
D03*
Y4569094D02*
D03*
X3365095Y4719094D02*
D03*
Y4669094D02*
D03*
Y4619094D02*
D03*
Y4569094D02*
D03*
X3149347Y1472638D02*
D03*
Y1422638D02*
D03*
Y1372638D02*
D03*
Y1322638D02*
D03*
X3365095Y1472638D02*
D03*
Y1422638D02*
D03*
Y1372638D02*
D03*
Y1322638D02*
D03*
X1632543Y4275394D02*
D03*
Y4325394D02*
D03*
Y4375394D02*
D03*
Y4425394D02*
D03*
X1416795Y4275394D02*
D03*
Y4325394D02*
D03*
Y4375394D02*
D03*
Y4425394D02*
D03*
X1632543Y3665157D02*
D03*
Y3715157D02*
D03*
Y3765157D02*
D03*
Y3815157D02*
D03*
X1416795Y3665157D02*
D03*
Y3715157D02*
D03*
Y3765157D02*
D03*
Y3815157D02*
D03*
X1632543Y3054921D02*
D03*
Y3104921D02*
D03*
Y3154921D02*
D03*
Y3204921D02*
D03*
X1416795Y3054921D02*
D03*
Y3104921D02*
D03*
Y3154921D02*
D03*
Y3204921D02*
D03*
X1632543Y2444685D02*
D03*
Y2494685D02*
D03*
Y2544685D02*
D03*
Y2594685D02*
D03*
X1416795Y2444685D02*
D03*
Y2494685D02*
D03*
Y2544685D02*
D03*
Y2594685D02*
D03*
X3149347Y2771220D02*
D03*
Y2721220D02*
D03*
Y2671220D02*
D03*
Y2621220D02*
D03*
X3365095Y2771220D02*
D03*
Y2721220D02*
D03*
Y2671220D02*
D03*
Y2621220D02*
D03*
X1642386Y1814764D02*
D03*
Y1864764D02*
D03*
Y1914764D02*
D03*
Y1964764D02*
D03*
X1426638Y1814764D02*
D03*
Y1864764D02*
D03*
Y1914764D02*
D03*
Y1964764D02*
D03*
X3149347Y4069803D02*
D03*
Y4019803D02*
D03*
Y3969803D02*
D03*
Y3919803D02*
D03*
X3365095Y4069803D02*
D03*
Y4019803D02*
D03*
Y3969803D02*
D03*
Y3919803D02*
D03*
X1632543Y1224213D02*
D03*
Y1274213D02*
D03*
Y1324213D02*
D03*
Y1374213D02*
D03*
X1416795Y1224213D02*
D03*
Y1274213D02*
D03*
Y1324213D02*
D03*
Y1374213D02*
D03*
X3149347Y2121929D02*
D03*
Y2071929D02*
D03*
Y2021929D02*
D03*
Y1971929D02*
D03*
X3365095Y2121929D02*
D03*
Y2071929D02*
D03*
Y2021929D02*
D03*
Y1971929D02*
D03*
X3149347Y3420512D02*
D03*
Y3370512D02*
D03*
Y3320512D02*
D03*
Y3270512D02*
D03*
X3365095Y3420512D02*
D03*
Y3370512D02*
D03*
Y3320512D02*
D03*
Y3270512D02*
D03*
D16*
X2342520Y834646D02*
D03*
X2279528Y809055D02*
D03*
Y860236D02*
D03*
D17*
X3586811Y4494094D02*
D03*
X3762008D02*
D03*
Y4519685D02*
D03*
Y4545275D02*
D03*
Y4570866D02*
D03*
X3586811Y4519685D02*
D03*
Y4545275D02*
D03*
Y4570866D02*
D03*
Y1049404D02*
D03*
X3762008D02*
D03*
Y1074995D02*
D03*
Y1100585D02*
D03*
Y1126176D02*
D03*
X3586811Y1074995D02*
D03*
Y1100585D02*
D03*
Y1126176D02*
D03*
X1127953Y4490158D02*
D03*
X952756D02*
D03*
Y4464567D02*
D03*
Y4438976D02*
D03*
Y4413386D02*
D03*
X1127953Y4464567D02*
D03*
Y4438976D02*
D03*
Y4413386D02*
D03*
Y3836024D02*
D03*
X952756D02*
D03*
Y3810433D02*
D03*
Y3784843D02*
D03*
Y3759252D02*
D03*
X1127953Y3810433D02*
D03*
Y3784843D02*
D03*
Y3759252D02*
D03*
Y3181890D02*
D03*
X952756D02*
D03*
Y3156299D02*
D03*
Y3130709D02*
D03*
Y3105118D02*
D03*
X1127953Y3156299D02*
D03*
Y3130709D02*
D03*
Y3105118D02*
D03*
Y2527756D02*
D03*
X952756D02*
D03*
Y2502166D02*
D03*
Y2476575D02*
D03*
Y2450985D02*
D03*
X1127953Y2502166D02*
D03*
Y2476575D02*
D03*
Y2450985D02*
D03*
X3586811Y2427280D02*
D03*
X3762008D02*
D03*
Y2452871D02*
D03*
Y2478461D02*
D03*
Y2504052D02*
D03*
X3586811Y2452871D02*
D03*
Y2478461D02*
D03*
Y2504052D02*
D03*
X1127953Y1873622D02*
D03*
X952756D02*
D03*
Y1848032D02*
D03*
Y1822441D02*
D03*
Y1796851D02*
D03*
X1127953Y1848032D02*
D03*
Y1822441D02*
D03*
Y1796851D02*
D03*
X3586811Y3805156D02*
D03*
X3762008D02*
D03*
Y3830747D02*
D03*
Y3856338D02*
D03*
Y3881928D02*
D03*
X3586811Y3830747D02*
D03*
Y3856338D02*
D03*
Y3881928D02*
D03*
X1127953Y1219489D02*
D03*
X952756D02*
D03*
Y1193898D02*
D03*
Y1168307D02*
D03*
Y1142717D02*
D03*
X1127953Y1193898D02*
D03*
Y1168307D02*
D03*
Y1142717D02*
D03*
X3016732Y1619094D02*
D03*
Y1644685D02*
D03*
Y1670275D02*
D03*
X2841535Y1619094D02*
D03*
Y1644685D02*
D03*
Y1670275D02*
D03*
Y1695866D02*
D03*
X3016732D02*
D03*
X3586811Y1738342D02*
D03*
X3762008D02*
D03*
Y1763933D02*
D03*
Y1789524D02*
D03*
Y1815114D02*
D03*
X3586811Y1763933D02*
D03*
Y1789524D02*
D03*
Y1815114D02*
D03*
Y3116218D02*
D03*
X3762008D02*
D03*
Y3141809D02*
D03*
Y3167400D02*
D03*
Y3192990D02*
D03*
X3586811Y3141809D02*
D03*
Y3167400D02*
D03*
Y3192990D02*
D03*
D18*
X2401575Y1068898D02*
D03*
Y931102D02*
D03*
D19*
X3583858Y965743D02*
D03*
Y902751D02*
D03*
X1130905Y4573819D02*
D03*
Y4636811D02*
D03*
Y3919685D02*
D03*
Y3982677D02*
D03*
Y3265551D02*
D03*
Y3328543D02*
D03*
Y2611418D02*
D03*
Y2674410D02*
D03*
X3583858Y2343619D02*
D03*
Y2280627D02*
D03*
X1130905Y1957284D02*
D03*
Y2020276D02*
D03*
X3583858Y3721495D02*
D03*
Y3658503D02*
D03*
X1130905Y1303150D02*
D03*
Y1366142D02*
D03*
X3481496Y1099601D02*
D03*
Y1162593D02*
D03*
X1241141Y4506890D02*
D03*
Y4443898D02*
D03*
Y3852756D02*
D03*
Y3789764D02*
D03*
Y3198622D02*
D03*
Y3135630D02*
D03*
Y2544488D02*
D03*
Y2481496D02*
D03*
X3481496Y2477477D02*
D03*
Y2540469D02*
D03*
X1241141Y1890355D02*
D03*
Y1827362D02*
D03*
X3606299Y4047244D02*
D03*
Y3984252D02*
D03*
X1241141Y1236221D02*
D03*
Y1173229D02*
D03*
X2748032Y1582677D02*
D03*
Y1645669D02*
D03*
X3137795Y1559055D02*
D03*
Y1622047D02*
D03*
X3583858Y1654681D02*
D03*
Y1591689D02*
D03*
Y3032557D02*
D03*
Y2969565D02*
D03*
Y4410433D02*
D03*
Y4347441D02*
D03*
X3481496Y1788539D02*
D03*
Y1851531D02*
D03*
Y3166415D02*
D03*
Y3229407D02*
D03*
X3598425Y4704724D02*
D03*
Y4641732D02*
D03*
D20*
X2980315Y1543307D02*
D03*
X3043307D02*
D03*
X3297638Y1220473D02*
D03*
X3360630D02*
D03*
X1606299Y4498031D02*
D03*
X1543307D02*
D03*
X1606299Y3887795D02*
D03*
X1543307D02*
D03*
X1606299Y3277559D02*
D03*
X1543307D02*
D03*
X1606299Y2667323D02*
D03*
X1543307D02*
D03*
X3297638Y2519055D02*
D03*
X3360630D02*
D03*
X1616142Y2037402D02*
D03*
X1553150D02*
D03*
X3204724Y3822835D02*
D03*
X3267716D02*
D03*
X1606299Y1446850D02*
D03*
X1543307D02*
D03*
X1812008Y2967520D02*
D03*
X1875000D02*
D03*
X3297638Y1869764D02*
D03*
X3360630D02*
D03*
X3297638Y3168347D02*
D03*
X3360630D02*
D03*
X3297638Y4466929D02*
D03*
X3360630D02*
D03*
D21*
X2829024Y883621D02*
D03*
X3002252Y785196D02*
D03*
X2829024Y686771D02*
D03*
D22*
X3855512Y1220664D02*
D03*
Y1151767D02*
D03*
X859252Y4318898D02*
D03*
Y4387795D02*
D03*
Y3664764D02*
D03*
Y3733662D02*
D03*
Y3010630D02*
D03*
Y3079528D02*
D03*
Y2356496D02*
D03*
Y2425394D02*
D03*
X3855512Y2598540D02*
D03*
Y2529643D02*
D03*
X859252Y1702362D02*
D03*
Y1771260D02*
D03*
X3855512Y3976416D02*
D03*
Y3907519D02*
D03*
X859252Y1048229D02*
D03*
Y1117126D02*
D03*
X3847638Y994286D02*
D03*
Y1063184D02*
D03*
X856299Y4564960D02*
D03*
Y4496063D02*
D03*
Y3910827D02*
D03*
Y3841929D02*
D03*
Y3256693D02*
D03*
Y3187795D02*
D03*
Y2602559D02*
D03*
Y2533661D02*
D03*
X3847638Y2372162D02*
D03*
Y2441060D02*
D03*
X856299Y1948425D02*
D03*
Y1879527D02*
D03*
X3847638Y3750038D02*
D03*
Y3818936D02*
D03*
X856299Y1294291D02*
D03*
Y1225394D02*
D03*
X708662Y4262795D02*
D03*
Y4193898D02*
D03*
Y3603346D02*
D03*
Y3534449D02*
D03*
Y2924213D02*
D03*
Y2855315D02*
D03*
Y2235236D02*
D03*
Y2166338D02*
D03*
Y1546260D02*
D03*
Y1477362D02*
D03*
Y857283D02*
D03*
Y788386D02*
D03*
X4021654Y1378937D02*
D03*
Y1447834D02*
D03*
X4027559Y1987205D02*
D03*
Y2056102D02*
D03*
Y2725394D02*
D03*
Y2656496D02*
D03*
Y3394685D02*
D03*
Y3325787D02*
D03*
Y4063976D02*
D03*
Y3995079D02*
D03*
X3855512Y1909602D02*
D03*
Y1840705D02*
D03*
Y3287478D02*
D03*
Y3218581D02*
D03*
Y4665354D02*
D03*
Y4596457D02*
D03*
X3847638Y1683224D02*
D03*
Y1752122D02*
D03*
Y3061100D02*
D03*
Y3129998D02*
D03*
Y4438976D02*
D03*
Y4507874D02*
D03*
D23*
X3148032Y1137795D02*
D03*
Y1027559D02*
D03*
X1633858Y4610236D02*
D03*
Y4720472D02*
D03*
Y4000000D02*
D03*
Y4110236D02*
D03*
Y3389764D02*
D03*
Y3500000D02*
D03*
Y2779528D02*
D03*
Y2889764D02*
D03*
X3148032Y2436378D02*
D03*
Y2326142D02*
D03*
X1643701Y2149606D02*
D03*
Y2259843D02*
D03*
X3148032Y3734961D02*
D03*
Y3624724D02*
D03*
X1633858Y1559055D02*
D03*
Y1669291D02*
D03*
X598425Y4606299D02*
D03*
Y4716535D02*
D03*
Y3946850D02*
D03*
Y4057087D02*
D03*
Y3267716D02*
D03*
Y3377953D02*
D03*
Y2578740D02*
D03*
Y2688976D02*
D03*
X625984Y1889764D02*
D03*
Y2000000D02*
D03*
X598425Y1200787D02*
D03*
Y1311024D02*
D03*
X4114173Y1600394D02*
D03*
Y1490157D02*
D03*
Y2159449D02*
D03*
Y2269685D02*
D03*
Y2828740D02*
D03*
Y2938976D02*
D03*
X4122047Y4185039D02*
D03*
Y4295275D02*
D03*
X718504Y4364173D02*
D03*
Y4474409D02*
D03*
Y3704724D02*
D03*
Y3814961D02*
D03*
Y3025590D02*
D03*
Y3135827D02*
D03*
Y2336614D02*
D03*
Y2446850D02*
D03*
Y1647638D02*
D03*
Y1757874D02*
D03*
Y958661D02*
D03*
Y1068898D02*
D03*
X4101378Y1263779D02*
D03*
Y1153543D02*
D03*
X4107284Y1872047D02*
D03*
Y1761811D02*
D03*
Y2541338D02*
D03*
Y2431102D02*
D03*
Y3210630D02*
D03*
Y3100394D02*
D03*
X4098425Y3885827D02*
D03*
Y3775590D02*
D03*
X4105512Y4564961D02*
D03*
Y4454724D02*
D03*
X2740157Y814961D02*
D03*
Y704724D02*
D03*
X3139764Y1826772D02*
D03*
Y1716535D02*
D03*
X3148032Y3085669D02*
D03*
Y2975433D02*
D03*
Y4384252D02*
D03*
Y4274016D02*
D03*
D24*
X1192913Y606496D02*
D03*
Y556496D02*
D03*
Y506496D02*
D03*
Y456496D02*
D03*
X1381890Y606496D02*
D03*
Y556496D02*
D03*
Y506496D02*
D03*
Y456496D02*
D03*
X2740157Y488386D02*
D03*
Y438386D02*
D03*
Y388386D02*
D03*
Y338386D02*
D03*
X2929134Y488386D02*
D03*
Y438386D02*
D03*
Y388386D02*
D03*
Y338386D02*
D03*
X141732Y606496D02*
D03*
Y556496D02*
D03*
Y506496D02*
D03*
Y456496D02*
D03*
X330709Y606496D02*
D03*
Y556496D02*
D03*
Y506496D02*
D03*
Y456496D02*
D03*
X3696850Y488386D02*
D03*
Y438386D02*
D03*
Y388386D02*
D03*
Y338386D02*
D03*
X3885827Y488386D02*
D03*
Y438386D02*
D03*
Y388386D02*
D03*
Y338386D02*
D03*
X1543307Y606496D02*
D03*
Y556496D02*
D03*
Y506496D02*
D03*
Y456496D02*
D03*
X1732284Y606496D02*
D03*
Y556496D02*
D03*
Y506496D02*
D03*
Y456496D02*
D03*
X3059055Y488386D02*
D03*
Y438386D02*
D03*
Y388386D02*
D03*
Y338386D02*
D03*
X3248032Y488386D02*
D03*
Y438386D02*
D03*
Y388386D02*
D03*
Y338386D02*
D03*
X492126Y606496D02*
D03*
Y556496D02*
D03*
Y506496D02*
D03*
Y456496D02*
D03*
X681102Y606496D02*
D03*
Y556496D02*
D03*
Y506496D02*
D03*
Y456496D02*
D03*
X4015748Y488386D02*
D03*
Y438386D02*
D03*
Y388386D02*
D03*
Y338386D02*
D03*
X4204724Y488386D02*
D03*
Y438386D02*
D03*
Y388386D02*
D03*
Y338386D02*
D03*
X1893701Y606496D02*
D03*
Y556496D02*
D03*
Y506496D02*
D03*
Y456496D02*
D03*
X2082677Y606496D02*
D03*
Y556496D02*
D03*
Y506496D02*
D03*
Y456496D02*
D03*
X3377953Y488386D02*
D03*
Y438386D02*
D03*
Y388386D02*
D03*
Y338386D02*
D03*
X3566929Y488386D02*
D03*
Y438386D02*
D03*
Y388386D02*
D03*
Y338386D02*
D03*
X842520Y606496D02*
D03*
Y556496D02*
D03*
Y506496D02*
D03*
Y456496D02*
D03*
X1031496Y606496D02*
D03*
Y556496D02*
D03*
Y506496D02*
D03*
Y456496D02*
D03*
%TF.MD5,be5281df8ef3dcc425bbbfea166d7ae0*%
M02*
