G04*
G04 #@! TF.GenerationSoftware,Altium Limited,Altium Designer,19.1.6 (110)*
G04*
G04 Layer_Color=65535*
%FSLAX24Y24*%
%MOIN*%
G70*
G01*
G75*
%ADD10C,0.0050*%
%ADD11C,0.0098*%
%ADD12C,0.0079*%
%ADD13C,0.0236*%
%ADD14C,0.0100*%
%ADD15C,0.0197*%
%ADD16C,0.0059*%
%ADD17C,0.0039*%
%ADD18C,0.0079*%
G36*
X18279Y15216D02*
X15631D01*
X15867Y15452D01*
X16143Y15590D01*
X16903Y15757D01*
X17351D01*
X18023Y15472D01*
X18279Y15216D01*
D02*
G37*
G36*
X31987Y18978D02*
Y18879D01*
X31830Y18722D01*
X31731D01*
Y18978D01*
X31987D01*
D02*
G37*
G36*
X29497Y21850D02*
Y21971D01*
X29340Y22128D01*
X29253D01*
Y21850D01*
X29497D01*
D02*
G37*
G36*
X60544Y14096D02*
X60550Y14094D01*
X60556Y14092D01*
X60563Y14089D01*
X60570Y14085D01*
X60577Y14079D01*
X60577Y14078D01*
X60580Y14076D01*
X60582Y14072D01*
X60586Y14067D01*
X60589Y14062D01*
X60591Y14055D01*
X60594Y14047D01*
X60594Y14038D01*
Y14037D01*
Y14035D01*
X60593Y14030D01*
X60592Y14025D01*
X60590Y14018D01*
X60586Y14011D01*
X60581Y14004D01*
X60575Y13997D01*
X60574Y13997D01*
X60572Y13995D01*
X60568Y13992D01*
X60563Y13989D01*
X60556Y13986D01*
X60548Y13983D01*
X60539Y13981D01*
X60530Y13981D01*
X60529D01*
X60525Y13981D01*
X60520Y13982D01*
X60514Y13983D01*
X60507Y13985D01*
X60499Y13988D01*
X60491Y13992D01*
X60484Y13997D01*
X60484Y13998D01*
X60481Y14001D01*
X60479Y14004D01*
X60475Y14009D01*
X60471Y14015D01*
X60469Y14022D01*
X60466Y14030D01*
X60466Y14038D01*
Y14039D01*
Y14040D01*
Y14042D01*
X60466Y14045D01*
X60468Y14051D01*
X60469Y14058D01*
X60438D01*
X60436Y14057D01*
X60433Y14056D01*
X60429Y14055D01*
X60425Y14053D01*
X60422Y14050D01*
X60418Y14046D01*
X60417Y14046D01*
X60416Y14044D01*
X60415Y14042D01*
X60413Y14038D01*
X60411Y14035D01*
X60410Y14031D01*
X60409Y14026D01*
X60408Y14021D01*
Y14020D01*
Y14018D01*
X60409Y14016D01*
X60409Y14012D01*
X60410Y14007D01*
X60412Y14002D01*
X60413Y13995D01*
X60416Y13988D01*
X60417Y13987D01*
X60417Y13985D01*
X60418Y13981D01*
X60420Y13976D01*
X60423Y13966D01*
X60423Y13960D01*
X60424Y13956D01*
Y13955D01*
X60423Y13954D01*
X60422Y13951D01*
X60420Y13947D01*
X60417Y13943D01*
X60412Y13939D01*
X60409Y13936D01*
X60405Y13934D01*
X60400Y13931D01*
X60395Y13929D01*
X60395D01*
X60394Y13927D01*
X60392Y13927D01*
X60389Y13925D01*
X60382Y13922D01*
X60374Y13917D01*
X60365Y13913D01*
X60357Y13908D01*
X60349Y13903D01*
X60346Y13901D01*
X60343Y13899D01*
X60343D01*
X60342Y13898D01*
X60339Y13895D01*
X60334Y13890D01*
X60329Y13882D01*
X60324Y13874D01*
X60319Y13863D01*
X60316Y13850D01*
X60316Y13844D01*
X60315Y13836D01*
Y13836D01*
Y13835D01*
X60316Y13832D01*
X60317Y13827D01*
X60319Y13821D01*
X60323Y13815D01*
X60326Y13811D01*
X60329Y13808D01*
X60333Y13805D01*
X60337Y13803D01*
X60342Y13800D01*
X60348Y13799D01*
X60348D01*
X60351Y13798D01*
X60355Y13798D01*
X60361Y13797D01*
X60368Y13796D01*
X60378Y13795D01*
X60390Y13795D01*
X60580D01*
X60619Y13921D01*
X60705D01*
X60680Y13838D01*
X60754Y13902D01*
X60755Y13902D01*
X60756Y13903D01*
X60757Y13904D01*
X60760Y13906D01*
X60762Y13908D01*
X60766Y13910D01*
X60774Y13915D01*
X60783Y13919D01*
X60794Y13923D01*
X60807Y13926D01*
X60813Y13927D01*
X60821D01*
X60824Y13926D01*
X60828Y13925D01*
X60832Y13924D01*
X60836Y13920D01*
X60840Y13916D01*
X60843Y13910D01*
X60844Y13906D01*
Y13902D01*
Y13902D01*
Y13901D01*
Y13899D01*
X60843Y13897D01*
X60842Y13891D01*
X60840Y13883D01*
X60812Y13795D01*
X60911D01*
X60907D01*
X60938Y13882D01*
X60938D01*
X60936Y13882D01*
X60933Y13884D01*
X60930Y13885D01*
X60926Y13887D01*
X60922Y13890D01*
X60918Y13893D01*
X60914Y13897D01*
X60914Y13897D01*
X60913Y13899D01*
X60912Y13901D01*
X60910Y13905D01*
X60908Y13909D01*
X60907Y13913D01*
X60906Y13918D01*
X60905Y13924D01*
Y13924D01*
Y13925D01*
X60906Y13928D01*
X60907Y13933D01*
X60909Y13940D01*
X60912Y13946D01*
X60916Y13954D01*
X60923Y13961D01*
X60927Y13964D01*
X60931Y13967D01*
X60932Y13967D01*
X60935Y13969D01*
X60939Y13971D01*
X60945Y13973D01*
X60953Y13976D01*
X60961Y13977D01*
X60971Y13979D01*
X60982Y13980D01*
X61021D01*
X61000Y13921D01*
X61130D01*
X61090Y13795D01*
X61192D01*
X61192Y13796D01*
X61194Y13803D01*
X61230Y13921D01*
X61317D01*
X61278Y13795D01*
X61375D01*
X61374Y13798D01*
X61373Y13805D01*
X61373Y13814D01*
Y13815D01*
Y13816D01*
Y13820D01*
X61373Y13823D01*
X61374Y13828D01*
X61374Y13833D01*
X61377Y13843D01*
Y13843D01*
X61377Y13844D01*
X61378Y13846D01*
X61379Y13849D01*
X61380Y13853D01*
X61382Y13856D01*
X61387Y13865D01*
X61393Y13875D01*
X61401Y13885D01*
X61411Y13895D01*
X61417Y13900D01*
X61423Y13904D01*
X61424D01*
X61424Y13904D01*
X61426Y13905D01*
X61429Y13906D01*
X61432Y13907D01*
X61435Y13909D01*
X61443Y13912D01*
X61454Y13915D01*
X61465Y13918D01*
X61479Y13920D01*
X61494Y13921D01*
X61629D01*
X61589Y13795D01*
X61689D01*
X61688Y13794D01*
X61687Y13791D01*
X61685Y13788D01*
X61682Y13783D01*
X61679Y13778D01*
X61674Y13773D01*
X61668Y13768D01*
X61660Y13763D01*
X61660Y13763D01*
X61658Y13762D01*
X61654Y13761D01*
X61650Y13760D01*
X61645Y13758D01*
X61640Y13757D01*
X61634Y13757D01*
X61627Y13756D01*
X61576D01*
X61545Y13657D01*
X61523D01*
X61519Y13657D01*
X61514Y13658D01*
X61509Y13660D01*
X61504Y13662D01*
X61498Y13665D01*
X61492Y13669D01*
X61492Y13670D01*
X61490Y13672D01*
X61487Y13675D01*
X61484Y13679D01*
X61482Y13683D01*
X61479Y13689D01*
X61477Y13696D01*
X61477Y13703D01*
Y13704D01*
Y13705D01*
Y13707D01*
X61477Y13709D01*
X61478Y13715D01*
X61480Y13723D01*
X61498Y13780D01*
X61498Y13780D01*
X61497Y13779D01*
X61495Y13778D01*
X61494Y13776D01*
X61488Y13771D01*
X61480Y13766D01*
X61471Y13760D01*
X61460Y13755D01*
X61447Y13752D01*
X61440Y13751D01*
X61433Y13751D01*
X61428D01*
X61423Y13751D01*
X61418Y13752D01*
X61417D01*
X61414Y13753D01*
X61411Y13754D01*
X61406Y13756D01*
X61400Y13758D01*
X61394Y13762D01*
X61389Y13766D01*
X61384Y13773D01*
X61383Y13773D01*
X61382Y13776D01*
X61381Y13779D01*
X61378Y13784D01*
X61376Y13790D01*
X61376Y13791D01*
X61374Y13788D01*
X61372Y13783D01*
X61368Y13778D01*
X61363Y13773D01*
X61357Y13768D01*
X61351Y13763D01*
X61350Y13763D01*
X61348Y13762D01*
X61346Y13761D01*
X61342Y13760D01*
X61337Y13758D01*
X61332Y13757D01*
X61326Y13757D01*
X61320Y13756D01*
X61221D01*
X61220Y13757D01*
X61214Y13758D01*
X61208Y13760D01*
X61201Y13763D01*
X61196Y13768D01*
X61194Y13771D01*
X61192Y13775D01*
X61191Y13780D01*
X61191Y13785D01*
D01*
X61189Y13780D01*
X61185Y13775D01*
X61180Y13770D01*
X61174Y13766D01*
X61174Y13765D01*
X61171Y13764D01*
X61168Y13763D01*
X61164Y13761D01*
X61159Y13759D01*
X61152Y13758D01*
X61146Y13757D01*
X61140Y13756D01*
X61043D01*
X61041Y13757D01*
X61035Y13758D01*
X61028Y13760D01*
X61021Y13763D01*
X61015Y13769D01*
X61013Y13772D01*
X61011Y13776D01*
X61010Y13781D01*
X61009Y13786D01*
Y13786D01*
Y13787D01*
Y13789D01*
X61010Y13791D01*
X61011Y13796D01*
X61013Y13803D01*
X61037Y13882D01*
X60988D01*
X60953Y13812D01*
X60952Y13811D01*
X60952Y13809D01*
X60950Y13806D01*
X60947Y13804D01*
X60944Y13800D01*
X60940Y13798D01*
X60934Y13795D01*
X60928Y13795D01*
X60912D01*
X60912Y13794D01*
X60911Y13791D01*
X60909Y13788D01*
X60906Y13783D01*
X60902Y13778D01*
X60897Y13773D01*
X60891Y13768D01*
X60884Y13763D01*
X60883Y13763D01*
X60881Y13762D01*
X60878Y13761D01*
X60874Y13760D01*
X60869Y13758D01*
X60864Y13757D01*
X60858Y13757D01*
X60852Y13756D01*
X60752D01*
X60750Y13757D01*
X60745Y13757D01*
X60738Y13759D01*
X60732Y13761D01*
X60727Y13765D01*
X60725Y13768D01*
X60723Y13770D01*
X60722Y13774D01*
X60722Y13778D01*
Y13778D01*
Y13779D01*
Y13780D01*
X60722Y13783D01*
X60723Y13788D01*
X60725Y13794D01*
X60741Y13846D01*
X60659Y13776D01*
X60659D01*
X60658Y13775D01*
X60656Y13774D01*
X60654Y13773D01*
X60649Y13770D01*
X60642Y13766D01*
X60635Y13762D01*
X60627Y13759D01*
X60619Y13757D01*
X60612Y13756D01*
X60568D01*
X60578Y13788D01*
X60576Y13784D01*
X60574Y13779D01*
X60570Y13774D01*
X60565Y13769D01*
X60558Y13765D01*
X60558Y13764D01*
X60555Y13764D01*
X60552Y13762D01*
X60547Y13760D01*
X60541Y13759D01*
X60535Y13758D01*
X60529Y13757D01*
X60521Y13756D01*
X60315D01*
X60311Y13757D01*
X60307D01*
X60296Y13758D01*
X60284Y13760D01*
X60272Y13762D01*
X60259Y13766D01*
X60247Y13771D01*
X60247D01*
X60246Y13772D01*
X60243Y13773D01*
X60241Y13775D01*
X60235Y13779D01*
X60228Y13786D01*
X60220Y13794D01*
X60214Y13804D01*
X60212Y13810D01*
X60210Y13816D01*
X60208Y13823D01*
X60208Y13830D01*
Y13831D01*
Y13833D01*
X60208Y13835D01*
Y13838D01*
X60209Y13841D01*
X60210Y13846D01*
X60211Y13851D01*
X60213Y13856D01*
X60216Y13863D01*
X60218Y13869D01*
X60222Y13875D01*
X60226Y13882D01*
X60231Y13889D01*
X60237Y13896D01*
X60243Y13902D01*
X60251Y13909D01*
X60251Y13910D01*
X60252Y13910D01*
X60254Y13912D01*
X60257Y13914D01*
X60261Y13916D01*
X60264Y13919D01*
X60269Y13922D01*
X60274Y13926D01*
X60280Y13929D01*
X60287Y13932D01*
X60301Y13940D01*
X60317Y13946D01*
X60334Y13952D01*
Y13952D01*
X60334Y13953D01*
X60333Y13955D01*
X60332Y13957D01*
X60330Y13962D01*
X60328Y13970D01*
X60325Y13979D01*
X60323Y13988D01*
X60321Y13997D01*
X60321Y14007D01*
Y14007D01*
Y14009D01*
X60321Y14011D01*
Y14015D01*
X60322Y14018D01*
X60323Y14023D01*
X60324Y14028D01*
X60327Y14033D01*
X60329Y14039D01*
X60333Y14045D01*
X60337Y14051D01*
X60342Y14057D01*
X60347Y14062D01*
X60354Y14068D01*
X60361Y14073D01*
X60370Y14078D01*
X60370D01*
X60372Y14078D01*
X60374Y14080D01*
X60377Y14081D01*
X60380Y14082D01*
X60385Y14084D01*
X60390Y14086D01*
X60396Y14087D01*
X60402Y14089D01*
X60409Y14091D01*
X60417Y14092D01*
X60425Y14094D01*
X60442Y14096D01*
X60461Y14097D01*
X60539D01*
X60544Y14096D01*
D02*
G37*
G36*
X61298Y14077D02*
X61305Y14076D01*
X61312Y14073D01*
X61320Y14071D01*
X61327Y14066D01*
X61335Y14061D01*
X61335Y14060D01*
X61337Y14058D01*
X61341Y14054D01*
X61344Y14049D01*
X61347Y14043D01*
X61351Y14036D01*
X61353Y14028D01*
X61353Y14020D01*
Y14018D01*
Y14016D01*
X61352Y14011D01*
X61351Y14006D01*
X61349Y13999D01*
X61346Y13992D01*
X61341Y13985D01*
X61335Y13979D01*
X61333Y13978D01*
X61331Y13976D01*
X61327Y13973D01*
X61322Y13970D01*
X61315Y13967D01*
X61307Y13965D01*
X61298Y13962D01*
X61289Y13962D01*
X61288D01*
X61285Y13962D01*
X61280Y13963D01*
X61273Y13964D01*
X61266Y13966D01*
X61258Y13969D01*
X61251Y13973D01*
X61243Y13979D01*
X61243Y13979D01*
X61241Y13982D01*
X61238Y13985D01*
X61235Y13990D01*
X61231Y13996D01*
X61228Y14003D01*
X61226Y14011D01*
X61225Y14020D01*
Y14020D01*
Y14021D01*
X61226Y14023D01*
X61226Y14028D01*
X61227Y14033D01*
X61230Y14040D01*
X61233Y14047D01*
X61237Y14054D01*
X61243Y14061D01*
X61245Y14061D01*
X61247Y14063D01*
X61251Y14066D01*
X61256Y14070D01*
X61263Y14072D01*
X61271Y14075D01*
X61280Y14077D01*
X61289Y14078D01*
X61293D01*
X61298Y14077D01*
D02*
G37*
G36*
X57864Y14077D02*
X57870Y14076D01*
X57877Y14073D01*
X57885Y14071D01*
X57892Y14066D01*
X57900Y14061D01*
X57900Y14060D01*
X57902Y14058D01*
X57906Y14054D01*
X57909Y14049D01*
X57912Y14043D01*
X57916Y14036D01*
X57918Y14028D01*
X57918Y14020D01*
Y14018D01*
Y14016D01*
X57917Y14011D01*
X57916Y14006D01*
X57914Y13999D01*
X57911Y13992D01*
X57906Y13985D01*
X57900Y13979D01*
X57899Y13978D01*
X57896Y13976D01*
X57892Y13973D01*
X57887Y13970D01*
X57880Y13967D01*
X57872Y13965D01*
X57864Y13962D01*
X57854Y13962D01*
X57853D01*
X57850Y13962D01*
X57845Y13963D01*
X57839Y13964D01*
X57831Y13966D01*
X57824Y13969D01*
X57816Y13973D01*
X57809Y13979D01*
X57808Y13979D01*
X57806Y13982D01*
X57803Y13985D01*
X57800Y13990D01*
X57796Y13996D01*
X57793Y14003D01*
X57791Y14011D01*
X57790Y14020D01*
Y14020D01*
Y14021D01*
X57791Y14023D01*
X57791Y14028D01*
X57793Y14033D01*
X57795Y14040D01*
X57798Y14047D01*
X57802Y14054D01*
X57809Y14061D01*
X57810Y14061D01*
X57812Y14063D01*
X57816Y14066D01*
X57821Y14070D01*
X57828Y14072D01*
X57836Y14075D01*
X57845Y14077D01*
X57854Y14078D01*
X57859D01*
X57864Y14077D01*
D02*
G37*
G36*
X62170Y13920D02*
X62177Y13920D01*
X62185Y13919D01*
X62194Y13916D01*
X62204Y13914D01*
X62213Y13911D01*
X62213D01*
X62214Y13910D01*
X62218Y13909D01*
X62223Y13906D01*
X62228Y13901D01*
X62234Y13896D01*
X62240Y13890D01*
X62244Y13881D01*
X62245Y13877D01*
X62245Y13872D01*
Y13871D01*
Y13868D01*
X62244Y13864D01*
X62242Y13858D01*
X62240Y13851D01*
X62235Y13844D01*
X62229Y13836D01*
X62225Y13833D01*
X62220Y13830D01*
X62140D01*
X62166Y13882D01*
X62115D01*
X62095Y13823D01*
Y13823D01*
X62095Y13820D01*
X62094Y13817D01*
X62094Y13814D01*
Y13814D01*
X62094Y13811D01*
X62095Y13808D01*
X62098Y13805D01*
X62102Y13801D01*
X62107Y13798D01*
X62110Y13796D01*
X62115Y13796D01*
X62119Y13795D01*
X62314D01*
Y13794D01*
X62312Y13791D01*
X62311Y13788D01*
X62309Y13784D01*
X62305Y13779D01*
X62301Y13774D01*
X62296Y13770D01*
X62290Y13765D01*
X62290Y13765D01*
X62287Y13764D01*
X62284Y13763D01*
X62279Y13761D01*
X62274Y13759D01*
X62267Y13758D01*
X62261Y13757D01*
X62253Y13756D01*
X62113D01*
X62108Y13757D01*
X62100Y13757D01*
X62091Y13758D01*
X62081Y13760D01*
X62070Y13762D01*
X62060Y13765D01*
X62049Y13769D01*
X62038Y13773D01*
X62028Y13779D01*
X62019Y13786D01*
X62012Y13794D01*
X62006Y13803D01*
X62004Y13809D01*
X62002Y13814D01*
X62002Y13820D01*
X62001Y13826D01*
Y13827D01*
Y13829D01*
X62002Y13831D01*
Y13834D01*
X62002Y13838D01*
X62003Y13843D01*
X62006Y13853D01*
X62008Y13858D01*
X62011Y13864D01*
X62014Y13870D01*
X62018Y13876D01*
X62023Y13882D01*
X62028Y13887D01*
X62034Y13893D01*
X62041Y13898D01*
X62042D01*
X62043Y13899D01*
X62044Y13900D01*
X62047Y13901D01*
X62050Y13904D01*
X62054Y13905D01*
X62059Y13907D01*
X62064Y13910D01*
X62070Y13911D01*
X62076Y13914D01*
X62090Y13917D01*
X62106Y13920D01*
X62123Y13921D01*
X62164D01*
X62170Y13920D01*
D02*
G37*
G36*
X59107Y13795D02*
X59208D01*
Y13794D01*
X59208Y13793D01*
X59207Y13791D01*
X59206Y13789D01*
X59202Y13783D01*
X59196Y13775D01*
X59193Y13772D01*
X59188Y13768D01*
X59184Y13765D01*
X59178Y13762D01*
X59172Y13759D01*
X59165Y13758D01*
X59157Y13757D01*
X59149Y13756D01*
X59052D01*
X59050Y13757D01*
X59043Y13757D01*
X59036Y13759D01*
X59029Y13762D01*
X59023Y13766D01*
X59021Y13769D01*
X59018Y13773D01*
X59017Y13776D01*
Y13781D01*
X59017Y13780D01*
X59016Y13780D01*
X59015Y13778D01*
X59012Y13776D01*
X59010Y13774D01*
X59007Y13771D01*
X58999Y13765D01*
X58988Y13760D01*
X58976Y13755D01*
X58962Y13751D01*
X58954Y13750D01*
X58946Y13750D01*
X58941D01*
X58936Y13751D01*
X58929Y13752D01*
X58921Y13754D01*
X58914Y13757D01*
X58906Y13760D01*
X58899Y13766D01*
X58898Y13766D01*
X58896Y13769D01*
X58893Y13773D01*
X58889Y13778D01*
X58886Y13785D01*
X58884Y13789D01*
X58884Y13788D01*
X58881Y13784D01*
X58878Y13779D01*
X58874Y13774D01*
X58869Y13770D01*
X58863Y13765D01*
X58863Y13765D01*
X58860Y13764D01*
X58857Y13763D01*
X58852Y13761D01*
X58846Y13759D01*
X58840Y13758D01*
X58834Y13757D01*
X58826Y13756D01*
X58686D01*
X58681Y13757D01*
X58673Y13757D01*
X58664Y13758D01*
X58654Y13760D01*
X58643Y13762D01*
X58633Y13765D01*
X58622Y13769D01*
X58611Y13773D01*
X58601Y13779D01*
X58592Y13786D01*
X58585Y13794D01*
X58585Y13794D01*
X58584Y13794D01*
X58584Y13791D01*
X58582Y13788D01*
X58579Y13783D01*
X58575Y13778D01*
X58570Y13773D01*
X58564Y13768D01*
X58557Y13763D01*
X58556Y13763D01*
X58554Y13762D01*
X58551Y13761D01*
X58547Y13760D01*
X58542Y13758D01*
X58537Y13757D01*
X58531Y13757D01*
X58525Y13756D01*
X58425D01*
X58423Y13757D01*
X58417Y13757D01*
X58411Y13759D01*
X58405Y13761D01*
X58400Y13765D01*
X58398Y13768D01*
X58396Y13770D01*
X58395Y13774D01*
X58395Y13778D01*
Y13778D01*
Y13779D01*
Y13780D01*
X58395Y13783D01*
X58396Y13788D01*
X58398Y13794D01*
X58414Y13846D01*
X58332Y13776D01*
X58331D01*
X58331Y13775D01*
X58329Y13774D01*
X58327Y13773D01*
X58322Y13770D01*
X58315Y13766D01*
X58308Y13762D01*
X58300Y13759D01*
X58292Y13757D01*
X58285Y13756D01*
X58241D01*
X58249Y13782D01*
X58246Y13779D01*
X58243Y13775D01*
X58239Y13772D01*
X58233Y13768D01*
X58228Y13765D01*
X58220Y13762D01*
X58213Y13759D01*
X58204Y13758D01*
X58194Y13757D01*
X58183Y13756D01*
X58139D01*
Y13755D01*
X58138Y13753D01*
X58137Y13750D01*
X58135Y13747D01*
X58133Y13742D01*
X58131Y13736D01*
X58128Y13730D01*
X58126Y13724D01*
X58119Y13710D01*
X58112Y13696D01*
X58104Y13683D01*
X58101Y13677D01*
X58097Y13672D01*
X58096Y13671D01*
X58095Y13670D01*
X58093Y13668D01*
X58091Y13665D01*
X58088Y13663D01*
X58084Y13659D01*
X58080Y13656D01*
X58075Y13652D01*
X58064Y13645D01*
X58051Y13639D01*
X58043Y13636D01*
X58035Y13634D01*
X58027Y13633D01*
X58018Y13633D01*
X58014D01*
X58009Y13634D01*
X58003Y13635D01*
X57996Y13637D01*
X57989Y13639D01*
X57982Y13643D01*
X57976Y13648D01*
X57975Y13649D01*
X57973Y13651D01*
X57971Y13654D01*
X57968Y13659D01*
X57965Y13665D01*
X57962Y13672D01*
X57961Y13680D01*
X57960Y13690D01*
Y13690D01*
Y13692D01*
Y13695D01*
X57961Y13698D01*
X57961Y13703D01*
X57962Y13708D01*
X57964Y13718D01*
X57967Y13730D01*
X57973Y13741D01*
X57977Y13746D01*
X57981Y13750D01*
X57985Y13754D01*
X57991Y13758D01*
X57990D01*
X57987Y13759D01*
X57983Y13760D01*
X57977Y13762D01*
X57971Y13765D01*
X57965Y13769D01*
X57959Y13773D01*
X57953Y13779D01*
X57952Y13779D01*
X57950Y13782D01*
X57948Y13786D01*
X57945Y13791D01*
X57942Y13797D01*
X57939Y13804D01*
X57937Y13813D01*
X57936Y13822D01*
Y13823D01*
Y13824D01*
Y13826D01*
X57937Y13829D01*
X57938Y13835D01*
X57940Y13843D01*
Y13844D01*
X57940Y13845D01*
X57941Y13847D01*
X57942Y13850D01*
X57943Y13853D01*
X57945Y13856D01*
X57948Y13865D01*
X57955Y13875D01*
X57962Y13885D01*
X57972Y13894D01*
X57977Y13899D01*
X57983Y13902D01*
X57984D01*
X57985Y13903D01*
X57987Y13904D01*
X57989Y13905D01*
X57992Y13907D01*
X57995Y13908D01*
X58004Y13912D01*
X58014Y13915D01*
X58027Y13918D01*
X58041Y13920D01*
X58056Y13921D01*
X58190D01*
X58146Y13795D01*
X58253D01*
X58292Y13921D01*
X58378D01*
X58352Y13838D01*
X58427Y13902D01*
X58427Y13902D01*
X58429Y13903D01*
X58430Y13904D01*
X58432Y13906D01*
X58435Y13908D01*
X58439Y13910D01*
X58447Y13915D01*
X58456Y13919D01*
X58467Y13923D01*
X58480Y13926D01*
X58486Y13927D01*
X58494D01*
X58497Y13926D01*
X58501Y13925D01*
X58505Y13924D01*
X58509Y13920D01*
X58513Y13916D01*
X58516Y13910D01*
X58517Y13906D01*
Y13902D01*
Y13902D01*
Y13901D01*
Y13899D01*
X58516Y13897D01*
X58515Y13891D01*
X58513Y13883D01*
X58485Y13795D01*
X58584D01*
X58579Y13803D01*
X58577Y13809D01*
X58575Y13814D01*
X58574Y13820D01*
X58574Y13826D01*
Y13827D01*
Y13829D01*
X58574Y13831D01*
Y13834D01*
X58575Y13838D01*
X58576Y13843D01*
X58579Y13853D01*
X58581Y13858D01*
X58584Y13864D01*
X58587Y13870D01*
X58591Y13876D01*
X58596Y13882D01*
X58601Y13887D01*
X58607Y13893D01*
X58614Y13898D01*
X58614D01*
X58616Y13899D01*
X58617Y13900D01*
X58620Y13901D01*
X58623Y13904D01*
X58627Y13905D01*
X58632Y13907D01*
X58637Y13910D01*
X58643Y13911D01*
X58649Y13914D01*
X58663Y13917D01*
X58679Y13920D01*
X58696Y13921D01*
X58737D01*
X58743Y13920D01*
X58750Y13920D01*
X58758Y13919D01*
X58767Y13916D01*
X58777Y13914D01*
X58785Y13911D01*
X58786D01*
X58787Y13910D01*
X58790Y13909D01*
X58795Y13906D01*
X58801Y13901D01*
X58807Y13896D01*
X58813Y13890D01*
X58816Y13881D01*
X58818Y13877D01*
X58818Y13872D01*
Y13871D01*
Y13868D01*
X58817Y13864D01*
X58815Y13858D01*
X58813Y13851D01*
X58808Y13844D01*
X58801Y13836D01*
X58798Y13833D01*
X58793Y13830D01*
X58713D01*
X58739Y13882D01*
X58688D01*
X58668Y13823D01*
Y13823D01*
X58668Y13820D01*
X58667Y13817D01*
X58667Y13814D01*
Y13814D01*
X58667Y13811D01*
X58668Y13808D01*
X58671Y13805D01*
X58674Y13801D01*
X58680Y13798D01*
X58683Y13796D01*
X58688Y13796D01*
X58692Y13795D01*
X58882D01*
X58880Y13802D01*
X58880Y13812D01*
Y13813D01*
Y13814D01*
X58880Y13817D01*
Y13821D01*
X58881Y13825D01*
X58882Y13830D01*
X58883Y13836D01*
X58885Y13842D01*
X58887Y13849D01*
X58890Y13855D01*
X58893Y13863D01*
X58897Y13869D01*
X58902Y13876D01*
X58907Y13882D01*
X58914Y13889D01*
X58921Y13895D01*
X58921Y13895D01*
X58922Y13896D01*
X58925Y13897D01*
X58927Y13899D01*
X58931Y13901D01*
X58935Y13903D01*
X58940Y13905D01*
X58946Y13908D01*
X58952Y13910D01*
X58959Y13912D01*
X58966Y13915D01*
X58974Y13917D01*
X58992Y13920D01*
X59001Y13921D01*
X59060D01*
X59099Y14048D01*
X59186D01*
X59107Y13795D01*
D02*
G37*
G36*
X57621Y13995D02*
X57623Y13995D01*
X57625Y13994D01*
X57632Y13992D01*
X57640Y13988D01*
X57647Y13983D01*
X57654Y13977D01*
X57656Y13973D01*
X57658Y13969D01*
X57659Y13965D01*
X57660Y13959D01*
Y13959D01*
Y13956D01*
X57659Y13953D01*
X57659Y13949D01*
X57657Y13944D01*
X57655Y13938D01*
X57653Y13932D01*
X57649Y13927D01*
X57650Y13926D01*
X57651Y13923D01*
X57653Y13918D01*
X57655Y13912D01*
X57658Y13905D01*
X57660Y13897D01*
X57664Y13888D01*
X57667Y13879D01*
Y13879D01*
X57668Y13878D01*
X57668Y13876D01*
X57669Y13874D01*
X57671Y13869D01*
X57673Y13861D01*
X57675Y13854D01*
X57677Y13846D01*
X57678Y13838D01*
X57679Y13830D01*
Y13829D01*
Y13827D01*
X57678Y13823D01*
X57677Y13818D01*
X57675Y13813D01*
X57672Y13806D01*
X57668Y13800D01*
X57662Y13795D01*
X57757D01*
X57757Y13796D01*
X57759Y13803D01*
X57795Y13921D01*
X57882D01*
X57843Y13795D01*
X57942D01*
X57942Y13794D01*
X57941Y13791D01*
X57939Y13788D01*
X57937Y13783D01*
X57933Y13778D01*
X57928Y13773D01*
X57922Y13768D01*
X57916Y13763D01*
X57915Y13763D01*
X57913Y13762D01*
X57911Y13761D01*
X57907Y13760D01*
X57902Y13758D01*
X57897Y13757D01*
X57891Y13757D01*
X57885Y13756D01*
X57786D01*
X57785Y13757D01*
X57779Y13758D01*
X57773Y13760D01*
X57766Y13763D01*
X57761Y13768D01*
X57759Y13771D01*
X57758Y13775D01*
X57756Y13780D01*
X57756Y13785D01*
Y13785D01*
X57754Y13781D01*
X57750Y13776D01*
X57746Y13771D01*
X57740Y13767D01*
X57739Y13766D01*
X57736Y13765D01*
X57733Y13764D01*
X57728Y13761D01*
X57723Y13759D01*
X57716Y13758D01*
X57709Y13757D01*
X57701Y13756D01*
X57512D01*
X57509Y13757D01*
X57505Y13757D01*
X57501Y13758D01*
X57491Y13760D01*
X57481Y13764D01*
X57477Y13766D01*
X57473Y13770D01*
X57469Y13773D01*
X57467Y13778D01*
X57465Y13783D01*
X57465Y13787D01*
X57463Y13784D01*
X57460Y13779D01*
X57456Y13774D01*
X57451Y13770D01*
X57445Y13765D01*
X57444Y13765D01*
X57442Y13764D01*
X57438Y13763D01*
X57433Y13761D01*
X57428Y13759D01*
X57422Y13758D01*
X57415Y13757D01*
X57407Y13756D01*
X57267D01*
X57262Y13757D01*
X57254Y13757D01*
X57245Y13758D01*
X57235Y13760D01*
X57225Y13762D01*
X57214Y13765D01*
X57203Y13769D01*
X57193Y13773D01*
X57183Y13779D01*
X57174Y13786D01*
X57166Y13794D01*
X57160Y13803D01*
X57158Y13809D01*
X57156Y13814D01*
X57156Y13820D01*
X57155Y13826D01*
Y13827D01*
Y13829D01*
X57156Y13831D01*
Y13834D01*
X57156Y13838D01*
X57158Y13843D01*
X57160Y13853D01*
X57163Y13858D01*
X57165Y13864D01*
X57168Y13870D01*
X57172Y13876D01*
X57177Y13882D01*
X57182Y13887D01*
X57188Y13893D01*
X57195Y13898D01*
X57196D01*
X57197Y13899D01*
X57199Y13900D01*
X57201Y13901D01*
X57205Y13904D01*
X57209Y13905D01*
X57213Y13907D01*
X57219Y13910D01*
X57224Y13911D01*
X57230Y13914D01*
X57245Y13917D01*
X57260Y13920D01*
X57277Y13921D01*
X57318D01*
X57324Y13920D01*
X57331Y13920D01*
X57340Y13919D01*
X57348Y13916D01*
X57358Y13914D01*
X57367Y13911D01*
X57367D01*
X57368Y13910D01*
X57372Y13909D01*
X57377Y13906D01*
X57382Y13901D01*
X57388Y13896D01*
X57394Y13890D01*
X57398Y13881D01*
X57399Y13877D01*
X57400Y13872D01*
Y13871D01*
Y13868D01*
X57398Y13864D01*
X57397Y13858D01*
X57394Y13851D01*
X57390Y13844D01*
X57383Y13836D01*
X57379Y13833D01*
X57375Y13830D01*
X57295D01*
X57321Y13882D01*
X57270D01*
X57250Y13823D01*
Y13823D01*
X57249Y13820D01*
X57249Y13817D01*
X57248Y13814D01*
Y13814D01*
X57249Y13811D01*
X57250Y13808D01*
X57252Y13805D01*
X57256Y13801D01*
X57261Y13798D01*
X57265Y13796D01*
X57269Y13796D01*
X57274Y13795D01*
X57465D01*
D01*
Y13795D01*
X57466Y13797D01*
X57466Y13800D01*
X57468Y13803D01*
X57469Y13806D01*
X57472Y13810D01*
X57476Y13814D01*
X57480Y13817D01*
X57481Y13818D01*
X57482Y13818D01*
X57484Y13819D01*
X57488Y13821D01*
X57492Y13822D01*
X57497Y13823D01*
X57502Y13824D01*
X57507Y13824D01*
X57510D01*
X57512Y13824D01*
X57514Y13823D01*
X57518Y13823D01*
X57526Y13820D01*
X57536Y13816D01*
X57548Y13811D01*
X57562Y13805D01*
X57570Y13800D01*
X57578Y13795D01*
X57579Y13796D01*
X57580Y13798D01*
X57583Y13801D01*
X57585Y13805D01*
X57587Y13810D01*
X57589Y13815D01*
X57591Y13821D01*
X57592Y13828D01*
Y13828D01*
Y13829D01*
X57591Y13832D01*
X57590Y13835D01*
X57589Y13840D01*
X57587Y13847D01*
X57584Y13855D01*
X57581Y13865D01*
X57553Y13840D01*
X57504D01*
X57569Y13900D01*
Y13900D01*
X57569Y13901D01*
X57567Y13904D01*
X57565Y13908D01*
X57563Y13912D01*
Y13912D01*
X57563Y13914D01*
X57562Y13915D01*
X57562Y13918D01*
X57561Y13924D01*
X57560Y13932D01*
X57619Y13996D01*
X57620D01*
X57621Y13995D01*
D02*
G37*
G36*
X64205Y13795D02*
X64307D01*
X64307Y13794D01*
X64306Y13791D01*
X64304Y13788D01*
X64302Y13783D01*
X64298Y13778D01*
X64293Y13773D01*
X64287Y13768D01*
X64279Y13763D01*
X64278Y13763D01*
X64276Y13762D01*
X64273Y13761D01*
X64269Y13760D01*
X64264Y13758D01*
X64259Y13757D01*
X64253Y13757D01*
X64247Y13756D01*
X64150D01*
X64148Y13757D01*
X64142Y13757D01*
X64136Y13759D01*
X64129Y13762D01*
X64123Y13766D01*
X64121Y13769D01*
X64120Y13773D01*
X64118Y13776D01*
X64118Y13780D01*
Y13781D01*
Y13781D01*
X64118Y13784D01*
X64119Y13789D01*
X64118Y13788D01*
X64116Y13783D01*
X64112Y13778D01*
X64107Y13773D01*
X64101Y13768D01*
X64093Y13763D01*
X64093Y13763D01*
X64091Y13762D01*
X64088Y13761D01*
X64084Y13760D01*
X64079Y13758D01*
X64073Y13757D01*
X64067Y13757D01*
X64061Y13756D01*
X63965D01*
X63962Y13757D01*
X63957Y13757D01*
X63950Y13759D01*
X63944Y13762D01*
X63938Y13766D01*
X63936Y13769D01*
X63934Y13773D01*
X63933Y13776D01*
X63932Y13780D01*
Y13781D01*
Y13781D01*
X63933Y13784D01*
X63933Y13788D01*
X63931Y13784D01*
X63928Y13779D01*
X63924Y13774D01*
X63919Y13770D01*
X63913Y13765D01*
X63912Y13765D01*
X63910Y13764D01*
X63907Y13763D01*
X63902Y13761D01*
X63896Y13759D01*
X63890Y13758D01*
X63884Y13757D01*
X63876Y13756D01*
X63736D01*
X63730Y13757D01*
X63723Y13757D01*
X63714Y13758D01*
X63704Y13760D01*
X63693Y13762D01*
X63683Y13765D01*
X63672Y13769D01*
X63661Y13773D01*
X63651Y13779D01*
X63642Y13786D01*
X63635Y13794D01*
X63629Y13803D01*
X63627Y13809D01*
X63625Y13814D01*
X63624Y13820D01*
X63624Y13826D01*
Y13827D01*
Y13829D01*
X63624Y13831D01*
Y13834D01*
X63625Y13838D01*
X63626Y13843D01*
X63629Y13853D01*
X63631Y13858D01*
X63634Y13864D01*
X63637Y13870D01*
X63641Y13876D01*
X63646Y13882D01*
X63651Y13887D01*
X63657Y13893D01*
X63664Y13898D01*
X63664D01*
X63666Y13899D01*
X63667Y13900D01*
X63670Y13901D01*
X63673Y13904D01*
X63677Y13905D01*
X63682Y13907D01*
X63687Y13910D01*
X63693Y13911D01*
X63699Y13914D01*
X63713Y13917D01*
X63729Y13920D01*
X63746Y13921D01*
X63787D01*
X63793Y13920D01*
X63800Y13920D01*
X63808Y13919D01*
X63817Y13916D01*
X63826Y13914D01*
X63835Y13911D01*
X63836D01*
X63836Y13910D01*
X63840Y13909D01*
X63845Y13906D01*
X63851Y13901D01*
X63857Y13896D01*
X63863Y13890D01*
X63866Y13881D01*
X63868Y13877D01*
X63868Y13872D01*
Y13871D01*
Y13868D01*
X63867Y13864D01*
X63865Y13858D01*
X63863Y13851D01*
X63858Y13844D01*
X63851Y13836D01*
X63848Y13833D01*
X63843Y13830D01*
X63763D01*
X63789Y13882D01*
X63738D01*
X63718Y13823D01*
Y13823D01*
X63718Y13820D01*
X63717Y13817D01*
X63717Y13814D01*
Y13814D01*
X63717Y13811D01*
X63718Y13808D01*
X63720Y13805D01*
X63724Y13801D01*
X63730Y13798D01*
X63733Y13796D01*
X63738Y13796D01*
X63742Y13795D01*
X63935D01*
X64013Y14048D01*
X64098D01*
X64020Y13795D01*
X64120D01*
X64199Y14048D01*
X64283D01*
X64205Y13795D01*
D02*
G37*
G36*
X61912D02*
X62010D01*
Y13794D01*
X62009Y13791D01*
X62008Y13788D01*
X62006Y13783D01*
X62003Y13778D01*
X61999Y13773D01*
X61994Y13768D01*
X61988Y13764D01*
X61987Y13763D01*
X61986Y13763D01*
X61983Y13761D01*
X61979Y13760D01*
X61975Y13758D01*
X61970Y13757D01*
X61965Y13757D01*
X61959Y13756D01*
X61855D01*
X61853Y13757D01*
X61847Y13757D01*
X61841Y13759D01*
X61834Y13761D01*
X61828Y13765D01*
X61826Y13768D01*
X61825Y13771D01*
X61823Y13774D01*
X61823Y13778D01*
X61822Y13777D01*
X61820Y13775D01*
X61815Y13771D01*
X61810Y13767D01*
X61802Y13763D01*
X61793Y13759D01*
X61783Y13757D01*
X61771Y13756D01*
X61726D01*
X61722Y13757D01*
X61718Y13757D01*
X61713Y13758D01*
X61708Y13760D01*
X61703Y13763D01*
X61699Y13766D01*
X61698Y13766D01*
X61697Y13768D01*
X61695Y13770D01*
X61694Y13773D01*
X61692Y13776D01*
X61690Y13780D01*
X61689Y13785D01*
X61689Y13791D01*
Y13791D01*
Y13793D01*
Y13794D01*
X61689Y13796D01*
X61690Y13802D01*
X61691Y13809D01*
X61732Y13921D01*
X61820D01*
X61775Y13795D01*
X61824D01*
X61869Y13921D01*
X61956D01*
X61912Y13795D01*
D02*
G37*
G36*
X57016Y14096D02*
X57022D01*
X57028Y14096D01*
X57034Y14094D01*
X57042Y14093D01*
X57058Y14091D01*
X57075Y14086D01*
X57092Y14080D01*
X57100Y14075D01*
X57108Y14071D01*
X57108Y14070D01*
X57110Y14070D01*
X57112Y14067D01*
X57115Y14065D01*
X57119Y14062D01*
X57123Y14058D01*
X57127Y14053D01*
X57131Y14048D01*
X57136Y14043D01*
X57140Y14036D01*
X57144Y14029D01*
X57148Y14021D01*
X57151Y14013D01*
X57153Y14003D01*
X57155Y13994D01*
X57155Y13983D01*
Y13983D01*
Y13981D01*
Y13979D01*
X57155Y13976D01*
X57154Y13972D01*
X57154Y13967D01*
X57153Y13961D01*
X57151Y13955D01*
X57150Y13949D01*
X57148Y13941D01*
X57142Y13925D01*
X57139Y13917D01*
X57135Y13908D01*
X57130Y13899D01*
X57124Y13890D01*
X57124Y13889D01*
X57123Y13887D01*
X57120Y13884D01*
X57117Y13879D01*
X57113Y13874D01*
X57108Y13867D01*
X57102Y13860D01*
X57094Y13853D01*
X57087Y13845D01*
X57078Y13836D01*
X57068Y13828D01*
X57057Y13819D01*
X57046Y13811D01*
X57033Y13803D01*
X57020Y13796D01*
X57006Y13789D01*
X57006Y13788D01*
X57003Y13787D01*
X56999Y13786D01*
X56994Y13784D01*
X56987Y13781D01*
X56979Y13778D01*
X56970Y13775D01*
X56960Y13773D01*
X56949Y13769D01*
X56937Y13766D01*
X56924Y13764D01*
X56911Y13761D01*
X56897Y13759D01*
X56883Y13758D01*
X56868Y13757D01*
X56853Y13756D01*
X56773D01*
X56850Y14005D01*
X56936D01*
X56871Y13795D01*
X56876D01*
X56880Y13795D01*
X56884Y13796D01*
X56889Y13796D01*
X56895Y13797D01*
X56901Y13799D01*
X56916Y13802D01*
X56932Y13807D01*
X56941Y13810D01*
X56949Y13814D01*
X56958Y13819D01*
X56967Y13824D01*
X56967Y13824D01*
X56969Y13825D01*
X56971Y13826D01*
X56974Y13829D01*
X56978Y13832D01*
X56983Y13835D01*
X56993Y13844D01*
X57004Y13854D01*
X57016Y13867D01*
X57027Y13881D01*
X57032Y13889D01*
X57036Y13896D01*
Y13897D01*
X57037Y13898D01*
X57038Y13900D01*
X57039Y13902D01*
X57040Y13906D01*
X57042Y13910D01*
X57046Y13919D01*
X57050Y13929D01*
X57053Y13939D01*
X57055Y13950D01*
X57056Y13960D01*
Y13960D01*
Y13961D01*
Y13964D01*
X57055Y13966D01*
Y13970D01*
X57055Y13974D01*
X57053Y13983D01*
X57050Y13992D01*
X57046Y14002D01*
X57040Y14012D01*
X57033Y14020D01*
X57032Y14020D01*
X57029Y14022D01*
X57024Y14025D01*
X57017Y14028D01*
X57008Y14031D01*
X56997Y14033D01*
X56983Y14035D01*
X56968Y14036D01*
X56735D01*
X56772Y14097D01*
X57012D01*
X57016Y14096D01*
D02*
G37*
G36*
X62691Y14096D02*
X62696Y14096D01*
X62702Y14094D01*
X62708Y14091D01*
X62713Y14087D01*
X62715Y14085D01*
X62717Y14081D01*
X62718Y14077D01*
X62718Y14073D01*
Y14073D01*
Y14072D01*
Y14070D01*
X62718Y14068D01*
X62717Y14065D01*
X62716Y14061D01*
X62713Y14052D01*
X62666Y13901D01*
X62771Y14021D01*
X62772Y14022D01*
X62774Y14024D01*
X62778Y14027D01*
X62781Y14032D01*
X62790Y14041D01*
X62795Y14045D01*
X62799Y14047D01*
X62799Y14048D01*
X62801Y14049D01*
X62805Y14051D01*
X62810Y14053D01*
X62815Y14055D01*
X62822Y14056D01*
X62830Y14057D01*
X62839Y14058D01*
X62840D01*
X62844Y14057D01*
X62849Y14056D01*
X62854Y14052D01*
X62855Y14052D01*
X62856Y14051D01*
X62858Y14049D01*
X62860Y14047D01*
X62862Y14043D01*
X62865Y14039D01*
X62866Y14035D01*
X62866Y14029D01*
Y14028D01*
Y14027D01*
Y14025D01*
X62866Y14022D01*
X62865Y14019D01*
X62864Y14016D01*
X62861Y14007D01*
X62822Y13882D01*
X62925Y13972D01*
X62926Y13973D01*
X62928Y13976D01*
X62931Y13979D01*
X62935Y13983D01*
X62940Y13988D01*
X62944Y13992D01*
X62948Y13996D01*
X62951Y13998D01*
X62951Y13998D01*
X62953Y13999D01*
X62955Y14000D01*
X62959Y14001D01*
X62963Y14002D01*
X62969Y14003D01*
X62976Y14005D01*
X62985D01*
X62986Y14004D01*
X62988D01*
X62994Y14002D01*
X62997Y14000D01*
X63001Y13998D01*
X63001Y13997D01*
X63003Y13996D01*
X63005Y13994D01*
X63008Y13991D01*
X63011Y13987D01*
X63013Y13982D01*
X63014Y13977D01*
X63015Y13970D01*
Y13970D01*
Y13969D01*
Y13966D01*
X63014Y13964D01*
X63014Y13960D01*
X63013Y13956D01*
X63010Y13947D01*
X62952Y13795D01*
X63059D01*
X63058Y13796D01*
X63054Y13806D01*
X63051Y13816D01*
X63050Y13822D01*
X63049Y13828D01*
Y13829D01*
Y13829D01*
Y13832D01*
X63050Y13836D01*
X63051Y13841D01*
Y13841D01*
X63052Y13843D01*
Y13844D01*
X63053Y13847D01*
X63054Y13854D01*
X63058Y13862D01*
X63062Y13871D01*
X63069Y13881D01*
X63077Y13890D01*
X63087Y13899D01*
X63087D01*
X63088Y13900D01*
X63090Y13901D01*
X63093Y13902D01*
X63096Y13904D01*
X63099Y13906D01*
X63104Y13907D01*
X63109Y13910D01*
X63116Y13912D01*
X63122Y13914D01*
X63129Y13916D01*
X63136Y13917D01*
X63144Y13919D01*
X63153Y13920D01*
X63172Y13921D01*
X63345D01*
X63345Y13924D01*
Y13924D01*
Y13925D01*
X63345Y13928D01*
X63346Y13933D01*
X63348Y13940D01*
X63351Y13946D01*
X63355Y13954D01*
X63362Y13961D01*
X63366Y13964D01*
X63370Y13967D01*
X63371Y13967D01*
X63374Y13969D01*
X63379Y13971D01*
X63385Y13973D01*
X63392Y13976D01*
X63400Y13977D01*
X63410Y13979D01*
X63421Y13980D01*
X63460D01*
X63440Y13921D01*
X63569D01*
X63530Y13795D01*
X63632D01*
Y13794D01*
Y13792D01*
X63631Y13789D01*
X63630Y13785D01*
X63628Y13780D01*
X63624Y13775D01*
X63619Y13770D01*
X63613Y13766D01*
X63613Y13765D01*
X63611Y13764D01*
X63607Y13763D01*
X63603Y13761D01*
X63598Y13759D01*
X63592Y13758D01*
X63586Y13757D01*
X63579Y13756D01*
X63482D01*
X63480Y13757D01*
X63474Y13758D01*
X63467Y13760D01*
X63460Y13763D01*
X63455Y13769D01*
X63452Y13772D01*
X63450Y13776D01*
X63449Y13781D01*
X63449Y13786D01*
Y13786D01*
Y13787D01*
Y13789D01*
X63449Y13791D01*
X63450Y13796D01*
X63452Y13803D01*
X63476Y13882D01*
X63427D01*
X63392Y13812D01*
X63391Y13811D01*
X63391Y13809D01*
X63389Y13806D01*
X63386Y13804D01*
X63383Y13800D01*
X63379Y13798D01*
X63374Y13795D01*
X63367Y13795D01*
X63346D01*
X63377Y13882D01*
X63264D01*
X63264Y13881D01*
X63266Y13879D01*
X63268Y13877D01*
X63270Y13875D01*
X63272Y13871D01*
X63274Y13867D01*
X63276Y13862D01*
Y13861D01*
X63276Y13860D01*
X63278Y13857D01*
X63278Y13854D01*
X63280Y13846D01*
X63280Y13838D01*
Y13837D01*
Y13836D01*
X63280Y13834D01*
X63279Y13831D01*
X63279Y13828D01*
X63278Y13824D01*
X63274Y13814D01*
X63270Y13804D01*
X63264Y13794D01*
X63260Y13789D01*
X63255Y13784D01*
X63250Y13779D01*
X63244Y13774D01*
X63244D01*
X63243Y13773D01*
X63241Y13772D01*
X63239Y13771D01*
X63236Y13769D01*
X63232Y13768D01*
X63228Y13765D01*
X63223Y13763D01*
X63218Y13761D01*
X63212Y13759D01*
X63198Y13756D01*
X63182Y13753D01*
X63164Y13752D01*
X63159D01*
X63155Y13753D01*
X63150D01*
X63145Y13753D01*
X63139Y13754D01*
X63132Y13755D01*
X63118Y13758D01*
X63103Y13761D01*
X63089Y13767D01*
X63083Y13770D01*
X63077Y13774D01*
X63076D01*
X63076Y13775D01*
X63072Y13778D01*
X63068Y13783D01*
X63063Y13789D01*
X63061Y13793D01*
X63060Y13791D01*
X63058Y13789D01*
X63057Y13786D01*
X63055Y13783D01*
X63052Y13779D01*
X63049Y13775D01*
X63044Y13772D01*
X63040Y13768D01*
X63034Y13765D01*
X63028Y13762D01*
X63021Y13759D01*
X63013Y13758D01*
X63003Y13757D01*
X62993Y13756D01*
X62903D01*
X62901Y13757D01*
X62894Y13757D01*
X62887Y13759D01*
X62879Y13761D01*
X62872Y13766D01*
X62870Y13769D01*
X62868Y13771D01*
X62867Y13775D01*
X62866Y13779D01*
Y13780D01*
Y13781D01*
X62867Y13783D01*
Y13785D01*
X62867Y13788D01*
X62869Y13792D01*
X62871Y13801D01*
X62912Y13905D01*
X62783Y13783D01*
Y13782D01*
X62783Y13781D01*
X62780Y13778D01*
X62776Y13773D01*
X62772Y13768D01*
X62766Y13761D01*
X62760Y13757D01*
X62753Y13753D01*
X62749Y13753D01*
X62745Y13752D01*
X62743D01*
X62740Y13753D01*
X62737Y13753D01*
X62736D01*
X62733Y13754D01*
X62729Y13755D01*
X62725Y13758D01*
X62720Y13761D01*
X62716Y13766D01*
X62713Y13772D01*
X62713Y13776D01*
X62712Y13780D01*
Y13781D01*
Y13782D01*
Y13784D01*
X62713Y13786D01*
X62714Y13793D01*
X62716Y13801D01*
X62764Y13955D01*
X62619Y13781D01*
X62619Y13780D01*
X62617Y13777D01*
X62614Y13773D01*
X62609Y13769D01*
X62603Y13764D01*
X62597Y13760D01*
X62588Y13757D01*
X62584Y13757D01*
X62579Y13756D01*
X62534D01*
X62620Y14036D01*
X62497D01*
X62532Y14097D01*
X62689D01*
X62691Y14096D01*
D02*
G37*
G36*
X59482Y13795D02*
X59487D01*
X59491Y13796D01*
X59495Y13796D01*
X59500Y13797D01*
X59511Y13800D01*
X59517Y13802D01*
X59524Y13805D01*
X59530Y13808D01*
X59536Y13812D01*
X59542Y13817D01*
X59547Y13823D01*
X59552Y13829D01*
X59557Y13837D01*
X59556Y13838D01*
X59554Y13840D01*
X59550Y13843D01*
X59546Y13847D01*
X59542Y13853D01*
X59538Y13859D01*
X59536Y13866D01*
X59535Y13875D01*
Y13876D01*
Y13878D01*
X59535Y13881D01*
X59536Y13886D01*
X59538Y13891D01*
X59541Y13897D01*
X59544Y13902D01*
X59549Y13907D01*
X59550Y13908D01*
X59552Y13910D01*
X59555Y13912D01*
X59559Y13914D01*
X59564Y13916D01*
X59570Y13919D01*
X59577Y13920D01*
X59584Y13921D01*
X59834Y13921D01*
Y13920D01*
X59834Y13919D01*
X59833Y13917D01*
X59831Y13915D01*
X59827Y13909D01*
X59822Y13901D01*
X59814Y13894D01*
X59805Y13888D01*
X59801Y13886D01*
X59771Y13795D01*
X59815D01*
X59854Y13921D01*
X59940D01*
X59901Y13795D01*
X60009D01*
Y13794D01*
X60008Y13793D01*
X60007Y13791D01*
X60006Y13789D01*
X60002Y13783D01*
X59996Y13775D01*
X59989Y13768D01*
X59979Y13762D01*
X59973Y13759D01*
X59967Y13758D01*
X59960Y13757D01*
X59953Y13756D01*
X59890D01*
Y13755D01*
X59889Y13754D01*
X59888Y13750D01*
X59887Y13747D01*
X59885Y13742D01*
X59883Y13737D01*
X59880Y13730D01*
X59878Y13724D01*
X59871Y13710D01*
X59864Y13696D01*
X59856Y13683D01*
X59852Y13677D01*
X59848Y13672D01*
X59847Y13671D01*
X59846Y13670D01*
X59844Y13668D01*
X59842Y13665D01*
X59839Y13663D01*
X59835Y13659D01*
X59831Y13656D01*
X59826Y13652D01*
X59814Y13645D01*
X59801Y13639D01*
X59794Y13636D01*
X59786Y13634D01*
X59778Y13633D01*
X59769Y13633D01*
X59766D01*
X59764Y13633D01*
X59759Y13634D01*
X59752Y13635D01*
X59745Y13637D01*
X59738Y13641D01*
X59731Y13644D01*
X59724Y13650D01*
X59723Y13651D01*
X59722Y13653D01*
X59719Y13657D01*
X59717Y13662D01*
X59714Y13667D01*
X59712Y13674D01*
X59711Y13682D01*
X59710Y13691D01*
Y13692D01*
Y13694D01*
X59711Y13698D01*
X59711Y13703D01*
X59712Y13708D01*
X59713Y13715D01*
X59716Y13722D01*
X59718Y13728D01*
X59719Y13729D01*
X59720Y13731D01*
X59722Y13734D01*
X59724Y13739D01*
X59727Y13743D01*
X59731Y13748D01*
X59735Y13752D01*
X59740Y13756D01*
X59719D01*
X59716Y13757D01*
X59712Y13757D01*
X59708Y13758D01*
X59704Y13760D01*
X59699Y13762D01*
X59695Y13765D01*
X59694Y13766D01*
X59693Y13767D01*
X59692Y13769D01*
X59690Y13772D01*
X59688Y13776D01*
X59687Y13780D01*
X59686Y13785D01*
X59685Y13790D01*
Y13790D01*
Y13791D01*
Y13794D01*
X59686Y13799D01*
X59687Y13804D01*
X59712Y13882D01*
X59650D01*
Y13881D01*
X59650Y13879D01*
X59649Y13875D01*
X59648Y13871D01*
X59646Y13865D01*
X59644Y13858D01*
X59641Y13851D01*
X59638Y13843D01*
X59633Y13835D01*
X59628Y13826D01*
X59623Y13818D01*
X59616Y13810D01*
X59608Y13801D01*
X59600Y13794D01*
X59590Y13786D01*
X59578Y13780D01*
X59578D01*
X59576Y13779D01*
X59574Y13778D01*
X59571Y13776D01*
X59566Y13774D01*
X59561Y13772D01*
X59555Y13770D01*
X59548Y13768D01*
X59541Y13766D01*
X59532Y13764D01*
X59524Y13761D01*
X59515Y13760D01*
X59495Y13757D01*
X59484Y13757D01*
X59472Y13756D01*
X59426D01*
X59424Y13757D01*
X59421D01*
X59415Y13758D01*
X59408Y13761D01*
X59407Y13762D01*
X59406Y13763D01*
X59404Y13765D01*
X59402Y13768D01*
X59400Y13770D01*
X59398Y13775D01*
X59396Y13779D01*
X59396Y13785D01*
Y13785D01*
Y13786D01*
Y13788D01*
X59396Y13791D01*
X59398Y13797D01*
X59399Y13805D01*
X59475Y14048D01*
X59561D01*
X59482Y13795D01*
D02*
G37*
G36*
X64228Y13545D02*
X64234Y13543D01*
X64242Y13541D01*
X64249Y13539D01*
X64257Y13534D01*
X64264Y13529D01*
X64265Y13528D01*
X64267Y13526D01*
X64270Y13522D01*
X64274Y13517D01*
X64277Y13511D01*
X64280Y13504D01*
X64283Y13496D01*
X64283Y13487D01*
Y13486D01*
Y13484D01*
X64282Y13479D01*
X64281Y13474D01*
X64279Y13467D01*
X64275Y13460D01*
X64270Y13453D01*
X64264Y13446D01*
X64263Y13446D01*
X64261Y13444D01*
X64257Y13441D01*
X64252Y13438D01*
X64245Y13435D01*
X64237Y13432D01*
X64228Y13430D01*
X64219Y13430D01*
X64218D01*
X64214Y13430D01*
X64209Y13431D01*
X64203Y13432D01*
X64196Y13434D01*
X64188Y13437D01*
X64181Y13441D01*
X64173Y13446D01*
X64173Y13447D01*
X64171Y13450D01*
X64168Y13453D01*
X64164Y13458D01*
X64161Y13464D01*
X64158Y13471D01*
X64156Y13479D01*
X64155Y13487D01*
Y13488D01*
Y13489D01*
X64156Y13491D01*
X64156Y13496D01*
X64157Y13501D01*
X64159Y13508D01*
X64163Y13515D01*
X64167Y13522D01*
X64173Y13529D01*
X64174Y13529D01*
X64177Y13531D01*
X64181Y13534D01*
X64186Y13537D01*
X64193Y13540D01*
X64201Y13543D01*
X64209Y13545D01*
X64219Y13546D01*
X64223D01*
X64228Y13545D01*
D02*
G37*
G36*
X62562Y13564D02*
X62567D01*
X62573Y13563D01*
X62579Y13563D01*
X62593Y13561D01*
X62607Y13558D01*
X62620Y13555D01*
X62627Y13553D01*
X62632Y13551D01*
X62633D01*
X62634Y13550D01*
X62636Y13548D01*
X62639Y13547D01*
X62645Y13542D01*
X62649Y13539D01*
X62653Y13535D01*
X62657Y13531D01*
X62660Y13526D01*
X62664Y13521D01*
X62667Y13515D01*
X62669Y13508D01*
X62671Y13500D01*
X62673Y13492D01*
X62673Y13484D01*
Y13483D01*
Y13480D01*
X62673Y13477D01*
X62671Y13471D01*
X62670Y13465D01*
X62668Y13458D01*
X62665Y13450D01*
X62660Y13441D01*
X62655Y13432D01*
X62649Y13422D01*
X62640Y13412D01*
X62630Y13401D01*
X62619Y13391D01*
X62605Y13380D01*
X62598Y13375D01*
X62590Y13370D01*
X62582Y13365D01*
X62572Y13360D01*
X62572Y13360D01*
X62569Y13359D01*
X62565Y13357D01*
X62561Y13355D01*
X62554Y13352D01*
X62546Y13349D01*
X62537Y13345D01*
X62527Y13341D01*
X62516Y13336D01*
X62503Y13333D01*
X62491Y13328D01*
X62476Y13324D01*
X62461Y13319D01*
X62446Y13315D01*
X62429Y13312D01*
X62412Y13308D01*
X62386Y13224D01*
X62299D01*
X62376Y13472D01*
X62463D01*
X62426Y13355D01*
X62427D01*
X62428Y13356D01*
X62431Y13356D01*
X62435Y13358D01*
X62439Y13359D01*
X62444Y13360D01*
X62449Y13362D01*
X62456Y13364D01*
X62469Y13368D01*
X62484Y13374D01*
X62499Y13381D01*
X62513Y13389D01*
X62514Y13389D01*
X62516Y13390D01*
X62518Y13392D01*
X62522Y13394D01*
X62526Y13398D01*
X62531Y13401D01*
X62535Y13405D01*
X62541Y13410D01*
X62551Y13421D01*
X62555Y13427D01*
X62559Y13433D01*
X62563Y13440D01*
X62566Y13447D01*
X62568Y13455D01*
X62569Y13462D01*
Y13463D01*
Y13464D01*
Y13467D01*
X62568Y13471D01*
X62567Y13477D01*
X62565Y13483D01*
X62562Y13489D01*
X62557Y13494D01*
X62551Y13498D01*
X62550D01*
X62548Y13499D01*
X62545Y13500D01*
X62541Y13501D01*
X62535Y13502D01*
X62528Y13502D01*
X62519Y13504D01*
X62261D01*
X62299Y13565D01*
X62557D01*
X62562Y13564D01*
D02*
G37*
G36*
X64031Y13389D02*
X64090D01*
Y13388D01*
X64089Y13387D01*
X64088Y13385D01*
X64087Y13383D01*
X64083Y13376D01*
X64077Y13369D01*
X64070Y13362D01*
X64065Y13359D01*
X64060Y13356D01*
X64054Y13353D01*
X64048Y13351D01*
X64041Y13350D01*
X64033Y13350D01*
X64018D01*
X63992Y13263D01*
X64122D01*
X64122Y13264D01*
X64123Y13270D01*
X64160Y13389D01*
X64247D01*
X64208Y13263D01*
X64307D01*
X64307Y13262D01*
X64306Y13259D01*
X64304Y13255D01*
X64302Y13250D01*
X64298Y13245D01*
X64293Y13240D01*
X64287Y13235D01*
X64280Y13231D01*
X64280Y13230D01*
X64278Y13230D01*
X64275Y13229D01*
X64272Y13228D01*
X64267Y13226D01*
X64262Y13225D01*
X64256Y13224D01*
X64250Y13224D01*
X64151D01*
X64149Y13224D01*
X64144Y13225D01*
X64138Y13228D01*
X64131Y13231D01*
X64126Y13236D01*
X64124Y13239D01*
X64122Y13243D01*
X64121Y13248D01*
X64121Y13253D01*
Y13253D01*
Y13254D01*
Y13256D01*
X64121Y13258D01*
X64121Y13258D01*
X64120Y13257D01*
X64117Y13250D01*
X64114Y13247D01*
X64111Y13243D01*
X64107Y13240D01*
X64103Y13236D01*
X64098Y13233D01*
X64092Y13230D01*
X64086Y13227D01*
X64078Y13225D01*
X64071Y13224D01*
X64062Y13224D01*
X63935Y13224D01*
X63933Y13224D01*
X63927Y13225D01*
X63921Y13227D01*
X63914Y13230D01*
X63909Y13234D01*
X63906Y13237D01*
X63905Y13240D01*
X63904Y13244D01*
X63903Y13249D01*
Y13249D01*
Y13250D01*
X63904Y13253D01*
X63904Y13255D01*
X63901Y13250D01*
X63899Y13247D01*
X63895Y13243D01*
X63892Y13240D01*
X63888Y13236D01*
X63883Y13233D01*
X63877Y13230D01*
X63870Y13227D01*
X63863Y13225D01*
X63855Y13224D01*
X63846Y13224D01*
X63720D01*
X63718Y13224D01*
X63712Y13225D01*
X63705Y13227D01*
X63699Y13230D01*
X63693Y13234D01*
X63691Y13237D01*
X63689Y13240D01*
X63688Y13244D01*
X63688Y13249D01*
Y13249D01*
Y13250D01*
X63688Y13253D01*
X63689Y13257D01*
X63690Y13262D01*
X63717Y13350D01*
X63681D01*
D01*
X63607D01*
X63608Y13349D01*
X63609Y13347D01*
X63611Y13345D01*
X63613Y13343D01*
X63616Y13339D01*
X63617Y13335D01*
X63619Y13330D01*
Y13329D01*
X63620Y13328D01*
X63621Y13325D01*
X63622Y13321D01*
X63623Y13314D01*
X63624Y13305D01*
Y13305D01*
Y13304D01*
X63623Y13302D01*
X63623Y13299D01*
X63622Y13295D01*
X63621Y13292D01*
X63618Y13282D01*
X63613Y13272D01*
X63607Y13262D01*
X63603Y13257D01*
X63598Y13252D01*
X63593Y13247D01*
X63588Y13242D01*
X63587D01*
X63586Y13241D01*
X63584Y13240D01*
X63582Y13239D01*
X63579Y13237D01*
X63576Y13235D01*
X63571Y13233D01*
X63566Y13231D01*
X63561Y13229D01*
X63555Y13227D01*
X63541Y13224D01*
X63526Y13221D01*
X63508Y13220D01*
X63502D01*
X63498Y13220D01*
X63493D01*
X63488Y13221D01*
X63482Y13222D01*
X63476Y13223D01*
X63461Y13225D01*
X63447Y13229D01*
X63433Y13235D01*
X63426Y13238D01*
X63420Y13242D01*
X63420D01*
X63419Y13243D01*
X63416Y13246D01*
X63412Y13250D01*
X63407Y13257D01*
X63402Y13264D01*
X63397Y13274D01*
X63394Y13284D01*
X63394Y13290D01*
X63393Y13296D01*
Y13297D01*
Y13297D01*
Y13300D01*
X63394Y13304D01*
X63395Y13309D01*
Y13309D01*
X63395Y13310D01*
Y13312D01*
X63396Y13315D01*
X63398Y13321D01*
X63401Y13330D01*
X63406Y13339D01*
X63412Y13349D01*
X63420Y13358D01*
X63430Y13366D01*
X63431D01*
X63432Y13368D01*
X63434Y13369D01*
X63436Y13370D01*
X63439Y13371D01*
X63443Y13374D01*
X63448Y13375D01*
X63453Y13378D01*
X63459Y13380D01*
X63465Y13381D01*
X63472Y13384D01*
X63480Y13385D01*
X63488Y13386D01*
X63497Y13388D01*
X63516Y13389D01*
X63695D01*
X63697Y13389D01*
X63699Y13390D01*
X63702Y13390D01*
X63704Y13391D01*
X63708Y13393D01*
X63717Y13396D01*
X63726Y13400D01*
X63735Y13405D01*
X63745Y13410D01*
X63753Y13416D01*
X63754Y13418D01*
X63757Y13420D01*
X63761Y13425D01*
X63764Y13428D01*
X63767Y13432D01*
X63770Y13436D01*
X63773Y13441D01*
X63777Y13447D01*
X63781Y13454D01*
X63785Y13461D01*
X63790Y13469D01*
X63794Y13477D01*
X63799Y13486D01*
X63846D01*
X63816Y13389D01*
X63874D01*
Y13388D01*
X63874Y13387D01*
X63873Y13385D01*
X63871Y13383D01*
X63868Y13376D01*
X63862Y13369D01*
X63854Y13362D01*
X63850Y13359D01*
X63844Y13356D01*
X63839Y13353D01*
X63833Y13351D01*
X63825Y13350D01*
X63818Y13350D01*
X63803D01*
X63777Y13263D01*
X63906D01*
X63932Y13350D01*
X63896D01*
X63910Y13389D01*
X63911D01*
X63912Y13389D01*
X63914Y13390D01*
X63917Y13390D01*
X63920Y13391D01*
X63924Y13393D01*
X63932Y13396D01*
X63941Y13400D01*
X63951Y13405D01*
X63960Y13410D01*
X63968Y13416D01*
X63969Y13418D01*
X63972Y13420D01*
X63976Y13425D01*
X63979Y13428D01*
X63982Y13432D01*
X63985Y13436D01*
X63989Y13441D01*
X63992Y13447D01*
X63997Y13454D01*
X64001Y13461D01*
X64005Y13469D01*
X64010Y13477D01*
X64014Y13486D01*
X64061D01*
X64031Y13389D01*
D02*
G37*
G36*
X63256Y13564D02*
X63262D01*
X63268Y13563D01*
X63275Y13562D01*
X63282Y13561D01*
X63298Y13558D01*
X63315Y13553D01*
X63332Y13547D01*
X63340Y13543D01*
X63348Y13538D01*
X63349Y13538D01*
X63350Y13537D01*
X63352Y13535D01*
X63355Y13533D01*
X63359Y13530D01*
X63363Y13526D01*
X63367Y13521D01*
X63372Y13516D01*
X63376Y13511D01*
X63381Y13504D01*
X63385Y13497D01*
X63389Y13489D01*
X63391Y13481D01*
X63394Y13471D01*
X63395Y13462D01*
X63396Y13451D01*
Y13451D01*
Y13449D01*
Y13447D01*
X63395Y13444D01*
X63395Y13440D01*
X63394Y13435D01*
X63393Y13429D01*
X63392Y13423D01*
X63390Y13416D01*
X63388Y13409D01*
X63382Y13393D01*
X63379Y13385D01*
X63375Y13376D01*
X63370Y13367D01*
X63365Y13358D01*
X63364Y13357D01*
X63363Y13355D01*
X63360Y13351D01*
X63357Y13347D01*
X63353Y13341D01*
X63348Y13335D01*
X63342Y13328D01*
X63335Y13320D01*
X63327Y13313D01*
X63318Y13304D01*
X63308Y13296D01*
X63298Y13287D01*
X63286Y13279D01*
X63274Y13271D01*
X63260Y13264D01*
X63246Y13257D01*
X63246Y13256D01*
X63243Y13255D01*
X63239Y13254D01*
X63234Y13252D01*
X63228Y13249D01*
X63219Y13246D01*
X63210Y13243D01*
X63200Y13240D01*
X63189Y13237D01*
X63178Y13234D01*
X63165Y13232D01*
X63152Y13229D01*
X63138Y13227D01*
X63123Y13225D01*
X63108Y13224D01*
X63093Y13224D01*
X63013D01*
X63091Y13472D01*
X63177D01*
X63112Y13263D01*
X63117D01*
X63120Y13263D01*
X63124Y13264D01*
X63129Y13264D01*
X63135Y13265D01*
X63142Y13267D01*
X63156Y13270D01*
X63172Y13275D01*
X63181Y13278D01*
X63189Y13282D01*
X63198Y13287D01*
X63207Y13292D01*
X63208Y13292D01*
X63209Y13293D01*
X63212Y13294D01*
X63215Y13297D01*
X63219Y13300D01*
X63223Y13303D01*
X63234Y13312D01*
X63245Y13322D01*
X63256Y13335D01*
X63267Y13349D01*
X63272Y13356D01*
X63276Y13364D01*
Y13365D01*
X63278Y13366D01*
X63278Y13368D01*
X63280Y13370D01*
X63281Y13374D01*
X63283Y13378D01*
X63286Y13386D01*
X63290Y13396D01*
X63293Y13407D01*
X63295Y13418D01*
X63296Y13427D01*
Y13428D01*
Y13429D01*
Y13431D01*
X63296Y13434D01*
Y13437D01*
X63295Y13442D01*
X63294Y13451D01*
X63291Y13460D01*
X63286Y13470D01*
X63281Y13480D01*
X63273Y13487D01*
X63272Y13488D01*
X63269Y13490D01*
X63264Y13492D01*
X63257Y13496D01*
X63248Y13499D01*
X63237Y13501D01*
X63224Y13503D01*
X63209Y13504D01*
X62975D01*
X63012Y13565D01*
X63253D01*
X63256Y13564D01*
D02*
G37*
G36*
X61947Y13263D02*
X62048D01*
Y13262D01*
X62048Y13261D01*
X62047Y13259D01*
X62045Y13257D01*
X62042Y13250D01*
X62036Y13243D01*
X62033Y13240D01*
X62028Y13236D01*
X62024Y13233D01*
X62018Y13230D01*
X62012Y13227D01*
X62005Y13225D01*
X61997Y13224D01*
X61989Y13224D01*
X61892D01*
X61890Y13224D01*
X61883Y13225D01*
X61876Y13227D01*
X61869Y13230D01*
X61863Y13234D01*
X61861Y13237D01*
X61858Y13240D01*
X61857Y13244D01*
Y13249D01*
X61857Y13248D01*
X61856Y13248D01*
X61855Y13246D01*
X61852Y13244D01*
X61850Y13242D01*
X61847Y13239D01*
X61838Y13233D01*
X61828Y13228D01*
X61816Y13223D01*
X61802Y13219D01*
X61794Y13218D01*
X61786Y13218D01*
X61781D01*
X61776Y13219D01*
X61769Y13220D01*
X61761Y13222D01*
X61754Y13224D01*
X61746Y13228D01*
X61739Y13234D01*
X61738Y13234D01*
X61736Y13237D01*
X61732Y13241D01*
X61729Y13246D01*
X61726Y13253D01*
X61724Y13256D01*
X61724Y13255D01*
X61721Y13250D01*
X61717Y13245D01*
X61712Y13240D01*
X61706Y13235D01*
X61699Y13231D01*
X61699Y13230D01*
X61696Y13230D01*
X61694Y13229D01*
X61690Y13228D01*
X61685Y13226D01*
X61679Y13225D01*
X61673Y13224D01*
X61667Y13224D01*
X61567D01*
X61565Y13224D01*
X61560Y13225D01*
X61554Y13227D01*
X61548Y13229D01*
X61542Y13233D01*
X61540Y13235D01*
X61539Y13238D01*
X61538Y13242D01*
X61537Y13245D01*
Y13246D01*
Y13247D01*
Y13248D01*
X61538Y13250D01*
X61539Y13255D01*
X61540Y13262D01*
X61557Y13314D01*
X61474Y13244D01*
X61474D01*
X61473Y13243D01*
X61472Y13242D01*
X61469Y13240D01*
X61464Y13238D01*
X61458Y13234D01*
X61450Y13230D01*
X61442Y13227D01*
X61434Y13225D01*
X61427Y13224D01*
X61383D01*
X61393Y13255D01*
X61391Y13250D01*
X61388Y13247D01*
X61385Y13243D01*
X61381Y13240D01*
X61377Y13236D01*
X61372Y13233D01*
X61367Y13230D01*
X61361Y13227D01*
X61353Y13225D01*
X61346Y13224D01*
X61337Y13224D01*
X61242D01*
X61240Y13224D01*
X61234Y13225D01*
X61226Y13227D01*
X61219Y13230D01*
X61213Y13234D01*
X61210Y13237D01*
X61209Y13240D01*
X61207Y13244D01*
X61207Y13249D01*
X61206Y13248D01*
X61206Y13248D01*
X61204Y13246D01*
X61202Y13244D01*
X61196Y13239D01*
X61189Y13234D01*
X61179Y13228D01*
X61168Y13223D01*
X61155Y13220D01*
X61149Y13219D01*
X61141Y13219D01*
X61140D01*
X61137Y13219D01*
X61131Y13220D01*
X61125Y13221D01*
X61118Y13223D01*
X61110Y13226D01*
X61103Y13230D01*
X61095Y13236D01*
X61095Y13237D01*
X61093Y13239D01*
X61090Y13243D01*
X61087Y13248D01*
X61084Y13255D01*
X61081Y13263D01*
X61079Y13272D01*
X61078Y13282D01*
Y13282D01*
Y13284D01*
Y13287D01*
X61079Y13290D01*
X61079Y13294D01*
X61080Y13299D01*
X61083Y13311D01*
X61088Y13324D01*
X61090Y13330D01*
X61094Y13337D01*
X61099Y13343D01*
X61104Y13350D01*
X61109Y13356D01*
X61116Y13361D01*
X61116Y13362D01*
X61118Y13363D01*
X61119Y13364D01*
X61122Y13366D01*
X61125Y13368D01*
X61129Y13370D01*
X61134Y13373D01*
X61139Y13375D01*
X61145Y13378D01*
X61151Y13380D01*
X61166Y13384D01*
X61182Y13388D01*
X61191Y13388D01*
X61200Y13389D01*
X61336D01*
X61296Y13263D01*
X61395D01*
X61434Y13389D01*
X61520D01*
X61495Y13306D01*
X61569Y13370D01*
X61570Y13370D01*
X61571Y13371D01*
X61573Y13372D01*
X61575Y13374D01*
X61578Y13376D01*
X61581Y13378D01*
X61589Y13383D01*
X61599Y13387D01*
X61610Y13391D01*
X61623Y13394D01*
X61629Y13395D01*
X61636D01*
X61639Y13394D01*
X61643Y13393D01*
X61648Y13391D01*
X61651Y13388D01*
X61655Y13384D01*
X61658Y13378D01*
X61659Y13374D01*
Y13370D01*
Y13370D01*
Y13369D01*
Y13367D01*
X61659Y13365D01*
X61658Y13359D01*
X61655Y13351D01*
X61628Y13263D01*
X61722D01*
X61720Y13270D01*
X61720Y13280D01*
Y13280D01*
Y13282D01*
X61720Y13285D01*
Y13289D01*
X61721Y13293D01*
X61722Y13298D01*
X61723Y13304D01*
X61725Y13310D01*
X61727Y13316D01*
X61730Y13323D01*
X61733Y13330D01*
X61737Y13337D01*
X61742Y13344D01*
X61747Y13350D01*
X61754Y13356D01*
X61761Y13363D01*
X61761Y13363D01*
X61762Y13364D01*
X61765Y13365D01*
X61767Y13366D01*
X61771Y13369D01*
X61775Y13371D01*
X61780Y13373D01*
X61786Y13376D01*
X61792Y13378D01*
X61799Y13380D01*
X61806Y13383D01*
X61814Y13385D01*
X61832Y13388D01*
X61841Y13389D01*
X61899D01*
X61939Y13516D01*
X62026D01*
X61947Y13263D01*
D02*
G37*
G36*
X62739Y13294D02*
X62743Y13293D01*
X62748Y13292D01*
X62752Y13289D01*
X62757Y13287D01*
X62762Y13283D01*
X62763Y13282D01*
X62764Y13280D01*
X62766Y13278D01*
X62769Y13275D01*
X62771Y13271D01*
X62773Y13266D01*
X62774Y13261D01*
X62775Y13255D01*
Y13254D01*
Y13252D01*
X62774Y13249D01*
X62773Y13245D01*
X62771Y13241D01*
X62769Y13237D01*
X62766Y13232D01*
X62762Y13227D01*
X62761Y13227D01*
X62760Y13225D01*
X62757Y13224D01*
X62754Y13222D01*
X62749Y13219D01*
X62744Y13218D01*
X62739Y13217D01*
X62733Y13216D01*
X62730D01*
X62726Y13217D01*
X62722Y13218D01*
X62718Y13219D01*
X62713Y13220D01*
X62708Y13223D01*
X62703Y13227D01*
X62702Y13228D01*
X62701Y13229D01*
X62699Y13232D01*
X62696Y13235D01*
X62694Y13239D01*
X62692Y13244D01*
X62691Y13249D01*
X62690Y13255D01*
Y13255D01*
Y13258D01*
X62691Y13260D01*
X62692Y13264D01*
X62693Y13269D01*
X62695Y13273D01*
X62699Y13278D01*
X62703Y13283D01*
X62703Y13283D01*
X62705Y13284D01*
X62708Y13287D01*
X62711Y13289D01*
X62715Y13290D01*
X62720Y13293D01*
X62726Y13294D01*
X62733Y13294D01*
X62735D01*
X62739Y13294D01*
D02*
G37*
G36*
X64096Y13138D02*
X64101D01*
X64107Y13137D01*
X64113Y13137D01*
X64127Y13135D01*
X64141Y13132D01*
X64153Y13128D01*
X64159Y13126D01*
X64165Y13123D01*
X64166D01*
X64167Y13122D01*
X64168Y13121D01*
X64171Y13120D01*
X64176Y13115D01*
X64182Y13108D01*
X64188Y13100D01*
X64194Y13090D01*
X64196Y13084D01*
X64198Y13077D01*
X64199Y13070D01*
X64199Y13062D01*
Y13061D01*
Y13060D01*
Y13059D01*
X64199Y13056D01*
X64198Y13052D01*
X64197Y13049D01*
X64195Y13040D01*
X64190Y13030D01*
X64187Y13025D01*
X64183Y13019D01*
X64179Y13013D01*
X64174Y13007D01*
X64168Y13001D01*
X64162Y12995D01*
X64161Y12994D01*
X64157Y12992D01*
X64152Y12988D01*
X64144Y12983D01*
X64135Y12977D01*
X64123Y12970D01*
X64110Y12963D01*
X64093Y12954D01*
Y12954D01*
X64094Y12953D01*
X64095Y12951D01*
X64096Y12949D01*
X64100Y12943D01*
X64103Y12935D01*
X64106Y12926D01*
X64110Y12916D01*
X64112Y12906D01*
X64112Y12896D01*
Y12895D01*
Y12894D01*
X64112Y12891D01*
X64111Y12887D01*
X64110Y12883D01*
X64108Y12878D01*
X64106Y12872D01*
X64103Y12865D01*
X64100Y12859D01*
X64095Y12853D01*
X64090Y12846D01*
X64083Y12839D01*
X64075Y12833D01*
X64066Y12827D01*
X64055Y12821D01*
X64042Y12816D01*
X64042D01*
X64040Y12815D01*
X64037Y12814D01*
X64033Y12813D01*
X64028Y12812D01*
X64023Y12810D01*
X64016Y12809D01*
X64009Y12807D01*
X64001Y12805D01*
X63992Y12803D01*
X63982Y12802D01*
X63972Y12800D01*
X63961Y12799D01*
X63950Y12798D01*
X63926Y12798D01*
X63800D01*
X63888Y13046D01*
X63975D01*
X63900Y12837D01*
X63920D01*
X63923Y12837D01*
X63927D01*
X63937Y12838D01*
X63949Y12839D01*
X63961Y12840D01*
X63973Y12843D01*
X63984Y12846D01*
X63985D01*
X63986Y12847D01*
X63988Y12848D01*
X63991Y12849D01*
X63998Y12853D01*
X64006Y12858D01*
X64014Y12864D01*
X64021Y12873D01*
X64024Y12878D01*
X64026Y12883D01*
X64027Y12888D01*
X64028Y12894D01*
Y12895D01*
Y12896D01*
X64027Y12898D01*
X64027Y12901D01*
X64026Y12905D01*
X64023Y12909D01*
X64021Y12914D01*
X64018Y12920D01*
X64017Y12920D01*
X64016Y12922D01*
X64015Y12925D01*
X64013Y12928D01*
X64010Y12935D01*
X64009Y12939D01*
X64008Y12941D01*
Y12942D01*
Y12943D01*
Y12945D01*
Y12946D01*
Y12946D01*
X64010Y12948D01*
X64011Y12950D01*
X64013Y12953D01*
X64017Y12956D01*
X64022Y12960D01*
X64028Y12963D01*
X64035Y12967D01*
X64036D01*
X64036Y12968D01*
X64038Y12969D01*
X64040Y12969D01*
X64045Y12972D01*
X64052Y12976D01*
X64059Y12980D01*
X64066Y12984D01*
X64073Y12989D01*
X64079Y12994D01*
X64080Y12995D01*
X64083Y12997D01*
X64086Y13001D01*
X64091Y13007D01*
X64095Y13014D01*
X64098Y13021D01*
X64101Y13030D01*
X64102Y13040D01*
Y13040D01*
Y13041D01*
X64102Y13043D01*
X64101Y13046D01*
X64100Y13052D01*
X64097Y13055D01*
X64095Y13059D01*
X64092Y13062D01*
X64088Y13066D01*
X64084Y13069D01*
X64078Y13071D01*
X64072Y13074D01*
X64064Y13076D01*
X64055Y13077D01*
X64045Y13077D01*
X63824D01*
X63824Y13076D01*
X63823Y13071D01*
X63822Y13066D01*
X63819Y13059D01*
X63816Y13052D01*
X63811Y13045D01*
X63805Y13039D01*
X63804Y13038D01*
X63801Y13036D01*
X63798Y13034D01*
X63792Y13030D01*
X63785Y13027D01*
X63778Y13025D01*
X63769Y13022D01*
X63759Y13022D01*
X63758D01*
X63755Y13022D01*
X63750Y13023D01*
X63744Y13024D01*
X63737Y13026D01*
X63729Y13029D01*
X63721Y13033D01*
X63714Y13039D01*
X63713Y13039D01*
X63711Y13041D01*
X63708Y13045D01*
X63705Y13050D01*
X63701Y13056D01*
X63698Y13063D01*
X63696Y13071D01*
X63695Y13080D01*
Y13081D01*
Y13084D01*
X63696Y13088D01*
X63697Y13094D01*
X63695D01*
X63693Y13095D01*
X63691D01*
X63687Y13095D01*
X63680D01*
X63678Y13095D01*
X63672Y13094D01*
X63665Y13091D01*
X63658Y13087D01*
X63652Y13082D01*
X63650Y13079D01*
X63648Y13075D01*
X63647Y13070D01*
X63647Y13064D01*
Y13064D01*
X63647Y13061D01*
Y13059D01*
X63648Y13056D01*
X63648Y13053D01*
X63649Y13050D01*
X63651Y13045D01*
X63652Y13040D01*
X63654Y13034D01*
X63656Y13028D01*
X63658Y13021D01*
X63661Y13012D01*
X63664Y13004D01*
X63668Y12994D01*
Y12993D01*
X63669Y12991D01*
X63671Y12989D01*
X63672Y12985D01*
X63673Y12980D01*
X63675Y12975D01*
X63677Y12969D01*
X63679Y12963D01*
X63683Y12949D01*
X63687Y12935D01*
X63689Y12921D01*
X63690Y12908D01*
Y12908D01*
Y12905D01*
X63689Y12902D01*
X63689Y12897D01*
X63688Y12891D01*
X63686Y12885D01*
X63684Y12878D01*
X63680Y12871D01*
X63677Y12863D01*
X63672Y12855D01*
X63666Y12847D01*
X63659Y12838D01*
X63651Y12830D01*
X63641Y12823D01*
X63629Y12815D01*
X63616Y12809D01*
X63616D01*
X63614Y12808D01*
X63611Y12807D01*
X63607Y12805D01*
X63601Y12803D01*
X63595Y12801D01*
X63588Y12799D01*
X63580Y12797D01*
X63571Y12794D01*
X63561Y12792D01*
X63551Y12790D01*
X63540Y12788D01*
X63527Y12787D01*
X63515Y12785D01*
X63502Y12785D01*
X63488Y12784D01*
X63482D01*
X63477Y12785D01*
X63471D01*
X63465Y12785D01*
X63457Y12786D01*
X63449Y12787D01*
X63440Y12788D01*
X63430Y12789D01*
X63410Y12792D01*
X63390Y12797D01*
X63370Y12803D01*
X63369Y12803D01*
X63366Y12804D01*
X63363Y12805D01*
X63359Y12808D01*
X63353Y12810D01*
X63347Y12814D01*
X63340Y12818D01*
X63334Y12823D01*
X63326Y12828D01*
X63320Y12834D01*
X63314Y12840D01*
X63309Y12848D01*
X63304Y12855D01*
X63300Y12864D01*
X63298Y12873D01*
X63297Y12883D01*
Y12884D01*
X63298Y12886D01*
X63298Y12890D01*
X63299Y12895D01*
X63301Y12901D01*
X63304Y12908D01*
X63308Y12915D01*
X63314Y12923D01*
X63321Y12930D01*
X63330Y12938D01*
X63340Y12944D01*
X63347Y12947D01*
X63354Y12950D01*
X63361Y12953D01*
X63369Y12955D01*
X63377Y12958D01*
X63386Y12959D01*
X63396Y12960D01*
X63407Y12961D01*
X63419Y12963D01*
X63523D01*
X63541Y12924D01*
X63464D01*
X63459Y12923D01*
X63452Y12923D01*
X63445Y12921D01*
X63437Y12919D01*
X63429Y12917D01*
X63421Y12914D01*
X63420Y12913D01*
X63417Y12911D01*
X63413Y12909D01*
X63409Y12905D01*
X63404Y12899D01*
X63400Y12893D01*
X63397Y12886D01*
X63396Y12881D01*
X63396Y12877D01*
Y12876D01*
Y12876D01*
X63396Y12873D01*
X63397Y12868D01*
X63400Y12862D01*
X63405Y12855D01*
X63407Y12851D01*
X63411Y12848D01*
X63415Y12844D01*
X63420Y12840D01*
X63425Y12838D01*
X63431Y12834D01*
X63432D01*
X63432Y12834D01*
X63434Y12833D01*
X63436Y12833D01*
X63442Y12830D01*
X63450Y12829D01*
X63458Y12827D01*
X63468Y12824D01*
X63480Y12823D01*
X63491Y12823D01*
X63495D01*
X63498Y12823D01*
X63501D01*
X63505Y12824D01*
X63515Y12825D01*
X63525Y12827D01*
X63536Y12830D01*
X63547Y12834D01*
X63558Y12840D01*
X63558D01*
X63559Y12841D01*
X63561Y12842D01*
X63563Y12844D01*
X63568Y12848D01*
X63574Y12855D01*
X63579Y12863D01*
X63584Y12873D01*
X63587Y12879D01*
X63588Y12885D01*
X63589Y12891D01*
X63589Y12899D01*
Y12899D01*
Y12900D01*
Y12901D01*
X63589Y12904D01*
Y12906D01*
X63588Y12910D01*
X63588Y12914D01*
X63587Y12918D01*
X63586Y12923D01*
X63584Y12929D01*
X63583Y12935D01*
X63581Y12941D01*
X63576Y12956D01*
X63569Y12974D01*
Y12974D01*
X63569Y12976D01*
X63568Y12978D01*
X63567Y12982D01*
X63565Y12986D01*
X63563Y12990D01*
X63560Y13001D01*
X63556Y13014D01*
X63553Y13026D01*
X63551Y13039D01*
X63550Y13050D01*
Y13051D01*
X63551Y13054D01*
X63551Y13058D01*
X63552Y13064D01*
X63555Y13070D01*
X63558Y13078D01*
X63563Y13086D01*
X63569Y13094D01*
X63577Y13102D01*
X63587Y13110D01*
X63592Y13114D01*
X63599Y13118D01*
X63606Y13121D01*
X63613Y13125D01*
X63622Y13127D01*
X63631Y13130D01*
X63640Y13133D01*
X63651Y13135D01*
X63662Y13136D01*
X63674Y13137D01*
X63687Y13138D01*
X63764D01*
X63769Y13137D01*
X63774Y13136D01*
X63781Y13134D01*
X63789Y13131D01*
X63794Y13128D01*
X63800Y13138D01*
X64091D01*
X64096Y13138D01*
D02*
G37*
G36*
X60963Y13143D02*
X60970Y13142D01*
X60978Y13140D01*
X60986Y13137D01*
X60994Y13133D01*
X61002Y13128D01*
X61003Y13128D01*
X61005Y13126D01*
X61009Y13122D01*
X61013Y13117D01*
X61017Y13111D01*
X61021Y13103D01*
X61023Y13094D01*
X61024Y13085D01*
Y13084D01*
X61024Y13081D01*
X61023Y13076D01*
X61021Y13070D01*
X61019Y13064D01*
X61015Y13056D01*
X61010Y13050D01*
X61004Y13043D01*
X61003Y13042D01*
X61000Y13041D01*
X60997Y13038D01*
X60991Y13035D01*
X60985Y13032D01*
X60977Y13030D01*
X60969Y13027D01*
X60960Y13027D01*
X60959D01*
X60955Y13027D01*
X60950Y13028D01*
X60943Y13029D01*
X60936Y13031D01*
X60928Y13035D01*
X60920Y13039D01*
X60913Y13045D01*
X60912Y13046D01*
X60910Y13049D01*
X60907Y13052D01*
X60904Y13058D01*
X60901Y13065D01*
X60898Y13073D01*
X60896Y13082D01*
Y13092D01*
X60893D01*
X60891Y13092D01*
X60887Y13091D01*
X60883Y13090D01*
X60878Y13089D01*
X60873Y13086D01*
X60872D01*
X60871Y13085D01*
X60869Y13084D01*
X60867Y13082D01*
X60864Y13080D01*
X60861Y13076D01*
X60858Y13072D01*
X60854Y13066D01*
X60851Y13059D01*
X60847Y13051D01*
X60843Y13042D01*
X60840Y13031D01*
X60837Y13019D01*
X60834Y13005D01*
X60832Y12989D01*
X60831Y12971D01*
Y12970D01*
X60830Y12966D01*
X60829Y12961D01*
X60828Y12955D01*
X60826Y12947D01*
X60822Y12938D01*
X60818Y12928D01*
X60813Y12917D01*
X60807Y12906D01*
X60799Y12895D01*
X60789Y12884D01*
X60778Y12873D01*
X60766Y12863D01*
X60751Y12853D01*
X60735Y12844D01*
X60726Y12840D01*
X60716Y12837D01*
X61000D01*
X60998Y12845D01*
X60998Y12855D01*
Y12856D01*
Y12858D01*
Y12860D01*
X60998Y12864D01*
X60999Y12868D01*
X61000Y12873D01*
X61003Y12885D01*
X61007Y12898D01*
X61010Y12904D01*
X61014Y12911D01*
X61018Y12917D01*
X61023Y12924D01*
X61029Y12930D01*
X61035Y12935D01*
X61036Y12936D01*
X61037Y12936D01*
X61039Y12938D01*
X61041Y12940D01*
X61045Y12941D01*
X61049Y12944D01*
X61053Y12946D01*
X61059Y12949D01*
X61064Y12951D01*
X61071Y12954D01*
X61085Y12958D01*
X61101Y12961D01*
X61110Y12962D01*
X61120Y12963D01*
X61255D01*
X61215Y12837D01*
X61316D01*
Y12836D01*
X61316Y12835D01*
X61315Y12833D01*
X61313Y12830D01*
X61310Y12824D01*
X61307Y12821D01*
X61305Y12817D01*
X61301Y12814D01*
X61297Y12810D01*
X61292Y12807D01*
X61286Y12804D01*
X61280Y12801D01*
X61273Y12799D01*
X61265Y12798D01*
X61257Y12798D01*
X61162D01*
X61159Y12798D01*
X61153Y12799D01*
X61146Y12801D01*
X61139Y12804D01*
X61132Y12808D01*
X61130Y12811D01*
X61128Y12814D01*
X61127Y12818D01*
X61126Y12823D01*
X61126Y12822D01*
X61125Y12822D01*
X61124Y12820D01*
X61121Y12818D01*
X61116Y12813D01*
X61108Y12808D01*
X61099Y12802D01*
X61088Y12797D01*
X61075Y12794D01*
X61068Y12793D01*
X61061Y12793D01*
X61060D01*
X61056Y12793D01*
X61051Y12794D01*
X61045Y12795D01*
X61037Y12797D01*
X61030Y12800D01*
X61022Y12804D01*
X61015Y12810D01*
X61014Y12810D01*
X61012Y12813D01*
X61009Y12817D01*
X61006Y12822D01*
X61003Y12829D01*
X61002Y12833D01*
X61001Y12830D01*
X60997Y12824D01*
X60994Y12821D01*
X60991Y12817D01*
X60987Y12814D01*
X60983Y12810D01*
X60978Y12807D01*
X60972Y12804D01*
X60964Y12801D01*
X60957Y12799D01*
X60948Y12798D01*
X60938Y12798D01*
X60494D01*
Y12798D01*
X60495Y12800D01*
X60496Y12803D01*
X60498Y12807D01*
X60500Y12811D01*
X60503Y12816D01*
X60509Y12827D01*
X60516Y12838D01*
X60520Y12843D01*
X60525Y12847D01*
X60530Y12850D01*
X60535Y12854D01*
X60540Y12855D01*
X60546Y12856D01*
X60549D01*
X60552Y12855D01*
X60557Y12855D01*
X60564Y12853D01*
X60572Y12852D01*
X60582Y12849D01*
X60594Y12845D01*
X60595D01*
X60596Y12845D01*
X60597Y12844D01*
X60600Y12844D01*
X60606Y12842D01*
X60613Y12840D01*
X60621Y12838D01*
X60630Y12837D01*
X60637Y12835D01*
X60644Y12835D01*
X60645D01*
X60648Y12835D01*
X60651Y12836D01*
X60655Y12837D01*
X60659Y12839D01*
X60664Y12841D01*
X60669Y12844D01*
X60674Y12848D01*
X60680Y12853D01*
X60686Y12859D01*
X60692Y12866D01*
X60697Y12875D01*
X60703Y12885D01*
X60709Y12897D01*
X60714Y12910D01*
X60742Y13022D01*
Y13022D01*
X60742Y13024D01*
X60743Y13025D01*
X60744Y13027D01*
X60747Y13033D01*
X60751Y13041D01*
X60757Y13050D01*
X60764Y13061D01*
X60773Y13072D01*
X60784Y13083D01*
X60797Y13095D01*
X60804Y13100D01*
X60812Y13105D01*
X60820Y13111D01*
X60829Y13116D01*
X60839Y13121D01*
X60849Y13125D01*
X60859Y13129D01*
X60871Y13133D01*
X60883Y13136D01*
X60896Y13139D01*
X60909Y13141D01*
X60923Y13143D01*
X60938Y13143D01*
X60953Y13144D01*
X60958D01*
X60963Y13143D01*
D02*
G37*
G36*
X63239Y13137D02*
X63245Y13136D01*
X63251Y13134D01*
X63259Y13131D01*
X63266Y13126D01*
X63273Y13120D01*
X63274Y13120D01*
X63276Y13117D01*
X63279Y13113D01*
X63283Y13108D01*
X63286Y13102D01*
X63289Y13095D01*
X63291Y13087D01*
X63292Y13079D01*
Y13078D01*
X63291Y13075D01*
X63291Y13070D01*
X63289Y13064D01*
X63287Y13057D01*
X63283Y13050D01*
X63278Y13043D01*
X63271Y13036D01*
X63270Y13036D01*
X63268Y13034D01*
X63264Y13031D01*
X63259Y13029D01*
X63252Y13025D01*
X63245Y13023D01*
X63236Y13021D01*
X63226Y13020D01*
X63222D01*
X63218Y13021D01*
X63212Y13022D01*
X63204Y13024D01*
X63197Y13027D01*
X63189Y13031D01*
X63182Y13036D01*
X63180Y13037D01*
X63178Y13040D01*
X63175Y13044D01*
X63172Y13049D01*
X63168Y13055D01*
X63165Y13062D01*
X63163Y13070D01*
X63162Y13079D01*
Y13080D01*
Y13081D01*
Y13082D01*
Y13084D01*
X63162Y13089D01*
X63163Y13094D01*
X63161D01*
X63158Y13094D01*
X63154Y13093D01*
X63150Y13092D01*
X63145Y13091D01*
X63139Y13090D01*
X63132Y13087D01*
X63125Y13084D01*
X63118Y13081D01*
X63110Y13076D01*
X63102Y13071D01*
X63093Y13065D01*
X63085Y13058D01*
X63077Y13050D01*
X63069Y13040D01*
X63068Y13040D01*
X63067Y13038D01*
X63065Y13035D01*
X63063Y13031D01*
X63060Y13027D01*
X63057Y13021D01*
X63053Y13015D01*
X63049Y13009D01*
X63046Y13001D01*
X63042Y12992D01*
X63036Y12975D01*
X63033Y12966D01*
X63031Y12956D01*
X63030Y12946D01*
X63029Y12936D01*
Y12935D01*
Y12932D01*
X63031Y12927D01*
X63032Y12921D01*
X63033Y12913D01*
X63036Y12905D01*
X63041Y12896D01*
X63046Y12886D01*
X63053Y12877D01*
X63061Y12868D01*
X63072Y12860D01*
X63078Y12856D01*
X63084Y12852D01*
X63092Y12849D01*
X63099Y12846D01*
X63108Y12843D01*
X63117Y12841D01*
X63127Y12839D01*
X63137Y12838D01*
X63148Y12837D01*
X63160Y12837D01*
X63282D01*
Y12836D01*
X63281Y12835D01*
X63281Y12833D01*
X63280Y12830D01*
X63277Y12824D01*
X63275Y12821D01*
X63271Y12817D01*
X63268Y12814D01*
X63264Y12810D01*
X63259Y12807D01*
X63254Y12804D01*
X63247Y12801D01*
X63240Y12799D01*
X63232Y12798D01*
X63223Y12798D01*
X63125D01*
X63119Y12798D01*
X63112D01*
X63104Y12799D01*
X63095Y12800D01*
X63085Y12800D01*
X63074Y12802D01*
X63064Y12804D01*
X63041Y12808D01*
X63019Y12814D01*
X63008Y12817D01*
X62998Y12822D01*
X62997Y12822D01*
X62995Y12823D01*
X62991Y12825D01*
X62987Y12828D01*
X62981Y12832D01*
X62975Y12836D01*
X62969Y12842D01*
X62962Y12848D01*
X62956Y12855D01*
X62949Y12863D01*
X62943Y12872D01*
X62938Y12881D01*
X62933Y12892D01*
X62930Y12904D01*
X62928Y12916D01*
X62927Y12930D01*
Y12931D01*
Y12932D01*
Y12935D01*
X62928Y12938D01*
Y12941D01*
X62928Y12946D01*
X62930Y12951D01*
X62931Y12957D01*
X62933Y12970D01*
X62938Y12984D01*
X62945Y12999D01*
X62948Y13007D01*
X62953Y13015D01*
X62953Y13015D01*
X62955Y13017D01*
X62957Y13020D01*
X62960Y13024D01*
X62963Y13029D01*
X62967Y13035D01*
X62972Y13041D01*
X62978Y13048D01*
X62985Y13055D01*
X62992Y13062D01*
X63000Y13070D01*
X63009Y13077D01*
X63018Y13085D01*
X63029Y13092D01*
X63039Y13099D01*
X63051Y13106D01*
X63052Y13106D01*
X63054Y13107D01*
X63057Y13108D01*
X63062Y13111D01*
X63068Y13113D01*
X63074Y13116D01*
X63082Y13119D01*
X63091Y13122D01*
X63101Y13125D01*
X63111Y13128D01*
X63122Y13131D01*
X63133Y13133D01*
X63145Y13136D01*
X63157Y13137D01*
X63170Y13138D01*
X63183Y13138D01*
X63235D01*
X63239Y13137D01*
D02*
G37*
G36*
X59391Y12828D02*
Y12828D01*
X59390Y12827D01*
X59388Y12823D01*
X59384Y12819D01*
X59378Y12813D01*
X59370Y12807D01*
X59361Y12803D01*
X59351Y12799D01*
X59345Y12798D01*
X59339Y12798D01*
X59309D01*
Y13012D01*
X59189Y12827D01*
Y12827D01*
X59188Y12826D01*
X59186Y12823D01*
X59182Y12818D01*
X59176Y12813D01*
X59167Y12807D01*
X59158Y12802D01*
X59147Y12799D01*
X59140Y12798D01*
X59133Y12798D01*
X59099D01*
X59124Y13077D01*
X59012D01*
X59049Y13138D01*
X59159D01*
X59163Y13138D01*
X59168Y13137D01*
X59173Y13136D01*
X59178Y13135D01*
X59184Y13132D01*
X59189Y13129D01*
X59190Y13128D01*
X59192Y13127D01*
X59196Y13124D01*
X59199Y13120D01*
X59202Y13115D01*
X59206Y13108D01*
X59208Y13100D01*
X59208Y13091D01*
Y13090D01*
Y13089D01*
Y13086D01*
X59208Y13083D01*
X59191Y12919D01*
X59306Y13102D01*
X59307Y13103D01*
X59308Y13105D01*
X59310Y13108D01*
X59313Y13112D01*
X59320Y13121D01*
X59324Y13125D01*
X59328Y13128D01*
X59328Y13129D01*
X59330Y13130D01*
X59333Y13132D01*
X59338Y13133D01*
X59343Y13135D01*
X59349Y13137D01*
X59356Y13138D01*
X59365Y13138D01*
X59389D01*
Y12923D01*
X59505Y13138D01*
X59562D01*
X59391Y12828D01*
D02*
G37*
G36*
X58671Y12962D02*
X58678Y12961D01*
X58687Y12960D01*
X58695Y12958D01*
X58705Y12956D01*
X58714Y12953D01*
X58714D01*
X58715Y12952D01*
X58719Y12950D01*
X58724Y12948D01*
X58729Y12943D01*
X58735Y12938D01*
X58741Y12931D01*
X58745Y12923D01*
X58746Y12919D01*
X58747Y12914D01*
Y12913D01*
Y12910D01*
X58745Y12905D01*
X58744Y12899D01*
X58741Y12893D01*
X58737Y12885D01*
X58730Y12878D01*
X58726Y12875D01*
X58722Y12871D01*
X58642D01*
X58668Y12924D01*
X58617D01*
X58597Y12865D01*
Y12864D01*
X58596Y12862D01*
X58596Y12859D01*
X58595Y12856D01*
Y12855D01*
X58596Y12853D01*
X58597Y12850D01*
X58599Y12847D01*
X58603Y12843D01*
X58608Y12840D01*
X58612Y12838D01*
X58616Y12838D01*
X58621Y12837D01*
X58815D01*
Y12836D01*
X58814Y12833D01*
X58812Y12830D01*
X58810Y12826D01*
X58806Y12821D01*
X58803Y12816D01*
X58798Y12812D01*
X58791Y12807D01*
X58791Y12807D01*
X58789Y12805D01*
X58785Y12804D01*
X58780Y12803D01*
X58775Y12800D01*
X58769Y12799D01*
X58762Y12798D01*
X58754Y12798D01*
X58614D01*
X58609Y12798D01*
X58601Y12799D01*
X58592Y12800D01*
X58582Y12802D01*
X58572Y12804D01*
X58561Y12807D01*
X58550Y12810D01*
X58540Y12815D01*
X58530Y12820D01*
X58521Y12828D01*
X58513Y12835D01*
X58507Y12845D01*
X58505Y12850D01*
X58503Y12856D01*
X58503Y12861D01*
X58502Y12868D01*
Y12869D01*
Y12870D01*
X58503Y12873D01*
Y12876D01*
X58503Y12880D01*
X58505Y12884D01*
X58507Y12894D01*
X58510Y12900D01*
X58512Y12906D01*
X58515Y12912D01*
X58519Y12918D01*
X58524Y12924D01*
X58529Y12929D01*
X58535Y12935D01*
X58542Y12940D01*
X58543D01*
X58544Y12941D01*
X58546Y12942D01*
X58548Y12943D01*
X58552Y12945D01*
X58556Y12947D01*
X58560Y12949D01*
X58566Y12951D01*
X58571Y12953D01*
X58577Y12955D01*
X58592Y12959D01*
X58607Y12961D01*
X58624Y12963D01*
X58665D01*
X58671Y12962D01*
D02*
G37*
G36*
X62853Y13147D02*
X62860Y13146D01*
X62867Y13143D01*
X62876Y13141D01*
X62884Y13136D01*
X62892Y13131D01*
X62893Y13130D01*
X62895Y13127D01*
X62899Y13123D01*
X62903Y13118D01*
X62907Y13111D01*
X62911Y13103D01*
X62913Y13095D01*
X62914Y13084D01*
Y13084D01*
Y13083D01*
Y13081D01*
Y13079D01*
X62913Y13076D01*
Y13073D01*
X62912Y13065D01*
X62911Y13055D01*
X62908Y13042D01*
X62905Y13029D01*
X62901Y13013D01*
Y13012D01*
X62900Y13011D01*
X62900Y13009D01*
X62899Y13007D01*
X62898Y13004D01*
X62896Y13000D01*
X62894Y12990D01*
X62890Y12980D01*
X62885Y12968D01*
X62880Y12956D01*
X62875Y12945D01*
X62875Y12944D01*
X62874Y12941D01*
X62871Y12937D01*
X62869Y12931D01*
X62865Y12925D01*
X62861Y12917D01*
X62856Y12909D01*
X62851Y12900D01*
X62839Y12881D01*
X62826Y12862D01*
X62820Y12853D01*
X62812Y12845D01*
X62806Y12837D01*
X62799Y12830D01*
X62798Y12830D01*
X62796Y12829D01*
X62794Y12827D01*
X62790Y12824D01*
X62785Y12821D01*
X62779Y12818D01*
X62773Y12814D01*
X62765Y12810D01*
X62756Y12806D01*
X62746Y12802D01*
X62735Y12799D01*
X62724Y12796D01*
X62711Y12793D01*
X62698Y12791D01*
X62684Y12790D01*
X62669Y12789D01*
X62665D01*
X62662Y12790D01*
X62659D01*
X62654Y12790D01*
X62645Y12792D01*
X62634Y12794D01*
X62622Y12797D01*
X62611Y12801D01*
X62600Y12807D01*
X62600D01*
X62599Y12808D01*
X62596Y12811D01*
X62591Y12816D01*
X62585Y12823D01*
X62580Y12832D01*
X62575Y12842D01*
X62572Y12854D01*
X62571Y12862D01*
X62570Y12869D01*
Y12870D01*
Y12872D01*
X62571Y12876D01*
X62572Y12880D01*
X62572Y12886D01*
X62573Y12893D01*
X62575Y12900D01*
X62577Y12907D01*
X62630Y13077D01*
X62503D01*
X62538Y13138D01*
X62735D01*
X62667Y12912D01*
Y12911D01*
X62665Y12909D01*
X62664Y12905D01*
X62663Y12901D01*
X62662Y12895D01*
X62661Y12890D01*
X62660Y12884D01*
X62660Y12878D01*
Y12877D01*
Y12874D01*
X62660Y12871D01*
X62662Y12867D01*
X62663Y12862D01*
X62665Y12857D01*
X62668Y12853D01*
X62672Y12848D01*
X62673Y12848D01*
X62674Y12847D01*
X62677Y12845D01*
X62680Y12844D01*
X62685Y12842D01*
X62690Y12840D01*
X62696Y12839D01*
X62703Y12839D01*
X62705D01*
X62709Y12839D01*
X62714Y12840D01*
X62720Y12842D01*
X62726Y12844D01*
X62734Y12848D01*
X62742Y12853D01*
X62751Y12858D01*
X62760Y12865D01*
X62770Y12874D01*
X62780Y12885D01*
X62790Y12897D01*
X62795Y12904D01*
X62800Y12911D01*
X62805Y12920D01*
X62810Y12929D01*
X62815Y12938D01*
X62819Y12948D01*
Y12948D01*
X62820Y12949D01*
X62821Y12952D01*
X62822Y12955D01*
X62824Y12959D01*
X62826Y12963D01*
X62830Y12973D01*
X62834Y12985D01*
X62838Y12997D01*
X62841Y13010D01*
X62844Y13022D01*
X62841D01*
X62839Y13022D01*
X62834Y13023D01*
X62827Y13024D01*
X62819Y13026D01*
X62811Y13029D01*
X62802Y13033D01*
X62794Y13039D01*
X62793Y13040D01*
X62791Y13042D01*
X62787Y13046D01*
X62783Y13051D01*
X62779Y13058D01*
X62775Y13066D01*
X62773Y13075D01*
X62772Y13085D01*
Y13085D01*
Y13086D01*
X62773Y13089D01*
X62773Y13094D01*
X62775Y13100D01*
X62778Y13107D01*
X62781Y13115D01*
X62787Y13123D01*
X62794Y13130D01*
X62795Y13131D01*
X62798Y13133D01*
X62802Y13136D01*
X62808Y13139D01*
X62815Y13142D01*
X62823Y13145D01*
X62832Y13147D01*
X62842Y13148D01*
X62847D01*
X62853Y13147D01*
D02*
G37*
G36*
X62230Y12963D02*
X62289D01*
Y12962D01*
X62288Y12961D01*
X62287Y12959D01*
X62286Y12956D01*
X62282Y12950D01*
X62276Y12943D01*
X62269Y12936D01*
X62264Y12933D01*
X62259Y12930D01*
X62253Y12927D01*
X62247Y12925D01*
X62240Y12924D01*
X62232Y12924D01*
X62218D01*
X62191Y12837D01*
X62322D01*
Y12836D01*
X62321Y12835D01*
X62321Y12833D01*
X62319Y12830D01*
X62316Y12824D01*
X62313Y12821D01*
X62310Y12817D01*
X62306Y12814D01*
X62302Y12810D01*
X62297Y12807D01*
X62291Y12804D01*
X62285Y12801D01*
X62277Y12799D01*
X62270Y12798D01*
X62261Y12798D01*
X62134D01*
X62132Y12798D01*
X62126Y12799D01*
X62120Y12801D01*
X62113Y12804D01*
X62108Y12808D01*
X62105Y12811D01*
X62104Y12814D01*
X62103Y12818D01*
X62102Y12823D01*
Y12823D01*
Y12824D01*
X62103Y12827D01*
X62103Y12828D01*
X62101Y12824D01*
X62098Y12821D01*
X62095Y12817D01*
X62092Y12814D01*
X62088Y12810D01*
X62083Y12807D01*
X62077Y12804D01*
X62071Y12801D01*
X62064Y12799D01*
X62056Y12798D01*
X62048Y12798D01*
X61953D01*
X61950Y12798D01*
X61944Y12799D01*
X61937Y12801D01*
X61929Y12804D01*
X61923Y12808D01*
X61921Y12811D01*
X61919Y12814D01*
X61918Y12818D01*
X61917Y12823D01*
X61917Y12822D01*
X61916Y12822D01*
X61914Y12820D01*
X61912Y12818D01*
X61907Y12813D01*
X61899Y12808D01*
X61890Y12802D01*
X61878Y12797D01*
X61866Y12794D01*
X61859Y12793D01*
X61852Y12793D01*
X61851D01*
X61847Y12793D01*
X61842Y12794D01*
X61836Y12795D01*
X61828Y12797D01*
X61821Y12800D01*
X61813Y12804D01*
X61806Y12810D01*
X61805Y12810D01*
X61803Y12813D01*
X61800Y12817D01*
X61797Y12822D01*
X61794Y12829D01*
X61791Y12837D01*
X61789Y12845D01*
X61789Y12855D01*
Y12856D01*
Y12858D01*
Y12860D01*
X61789Y12864D01*
X61790Y12868D01*
X61791Y12873D01*
X61793Y12885D01*
X61798Y12898D01*
X61801Y12904D01*
X61805Y12911D01*
X61809Y12917D01*
X61814Y12924D01*
X61820Y12930D01*
X61826Y12935D01*
X61827Y12936D01*
X61828Y12936D01*
X61830Y12938D01*
X61832Y12940D01*
X61836Y12941D01*
X61840Y12944D01*
X61844Y12946D01*
X61850Y12949D01*
X61855Y12951D01*
X61862Y12954D01*
X61876Y12958D01*
X61892Y12961D01*
X61901Y12962D01*
X61911Y12963D01*
X62046D01*
X62006Y12837D01*
X62105D01*
X62131Y12924D01*
X62095D01*
X62109Y12963D01*
X62110D01*
X62111Y12963D01*
X62113Y12964D01*
X62116Y12964D01*
X62119Y12965D01*
X62123Y12967D01*
X62131Y12970D01*
X62140Y12974D01*
X62150Y12979D01*
X62159Y12984D01*
X62167Y12990D01*
X62168Y12991D01*
X62171Y12994D01*
X62175Y12999D01*
X62178Y13002D01*
X62181Y13006D01*
X62184Y13010D01*
X62188Y13015D01*
X62191Y13021D01*
X62196Y13027D01*
X62200Y13035D01*
X62204Y13042D01*
X62209Y13051D01*
X62213Y13060D01*
X62260D01*
X62230Y12963D01*
D02*
G37*
G36*
X60203Y12837D02*
X60305D01*
Y12836D01*
X60304Y12835D01*
X60303Y12833D01*
X60302Y12830D01*
X60299Y12824D01*
X60293Y12817D01*
X60289Y12814D01*
X60285Y12810D01*
X60281Y12807D01*
X60275Y12804D01*
X60268Y12801D01*
X60262Y12799D01*
X60254Y12798D01*
X60246Y12798D01*
X60149D01*
X60147Y12798D01*
X60140Y12799D01*
X60133Y12801D01*
X60126Y12804D01*
X60120Y12808D01*
X60117Y12811D01*
X60115Y12814D01*
X60114Y12818D01*
Y12823D01*
X60114Y12822D01*
X60113Y12822D01*
X60111Y12820D01*
X60109Y12818D01*
X60106Y12815D01*
X60104Y12813D01*
X60095Y12807D01*
X60085Y12802D01*
X60072Y12797D01*
X60059Y12793D01*
X60051Y12792D01*
X60042Y12792D01*
X60037D01*
X60032Y12793D01*
X60026Y12794D01*
X60018Y12795D01*
X60010Y12798D01*
X60003Y12802D01*
X59995Y12808D01*
X59995Y12808D01*
X59993Y12811D01*
X59989Y12815D01*
X59986Y12820D01*
X59983Y12827D01*
X59981Y12831D01*
X59980Y12829D01*
X59978Y12824D01*
X59974Y12819D01*
X59969Y12814D01*
X59963Y12809D01*
X59955Y12805D01*
X59954Y12804D01*
X59952Y12804D01*
X59949Y12803D01*
X59945Y12802D01*
X59940Y12800D01*
X59935Y12799D01*
X59929Y12798D01*
X59923Y12798D01*
X59826D01*
X59824Y12798D01*
X59818Y12799D01*
X59812Y12801D01*
X59805Y12804D01*
X59799Y12808D01*
X59797Y12811D01*
X59795Y12814D01*
X59794Y12818D01*
X59794Y12822D01*
Y12823D01*
Y12823D01*
X59794Y12826D01*
X59795Y12830D01*
X59793Y12826D01*
X59789Y12821D01*
X59785Y12816D01*
X59781Y12812D01*
X59774Y12807D01*
X59774Y12807D01*
X59772Y12805D01*
X59768Y12804D01*
X59763Y12803D01*
X59758Y12800D01*
X59752Y12799D01*
X59745Y12798D01*
X59737Y12798D01*
X59597D01*
X59592Y12798D01*
X59584Y12799D01*
X59575Y12800D01*
X59565Y12802D01*
X59555Y12804D01*
X59544Y12807D01*
X59533Y12810D01*
X59522Y12815D01*
X59512Y12820D01*
X59504Y12828D01*
X59496Y12835D01*
X59490Y12845D01*
X59488Y12850D01*
X59486Y12856D01*
X59486Y12861D01*
X59485Y12868D01*
Y12869D01*
Y12870D01*
X59486Y12873D01*
Y12876D01*
X59486Y12880D01*
X59487Y12884D01*
X59490Y12894D01*
X59492Y12900D01*
X59495Y12906D01*
X59498Y12912D01*
X59502Y12918D01*
X59507Y12924D01*
X59512Y12929D01*
X59518Y12935D01*
X59525Y12940D01*
X59526D01*
X59527Y12941D01*
X59529Y12942D01*
X59531Y12943D01*
X59535Y12945D01*
X59539Y12947D01*
X59543Y12949D01*
X59549Y12951D01*
X59554Y12953D01*
X59560Y12955D01*
X59575Y12959D01*
X59590Y12961D01*
X59607Y12963D01*
X59648D01*
X59654Y12962D01*
X59661Y12961D01*
X59670Y12960D01*
X59678Y12958D01*
X59688Y12956D01*
X59697Y12953D01*
X59697D01*
X59698Y12952D01*
X59702Y12950D01*
X59707Y12948D01*
X59712Y12943D01*
X59718Y12938D01*
X59724Y12931D01*
X59728Y12923D01*
X59729Y12919D01*
X59729Y12914D01*
Y12913D01*
Y12910D01*
X59728Y12905D01*
X59727Y12899D01*
X59724Y12893D01*
X59719Y12885D01*
X59713Y12878D01*
X59709Y12875D01*
X59704Y12871D01*
X59625D01*
X59651Y12924D01*
X59600D01*
X59580Y12865D01*
Y12864D01*
X59579Y12862D01*
X59578Y12859D01*
X59578Y12856D01*
Y12855D01*
X59578Y12853D01*
X59580Y12850D01*
X59582Y12847D01*
X59586Y12843D01*
X59591Y12840D01*
X59595Y12838D01*
X59599Y12838D01*
X59603Y12837D01*
X59796Y12837D01*
X59875Y13090D01*
X59959D01*
X59881Y12837D01*
X59979D01*
X59977Y12844D01*
X59976Y12854D01*
Y12854D01*
Y12856D01*
X59977Y12859D01*
Y12863D01*
X59978Y12867D01*
X59979Y12872D01*
X59980Y12878D01*
X59981Y12884D01*
X59984Y12890D01*
X59986Y12897D01*
X59990Y12904D01*
X59994Y12911D01*
X59999Y12918D01*
X60004Y12924D01*
X60010Y12930D01*
X60017Y12936D01*
X60018Y12937D01*
X60019Y12938D01*
X60021Y12939D01*
X60024Y12940D01*
X60027Y12943D01*
X60032Y12945D01*
X60037Y12947D01*
X60042Y12950D01*
X60049Y12952D01*
X60056Y12954D01*
X60063Y12956D01*
X60071Y12959D01*
X60089Y12961D01*
X60097Y12963D01*
X60156D01*
X60196Y13090D01*
X60283D01*
X60203Y12837D01*
D02*
G37*
G36*
X58276Y12878D02*
X58352Y12943D01*
X58352Y12943D01*
X58353Y12944D01*
X58355Y12945D01*
X58357Y12946D01*
X58360Y12949D01*
X58363Y12951D01*
X58371Y12955D01*
X58381Y12960D01*
X58392Y12964D01*
X58405Y12967D01*
X58411Y12968D01*
X58419D01*
X58422Y12968D01*
X58426Y12967D01*
X58431Y12965D01*
X58435Y12962D01*
X58439Y12958D01*
X58442Y12952D01*
X58443Y12948D01*
Y12944D01*
Y12943D01*
Y12942D01*
Y12940D01*
X58442Y12938D01*
X58441Y12932D01*
X58439Y12924D01*
X58410Y12837D01*
X58511D01*
X58511Y12835D01*
X58510Y12833D01*
X58508Y12829D01*
X58505Y12824D01*
X58502Y12819D01*
X58497Y12814D01*
X58491Y12809D01*
X58484Y12805D01*
X58483Y12804D01*
X58481Y12804D01*
X58478Y12803D01*
X58475Y12802D01*
X58470Y12800D01*
X58465Y12799D01*
X58458Y12798D01*
X58452Y12798D01*
X58348D01*
X58344Y12798D01*
X58340Y12799D01*
X58335Y12800D01*
X58330Y12803D01*
X58326Y12806D01*
X58323Y12810D01*
X58322Y12814D01*
X58321Y12817D01*
Y12818D01*
Y12819D01*
Y12820D01*
X58322Y12823D01*
X58323Y12828D01*
X58325Y12836D01*
X58341Y12888D01*
X58250Y12812D01*
X58249Y12812D01*
X58247Y12810D01*
X58244Y12808D01*
X58239Y12805D01*
X58234Y12802D01*
X58228Y12800D01*
X58222Y12798D01*
X58214Y12798D01*
X58165D01*
X58174Y12824D01*
X58171Y12821D01*
X58168Y12817D01*
X58164Y12814D01*
X58160Y12810D01*
X58155Y12807D01*
X58149Y12804D01*
X58143Y12801D01*
X58135Y12799D01*
X58128Y12798D01*
X58119Y12798D01*
X57992D01*
X57990Y12798D01*
X57985Y12799D01*
X57978Y12801D01*
X57971Y12804D01*
X57966Y12808D01*
X57963Y12811D01*
X57962Y12814D01*
X57961Y12818D01*
X57960Y12823D01*
Y12823D01*
Y12824D01*
X57961Y12827D01*
X57961Y12831D01*
X57963Y12836D01*
X57990Y12924D01*
X57953D01*
X57967Y12963D01*
X57968D01*
X57969Y12963D01*
X57971Y12964D01*
X57974Y12964D01*
X57977Y12965D01*
X57981Y12967D01*
X57989Y12970D01*
X57998Y12974D01*
X58008Y12979D01*
X58017Y12984D01*
X58025Y12990D01*
X58026Y12991D01*
X58029Y12994D01*
X58033Y12999D01*
X58036Y13002D01*
X58039Y13006D01*
X58042Y13010D01*
X58046Y13015D01*
X58049Y13021D01*
X58054Y13027D01*
X58058Y13035D01*
X58062Y13042D01*
X58067Y13051D01*
X58071Y13060D01*
X58118D01*
X58088Y12963D01*
X58147D01*
Y12962D01*
X58146Y12961D01*
X58145Y12959D01*
X58144Y12956D01*
X58140Y12950D01*
X58134Y12943D01*
X58127Y12936D01*
X58122Y12933D01*
X58117Y12930D01*
X58111Y12927D01*
X58105Y12925D01*
X58098Y12924D01*
X58090Y12924D01*
X58076D01*
X58049Y12837D01*
X58177D01*
X58256Y13090D01*
X58342D01*
X58276Y12878D01*
D02*
G37*
G36*
X61401Y12837D02*
X61406D01*
X61410Y12838D01*
X61414Y12838D01*
X61419Y12839D01*
X61431Y12842D01*
X61437Y12844D01*
X61443Y12847D01*
X61449Y12850D01*
X61455Y12854D01*
X61461Y12859D01*
X61467Y12864D01*
X61472Y12871D01*
X61476Y12879D01*
X61475Y12879D01*
X61473Y12881D01*
X61469Y12884D01*
X61465Y12889D01*
X61461Y12894D01*
X61457Y12900D01*
X61455Y12908D01*
X61454Y12916D01*
Y12918D01*
Y12920D01*
X61454Y12923D01*
X61455Y12928D01*
X61457Y12933D01*
X61460Y12939D01*
X61463Y12944D01*
X61468Y12949D01*
X61469Y12950D01*
X61471Y12951D01*
X61474Y12954D01*
X61478Y12956D01*
X61483Y12958D01*
X61489Y12960D01*
X61496Y12962D01*
X61503Y12963D01*
X61754D01*
Y12962D01*
X61753Y12961D01*
X61752Y12959D01*
X61750Y12956D01*
X61746Y12950D01*
X61741Y12943D01*
X61734Y12936D01*
X61724Y12930D01*
X61719Y12927D01*
X61713Y12925D01*
X61706Y12924D01*
X61700Y12924D01*
X61569D01*
Y12923D01*
X61569Y12921D01*
X61568Y12917D01*
X61567Y12913D01*
X61565Y12906D01*
X61563Y12900D01*
X61560Y12893D01*
X61557Y12885D01*
X61553Y12876D01*
X61548Y12868D01*
X61542Y12860D01*
X61535Y12852D01*
X61528Y12843D01*
X61519Y12835D01*
X61509Y12828D01*
X61498Y12822D01*
X61497D01*
X61495Y12820D01*
X61493Y12819D01*
X61490Y12818D01*
X61485Y12816D01*
X61480Y12814D01*
X61474Y12812D01*
X61467Y12810D01*
X61460Y12808D01*
X61452Y12805D01*
X61443Y12803D01*
X61434Y12802D01*
X61414Y12799D01*
X61403Y12798D01*
X61392Y12798D01*
X61346D01*
X61343Y12798D01*
X61341D01*
X61334Y12800D01*
X61327Y12803D01*
X61326Y12804D01*
X61325Y12805D01*
X61323Y12807D01*
X61321Y12809D01*
X61319Y12812D01*
X61317Y12817D01*
X61316Y12821D01*
X61315Y12827D01*
Y12827D01*
Y12828D01*
Y12830D01*
X61316Y12833D01*
X61317Y12839D01*
X61318Y12847D01*
X61394Y13090D01*
X61480D01*
X61401Y12837D01*
D02*
G37*
G36*
X57073Y12963D02*
X57315D01*
Y12962D01*
X57315Y12963D01*
X57488D01*
X57488Y12965D01*
Y12966D01*
Y12966D01*
X57488Y12970D01*
X57489Y12975D01*
X57491Y12981D01*
X57494Y12988D01*
X57498Y12995D01*
X57505Y13002D01*
X57509Y13006D01*
X57513Y13009D01*
X57514Y13009D01*
X57517Y13011D01*
X57522Y13012D01*
X57528Y13015D01*
X57535Y13017D01*
X57543Y13019D01*
X57553Y13021D01*
X57564Y13021D01*
X57603D01*
X57583Y12963D01*
X57712D01*
X57673Y12837D01*
X57775D01*
Y12836D01*
Y12834D01*
X57774Y12830D01*
X57773Y12827D01*
X57771Y12822D01*
X57768Y12817D01*
X57763Y12812D01*
X57756Y12808D01*
X57756Y12807D01*
X57754Y12806D01*
X57750Y12804D01*
X57746Y12803D01*
X57741Y12801D01*
X57735Y12799D01*
X57729Y12798D01*
X57722Y12798D01*
X57625D01*
X57623Y12798D01*
X57617Y12799D01*
X57610Y12802D01*
X57603Y12805D01*
X57598Y12810D01*
X57595Y12814D01*
X57593Y12818D01*
X57592Y12823D01*
X57592Y12828D01*
Y12828D01*
Y12829D01*
Y12830D01*
X57592Y12833D01*
X57593Y12838D01*
X57595Y12845D01*
X57619Y12924D01*
X57571D01*
X57535Y12854D01*
X57534Y12853D01*
X57534Y12851D01*
X57532Y12848D01*
X57529Y12845D01*
X57526Y12842D01*
X57522Y12839D01*
X57517Y12837D01*
X57511Y12837D01*
X57489D01*
X57521Y12924D01*
X57407D01*
X57407Y12923D01*
X57409Y12921D01*
X57411Y12919D01*
X57413Y12916D01*
X57415Y12913D01*
X57417Y12909D01*
X57419Y12904D01*
Y12903D01*
X57420Y12901D01*
X57421Y12899D01*
X57421Y12895D01*
X57423Y12888D01*
X57423Y12879D01*
Y12879D01*
Y12878D01*
X57423Y12875D01*
X57422Y12873D01*
X57422Y12869D01*
X57421Y12865D01*
X57417Y12856D01*
X57413Y12846D01*
X57407Y12835D01*
X57403Y12830D01*
X57398Y12825D01*
X57393Y12820D01*
X57387Y12816D01*
X57387D01*
X57386Y12815D01*
X57384Y12814D01*
X57382Y12813D01*
X57379Y12811D01*
X57375Y12809D01*
X57371Y12807D01*
X57366Y12805D01*
X57361Y12803D01*
X57355Y12801D01*
X57341Y12798D01*
X57325Y12795D01*
X57307Y12794D01*
X57302D01*
X57298Y12794D01*
X57293D01*
X57288Y12795D01*
X57282Y12795D01*
X57275Y12797D01*
X57261Y12799D01*
X57246Y12803D01*
X57232Y12809D01*
X57226Y12812D01*
X57220Y12816D01*
X57219D01*
X57219Y12817D01*
X57215Y12820D01*
X57211Y12824D01*
X57206Y12830D01*
X57201Y12838D01*
X57197Y12848D01*
X57194Y12858D01*
X57193Y12864D01*
X57193Y12870D01*
Y12870D01*
Y12871D01*
Y12874D01*
X57193Y12878D01*
X57194Y12883D01*
Y12883D01*
X57195Y12884D01*
Y12886D01*
X57196Y12889D01*
X57198Y12895D01*
X57201Y12904D01*
X57205Y12913D01*
X57212Y12923D01*
X57213Y12924D01*
X57091D01*
X57092Y12923D01*
X57094Y12920D01*
X57096Y12917D01*
X57098Y12914D01*
X57100Y12911D01*
X57102Y12906D01*
X57104Y12902D01*
X57106Y12896D01*
X57108Y12891D01*
X57109Y12884D01*
X57110Y12877D01*
X57111Y12869D01*
X57112Y12860D01*
Y12851D01*
Y12850D01*
Y12848D01*
X57111Y12845D01*
X57110Y12841D01*
X57109Y12835D01*
X57107Y12829D01*
X57105Y12822D01*
X57102Y12814D01*
X57099Y12806D01*
X57094Y12798D01*
X57089Y12789D01*
X57083Y12779D01*
X57075Y12770D01*
X57067Y12760D01*
X57057Y12751D01*
X57046Y12742D01*
X57045Y12742D01*
X57043Y12741D01*
X57040Y12738D01*
X57037Y12736D01*
X57032Y12732D01*
X57025Y12728D01*
X57019Y12724D01*
X57011Y12721D01*
X57003Y12717D01*
X56995Y12713D01*
X56977Y12706D01*
X56967Y12703D01*
X56957Y12702D01*
X56948Y12701D01*
X56938Y12700D01*
X56936D01*
X56934Y12701D01*
X56932Y12701D01*
X56926Y12704D01*
X56923Y12706D01*
X56920Y12708D01*
X56919Y12709D01*
X56919Y12709D01*
X56918Y12711D01*
X56916Y12713D01*
X56913Y12719D01*
X56913Y12722D01*
X56912Y12726D01*
Y12727D01*
X56913Y12729D01*
X56913Y12731D01*
X56914Y12734D01*
X56975Y12908D01*
X56974D01*
X56973Y12908D01*
X56971Y12909D01*
X56968Y12910D01*
X56961Y12914D01*
X56957Y12917D01*
X56954Y12920D01*
X56953Y12921D01*
X56952Y12922D01*
X56951Y12924D01*
X56949Y12928D01*
X56947Y12931D01*
X56946Y12935D01*
X56945Y12940D01*
X56944Y12945D01*
Y12945D01*
Y12946D01*
Y12948D01*
X56945Y12950D01*
X56946Y12956D01*
X56949Y12963D01*
X56994D01*
X57039Y13090D01*
X57126D01*
X57073Y12963D01*
D02*
G37*
G36*
X64271Y12868D02*
X64275Y12866D01*
X64280Y12865D01*
X64284Y12863D01*
X64289Y12860D01*
X64294Y12857D01*
X64295Y12856D01*
X64297Y12854D01*
X64298Y12852D01*
X64301Y12849D01*
X64303Y12845D01*
X64305Y12840D01*
X64307Y12835D01*
X64307Y12829D01*
Y12828D01*
Y12826D01*
X64307Y12823D01*
X64305Y12819D01*
X64304Y12815D01*
X64302Y12810D01*
X64299Y12805D01*
X64294Y12801D01*
X64294Y12800D01*
X64292Y12799D01*
X64289Y12798D01*
X64286Y12795D01*
X64282Y12793D01*
X64277Y12792D01*
X64271Y12790D01*
X64265Y12790D01*
X64262D01*
X64259Y12790D01*
X64254Y12792D01*
X64250Y12793D01*
X64245Y12794D01*
X64240Y12797D01*
X64235Y12801D01*
X64234Y12802D01*
X64233Y12803D01*
X64231Y12805D01*
X64229Y12809D01*
X64227Y12813D01*
X64224Y12818D01*
X64223Y12823D01*
X64223Y12829D01*
Y12829D01*
Y12832D01*
X64223Y12834D01*
X64224Y12838D01*
X64226Y12843D01*
X64228Y12847D01*
X64231Y12852D01*
X64235Y12857D01*
X64235Y12857D01*
X64237Y12858D01*
X64240Y12860D01*
X64243Y12863D01*
X64248Y12864D01*
X64253Y12866D01*
X64259Y12868D01*
X64265Y12868D01*
X64268D01*
X64271Y12868D01*
D02*
G37*
G36*
X60782Y12369D02*
X60786Y12365D01*
X60790Y12354D01*
Y12350D01*
Y12347D01*
X60786Y12340D01*
X60779Y12336D01*
X60771D01*
X60760Y12343D01*
X60757Y12347D01*
Y12354D01*
Y12361D01*
Y12365D01*
X60760Y12369D01*
X60768Y12372D01*
X60779D01*
X60782Y12369D01*
D02*
G37*
G36*
X60713Y12336D02*
X60717Y12329D01*
X60720Y12314D01*
X60669D01*
X60680Y12329D01*
Y12332D01*
X60684Y12336D01*
X60691Y12340D01*
X60699Y12343D01*
X60706D01*
X60713Y12336D01*
D02*
G37*
G36*
X61734Y12325D02*
X61737Y12303D01*
X61708Y12310D01*
X61697D01*
X61679Y12307D01*
X61664Y12303D01*
X61654Y12292D01*
X61646Y12281D01*
X61639Y12259D01*
X61632Y12227D01*
X61654Y12208D01*
X61672Y12190D01*
X61705Y12197D01*
X61734D01*
X61741Y12194D01*
X61745Y12190D01*
Y12183D01*
X61737Y12172D01*
X61730Y12168D01*
X61719Y12161D01*
X61708D01*
X61686Y12157D01*
X61657D01*
X61628Y12186D01*
X61599Y12212D01*
Y12248D01*
Y12289D01*
X61621Y12314D01*
X61643Y12340D01*
X61683D01*
X61730Y12343D01*
X61734Y12325D01*
D02*
G37*
G36*
X61052Y12387D02*
X61063Y12380D01*
X61070Y12369D01*
X61078Y12350D01*
X61085Y12325D01*
X61070Y12310D01*
X61063Y12303D01*
X61048Y12296D01*
X61041Y12292D01*
X61030D01*
X61016Y12296D01*
X61005Y12307D01*
X61001Y12310D01*
X60997Y12314D01*
X60994Y12329D01*
X60990Y12343D01*
Y12372D01*
X61012Y12383D01*
X61016D01*
X61019Y12387D01*
X61041Y12391D01*
X61052Y12387D01*
D02*
G37*
G36*
X60615Y12303D02*
X60618D01*
X60626Y12299D01*
X60629Y12296D01*
X60633Y12285D01*
Y12281D01*
Y12274D01*
X60629Y12267D01*
X60622Y12259D01*
X60611D01*
X60604Y12263D01*
X60600Y12270D01*
X60596Y12278D01*
Y12292D01*
Y12307D01*
X60615Y12303D01*
D02*
G37*
G36*
X61125D02*
X61151Y12292D01*
Y12263D01*
Y12259D01*
Y12252D01*
X61143Y12237D01*
X61136Y12227D01*
X61132D01*
X61125Y12223D01*
X61118Y12219D01*
X61103Y12216D01*
X61092D01*
X61085Y12219D01*
X61074Y12227D01*
X61070Y12234D01*
X61059Y12248D01*
Y12259D01*
X61063Y12274D01*
X61070Y12285D01*
X61085Y12299D01*
X61107Y12314D01*
X61125Y12303D01*
D02*
G37*
G36*
X60560Y12216D02*
Y12212D01*
X60556Y12208D01*
X60545Y12194D01*
X60531D01*
X60524Y12197D01*
Y12201D01*
X60520Y12205D01*
X60516Y12219D01*
Y12234D01*
X60564D01*
X60560Y12216D01*
D02*
G37*
G36*
X62598Y12343D02*
X62601Y12329D01*
X62605Y12318D01*
X62579Y12314D01*
X62554Y12310D01*
X62550Y12241D01*
Y12237D01*
Y12227D01*
X62547Y12216D01*
X62543Y12197D01*
X62539Y12183D01*
X62536Y12172D01*
X62528Y12165D01*
X62521D01*
Y12168D01*
X62517Y12176D01*
Y12186D01*
X62514Y12201D01*
Y12219D01*
Y12241D01*
Y12314D01*
X62474D01*
X62463Y12318D01*
X62459Y12325D01*
Y12329D01*
X62463Y12332D01*
X62470Y12340D01*
X62481Y12343D01*
X62499Y12347D01*
X62554D01*
X62598Y12343D01*
D02*
G37*
G36*
X63403Y12336D02*
X63436Y12321D01*
Y12296D01*
X63440Y12270D01*
X63418Y12252D01*
X63392Y12237D01*
X63414Y12212D01*
X63418Y12208D01*
X63429Y12197D01*
X63436Y12183D01*
X63440Y12168D01*
Y12165D01*
X63429Y12161D01*
X63421D01*
X63414Y12168D01*
X63399Y12176D01*
X63385Y12194D01*
X63348Y12230D01*
Y12208D01*
Y12205D01*
Y12201D01*
Y12183D01*
X63345Y12161D01*
X63341Y12157D01*
X63338Y12154D01*
X63334D01*
X63323Y12161D01*
Y12165D01*
X63319Y12168D01*
Y12176D01*
Y12186D01*
X63316Y12205D01*
Y12227D01*
Y12252D01*
Y12336D01*
X63341Y12343D01*
X63374Y12350D01*
X63403Y12336D01*
D02*
G37*
G36*
X64161D02*
X64165Y12332D01*
X64172Y12318D01*
X64176Y12307D01*
X64183Y12289D01*
X64194Y12270D01*
X64201Y12245D01*
Y12241D01*
X64205Y12234D01*
X64216Y12208D01*
X64223Y12179D01*
X64227Y12172D01*
Y12165D01*
X64223Y12161D01*
X64216Y12157D01*
X64209D01*
X64205Y12161D01*
X64198Y12168D01*
X64190Y12183D01*
X64183Y12205D01*
X64110D01*
X64099Y12183D01*
X64096Y12179D01*
X64088Y12168D01*
X64081Y12161D01*
X64074D01*
X64067Y12165D01*
Y12168D01*
X64070Y12179D01*
Y12190D01*
X64077Y12205D01*
X64081Y12223D01*
X64092Y12248D01*
Y12252D01*
X64096Y12259D01*
X64103Y12274D01*
X64110Y12289D01*
X64121Y12318D01*
X64128Y12329D01*
X64136Y12336D01*
X64147Y12350D01*
X64161Y12336D01*
D02*
G37*
G36*
X63564Y12343D02*
X63585Y12340D01*
X63615Y12329D01*
Y12289D01*
Y12285D01*
Y12281D01*
Y12263D01*
X63618Y12241D01*
X63625Y12227D01*
X63633Y12216D01*
X63604Y12186D01*
X63578Y12157D01*
X63527D01*
X63516Y12161D01*
X63505Y12165D01*
Y12168D01*
X63502Y12172D01*
Y12179D01*
Y12190D01*
X63498Y12205D01*
Y12227D01*
Y12252D01*
Y12336D01*
X63523Y12343D01*
X63527D01*
X63542Y12347D01*
X63564Y12343D01*
D02*
G37*
G36*
X62995Y12340D02*
X63039D01*
X63046Y12325D01*
Y12321D01*
X63050Y12310D01*
Y12303D01*
X63053Y12289D01*
Y12274D01*
Y12252D01*
Y12194D01*
X63031Y12172D01*
X63028Y12168D01*
X63017Y12165D01*
X62999Y12161D01*
X62973Y12157D01*
X62944D01*
X62948Y12248D01*
X62951Y12343D01*
X62995Y12340D01*
D02*
G37*
G36*
X62299Y12336D02*
X62302Y12332D01*
X62313Y12325D01*
X62328Y12307D01*
X62350Y12278D01*
X62379Y12230D01*
Y12285D01*
Y12336D01*
X62412D01*
Y12245D01*
Y12157D01*
X62393D01*
X62386Y12165D01*
X62379Y12172D01*
X62368Y12183D01*
X62361Y12197D01*
X62346Y12216D01*
X62306Y12278D01*
X62299Y12219D01*
X62295Y12165D01*
X62280Y12157D01*
X62270Y12154D01*
Y12245D01*
Y12248D01*
Y12256D01*
Y12278D01*
Y12307D01*
X62273Y12318D01*
Y12329D01*
Y12332D01*
X62280Y12340D01*
X62288D01*
X62299Y12336D01*
D02*
G37*
G36*
X62149Y12332D02*
X62153Y12329D01*
X62160Y12318D01*
X62167Y12307D01*
X62175Y12292D01*
X62182Y12274D01*
X62193Y12248D01*
X62218Y12172D01*
X62211Y12165D01*
X62204Y12161D01*
X62197Y12157D01*
X62189Y12161D01*
X62186Y12168D01*
X62182Y12176D01*
X62178Y12186D01*
Y12205D01*
X62098D01*
X62087Y12183D01*
X62084Y12176D01*
X62076Y12165D01*
X62065Y12157D01*
X62062D01*
X62054Y12161D01*
X62051Y12168D01*
Y12172D01*
X62054Y12186D01*
X62058Y12201D01*
X62065Y12216D01*
X62073Y12237D01*
X62084Y12259D01*
Y12263D01*
X62087Y12270D01*
X62102Y12296D01*
X62113Y12325D01*
X62120Y12336D01*
X62124Y12340D01*
X62135Y12347D01*
X62149Y12332D01*
D02*
G37*
G36*
X61993Y12343D02*
X62000Y12336D01*
X62003Y12329D01*
X62007Y12318D01*
X61971Y12314D01*
X61963D01*
X61952Y12310D01*
X61938Y12307D01*
X61931Y12296D01*
X61927Y12285D01*
X61952Y12278D01*
X61956D01*
X61960Y12274D01*
X61978Y12267D01*
X61996Y12252D01*
X62011Y12234D01*
Y12230D01*
X62014Y12219D01*
X62011Y12201D01*
X61996Y12183D01*
X61971Y12157D01*
X61923D01*
X61909Y12161D01*
X61901Y12168D01*
Y12172D01*
X61898Y12176D01*
Y12183D01*
X61901Y12190D01*
X61905D01*
X61909Y12194D01*
X61920Y12197D01*
X61938D01*
X61949Y12201D01*
X61960Y12205D01*
X61967Y12212D01*
X61978Y12223D01*
X61952Y12230D01*
X61949D01*
X61945Y12234D01*
X61923Y12248D01*
X61905Y12267D01*
X61898Y12281D01*
X61894Y12296D01*
Y12299D01*
X61901Y12314D01*
X61916Y12325D01*
X61927Y12332D01*
X61945Y12340D01*
X61949D01*
X61952Y12343D01*
X61971Y12347D01*
X61993Y12343D01*
D02*
G37*
G36*
X61402Y12340D02*
X61413Y12336D01*
X61420Y12278D01*
X61424Y12216D01*
X61438Y12205D01*
X61453Y12190D01*
X61475Y12197D01*
X61497Y12205D01*
Y12270D01*
Y12340D01*
X61519Y12336D01*
X61541Y12332D01*
X61537Y12263D01*
Y12201D01*
X61508Y12176D01*
X61504D01*
X61500Y12168D01*
X61479Y12161D01*
X61464Y12157D01*
X61446D01*
X61428Y12165D01*
X61409Y12176D01*
X61384Y12197D01*
X61387Y12267D01*
X61391Y12343D01*
X61402Y12340D01*
D02*
G37*
G36*
X63939Y12343D02*
X63964Y12340D01*
X63997Y12332D01*
X64001Y12299D01*
X64005Y12263D01*
X63986Y12248D01*
X63968Y12237D01*
X63990Y12208D01*
X63994Y12205D01*
X63997Y12201D01*
X64008Y12183D01*
X64019Y12165D01*
X64015Y12157D01*
X64012Y12154D01*
X64008D01*
X63997Y12157D01*
X63979Y12168D01*
X63957Y12190D01*
X63928Y12219D01*
Y12194D01*
Y12186D01*
X63924Y12172D01*
X63921Y12165D01*
X63913Y12157D01*
X63910D01*
X63899Y12165D01*
Y12168D01*
X63895Y12172D01*
Y12179D01*
Y12190D01*
X63892Y12205D01*
Y12227D01*
Y12256D01*
Y12336D01*
X63910Y12343D01*
X63913D01*
X63924Y12347D01*
X63939Y12343D01*
D02*
G37*
G36*
X63764Y12340D02*
X63768Y12336D01*
X63775Y12329D01*
X63779Y12318D01*
X63786Y12303D01*
X63793Y12285D01*
X63804Y12259D01*
Y12256D01*
X63808Y12248D01*
X63815Y12237D01*
X63822Y12223D01*
X63833Y12190D01*
X63837Y12179D01*
Y12168D01*
Y12165D01*
X63833Y12157D01*
X63826Y12154D01*
X63819Y12157D01*
X63808Y12165D01*
X63804Y12168D01*
X63800Y12183D01*
X63786Y12205D01*
X63713D01*
X63706Y12183D01*
X63702Y12179D01*
X63695Y12168D01*
X63687Y12161D01*
X63680D01*
X63673Y12165D01*
Y12168D01*
Y12179D01*
X63677Y12186D01*
X63680Y12201D01*
X63687Y12219D01*
X63695Y12245D01*
Y12248D01*
X63698Y12256D01*
X63706Y12270D01*
X63713Y12285D01*
X63724Y12314D01*
X63731Y12325D01*
X63738Y12332D01*
X63753Y12347D01*
X63764Y12340D01*
D02*
G37*
G36*
X62700D02*
X62703Y12336D01*
X62711Y12329D01*
X62714Y12318D01*
X62722Y12303D01*
X62729Y12285D01*
X62740Y12259D01*
Y12256D01*
X62743Y12248D01*
X62751Y12237D01*
X62758Y12223D01*
X62769Y12190D01*
X62773Y12179D01*
Y12168D01*
Y12165D01*
X62769Y12157D01*
X62762Y12154D01*
X62754Y12157D01*
X62747Y12165D01*
X62743Y12168D01*
X62740Y12183D01*
X62725Y12205D01*
X62652D01*
X62649Y12183D01*
Y12179D01*
X62645Y12168D01*
X62638Y12161D01*
X62627Y12157D01*
X62623Y12161D01*
X62619Y12165D01*
X62616Y12172D01*
Y12176D01*
X62619Y12190D01*
X62623Y12201D01*
X62627Y12216D01*
X62634Y12234D01*
X62641Y12256D01*
Y12259D01*
X62645Y12267D01*
X62656Y12289D01*
X62667Y12314D01*
X62674Y12325D01*
X62678Y12332D01*
X62689Y12347D01*
X62700Y12340D01*
D02*
G37*
G36*
X63210Y12318D02*
X63214Y12314D01*
X63221Y12296D01*
X63232Y12267D01*
X63243Y12227D01*
X63265Y12168D01*
X63254Y12157D01*
X63246Y12150D01*
X63228Y12176D01*
X63214Y12205D01*
X63148D01*
X63137Y12183D01*
X63133Y12179D01*
X63126Y12172D01*
X63115Y12165D01*
X63108D01*
X63104Y12168D01*
Y12172D01*
X63108Y12190D01*
X63112Y12201D01*
X63115Y12219D01*
X63122Y12237D01*
X63133Y12263D01*
Y12267D01*
X63137Y12274D01*
X63148Y12299D01*
X63163Y12325D01*
X63170Y12336D01*
X63173Y12340D01*
X63192Y12347D01*
X63210Y12318D01*
D02*
G37*
G36*
X60491Y12157D02*
X60509Y12146D01*
X60502Y12128D01*
Y12124D01*
X60494Y12121D01*
X60487Y12117D01*
X60476Y12114D01*
X60458D01*
Y12135D01*
Y12143D01*
X60462Y12154D01*
X60473Y12161D01*
X60480D01*
X60491Y12157D01*
D02*
G37*
G36*
X61158Y12190D02*
X61161Y12183D01*
X61172Y12168D01*
Y12157D01*
Y12146D01*
X61165Y12132D01*
X61154Y12117D01*
X61151Y12114D01*
X61136Y12110D01*
X61118D01*
X61107Y12114D01*
X61099Y12121D01*
X61081Y12143D01*
X61085Y12165D01*
Y12168D01*
X61092Y12179D01*
X61099Y12190D01*
X61114Y12197D01*
X61136Y12205D01*
X61158Y12190D01*
D02*
G37*
G36*
X60465Y12037D02*
Y12019D01*
X60443Y12011D01*
X60425Y12008D01*
X60429Y12033D01*
X60432Y12059D01*
X60465D01*
Y12037D01*
D02*
G37*
G36*
X61118Y12084D02*
X61136Y12077D01*
Y12052D01*
Y12048D01*
Y12041D01*
X61132Y12026D01*
X61125Y12015D01*
Y12011D01*
X61118Y12008D01*
X61110Y12004D01*
X61099Y12001D01*
X61092D01*
X61081Y12004D01*
X61070Y12011D01*
Y12015D01*
X61067Y12022D01*
X61063Y12033D01*
X61059Y12052D01*
Y12077D01*
X61078Y12084D01*
X61096Y12099D01*
X61118Y12084D01*
D02*
G37*
G36*
X64241Y12041D02*
X64256Y12037D01*
X64263Y12033D01*
X64278Y12026D01*
X64274Y11990D01*
X64271Y11960D01*
X64201Y11964D01*
X64128Y11968D01*
X64092Y11953D01*
X64063Y11939D01*
X64056Y11913D01*
Y11909D01*
X64052Y11895D01*
Y11877D01*
X64056Y11858D01*
X64063Y11829D01*
X64154Y11785D01*
X64158D01*
X64169Y11778D01*
X64180Y11771D01*
X64198Y11764D01*
X64234Y11742D01*
X64252Y11727D01*
X64267Y11716D01*
X64271Y11713D01*
X64285Y11698D01*
X64296Y11676D01*
X64307Y11647D01*
Y11640D01*
Y11625D01*
Y11603D01*
X64300Y11574D01*
X64289Y11545D01*
X64267Y11512D01*
X64234Y11483D01*
X64216Y11468D01*
X64190Y11457D01*
X64147Y11432D01*
X64074Y11436D01*
X64034D01*
X64001Y11439D01*
X63990D01*
X63979Y11443D01*
X63961Y11450D01*
Y11494D01*
Y11541D01*
X63986Y11530D01*
X63994D01*
X64008Y11527D01*
X64034Y11523D01*
X64063Y11516D01*
X64114Y11508D01*
X64154Y11527D01*
X64198Y11549D01*
X64205Y11574D01*
Y11578D01*
X64209Y11592D01*
Y11607D01*
Y11629D01*
X64205Y11654D01*
X64110Y11698D01*
X64107Y11702D01*
X64096Y11705D01*
X64081Y11716D01*
X64059Y11727D01*
X64019Y11749D01*
X64001Y11764D01*
X63986Y11775D01*
X63954Y11807D01*
Y11873D01*
Y11942D01*
X63983Y11971D01*
X63986Y11979D01*
X64001Y11990D01*
X64023Y12008D01*
X64052Y12022D01*
X64092Y12044D01*
X64212D01*
X64241Y12041D01*
D02*
G37*
G36*
X63071D02*
X63152Y12037D01*
X63155Y11993D01*
X63159Y11953D01*
X63075Y11960D01*
X62995Y11968D01*
X62962Y11942D01*
X62933Y11920D01*
Y11888D01*
Y11855D01*
X62958Y11833D01*
X62962Y11829D01*
X62977Y11818D01*
X62999Y11804D01*
X63035Y11789D01*
X63039D01*
X63050Y11782D01*
X63064Y11775D01*
X63086Y11767D01*
X63126Y11742D01*
X63144Y11727D01*
X63159Y11713D01*
X63166Y11705D01*
X63177Y11687D01*
X63188Y11654D01*
X63195Y11611D01*
Y11563D01*
X63166Y11523D01*
X63141Y11487D01*
X63093Y11461D01*
X63039Y11432D01*
X62878D01*
X62860Y11450D01*
X62842Y11465D01*
X62845Y11498D01*
X62849Y11527D01*
X62875D01*
X62889Y11523D01*
X62915Y11519D01*
X62933D01*
X62955Y11516D01*
X63017Y11512D01*
X63053Y11538D01*
X63093Y11559D01*
Y11603D01*
Y11647D01*
X63060Y11669D01*
X63053Y11673D01*
X63035Y11683D01*
X63006Y11698D01*
X62962Y11713D01*
X62896Y11742D01*
X62871Y11775D01*
X62842Y11807D01*
Y11873D01*
Y11942D01*
X62871Y11975D01*
X62875Y11982D01*
X62889Y11997D01*
X62915Y12011D01*
X62948Y12026D01*
X62999Y12044D01*
X63071Y12041D01*
D02*
G37*
G36*
X63793D02*
X63822Y12037D01*
X63848Y12033D01*
X63877Y12026D01*
X63881Y11993D01*
Y11990D01*
Y11975D01*
Y11964D01*
X63873Y11953D01*
X63862Y11942D01*
X63800Y11953D01*
X63738Y11964D01*
X63695Y11953D01*
X63651Y11942D01*
X63615Y11906D01*
X63578Y11866D01*
X63567Y11800D01*
X63553Y11742D01*
X63564Y11676D01*
Y11673D01*
X63567Y11662D01*
X63574Y11643D01*
X63582Y11621D01*
X63611Y11578D01*
X63629Y11556D01*
X63651Y11541D01*
X63684Y11519D01*
X63768D01*
X63782Y11523D01*
X63811Y11527D01*
X63841Y11538D01*
X63873Y11549D01*
X63884Y11530D01*
Y11527D01*
X63888Y11519D01*
Y11508D01*
Y11490D01*
Y11465D01*
X63844Y11450D01*
X63841D01*
X63837Y11447D01*
X63826D01*
X63811Y11443D01*
X63775Y11439D01*
X63728Y11436D01*
X63662Y11432D01*
X63611Y11457D01*
X63607D01*
X63596Y11465D01*
X63582Y11472D01*
X63564Y11483D01*
X63542Y11501D01*
X63523Y11519D01*
X63502Y11545D01*
X63483Y11574D01*
X63461Y11618D01*
Y11724D01*
Y11826D01*
X63487Y11888D01*
X63516Y11950D01*
X63556Y11979D01*
X63560D01*
X63564Y11986D01*
X63582Y11997D01*
X63611Y12011D01*
X63644Y12026D01*
X63691Y12044D01*
X63768D01*
X63793Y12041D01*
D02*
G37*
G36*
X61081Y11971D02*
Y11968D01*
Y11957D01*
X61074Y11942D01*
X61056Y11928D01*
X61052D01*
X61041Y11924D01*
X61027Y11928D01*
X61019Y11931D01*
X61012Y11939D01*
X60997Y11957D01*
X61008Y11975D01*
X61019Y11990D01*
X61074D01*
X61081Y11971D01*
D02*
G37*
G36*
X60465Y11957D02*
X60483Y11950D01*
X60480Y11928D01*
Y11924D01*
X60476Y11917D01*
X60473Y11906D01*
X60462Y11898D01*
X60454D01*
X60447Y11906D01*
X60436Y11917D01*
X60425Y11931D01*
X60436Y11946D01*
X60451Y11964D01*
X60465Y11957D01*
D02*
G37*
G36*
X61001Y11917D02*
X61016Y11898D01*
X61001Y11873D01*
X60990Y11851D01*
X60965D01*
X60957Y11855D01*
X60946Y11862D01*
X60935Y11869D01*
Y11873D01*
Y11880D01*
Y11891D01*
Y11906D01*
X60939Y11928D01*
X60965Y11931D01*
X60986D01*
X61001Y11917D01*
D02*
G37*
G36*
X60538Y11866D02*
X60545Y11858D01*
X60553Y11840D01*
X60538Y11826D01*
X60535D01*
X60531Y11822D01*
X60520Y11818D01*
X60509Y11815D01*
X60505D01*
X60502Y11822D01*
X60494Y11833D01*
X60491Y11847D01*
Y11873D01*
X60527D01*
X60538Y11866D01*
D02*
G37*
G36*
X60906Y11873D02*
X60910Y11869D01*
X60914Y11862D01*
X60921Y11851D01*
Y11837D01*
Y11833D01*
X60917Y11826D01*
X60914Y11818D01*
X60903Y11807D01*
X60881Y11796D01*
X60870Y11807D01*
X60866Y11811D01*
X60863Y11818D01*
X60859Y11833D01*
X60855Y11847D01*
Y11873D01*
X60873Y11877D01*
X60892Y11884D01*
X60906Y11873D01*
D02*
G37*
G36*
X60801Y11840D02*
X60826Y11837D01*
Y11804D01*
Y11778D01*
X60801Y11775D01*
X60779Y11771D01*
X60768Y11789D01*
Y11793D01*
X60764Y11800D01*
Y11811D01*
X60768Y11826D01*
X60779Y11844D01*
X60801Y11840D01*
D02*
G37*
G36*
X60888Y12445D02*
Y12438D01*
X60884Y12423D01*
Y12412D01*
X60881Y12394D01*
X60877Y12376D01*
X60870Y12350D01*
X60863Y12321D01*
X60855Y12285D01*
X60844Y12241D01*
X60833Y12190D01*
X60819Y12135D01*
X60804Y12070D01*
Y12063D01*
X60797Y12044D01*
X60793Y12019D01*
X60786Y11990D01*
X60779Y11960D01*
X60771Y11935D01*
X60768Y11917D01*
X60764Y11906D01*
X60768Y11902D01*
X60775Y11898D01*
X60786Y11902D01*
X60790Y11906D01*
X60801Y11909D01*
X60819Y11917D01*
X60841Y11928D01*
X60848Y11931D01*
X60863Y11939D01*
X60881Y11953D01*
X60903Y11968D01*
X60965Y12008D01*
X60994Y12052D01*
X61027Y12099D01*
X61030Y12143D01*
X61038Y12190D01*
X61023Y12212D01*
X61019Y12216D01*
X61012Y12227D01*
X61001Y12237D01*
X60979Y12248D01*
X60976Y12252D01*
X60965Y12259D01*
X60954Y12270D01*
X60946Y12281D01*
X60943Y12292D01*
X61016D01*
X61008Y12281D01*
Y12278D01*
X61005Y12274D01*
X61008Y12270D01*
X61012Y12267D01*
X61016D01*
X61023Y12263D01*
X61030Y12252D01*
X61041Y12230D01*
X61045Y12223D01*
X61052Y12208D01*
X61056Y12186D01*
X61059Y12161D01*
Y12121D01*
X61034Y12070D01*
Y12066D01*
X61030Y12059D01*
X61019Y12048D01*
X61008Y12033D01*
X60994Y12015D01*
X60972Y11993D01*
X60946Y11968D01*
X60914Y11942D01*
X60910Y11939D01*
X60899Y11931D01*
X60881Y11920D01*
X60863Y11909D01*
X60815Y11884D01*
X60793Y11877D01*
X60775Y11873D01*
X60753D01*
Y11858D01*
Y11855D01*
Y11847D01*
X60746Y11840D01*
X60739Y11837D01*
X60724Y11829D01*
X60728Y11793D01*
X60731Y11760D01*
X60709D01*
X60699Y11764D01*
X60673Y11775D01*
X60662Y11789D01*
X60680Y11815D01*
X60684Y11818D01*
X60688Y11833D01*
X60691Y11844D01*
X60688Y11851D01*
X60684Y11858D01*
X60669D01*
X60662Y11855D01*
X60644Y11858D01*
X60618Y11862D01*
X60567Y11877D01*
X60531Y11917D01*
X60491Y11950D01*
Y11993D01*
Y12037D01*
X60516Y12084D01*
Y12088D01*
X60524Y12095D01*
X60531Y12106D01*
X60542Y12124D01*
X60560Y12146D01*
X60582Y12168D01*
X60611Y12194D01*
X60644Y12219D01*
X60648Y12223D01*
X60662Y12230D01*
X60677Y12241D01*
X60702Y12256D01*
X60753Y12281D01*
X60779Y12289D01*
X60801Y12292D01*
X60819D01*
X60837Y12369D01*
Y12372D01*
X60841Y12380D01*
X60844Y12394D01*
X60852Y12409D01*
X60855Y12423D01*
X60863Y12438D01*
X60870Y12445D01*
X60877Y12449D01*
X60881D01*
X60888Y12445D01*
D02*
G37*
G36*
X60626Y11829D02*
X60629Y11826D01*
X60637Y11811D01*
Y11793D01*
X60633Y11785D01*
X60626Y11775D01*
X60611Y11760D01*
X60593Y11778D01*
X60589Y11782D01*
X60582Y11793D01*
Y11811D01*
X60586Y11818D01*
X60593Y11829D01*
X60607Y11844D01*
X60626Y11829D01*
D02*
G37*
G36*
X62787Y12041D02*
X62802Y12033D01*
Y12030D01*
Y12019D01*
X62794Y12004D01*
X62787Y11982D01*
X62773Y11950D01*
X62751Y11902D01*
X62736Y11877D01*
X62722Y11844D01*
X62634Y11665D01*
X62630Y11552D01*
X62623Y11443D01*
X62587Y11436D01*
X62557D01*
X62547Y11439D01*
Y11443D01*
X62543Y11447D01*
Y11457D01*
Y11472D01*
X62539Y11490D01*
Y11516D01*
Y11549D01*
Y11647D01*
X62448Y11837D01*
Y11840D01*
X62444Y11844D01*
X62434Y11866D01*
X62419Y11898D01*
X62404Y11935D01*
X62390Y11971D01*
X62379Y12004D01*
X62372Y12026D01*
Y12037D01*
X62375Y12041D01*
X62379Y12044D01*
X62408D01*
X62419Y12041D01*
X62437Y12037D01*
X62452Y12022D01*
X62455Y12019D01*
X62459Y12011D01*
X62466Y11997D01*
X62477Y11982D01*
X62488Y11957D01*
X62503Y11928D01*
X62517Y11891D01*
X62583Y11756D01*
X62645Y11884D01*
X62649Y11891D01*
X62656Y11906D01*
X62663Y11928D01*
X62678Y11950D01*
X62689Y11975D01*
X62696Y11997D01*
X62703Y12015D01*
X62707Y12022D01*
Y12026D01*
X62711Y12030D01*
X62725Y12037D01*
X62732Y12041D01*
X62754D01*
X62769Y12044D01*
X62787Y12041D01*
D02*
G37*
G36*
X60688Y11756D02*
X60691D01*
X60702Y11753D01*
X60713Y11745D01*
X60717Y11734D01*
Y11731D01*
Y11727D01*
X60713Y11720D01*
Y11705D01*
X60709Y11687D01*
X60706Y11665D01*
X60699Y11636D01*
Y11629D01*
X60695Y11614D01*
X60688Y11596D01*
X60680Y11570D01*
X60669Y11545D01*
X60662Y11523D01*
X60651Y11508D01*
X60644Y11501D01*
X60640D01*
X60637Y11505D01*
X60626Y11512D01*
X60615Y11523D01*
X60596Y11545D01*
X60626Y11654D01*
X60655Y11764D01*
X60688Y11756D01*
D02*
G37*
G36*
X61887Y12041D02*
X61916Y12033D01*
Y11917D01*
Y11793D01*
X62197D01*
X62200Y11917D01*
X62204Y12037D01*
X62284D01*
Y11742D01*
Y11443D01*
X62204D01*
X62200Y11574D01*
X62197Y11705D01*
X61916D01*
Y11578D01*
Y11450D01*
X61901Y11443D01*
X61898D01*
X61894Y11439D01*
X61872Y11436D01*
X61850Y11439D01*
X61839Y11443D01*
X61828Y11450D01*
X61814Y11465D01*
X61818Y11745D01*
X61821Y12026D01*
X61839Y12037D01*
X61854Y12048D01*
X61887Y12041D01*
D02*
G37*
G36*
X63370Y12037D02*
Y11738D01*
Y11443D01*
X63334Y11436D01*
X63316D01*
X63301Y11439D01*
X63286Y11443D01*
X63272Y11450D01*
Y11742D01*
Y12033D01*
X63301Y12041D01*
X63345D01*
X63370Y12037D01*
D02*
G37*
G36*
X61613Y12033D02*
X61657Y12022D01*
X61701Y11982D01*
X61741Y11946D01*
X61745Y11877D01*
X61748Y11807D01*
X61730Y11775D01*
Y11771D01*
X61726Y11767D01*
X61712Y11745D01*
X61686Y11720D01*
X61668Y11709D01*
X61646Y11694D01*
X61643D01*
X61635Y11691D01*
X61624Y11683D01*
X61606Y11680D01*
X61570Y11665D01*
X61522Y11662D01*
X61475D01*
Y11552D01*
X61471Y11443D01*
X61435Y11436D01*
X61395Y11432D01*
X61391Y11450D01*
Y11457D01*
X61387Y11468D01*
Y11494D01*
Y11508D01*
Y11530D01*
Y11556D01*
Y11585D01*
Y11618D01*
Y11658D01*
Y11702D01*
Y11753D01*
X61391Y12037D01*
X61479Y12041D01*
X61566Y12044D01*
X61613Y12033D01*
D02*
G37*
G36*
X61034Y10892D02*
X61027Y10845D01*
X61001Y10750D01*
X60979Y10655D01*
X60910Y10652D01*
X60841Y10648D01*
X60826Y10663D01*
X60815Y10681D01*
X60771Y10783D01*
X60731Y10881D01*
X60699Y10801D01*
X60662Y10725D01*
X60644Y10688D01*
X60629Y10655D01*
X60556Y10652D01*
X60487Y10648D01*
X60473Y10696D01*
X60462Y10750D01*
X60440Y10834D01*
X60422Y10918D01*
Y10929D01*
Y10943D01*
X60509D01*
X60531Y10841D01*
X60549Y10739D01*
X60564Y10736D01*
X60575Y10728D01*
X60618Y10834D01*
X60655Y10940D01*
X60804D01*
X60844Y10834D01*
X60888Y10732D01*
X60899Y10736D01*
X60910Y10739D01*
X60932Y10838D01*
X60954Y10940D01*
X60997Y10943D01*
X61041Y10947D01*
X61034Y10892D01*
D02*
G37*
G36*
X64293Y10929D02*
X64307Y10911D01*
Y10794D01*
Y10681D01*
X64293Y10666D01*
X64274Y10648D01*
X63848D01*
Y10794D01*
Y10943D01*
X64274D01*
X64293Y10929D01*
D02*
G37*
G36*
X63706Y10805D02*
X63786Y10670D01*
X63790Y10659D01*
X63797Y10648D01*
X63698D01*
X63684Y10674D01*
X63666Y10699D01*
X63429D01*
X63414Y10674D01*
X63403Y10648D01*
X63308D01*
Y10655D01*
Y10663D01*
X63392Y10801D01*
X63472Y10943D01*
X63625D01*
X63706Y10805D01*
D02*
G37*
G36*
X62929Y10838D02*
Y10728D01*
X63283D01*
Y10688D01*
Y10648D01*
X62882D01*
X62864Y10663D01*
X62849Y10681D01*
Y10816D01*
Y10943D01*
X62929D01*
Y10838D01*
D02*
G37*
G36*
X62525Y10918D02*
X62554Y10889D01*
Y10794D01*
Y10699D01*
X62525Y10674D01*
X62499Y10648D01*
X62080D01*
Y10794D01*
Y10943D01*
X62499D01*
X62525Y10918D01*
D02*
G37*
G36*
X61675Y10838D02*
Y10728D01*
X62025D01*
Y10688D01*
Y10648D01*
X61628D01*
X61610Y10663D01*
X61592Y10681D01*
Y10816D01*
Y10943D01*
X61675D01*
Y10838D01*
D02*
G37*
G36*
X61526Y10907D02*
Y10863D01*
X61176D01*
Y10849D01*
Y10838D01*
X61526D01*
Y10794D01*
Y10757D01*
X61176D01*
Y10743D01*
Y10728D01*
X61526D01*
Y10688D01*
Y10648D01*
X61125D01*
X61110Y10663D01*
X61096Y10681D01*
Y10794D01*
Y10914D01*
X61110Y10929D01*
X61125Y10943D01*
X61526D01*
Y10907D01*
D02*
G37*
G36*
X63505Y10466D02*
X63491Y10404D01*
X63461D01*
X63451Y10444D01*
X63443Y10480D01*
X63436Y10502D01*
X63425Y10524D01*
X63469D01*
X63476Y10510D01*
X63483Y10491D01*
Y10510D01*
Y10524D01*
X63520D01*
X63505Y10466D01*
D02*
G37*
G36*
X64030Y10506D02*
X64037Y10484D01*
X63994D01*
Y10499D01*
Y10513D01*
X63983Y10506D01*
X63968Y10499D01*
Y10466D01*
Y10433D01*
X63983Y10422D01*
X63994Y10415D01*
Y10429D01*
Y10448D01*
X64037D01*
X64030Y10422D01*
X64023Y10404D01*
X63957D01*
X63943Y10433D01*
X63928Y10462D01*
X63943Y10495D01*
X63954Y10524D01*
X64023D01*
X64030Y10506D01*
D02*
G37*
G36*
X62131Y10466D02*
Y10404D01*
X62095D01*
X62084Y10426D01*
X62065Y10455D01*
Y10426D01*
Y10404D01*
X62040D01*
Y10466D01*
Y10524D01*
X62062D01*
X62080Y10502D01*
X62095Y10480D01*
Y10502D01*
Y10524D01*
X62131D01*
Y10466D01*
D02*
G37*
G36*
X63334D02*
Y10404D01*
X63294D01*
Y10429D01*
Y10459D01*
X63265D01*
Y10429D01*
Y10404D01*
X63239D01*
Y10466D01*
Y10524D01*
X63265D01*
Y10499D01*
Y10473D01*
X63294D01*
Y10499D01*
Y10524D01*
X63334D01*
Y10466D01*
D02*
G37*
G36*
X61741D02*
Y10404D01*
X61635D01*
Y10466D01*
Y10524D01*
X61686D01*
X61690Y10495D01*
X61697Y10466D01*
Y10495D01*
X61705Y10524D01*
X61741D01*
Y10466D01*
D02*
G37*
G36*
X64169Y10521D02*
X64205Y10517D01*
X64209Y10462D01*
X64212Y10404D01*
X64132D01*
Y10422D01*
Y10448D01*
X64154D01*
X64169Y10429D01*
X64183Y10411D01*
Y10426D01*
Y10444D01*
X64158Y10455D01*
X64132Y10462D01*
Y10495D01*
Y10528D01*
X64169Y10521D01*
D02*
G37*
G36*
X63655D02*
X63691Y10517D01*
X63695Y10462D01*
X63698Y10404D01*
X63618D01*
Y10422D01*
Y10448D01*
X63636D01*
X63658Y10429D01*
X63673Y10411D01*
Y10426D01*
Y10444D01*
X63647Y10455D01*
X63618Y10462D01*
Y10495D01*
Y10528D01*
X63655Y10521D01*
D02*
G37*
G36*
X63837Y10466D02*
Y10404D01*
X63808D01*
Y10466D01*
Y10524D01*
X63837D01*
Y10466D01*
D02*
G37*
G36*
X63097Y10521D02*
X63137Y10517D01*
X63144Y10488D01*
X63148Y10459D01*
X63119Y10451D01*
X63093Y10444D01*
Y10422D01*
Y10404D01*
X63050D01*
Y10466D01*
Y10528D01*
X63097Y10521D01*
D02*
G37*
G36*
X62831D02*
X62802Y10517D01*
X62780Y10510D01*
Y10491D01*
Y10473D01*
X62802Y10470D01*
X62831Y10462D01*
X62802D01*
X62780Y10459D01*
Y10429D01*
Y10404D01*
X62743D01*
Y10466D01*
Y10524D01*
X62783D01*
X62831Y10521D01*
D02*
G37*
G36*
X62630Y10510D02*
X62649Y10495D01*
Y10466D01*
Y10437D01*
X62630Y10418D01*
X62612Y10404D01*
X62554D01*
X62547Y10437D01*
X62539Y10470D01*
X62547Y10499D01*
X62554Y10524D01*
X62612D01*
X62630Y10510D01*
D02*
G37*
G36*
X62299Y10517D02*
X62284Y10510D01*
Y10459D01*
Y10404D01*
X62240D01*
Y10459D01*
Y10510D01*
X62226Y10517D01*
X62208Y10524D01*
X62317D01*
X62299Y10517D01*
D02*
G37*
G36*
X61938Y10521D02*
X61916Y10517D01*
X61890Y10510D01*
Y10491D01*
Y10473D01*
X61916Y10470D01*
X61938Y10462D01*
X61916D01*
X61890Y10459D01*
Y10437D01*
Y10418D01*
X61916Y10415D01*
X61938Y10408D01*
X61894D01*
X61850Y10404D01*
Y10466D01*
Y10524D01*
X61894D01*
X61938Y10521D01*
D02*
G37*
G36*
X61530Y10517D02*
X61511Y10510D01*
Y10459D01*
Y10404D01*
X61486D01*
Y10459D01*
Y10510D01*
X61468Y10517D01*
X61453Y10524D01*
X61548D01*
X61530Y10517D01*
D02*
G37*
G36*
X61311Y10521D02*
X61358Y10517D01*
Y10462D01*
Y10404D01*
X61325D01*
X61318Y10422D01*
X61311Y10437D01*
Y10422D01*
Y10404D01*
X61271D01*
Y10466D01*
Y10528D01*
X61311Y10521D01*
D02*
G37*
G36*
X61158Y10466D02*
X61172Y10404D01*
X61136D01*
X61129Y10422D01*
X61121Y10437D01*
X61114Y10422D01*
X61107Y10404D01*
X61070D01*
X61085Y10462D01*
X61103Y10517D01*
X61121Y10521D01*
X61147Y10524D01*
X61158Y10466D01*
D02*
G37*
G36*
X60979Y10510D02*
X60983Y10491D01*
X60976Y10470D01*
X60972Y10448D01*
X60932D01*
Y10422D01*
Y10404D01*
X60892D01*
Y10466D01*
Y10524D01*
X60972D01*
X60979Y10510D01*
D02*
G37*
G36*
X60804Y10521D02*
X60771Y10517D01*
X60742Y10510D01*
Y10491D01*
Y10473D01*
X60764Y10470D01*
X60793Y10462D01*
X60764D01*
X60742Y10459D01*
Y10437D01*
Y10418D01*
X60771Y10415D01*
X60804Y10408D01*
X60753D01*
X60702Y10404D01*
Y10466D01*
Y10524D01*
X60753D01*
X60804Y10521D01*
D02*
G37*
G36*
X60604Y10499D02*
X60611Y10470D01*
X60604Y10437D01*
X60596Y10404D01*
X60516D01*
Y10466D01*
Y10524D01*
X60596D01*
X60604Y10499D01*
D02*
G37*
%LPC*%
G36*
X61529Y13882D02*
X61483D01*
X61464Y13830D01*
Y13829D01*
Y13829D01*
X61463Y13826D01*
X61463Y13822D01*
X61462Y13818D01*
Y13817D01*
X61463Y13814D01*
X61464Y13811D01*
X61467Y13806D01*
X61469Y13804D01*
X61472Y13802D01*
X61475Y13800D01*
X61479Y13799D01*
X61483Y13797D01*
X61489Y13796D01*
X61495Y13795D01*
X61502Y13795D01*
X61529Y13882D01*
D02*
G37*
G36*
X59048Y13882D02*
X58990D01*
X58971Y13830D01*
Y13829D01*
X58971Y13829D01*
X58970Y13825D01*
X58970Y13821D01*
X58969Y13816D01*
Y13816D01*
X58970Y13814D01*
X58970Y13811D01*
X58972Y13808D01*
X58974Y13804D01*
X58978Y13801D01*
X58983Y13798D01*
X58990Y13796D01*
X58991D01*
X58993Y13795D01*
X58996D01*
X59000Y13795D01*
X59006D01*
X59012Y13794D01*
X59020D01*
X59048Y13882D01*
D02*
G37*
G36*
X58091D02*
X58046D01*
X58026Y13820D01*
Y13819D01*
X58026Y13816D01*
X58025Y13813D01*
X58024Y13810D01*
Y13809D01*
X58025Y13806D01*
X58026Y13803D01*
X58028Y13800D01*
X58031Y13796D01*
X58036Y13793D01*
X58039Y13791D01*
X58043Y13790D01*
X58047Y13789D01*
X58058D01*
X58059Y13790D01*
X58062D01*
X58091Y13882D01*
D02*
G37*
G36*
X58052Y13749D02*
X58049D01*
X58047Y13748D01*
X58043Y13747D01*
X58039Y13745D01*
X58034Y13742D01*
X58029Y13738D01*
X58024Y13732D01*
X58023Y13731D01*
X58022Y13729D01*
X58020Y13725D01*
X58018Y13720D01*
X58015Y13715D01*
X58013Y13709D01*
X58012Y13702D01*
X58011Y13695D01*
Y13695D01*
Y13693D01*
X58012Y13690D01*
X58013Y13687D01*
X58014Y13682D01*
X58017Y13678D01*
X58021Y13674D01*
X58025Y13670D01*
X58052Y13749D01*
D02*
G37*
G36*
X63209Y13882D02*
X63153D01*
X63132Y13820D01*
Y13819D01*
X63131Y13817D01*
X63130Y13814D01*
X63130Y13810D01*
Y13809D01*
X63130Y13807D01*
X63132Y13804D01*
X63135Y13800D01*
X63137Y13798D01*
X63139Y13796D01*
X63142Y13795D01*
X63146Y13793D01*
X63150Y13791D01*
X63155Y13791D01*
X63162Y13790D01*
X63177D01*
X63209Y13882D01*
D02*
G37*
G36*
X59802Y13749D02*
X59799D01*
X59797Y13748D01*
X59793Y13747D01*
X59789Y13745D01*
X59784Y13742D01*
X59779Y13738D01*
X59775Y13732D01*
X59774Y13731D01*
X59773Y13729D01*
X59771Y13725D01*
X59769Y13720D01*
X59767Y13715D01*
X59764Y13709D01*
X59763Y13702D01*
X59763Y13695D01*
Y13695D01*
Y13693D01*
X59763Y13690D01*
X59764Y13687D01*
X59766Y13682D01*
X59768Y13678D01*
X59772Y13674D01*
X59776Y13670D01*
X59802Y13749D01*
D02*
G37*
G36*
X63552Y13350D02*
X63497D01*
X63475Y13288D01*
Y13287D01*
X63475Y13285D01*
X63474Y13282D01*
X63473Y13278D01*
Y13277D01*
X63474Y13275D01*
X63476Y13272D01*
X63478Y13268D01*
X63480Y13266D01*
X63483Y13264D01*
X63486Y13263D01*
X63490Y13261D01*
X63494Y13259D01*
X63499Y13259D01*
X63505Y13258D01*
X63520D01*
X63552Y13350D01*
D02*
G37*
G36*
X61888D02*
X61830D01*
X61811Y13298D01*
Y13297D01*
X61811Y13297D01*
X61810Y13293D01*
X61810Y13289D01*
X61809Y13284D01*
Y13284D01*
X61810Y13282D01*
X61810Y13279D01*
X61812Y13276D01*
X61814Y13272D01*
X61818Y13269D01*
X61823Y13266D01*
X61830Y13264D01*
X61831D01*
X61833Y13263D01*
X61836D01*
X61840Y13263D01*
X61846D01*
X61852Y13262D01*
X61860D01*
X61888Y13350D01*
D02*
G37*
G36*
X61237D02*
X61187D01*
X61170Y13293D01*
Y13292D01*
X61170Y13290D01*
X61169Y13287D01*
Y13283D01*
Y13282D01*
X61170Y13280D01*
X61171Y13277D01*
X61174Y13273D01*
X61176Y13270D01*
X61179Y13269D01*
X61182Y13267D01*
X61186Y13265D01*
X61191Y13264D01*
X61196Y13263D01*
X61202Y13262D01*
X61210D01*
X61237Y13350D01*
D02*
G37*
G36*
X61156Y12924D02*
X61107D01*
X61090Y12867D01*
Y12866D01*
X61089Y12864D01*
X61089Y12860D01*
Y12857D01*
Y12856D01*
X61089Y12854D01*
X61091Y12850D01*
X61094Y12847D01*
X61096Y12844D01*
X61099Y12843D01*
X61102Y12841D01*
X61106Y12839D01*
X61110Y12838D01*
X61116Y12837D01*
X61122Y12836D01*
X61129D01*
X61156Y12924D01*
D02*
G37*
G36*
X61947D02*
X61898D01*
X61881Y12867D01*
Y12866D01*
X61880Y12864D01*
X61880Y12860D01*
Y12857D01*
Y12856D01*
X61880Y12854D01*
X61882Y12850D01*
X61885Y12847D01*
X61887Y12844D01*
X61890Y12843D01*
X61893Y12841D01*
X61897Y12839D01*
X61901Y12838D01*
X61907Y12837D01*
X61913Y12836D01*
X61920D01*
X61947Y12924D01*
D02*
G37*
G36*
X60145D02*
X60087D01*
X60068Y12872D01*
Y12871D01*
X60067Y12870D01*
X60067Y12867D01*
X60066Y12863D01*
X60066Y12858D01*
Y12858D01*
X60066Y12855D01*
X60067Y12853D01*
X60069Y12850D01*
X60071Y12846D01*
X60075Y12843D01*
X60080Y12840D01*
X60086Y12838D01*
X60088D01*
X60090Y12837D01*
X60093D01*
X60097Y12837D01*
X60102D01*
X60109Y12836D01*
X60117D01*
X60145Y12924D01*
D02*
G37*
G36*
X57352Y12924D02*
X57296D01*
X57275Y12861D01*
Y12861D01*
X57274Y12859D01*
X57274Y12855D01*
X57273Y12852D01*
Y12851D01*
X57274Y12849D01*
X57275Y12845D01*
X57278Y12842D01*
X57280Y12840D01*
X57282Y12838D01*
X57285Y12837D01*
X57289Y12835D01*
X57294Y12833D01*
X57299Y12833D01*
X57305Y12832D01*
X57320D01*
X57352Y12924D01*
D02*
G37*
G36*
X57033Y12876D02*
Y12876D01*
X57032Y12874D01*
X57031Y12871D01*
X57029Y12868D01*
X57027Y12863D01*
X57025Y12857D01*
X57022Y12850D01*
X57018Y12842D01*
X57014Y12832D01*
X57009Y12822D01*
X57004Y12810D01*
X56999Y12798D01*
X56993Y12784D01*
X56986Y12769D01*
X56979Y12754D01*
X56972Y12737D01*
X56973Y12737D01*
X56975Y12739D01*
X56979Y12741D01*
X56984Y12745D01*
X56990Y12750D01*
X56997Y12756D01*
X57005Y12763D01*
X57013Y12772D01*
Y12772D01*
X57014Y12773D01*
X57016Y12775D01*
X57020Y12780D01*
X57024Y12786D01*
X57029Y12792D01*
X57033Y12799D01*
X57037Y12807D01*
X57040Y12814D01*
X57040Y12815D01*
X57041Y12817D01*
X57042Y12820D01*
X57043Y12825D01*
X57044Y12830D01*
X57045Y12835D01*
X57047Y12841D01*
Y12847D01*
Y12848D01*
Y12850D01*
X57046Y12853D01*
X57045Y12858D01*
X57043Y12863D01*
X57041Y12868D01*
X57038Y12873D01*
X57033Y12876D01*
D02*
G37*
G36*
X63374Y12310D02*
X63370D01*
X63363Y12307D01*
X63356Y12303D01*
X63352Y12292D01*
X63348Y12267D01*
X63399D01*
X63396Y12292D01*
Y12296D01*
X63392Y12303D01*
X63385Y12307D01*
X63374Y12310D01*
D02*
G37*
G36*
X64143Y12281D02*
Y12278D01*
X64139Y12274D01*
X64136Y12252D01*
X64128Y12234D01*
X64150D01*
X64154Y12237D01*
X64161Y12245D01*
X64143Y12281D01*
D02*
G37*
G36*
X63542Y12318D02*
Y12292D01*
Y12267D01*
X63564Y12270D01*
X63567D01*
X63574Y12278D01*
X63578Y12281D01*
X63582Y12292D01*
Y12296D01*
X63578Y12303D01*
X63574Y12310D01*
X63564Y12314D01*
X63542Y12318D01*
D02*
G37*
G36*
X63589Y12234D02*
X63542D01*
Y12212D01*
Y12190D01*
X63564Y12194D01*
X63567D01*
X63571Y12201D01*
X63585Y12216D01*
X63589Y12234D01*
D02*
G37*
G36*
X62977Y12318D02*
Y12292D01*
Y12267D01*
X62999Y12270D01*
X63002D01*
X63009Y12278D01*
X63013Y12281D01*
X63017Y12292D01*
Y12296D01*
X63013Y12303D01*
X63009Y12310D01*
X62999Y12314D01*
X62977Y12318D01*
D02*
G37*
G36*
X63024Y12234D02*
X62977D01*
Y12212D01*
Y12190D01*
X62999Y12194D01*
X63002D01*
X63009Y12201D01*
X63017Y12205D01*
X63020Y12216D01*
X63024Y12234D01*
D02*
G37*
G36*
X62135Y12278D02*
X62127D01*
Y12274D01*
X62124Y12270D01*
X62120Y12259D01*
Y12248D01*
Y12245D01*
X62124Y12241D01*
X62127Y12237D01*
X62135Y12234D01*
X62146D01*
X62149Y12237D01*
X62153Y12241D01*
Y12245D01*
Y12248D01*
X62149Y12256D01*
X62142Y12267D01*
Y12270D01*
X62138Y12274D01*
X62135Y12278D01*
D02*
G37*
G36*
X63928Y12318D02*
Y12292D01*
Y12267D01*
X63946Y12270D01*
X63950D01*
X63957Y12278D01*
X63961Y12281D01*
X63964Y12292D01*
Y12296D01*
X63961Y12303D01*
X63957Y12310D01*
X63946Y12314D01*
X63928Y12318D01*
D02*
G37*
G36*
X63749Y12281D02*
X63746Y12278D01*
Y12270D01*
Y12263D01*
X63742Y12252D01*
X63735Y12234D01*
X63757D01*
X63760Y12237D01*
X63768Y12252D01*
Y12256D01*
Y12259D01*
X63764Y12267D01*
X63757Y12274D01*
X63753Y12278D01*
X63749Y12281D01*
D02*
G37*
G36*
X62685Y12285D02*
X62681Y12259D01*
X62674Y12234D01*
X62696D01*
X62703Y12237D01*
Y12241D01*
Y12245D01*
Y12248D01*
X62696Y12267D01*
X62685Y12285D01*
D02*
G37*
G36*
X63181Y12289D02*
X63166Y12263D01*
Y12259D01*
X63163Y12248D01*
X63159Y12237D01*
Y12230D01*
X63170D01*
X63181Y12234D01*
X63203Y12237D01*
X63192Y12259D01*
X63181Y12289D01*
D02*
G37*
G36*
X60812Y12267D02*
X60760Y12252D01*
X60757D01*
X60746Y12245D01*
X60728Y12237D01*
X60709Y12230D01*
X60658Y12201D01*
X60607Y12161D01*
X60604Y12157D01*
X60596Y12150D01*
X60586Y12139D01*
X60575Y12124D01*
X60549Y12088D01*
X60535Y12066D01*
X60527Y12041D01*
X60516Y11990D01*
X60527Y11960D01*
X60531Y11957D01*
X60538Y11942D01*
X60553Y11928D01*
X60575Y11909D01*
X60615Y11884D01*
X60691D01*
X60699Y11888D01*
Y11891D01*
X60702Y11898D01*
X60706Y11913D01*
X60709Y11935D01*
X60720Y11964D01*
X60731Y12008D01*
X60742Y12033D01*
X60750Y12063D01*
Y12066D01*
X60753Y12070D01*
X60757Y12088D01*
X60768Y12117D01*
X60775Y12150D01*
X60786Y12183D01*
X60793Y12212D01*
X60801Y12234D01*
X60804Y12248D01*
X60812Y12267D01*
D02*
G37*
G36*
X61533Y11964D02*
X61475D01*
Y11851D01*
Y11742D01*
X61519D01*
X61541Y11745D01*
X61570Y11753D01*
X61613Y11764D01*
X61632Y11789D01*
X61635Y11793D01*
X61639Y11807D01*
X61643Y11826D01*
X61646Y11851D01*
Y11855D01*
Y11858D01*
Y11877D01*
X61643Y11898D01*
X61635Y11920D01*
X61624Y11942D01*
X61581Y11953D01*
X61573Y11957D01*
X61555Y11960D01*
X61533Y11964D01*
D02*
G37*
G36*
X64227Y10863D02*
X63932D01*
Y10849D01*
Y10838D01*
X64227D01*
Y10849D01*
Y10863D01*
D02*
G37*
G36*
Y10768D02*
X63932D01*
Y10750D01*
Y10728D01*
X64227D01*
Y10750D01*
Y10768D01*
D02*
G37*
G36*
X63578Y10863D02*
X63553Y10860D01*
X63520Y10856D01*
X63494Y10816D01*
X63469Y10768D01*
X63618D01*
Y10776D01*
Y10783D01*
X63596Y10827D01*
X63578Y10863D01*
D02*
G37*
G36*
X62160D02*
Y10794D01*
Y10728D01*
X62313Y10732D01*
X62466Y10736D01*
Y10794D01*
Y10856D01*
X62313Y10860D01*
X62160Y10863D01*
D02*
G37*
G36*
X64158Y10513D02*
Y10499D01*
Y10484D01*
X64183D01*
Y10491D01*
Y10499D01*
X64172Y10506D01*
X64158Y10513D01*
D02*
G37*
G36*
X63647D02*
Y10499D01*
Y10484D01*
X63673D01*
Y10491D01*
Y10499D01*
X63658Y10506D01*
X63647Y10513D01*
D02*
G37*
G36*
X63097Y10517D02*
Y10484D01*
Y10455D01*
X63101Y10470D01*
X63108Y10484D01*
X63101Y10502D01*
X63097Y10517D01*
D02*
G37*
G36*
X62579Y10513D02*
Y10466D01*
Y10415D01*
X62590Y10422D01*
X62605Y10433D01*
Y10466D01*
Y10499D01*
X62590Y10506D01*
X62579Y10513D01*
D02*
G37*
G36*
X61311Y10517D02*
Y10484D01*
Y10455D01*
X61318Y10470D01*
X61325Y10484D01*
X61318Y10502D01*
X61311Y10517D01*
D02*
G37*
G36*
X61132Y10459D02*
X61121D01*
Y10455D01*
Y10448D01*
X61132D01*
Y10455D01*
Y10459D01*
D02*
G37*
G36*
X60935Y10517D02*
Y10484D01*
Y10455D01*
X60939Y10470D01*
X60946Y10484D01*
X60939Y10502D01*
X60935Y10517D01*
D02*
G37*
G36*
X60556D02*
Y10473D01*
Y10422D01*
X60564Y10451D01*
X60567Y10473D01*
X60564Y10495D01*
X60556Y10517D01*
D02*
G37*
%LPD*%
D10*
X42055Y13528D02*
G03*
X42055Y14669I0J571D01*
G01*
X41665Y11429D02*
G03*
X41665Y12571I0J571D01*
G01*
X34365Y11629D02*
G03*
X34365Y12771I0J571D01*
G01*
X39102Y13232D02*
Y14965D01*
X41621D01*
Y13232D02*
Y14965D01*
X39102Y13232D02*
X41621D01*
Y14669D02*
X42055D01*
X41621Y13528D02*
X42055D01*
X38713Y11134D02*
Y12866D01*
X41232D01*
Y11134D02*
Y12866D01*
X38713Y11134D02*
X41232D01*
Y12571D02*
X41665D01*
X41232Y11429D02*
X41665D01*
X31413Y11334D02*
Y13066D01*
X33932D01*
Y11334D02*
Y13066D01*
X31413Y11334D02*
X33932D01*
Y12771D02*
X34365D01*
X33932Y11629D02*
X34365D01*
D11*
X38529Y14166D02*
G03*
X38529Y14166I-49J0D01*
G01*
X39751Y19101D02*
G03*
X39751Y19101I-49J0D01*
G01*
X24800Y25662D02*
G03*
X24800Y25662I-49J0D01*
G01*
X13265Y25520D02*
G03*
X13265Y25520I-49J0D01*
G01*
X36823Y18540D02*
G03*
X36823Y18540I-49J0D01*
G01*
X31485Y19035D02*
G03*
X31485Y19035I-49J0D01*
G01*
X30223Y13990D02*
G03*
X30223Y13990I-49J0D01*
G01*
X26616Y19825D02*
G03*
X26616Y19825I-49J0D01*
G01*
X21726Y21035D02*
G03*
X21726Y21035I-49J0D01*
G01*
X15792Y24485D02*
G03*
X15792Y24485I-49J0D01*
G01*
X15369Y20884D02*
G03*
X15369Y20884I-49J0D01*
G01*
X40054Y17900D02*
G03*
X40054Y17900I-49J0D01*
G01*
D12*
X31731Y18722D02*
G03*
X31987Y18978I0J256D01*
G01*
X18918Y13789D02*
G03*
X18918Y13789I-1969J0D01*
G01*
X29497Y21884D02*
G03*
X29253Y22128I-244J0D01*
G01*
X36831Y16026D02*
Y17306D01*
X38209D01*
Y17011D02*
Y17306D01*
Y15042D02*
Y16223D01*
X36831Y13959D02*
Y15239D01*
X38209Y13959D02*
Y14255D01*
X36831Y13959D02*
X38209D01*
X39003Y19190D02*
X39397D01*
X39003Y20410D02*
X39397D01*
Y19190D02*
Y20410D01*
X39003Y19190D02*
Y20410D01*
X28600Y10500D02*
Y10700D01*
X27400D02*
X28600D01*
X27400Y10500D02*
Y10700D01*
X27000Y10500D02*
Y12700D01*
X29000D01*
Y10500D02*
Y12700D01*
X27000Y10500D02*
X29000D01*
X27593Y23363D02*
X27907D01*
X27593Y24937D02*
X27907D01*
X26612Y27311D02*
X27891D01*
Y25933D02*
Y27311D01*
X27596Y25933D02*
X27891D01*
X25627D02*
X26808D01*
X24545Y27311D02*
X25824D01*
X24545Y25933D02*
X24840D01*
X24545D02*
Y27311D01*
X15076Y27169D02*
X16356D01*
Y25791D02*
Y27169D01*
X16061Y25791D02*
X16356D01*
X14092D02*
X15273D01*
X13009Y27169D02*
X14289D01*
X13009Y25791D02*
X13305D01*
X13009D02*
Y27169D01*
X11900Y15450D02*
Y15950D01*
X11790Y16050D02*
X11900Y15950D01*
X11790Y15350D02*
X11900Y15450D01*
X11790Y14350D02*
X11900Y14450D01*
X11790Y15050D02*
X11900Y14950D01*
Y14450D02*
Y14950D01*
X14310Y14176D02*
Y16263D01*
X11790D02*
X14310D01*
X11790Y14137D02*
Y16263D01*
Y14137D02*
X14310D01*
Y14176D01*
X36134Y18717D02*
X36528D01*
X36134D02*
Y18855D01*
Y19583D02*
X36528D01*
X36134Y19445D02*
Y19583D01*
X36764Y22550D02*
X36882D01*
X37157D02*
X37236D01*
X36882Y22353D02*
Y22707D01*
Y22353D02*
X37157Y22550D01*
X36882Y22707D02*
X37157Y22550D01*
Y22353D02*
Y22747D01*
X38850D02*
Y23810D01*
X38772Y22747D02*
X38850D01*
X38772D02*
Y23810D01*
Y21290D02*
Y22353D01*
X38850D01*
Y21290D02*
Y22353D01*
X35150Y21290D02*
Y21772D01*
Y23328D02*
Y23810D01*
Y21290D02*
X38850D01*
X35150Y23810D02*
X38850D01*
X31731Y14922D02*
X34369D01*
X31731Y18978D02*
X34369D01*
Y14922D02*
Y18978D01*
X31731Y14922D02*
Y18978D01*
X35843Y24413D02*
X36157D01*
X35843Y25987D02*
X36157D01*
X59793Y24342D02*
Y24736D01*
Y22964D02*
Y23358D01*
X62707Y21744D02*
Y25956D01*
X61742D02*
X62707D01*
X61742Y21744D02*
X62707D01*
X59793Y25720D02*
Y25956D01*
X60659D01*
X59793Y21744D02*
X60659D01*
X59793D02*
Y21980D01*
X59843Y17842D02*
Y18236D01*
Y16464D02*
Y16858D01*
X62757Y15244D02*
Y19456D01*
X61792D02*
X62757D01*
X61792Y15244D02*
X62757D01*
X59843Y19220D02*
Y19456D01*
X60709D01*
X59843Y15244D02*
X60709D01*
X59843D02*
Y15480D01*
X29534Y14167D02*
X29928D01*
X29534D02*
Y14305D01*
Y15033D02*
X29928D01*
X29534Y14895D02*
Y15033D01*
X26970Y17766D02*
X28230D01*
X26970Y19734D02*
X28230D01*
Y17766D02*
Y19734D01*
X26970Y17766D02*
Y19734D01*
X22120Y17478D02*
Y20922D01*
X23380Y17478D02*
Y20922D01*
X22120D02*
X23380D01*
X22120Y17478D02*
X23380D01*
X23559Y15012D02*
X24741D01*
X22221Y15209D02*
X22615D01*
X22221Y11823D02*
Y15209D01*
Y11823D02*
X22930D01*
Y10051D02*
Y11823D01*
Y10051D02*
X25370D01*
Y11823D01*
X26079D01*
Y15209D01*
X25685D02*
X26079D01*
X16750Y11309D02*
X17150D01*
X16950Y11109D02*
Y11509D01*
X16199Y22435D02*
X17443D01*
X16199Y24365D02*
X17443D01*
Y22435D02*
Y24365D01*
X16199Y22435D02*
Y24365D01*
X16969Y17744D02*
Y19024D01*
X15591Y17744D02*
X16969D01*
X15591D02*
Y18039D01*
Y18827D02*
Y20008D01*
X16969Y19811D02*
Y21091D01*
X15591Y20795D02*
Y21091D01*
X16969D01*
X11900Y12750D02*
Y13250D01*
X11790Y13350D02*
X11900Y13250D01*
X11790Y12650D02*
X11900Y12750D01*
X11790Y11650D02*
X11900Y11750D01*
X11790Y12350D02*
X11900Y12250D01*
Y11750D02*
Y12250D01*
X14310Y11476D02*
Y13563D01*
X11790D02*
X14310D01*
X11790Y11437D02*
Y13563D01*
Y11437D02*
X14310D01*
Y11476D01*
X11900Y18150D02*
Y18650D01*
X11790Y18750D02*
X11900Y18650D01*
X11790Y18050D02*
X11900Y18150D01*
X11790Y17050D02*
X11900Y17150D01*
X11790Y17750D02*
X11900Y17650D01*
Y17150D02*
Y17650D01*
X14310Y16876D02*
Y18963D01*
X11790D02*
X14310D01*
X11790Y16837D02*
Y18963D01*
Y16837D02*
X14310D01*
Y16876D01*
X29253Y25950D02*
X30088D01*
X30850D02*
X33050D01*
X33850D02*
X34655D01*
X33850Y21850D02*
X34655D01*
X31850D02*
X33050D01*
X30850D02*
X31050D01*
X29253D02*
X30088D01*
X29253D02*
Y25950D01*
X34655Y21850D02*
Y25950D01*
X31850Y21850D02*
X31859D01*
Y25950D01*
X33050Y21850D02*
Y25950D01*
Y25878D02*
Y25950D01*
X31859Y25672D02*
X32138Y25950D01*
X31859Y25278D02*
X32531Y25950D01*
X31859Y24884D02*
X32925Y25950D01*
X31859Y24491D02*
X33041Y25672D01*
X31859Y24097D02*
X33041Y25278D01*
X31859Y23703D02*
X33041Y24884D01*
X31859Y23309D02*
X33041Y24491D01*
X31859Y22916D02*
X33041Y24097D01*
X31859Y22522D02*
X33041Y23703D01*
X31859Y22128D02*
X33041Y23309D01*
X31975Y21850D02*
X33041Y22916D01*
X32378Y21850D02*
X33050Y22522D01*
X32772Y21850D02*
X33050Y22128D01*
X46800Y22500D02*
X56406D01*
Y26200D01*
X46800D02*
X56406D01*
X46800Y22500D02*
Y26200D01*
X40260Y16841D02*
Y21959D01*
Y16841D02*
X56008D01*
Y21959D01*
X40260D02*
X56008D01*
X11900Y24250D02*
Y24750D01*
X11790Y24850D02*
X11900Y24750D01*
X11790Y24150D02*
X11900Y24250D01*
X11790Y23150D02*
X11900Y23250D01*
X11790Y23850D02*
X11900Y23750D01*
Y23250D02*
Y23750D01*
X14310Y22976D02*
Y25063D01*
X11790D02*
X14310D01*
X11790Y22937D02*
Y25063D01*
Y22937D02*
X14310D01*
Y22976D01*
D13*
X27482Y19341D02*
G03*
X27482Y19341I-118J0D01*
G01*
X22632Y20539D02*
G03*
X22632Y20539I-118J0D01*
G01*
X16713Y23991D02*
G03*
X16713Y23991I-118J0D01*
G01*
D14*
X24175Y23650D02*
G03*
X24175Y23650I-1875J0D01*
G01*
X49700Y15419D02*
Y16019D01*
X50000D01*
X50100Y15919D01*
Y15719D01*
X50000Y15619D01*
X49700D01*
X49900D02*
X50100Y15419D01*
X50300Y16019D02*
Y15419D01*
X50700D01*
X50900Y16019D02*
Y15919D01*
X51100Y15719D01*
X51299Y15919D01*
Y16019D01*
X51100Y15719D02*
Y15419D01*
X51499Y15320D02*
X51899D01*
X52499Y16019D02*
X52099D01*
Y15719D01*
X52299D01*
X52099D01*
Y15419D01*
X53699Y15919D02*
X53599Y16019D01*
X53399D01*
X53299Y15919D01*
Y15519D01*
X53399Y15419D01*
X53599D01*
X53699Y15519D01*
X54199Y16019D02*
X53999D01*
X53899Y15919D01*
Y15519D01*
X53999Y15419D01*
X54199D01*
X54299Y15519D01*
Y15919D01*
X54199Y16019D01*
X54498Y15419D02*
Y16019D01*
X54898Y15419D01*
Y16019D01*
X55098D02*
Y15419D01*
X55398D01*
X55498Y15519D01*
Y15919D01*
X55398Y16019D01*
X55098D01*
X49700Y14960D02*
Y14360D01*
Y14660D01*
X50100D01*
Y14960D01*
Y14360D01*
X53099Y14960D02*
X52699D01*
Y14660D01*
X52899D01*
X52699D01*
Y14360D01*
X53399Y14760D02*
X53599D01*
X53699Y14660D01*
Y14360D01*
X53399D01*
X53299Y14460D01*
X53399Y14560D01*
X53699D01*
X53899Y14760D02*
Y14460D01*
X53999Y14360D01*
X54299D01*
Y14760D01*
X54498Y14360D02*
X54698D01*
X54598D01*
Y14960D01*
X54498D01*
X55098Y14860D02*
Y14760D01*
X54998D01*
X55198D01*
X55098D01*
Y14460D01*
X55198Y14360D01*
X49700Y14000D02*
Y13400D01*
X50100D01*
X52999Y14000D02*
X52799D01*
X52699Y13900D01*
Y13500D01*
X52799Y13400D01*
X52999D01*
X53099Y13500D01*
Y13900D01*
X52999Y14000D01*
X53299D02*
Y13400D01*
Y13600D01*
X53699Y14000D01*
X53399Y13700D01*
X53699Y13400D01*
X42900Y11300D02*
Y11900D01*
X43200D01*
X43300Y11800D01*
Y11600D01*
X43200Y11500D01*
X42900D01*
X43100D02*
X43300Y11300D01*
X43500Y11900D02*
Y11300D01*
X43900D01*
X44400Y11900D02*
X44200D01*
X44100Y11800D01*
Y11400D01*
X44200Y11300D01*
X44400D01*
X44499Y11400D01*
Y11800D01*
X44400Y11900D01*
X44699D02*
Y11300D01*
Y11500D01*
X45099Y11900D01*
X44799Y11600D01*
X45099Y11300D01*
X45299D02*
X45499D01*
X45399D01*
Y11900D01*
X45299Y11800D01*
X45899Y11200D02*
X45999Y11300D01*
Y11400D01*
X45899D01*
Y11300D01*
X45999D01*
X45899Y11200D01*
X45799Y11100D01*
X46799Y11300D02*
X46399D01*
X46799Y11700D01*
Y11800D01*
X46699Y11900D01*
X46499D01*
X46399Y11800D01*
X47598Y11300D02*
Y11700D01*
X47698D01*
X47798Y11600D01*
Y11300D01*
Y11600D01*
X47898Y11700D01*
X47998Y11600D01*
Y11300D01*
X48198Y11700D02*
Y11400D01*
X48298Y11300D01*
X48598D01*
Y11700D01*
X48798Y11300D02*
X49098D01*
X49198Y11400D01*
X49098Y11500D01*
X48898D01*
X48798Y11600D01*
X48898Y11700D01*
X49198D01*
X49498Y11800D02*
Y11700D01*
X49398D01*
X49598D01*
X49498D01*
Y11400D01*
X49598Y11300D01*
X50498Y11900D02*
Y11300D01*
X50797D01*
X50897Y11400D01*
Y11500D01*
Y11600D01*
X50797Y11700D01*
X50498D01*
X51397Y11300D02*
X51197D01*
X51097Y11400D01*
Y11600D01*
X51197Y11700D01*
X51397D01*
X51497Y11600D01*
Y11500D01*
X51097D01*
X52297Y11300D02*
X52497D01*
X52397D01*
Y11700D01*
X52297D01*
X52797Y11300D02*
Y11700D01*
X53097D01*
X53197Y11600D01*
Y11300D01*
X53996D02*
X54296D01*
X54396Y11400D01*
X54296Y11500D01*
X54096D01*
X53996Y11600D01*
X54096Y11700D01*
X54396D01*
X54696D02*
X54896D01*
X54996Y11600D01*
Y11300D01*
X54696D01*
X54596Y11400D01*
X54696Y11500D01*
X54996D01*
X55196Y11300D02*
Y11700D01*
X55296D01*
X55396Y11600D01*
Y11300D01*
Y11600D01*
X55496Y11700D01*
X55596Y11600D01*
Y11300D01*
X56096D02*
X55896D01*
X55796Y11400D01*
Y11600D01*
X55896Y11700D01*
X56096D01*
X56196Y11600D01*
Y11500D01*
X55796D01*
X56995Y11300D02*
X57295D01*
X57395Y11400D01*
X57295Y11500D01*
X57095D01*
X56995Y11600D01*
X57095Y11700D01*
X57395D01*
X57695Y11800D02*
Y11700D01*
X57595D01*
X57795D01*
X57695D01*
Y11400D01*
X57795Y11300D01*
X58195Y11700D02*
X58395D01*
X58495Y11600D01*
Y11300D01*
X58195D01*
X58095Y11400D01*
X58195Y11500D01*
X58495D01*
X58795Y11800D02*
Y11700D01*
X58695D01*
X58895D01*
X58795D01*
Y11400D01*
X58895Y11300D01*
X59495D02*
X59295D01*
X59195Y11400D01*
Y11600D01*
X59295Y11700D01*
X59495D01*
X59595Y11600D01*
Y11500D01*
X59195D01*
X63200Y24000D02*
Y23400D01*
X63600D01*
X63800Y23600D02*
Y24100D01*
Y23500D02*
Y23400D01*
X64000Y23600D02*
Y24100D01*
Y23500D02*
Y23400D01*
X64200Y23600D02*
Y24100D01*
Y23500D02*
Y23400D01*
X63600Y22300D02*
X63500Y22400D01*
X63300D01*
X63200Y22300D01*
Y21900D01*
X63300Y21800D01*
X63500D01*
X63600Y21900D01*
Y22100D01*
X63400D01*
X63800Y21800D02*
Y22400D01*
X64200Y21800D01*
Y22400D01*
X64400D02*
Y21800D01*
X64700D01*
X64799Y21900D01*
Y22300D01*
X64700Y22400D01*
X64400D01*
X63200Y24900D02*
Y25500D01*
X63600Y24900D01*
Y25500D01*
X63200Y18500D02*
Y19100D01*
X63600Y18500D01*
Y19100D01*
Y15900D02*
X63500Y16000D01*
X63300D01*
X63200Y15900D01*
Y15500D01*
X63300Y15400D01*
X63500D01*
X63600Y15500D01*
Y15700D01*
X63400D01*
X63800Y15400D02*
Y16000D01*
X64200Y15400D01*
Y16000D01*
X64400D02*
Y15400D01*
X64700D01*
X64799Y15500D01*
Y15900D01*
X64700Y16000D01*
X64400D01*
X63200Y17600D02*
Y17000D01*
X63600D01*
X63800Y17200D02*
Y17700D01*
Y17100D02*
Y17000D01*
X64000Y17200D02*
Y17700D01*
Y17100D02*
Y17000D01*
X64200Y17200D02*
Y17700D01*
Y17100D02*
Y17000D01*
X42900Y13400D02*
Y14000D01*
X43200D01*
X43300Y13900D01*
Y13700D01*
X43200Y13600D01*
X42900D01*
X43100D02*
X43300Y13400D01*
X43500Y14000D02*
Y13400D01*
X43900D01*
X44400Y14000D02*
X44200D01*
X44100Y13900D01*
Y13500D01*
X44200Y13400D01*
X44400D01*
X44499Y13500D01*
Y13900D01*
X44400Y14000D01*
X44699D02*
Y13400D01*
Y13600D01*
X45099Y14000D01*
X44799Y13700D01*
X45099Y13400D01*
X45299D02*
X45499D01*
X45399D01*
Y14000D01*
X45299Y13900D01*
X42000Y15300D02*
Y15900D01*
X42300D01*
X42400Y15800D01*
Y15600D01*
X42300Y15500D01*
X42000D01*
X42200D02*
X42400Y15300D01*
X42600D02*
X42800D01*
X42700D01*
Y15900D01*
X42600Y15800D01*
X43400Y15300D02*
Y15900D01*
X43100Y15600D01*
X43500D01*
X37400Y13700D02*
X37200D01*
X37100Y13600D01*
Y13200D01*
X37200Y13100D01*
X37400D01*
X37500Y13200D01*
Y13600D01*
X37400Y13700D01*
X37700Y13100D02*
Y13700D01*
X38100Y13100D01*
Y13700D01*
X39600Y17400D02*
X39700Y17500D01*
Y17700D01*
X39600Y17800D01*
X39200D01*
X39100Y17700D01*
Y17500D01*
X39200Y17400D01*
X39100Y17200D02*
Y17000D01*
Y17100D01*
X39700D01*
X39600Y17200D01*
Y16700D02*
X39700Y16600D01*
Y16400D01*
X39600Y16300D01*
X39500D01*
X39400Y16400D01*
Y16500D01*
Y16400D01*
X39300Y16300D01*
X39200D01*
X39100Y16400D01*
Y16600D01*
X39200Y16700D01*
X39200Y20800D02*
X39700D01*
X39800Y20900D01*
Y21100D01*
X39700Y21200D01*
X39200D01*
X39800Y21700D02*
X39200D01*
X39500Y21400D01*
Y21800D01*
X29400Y10500D02*
Y11100D01*
X29700D01*
X29800Y11000D01*
Y10800D01*
X29700Y10700D01*
X29400D01*
X29600D02*
X29800Y10500D01*
X30000Y11100D02*
Y10500D01*
X30400D01*
X30600Y11100D02*
Y11000D01*
X30800Y10800D01*
X30999Y11000D01*
Y11100D01*
X30800Y10800D02*
Y10500D01*
X31199Y10400D02*
X31599D01*
X32199Y11100D02*
X31799D01*
Y10800D01*
X31999D01*
X31799D01*
Y10500D01*
X28200Y25900D02*
Y25300D01*
X28600D01*
X28800D02*
X29000D01*
X28900D01*
Y25900D01*
X28800Y25800D01*
X22500Y27000D02*
Y26400D01*
X22800D01*
X22900Y26500D01*
Y26600D01*
X22800Y26700D01*
X22500D01*
X22800D01*
X22900Y26800D01*
Y26900D01*
X22800Y27000D01*
X22500D01*
X23100D02*
Y26900D01*
X23300Y26700D01*
X23500Y26900D01*
Y27000D01*
X23300Y26700D02*
Y26400D01*
X23700D02*
Y27000D01*
X24000D01*
X24099Y26900D01*
Y26700D01*
X24000Y26600D01*
X23700D01*
X11244Y27580D02*
Y28180D01*
X11544D01*
X11644Y28080D01*
Y27880D01*
X11544Y27780D01*
X11244D01*
X11444D02*
X11644Y27580D01*
X11844D02*
X12044D01*
X11944D01*
Y28180D01*
X11844Y28080D01*
X12344D02*
X12444Y28180D01*
X12644D01*
X12744Y28080D01*
Y27980D01*
X12644Y27880D01*
X12544D01*
X12644D01*
X12744Y27780D01*
Y27680D01*
X12644Y27580D01*
X12444D01*
X12344Y27680D01*
X16900Y25800D02*
Y26400D01*
X17200D01*
X17300Y26300D01*
Y26100D01*
X17200Y26000D01*
X16900D01*
X17100D02*
X17300Y25800D01*
X17500Y26300D02*
X17600Y26400D01*
X17800D01*
X17900Y26300D01*
Y26200D01*
X17800Y26100D01*
X17700D01*
X17800D01*
X17900Y26000D01*
Y25900D01*
X17800Y25800D01*
X17600D01*
X17500Y25900D01*
X17300Y27200D02*
X17200Y27300D01*
X17000D01*
X16900Y27200D01*
Y27100D01*
X17000Y27000D01*
X17200D01*
X17300Y26900D01*
Y26800D01*
X17200Y26700D01*
X17000D01*
X16900Y26800D01*
X17500Y27300D02*
Y26700D01*
X17700Y26900D01*
X17900Y26700D01*
Y27300D01*
X18499D02*
X18100D01*
Y27000D01*
X18300Y27100D01*
X18400D01*
X18499Y27000D01*
Y26800D01*
X18400Y26700D01*
X18200D01*
X18100Y26800D01*
X18699Y27300D02*
Y26900D01*
X18899Y26700D01*
X19099Y26900D01*
Y27300D01*
X15500Y16900D02*
Y17500D01*
X15800D01*
X15900Y17400D01*
Y17200D01*
X15800Y17100D01*
X15500D01*
X15700D02*
X15900Y16900D01*
X16100D02*
X16300D01*
X16200D01*
Y17500D01*
X16100Y17400D01*
X17000Y16900D02*
X16600D01*
X17000Y17300D01*
Y17400D01*
X16900Y17500D01*
X16700D01*
X16600Y17400D01*
X11100Y14000D02*
X10500D01*
Y14300D01*
X10600Y14400D01*
X10800D01*
X10900Y14300D01*
Y14000D01*
X10500Y14900D02*
Y14700D01*
X10600Y14600D01*
X11000D01*
X11100Y14700D01*
Y14900D01*
X11000Y15000D01*
X10600D01*
X10500Y14900D01*
Y15200D02*
X11100D01*
X10900Y15400D01*
X11100Y15599D01*
X10500D01*
X11100Y15799D02*
Y15999D01*
Y15899D01*
X10500D01*
X10600Y15799D01*
X11100Y16699D02*
Y16299D01*
X10700Y16699D01*
X10600D01*
X10500Y16599D01*
Y16399D01*
X10600Y16299D01*
X31400Y19800D02*
X31300Y19700D01*
Y19500D01*
X31400Y19400D01*
X31800D01*
X31900Y19500D01*
Y19700D01*
X31800Y19800D01*
X31900Y20000D02*
Y20200D01*
Y20100D01*
X31300D01*
X31400Y20000D01*
X31300Y20900D02*
X31400Y20700D01*
X31600Y20500D01*
X31800D01*
X31900Y20600D01*
Y20800D01*
X31800Y20900D01*
X31700D01*
X31600Y20800D01*
Y20500D01*
X36100Y20500D02*
X36000Y20600D01*
X35800D01*
X35700Y20500D01*
Y20100D01*
X35800Y20000D01*
X36000D01*
X36100Y20100D01*
X36300Y20000D02*
X36500D01*
X36400D01*
Y20600D01*
X36300Y20500D01*
X37200Y20600D02*
X36800D01*
Y20300D01*
X37000Y20400D01*
X37100D01*
X37200Y20300D01*
Y20100D01*
X37100Y20000D01*
X36900D01*
X36800Y20100D01*
X21200Y12600D02*
X21100Y12700D01*
X20900D01*
X20800Y12600D01*
Y12200D01*
X20900Y12100D01*
X21100D01*
X21200Y12200D01*
X21400Y12600D02*
X21500Y12700D01*
X21700D01*
X21800Y12600D01*
Y12500D01*
X21700Y12400D01*
X21800Y12300D01*
Y12200D01*
X21700Y12100D01*
X21500D01*
X21400Y12200D01*
Y12300D01*
X21500Y12400D01*
X21400Y12500D01*
Y12600D01*
X21500Y12400D02*
X21700D01*
X19600Y12600D02*
X19500Y12700D01*
X19300D01*
X19200Y12600D01*
Y12200D01*
X19300Y12100D01*
X19500D01*
X19600Y12200D01*
X19800Y12700D02*
X20200D01*
Y12600D01*
X19800Y12200D01*
Y12100D01*
X30200Y11400D02*
X29600D01*
Y11700D01*
X29700Y11800D01*
X29900D01*
X30000Y11700D01*
Y11400D01*
Y11600D02*
X30200Y11800D01*
Y12000D02*
Y12200D01*
Y12100D01*
X29600D01*
X29700Y12000D01*
Y12500D02*
X29600Y12600D01*
Y12800D01*
X29700Y12900D01*
X30100D01*
X30200Y12800D01*
Y12600D01*
X30100Y12500D01*
X29700D01*
X38700Y10300D02*
Y10900D01*
X39000D01*
X39100Y10800D01*
Y10600D01*
X39000Y10500D01*
X38700D01*
X38900D02*
X39100Y10300D01*
X39300Y10900D02*
Y10300D01*
X39700D01*
X40200Y10900D02*
X40000D01*
X39900Y10800D01*
Y10400D01*
X40000Y10300D01*
X40200D01*
X40299Y10400D01*
Y10800D01*
X40200Y10900D01*
X40499D02*
Y10300D01*
Y10500D01*
X40899Y10900D01*
X40599Y10600D01*
X40899Y10300D01*
X41499D02*
X41099D01*
X41499Y10700D01*
Y10800D01*
X41399Y10900D01*
X41199D01*
X41099Y10800D01*
X36700Y11200D02*
Y11800D01*
X37000D01*
X37100Y11700D01*
Y11500D01*
X37000Y11400D01*
X36700D01*
X36900D02*
X37100Y11200D01*
X37300Y11300D02*
X37400Y11200D01*
X37600D01*
X37700Y11300D01*
Y11700D01*
X37600Y11800D01*
X37400D01*
X37300Y11700D01*
Y11600D01*
X37400Y11500D01*
X37700D01*
X41160Y23460D02*
Y24060D01*
X41460D01*
X41560Y23960D01*
Y23760D01*
X41460Y23660D01*
X41160D01*
X41360D02*
X41560Y23460D01*
X41760Y23960D02*
X41860Y24060D01*
X42060D01*
X42160Y23960D01*
Y23860D01*
X42060Y23760D01*
X42160Y23660D01*
Y23560D01*
X42060Y23460D01*
X41860D01*
X41760Y23560D01*
Y23660D01*
X41860Y23760D01*
X41760Y23860D01*
Y23960D01*
X41860Y23760D02*
X42060D01*
X31890Y13990D02*
X31490D01*
Y13690D01*
X31690D01*
X31490D01*
Y13390D01*
X32090D02*
Y13790D01*
X32290Y13990D01*
X32490Y13790D01*
Y13390D01*
Y13690D01*
X32090D01*
X32690Y13990D02*
X32890D01*
X32790D01*
Y13390D01*
X32690D01*
X32890D01*
X33189Y13990D02*
Y13390D01*
X33589D01*
X37400Y19000D02*
Y19200D01*
Y19100D01*
X38000D01*
Y19000D01*
Y19200D01*
X37500Y19900D02*
X37400Y19800D01*
Y19600D01*
X37500Y19500D01*
X37900D01*
X38000Y19600D01*
Y19800D01*
X37900Y19900D01*
X38000Y20100D02*
Y20300D01*
Y20200D01*
X37400D01*
X37500Y20100D01*
X39200Y24000D02*
Y23400D01*
X39500D01*
X39600Y23500D01*
Y23900D01*
X39500Y24000D01*
X39200D01*
X39800Y23400D02*
X40000D01*
X39900D01*
Y24000D01*
X39800Y23900D01*
X32200Y19900D02*
X32400D01*
X32300D01*
Y19300D01*
X32200D01*
X32400D01*
X33100Y19800D02*
X33000Y19900D01*
X32800D01*
X32700Y19800D01*
Y19400D01*
X32800Y19300D01*
X33000D01*
X33100Y19400D01*
X33700Y19300D02*
X33300D01*
X33700Y19700D01*
Y19800D01*
X33600Y19900D01*
X33400D01*
X33300Y19800D01*
X26600Y21700D02*
X26500Y21600D01*
Y21400D01*
X26600Y21300D01*
X27000D01*
X27100Y21400D01*
Y21600D01*
X27000Y21700D01*
X27100Y21900D02*
Y22100D01*
Y22000D01*
X26500D01*
X26600Y21900D01*
Y22400D02*
X26500Y22500D01*
Y22700D01*
X26600Y22800D01*
X27000D01*
X27100Y22700D01*
Y22500D01*
X27000Y22400D01*
X26600D01*
X35350Y26850D02*
Y26250D01*
X35750D01*
X36350D02*
X35950D01*
X36350Y26650D01*
Y26750D01*
X36250Y26850D01*
X36050D01*
X35950Y26750D01*
X57000Y26650D02*
X57400D01*
X57600Y26450D01*
X57400Y26250D01*
X57000D01*
X57300D01*
Y26650D01*
X57500Y25650D02*
X57600Y25750D01*
Y25950D01*
X57500Y26050D01*
X57100D01*
X57000Y25950D01*
Y25750D01*
X57100Y25650D01*
X56900Y25450D02*
Y25051D01*
X57000Y24851D02*
X57600D01*
Y24551D01*
X57500Y24451D01*
X57300D01*
X57200Y24551D01*
Y24851D01*
X57600Y23951D02*
Y24151D01*
X57500Y24251D01*
X57100D01*
X57000Y24151D01*
Y23951D01*
X57100Y23851D01*
X57500D01*
X57600Y23951D01*
Y23651D02*
X57000D01*
X57200Y23451D01*
X57000Y23251D01*
X57600D01*
X56900Y23051D02*
Y22651D01*
X57600Y22151D02*
Y22351D01*
X57500Y22451D01*
X57100D01*
X57000Y22351D01*
Y22151D01*
X57100Y22051D01*
X57500D01*
X57600Y22151D01*
Y21852D02*
X57100D01*
X57000Y21752D01*
Y21552D01*
X57100Y21452D01*
X57600D01*
Y21252D02*
Y20852D01*
Y21052D01*
X57000D01*
X56950Y19700D02*
X57350D01*
X57550Y19500D01*
X57350Y19300D01*
X56950D01*
X57250D01*
Y19700D01*
X57450Y18700D02*
X57550Y18800D01*
Y19000D01*
X57450Y19100D01*
X57050D01*
X56950Y19000D01*
Y18800D01*
X57050Y18700D01*
X56850Y18500D02*
Y18101D01*
X56950Y17901D02*
X57550D01*
Y17601D01*
X57450Y17501D01*
X57250D01*
X57150Y17601D01*
Y17901D01*
X57550Y17001D02*
Y17201D01*
X57450Y17301D01*
X57050D01*
X56950Y17201D01*
Y17001D01*
X57050Y16901D01*
X57450D01*
X57550Y17001D01*
Y16701D02*
X56950D01*
X57150Y16501D01*
X56950Y16301D01*
X57550D01*
X56850Y16101D02*
Y15701D01*
X57550Y15501D02*
Y15301D01*
Y15401D01*
X56950D01*
Y15501D01*
Y15301D01*
Y15002D02*
X57550D01*
X56950Y14602D01*
X57550D01*
X34100Y13550D02*
Y14150D01*
X34400D01*
X34500Y14050D01*
Y13850D01*
X34400Y13750D01*
X34100D01*
X34300D02*
X34500Y13550D01*
X35100Y14150D02*
X34900Y14050D01*
X34700Y13850D01*
Y13650D01*
X34800Y13550D01*
X35000D01*
X35100Y13650D01*
Y13750D01*
X35000Y13850D01*
X34700D01*
X28400Y13800D02*
X28600D01*
X28500D01*
Y13200D01*
X28400D01*
X28600D01*
X29300Y13700D02*
X29200Y13800D01*
X29000D01*
X28900Y13700D01*
Y13300D01*
X29000Y13200D01*
X29200D01*
X29300Y13300D01*
X29500Y13700D02*
X29600Y13800D01*
X29800D01*
X29900Y13700D01*
Y13600D01*
X29800Y13500D01*
X29700D01*
X29800D01*
X29900Y13400D01*
Y13300D01*
X29800Y13200D01*
X29600D01*
X29500Y13300D01*
X26900Y13200D02*
Y13800D01*
X27200D01*
X27300Y13700D01*
Y13500D01*
X27200Y13400D01*
X26900D01*
X27100D02*
X27300Y13200D01*
X27500Y13800D02*
X27900D01*
Y13700D01*
X27500Y13300D01*
Y13200D01*
X29150Y17000D02*
X29050Y17100D01*
X28850D01*
X28750Y17000D01*
Y16600D01*
X28850Y16500D01*
X29050D01*
X29150Y16600D01*
X29350Y17000D02*
X29450Y17100D01*
X29650D01*
X29750Y17000D01*
Y16900D01*
X29650Y16800D01*
X29550D01*
X29650D01*
X29750Y16700D01*
Y16600D01*
X29650Y16500D01*
X29450D01*
X29350Y16600D01*
X27250Y15700D02*
Y16300D01*
X27550D01*
X27650Y16200D01*
Y16000D01*
X27550Y15900D01*
X27250D01*
X27450D02*
X27650Y15700D01*
X28150D02*
Y16300D01*
X27850Y16000D01*
X28250D01*
X27050Y20700D02*
Y20200D01*
X27150Y20100D01*
X27350D01*
X27450Y20200D01*
Y20700D01*
X28050Y20100D02*
X27650D01*
X28050Y20500D01*
Y20600D01*
X27950Y20700D01*
X27750D01*
X27650Y20600D01*
X29000Y21300D02*
X28900Y21400D01*
X28700D01*
X28600Y21300D01*
Y20900D01*
X28700Y20800D01*
X28900D01*
X29000Y20900D01*
X29500Y20800D02*
Y21400D01*
X29200Y21100D01*
X29600D01*
X24700Y18100D02*
Y17600D01*
X24800Y17500D01*
X25000D01*
X25100Y17600D01*
Y18100D01*
X25300Y18000D02*
X25400Y18100D01*
X25600D01*
X25700Y18000D01*
Y17900D01*
X25600Y17800D01*
X25500D01*
X25600D01*
X25700Y17700D01*
Y17600D01*
X25600Y17500D01*
X25400D01*
X25300Y17600D01*
X18450Y20750D02*
Y21350D01*
X18750D01*
X18850Y21250D01*
Y21050D01*
X18750Y20950D01*
X18450D01*
X18650D02*
X18850Y20750D01*
X19050D02*
X19250D01*
X19150D01*
Y21350D01*
X19050Y21250D01*
X19800Y10500D02*
Y11100D01*
X20100D01*
X20200Y11000D01*
Y10800D01*
X20100Y10700D01*
X19800D01*
X20000D02*
X20200Y10500D01*
X20800Y11000D02*
X20700Y11100D01*
X20500D01*
X20400Y11000D01*
Y10900D01*
X20500Y10800D01*
X20700D01*
X20800Y10700D01*
Y10600D01*
X20700Y10500D01*
X20500D01*
X20400Y10600D01*
X21000Y11100D02*
X21399D01*
X21200D01*
Y10500D01*
X18950Y11550D02*
X18850Y11650D01*
X18650D01*
X18550Y11550D01*
Y11150D01*
X18650Y11050D01*
X18850D01*
X18950Y11150D01*
X19550Y11650D02*
X19350Y11550D01*
X19150Y11350D01*
Y11150D01*
X19250Y11050D01*
X19450D01*
X19550Y11150D01*
Y11250D01*
X19450Y11350D01*
X19150D01*
X25000Y23850D02*
X24900Y23950D01*
X24700D01*
X24600Y23850D01*
Y23450D01*
X24700Y23350D01*
X24900D01*
X25000Y23450D01*
X25600Y23350D02*
X25200D01*
X25600Y23750D01*
Y23850D01*
X25500Y23950D01*
X25300D01*
X25200Y23850D01*
X16871Y22100D02*
Y21600D01*
X16971Y21500D01*
X17171D01*
X17271Y21600D01*
Y22100D01*
X17471Y21500D02*
X17671D01*
X17571D01*
Y22100D01*
X17471Y22000D01*
X24857Y24550D02*
Y25150D01*
X25157D01*
X25257Y25050D01*
Y24850D01*
X25157Y24750D01*
X24857D01*
X25057D02*
X25257Y24550D01*
X25857D02*
X25457D01*
X25857Y24950D01*
Y25050D01*
X25757Y25150D01*
X25557D01*
X25457Y25050D01*
X24900Y20200D02*
X24800Y20300D01*
X24600D01*
X24500Y20200D01*
Y19800D01*
X24600Y19700D01*
X24800D01*
X24900Y19800D01*
X25100Y19700D02*
X25300D01*
X25200D01*
Y20300D01*
X25100Y20200D01*
X25600Y19700D02*
X25800D01*
X25700D01*
Y20300D01*
X25600Y20200D01*
X18200Y17650D02*
X18100Y17750D01*
X17900D01*
X17800Y17650D01*
Y17250D01*
X17900Y17150D01*
X18100D01*
X18200Y17250D01*
X18400Y17150D02*
X18600D01*
X18500D01*
Y17750D01*
X18400Y17650D01*
X19300Y17150D02*
X18900D01*
X19300Y17550D01*
Y17650D01*
X19200Y17750D01*
X19000D01*
X18900Y17650D01*
X17350Y19900D02*
Y20500D01*
X17650D01*
X17750Y20400D01*
Y20200D01*
X17650Y20100D01*
X17350D01*
X17550D02*
X17750Y19900D01*
X18350Y20500D02*
X17950D01*
Y20200D01*
X18150Y20300D01*
X18250D01*
X18350Y20200D01*
Y20000D01*
X18250Y19900D01*
X18050D01*
X17950Y20000D01*
X19700Y20100D02*
X19600Y20200D01*
X19400D01*
X19300Y20100D01*
Y19700D01*
X19400Y19600D01*
X19600D01*
X19700Y19700D01*
X19900Y19600D02*
X20100D01*
X20000D01*
Y20200D01*
X19900Y20100D01*
X20700Y19600D02*
Y20200D01*
X20400Y19900D01*
X20800D01*
X11800Y19900D02*
X12000D01*
X11900D01*
Y19300D01*
X11800D01*
X12000D01*
X12300D02*
Y19900D01*
X12700Y19300D01*
Y19900D01*
X12900D02*
X13300D01*
X13100D01*
Y19300D01*
X13499D02*
X13899Y19700D01*
X14499Y19800D02*
X14399Y19900D01*
X14199D01*
X14099Y19800D01*
Y19700D01*
X14199Y19600D01*
X14399D01*
X14499Y19500D01*
Y19400D01*
X14399Y19300D01*
X14199D01*
X14099Y19400D01*
X14699Y19900D02*
Y19300D01*
X14899Y19500D01*
X15099Y19300D01*
Y19900D01*
X11800Y21785D02*
X11700Y21885D01*
X11500D01*
X11400Y21785D01*
Y21385D01*
X11500Y21285D01*
X11700D01*
X11800Y21385D01*
X12400Y21885D02*
X12000D01*
Y21585D01*
X12200Y21685D01*
X12300D01*
X12400Y21585D01*
Y21385D01*
X12300Y21285D01*
X12100D01*
X12000Y21385D01*
X11100Y11100D02*
X10500D01*
Y11400D01*
X10600Y11500D01*
X10800D01*
X10900Y11400D01*
Y11100D01*
X10500Y12000D02*
Y11800D01*
X10600Y11700D01*
X11000D01*
X11100Y11800D01*
Y12000D01*
X11000Y12100D01*
X10600D01*
X10500Y12000D01*
Y12300D02*
X11100D01*
X10900Y12500D01*
X11100Y12699D01*
X10500D01*
Y13299D02*
Y12899D01*
X10800D01*
X10700Y13099D01*
Y13199D01*
X10800Y13299D01*
X11000D01*
X11100Y13199D01*
Y12999D01*
X11000Y12899D01*
X10400Y17600D02*
Y17200D01*
X11000D01*
Y17600D01*
X10700Y17200D02*
Y17400D01*
X10400Y17800D02*
X11000Y18200D01*
X10400D02*
X11000Y17800D01*
X10400Y18400D02*
Y18799D01*
Y18600D01*
X11000D01*
X11100Y18999D02*
Y19399D01*
X10500Y19999D02*
X10400Y19899D01*
Y19699D01*
X10500Y19599D01*
X10600D01*
X10700Y19699D01*
Y19899D01*
X10800Y19999D01*
X10900D01*
X11000Y19899D01*
Y19699D01*
X10900Y19599D01*
X10400Y20199D02*
X11000D01*
X10800Y20399D01*
X11000Y20599D01*
X10400D01*
Y20799D02*
Y20999D01*
Y20899D01*
X11000D01*
Y20799D01*
Y20999D01*
X10400Y21299D02*
Y21699D01*
Y21499D01*
X11000D01*
X10500Y22298D02*
X10400Y22198D01*
Y21998D01*
X10500Y21898D01*
X10900D01*
X11000Y21998D01*
Y22198D01*
X10900Y22298D01*
X10400Y22498D02*
X11000D01*
X10700D01*
Y22898D01*
X10400D01*
X11000D01*
X38030Y26810D02*
X37930Y26910D01*
X37730D01*
X37630Y26810D01*
Y26410D01*
X37730Y26310D01*
X37930D01*
X38030Y26410D01*
X38230D02*
X38330Y26310D01*
X38530D01*
X38630Y26410D01*
Y26810D01*
X38530Y26910D01*
X38330D01*
X38230Y26810D01*
Y26710D01*
X38330Y26610D01*
X38630D01*
X29160Y26800D02*
Y27200D01*
X29360Y27400D01*
X29560Y27200D01*
Y26800D01*
Y27100D01*
X29160D01*
X29760Y26800D02*
X29960D01*
X29860D01*
Y27400D01*
X29760Y27300D01*
X46813Y27190D02*
X47213Y26590D01*
Y27190D02*
X46813Y26590D01*
X47812Y27190D02*
X47413D01*
Y26890D01*
X47613D01*
X47413D01*
Y26590D01*
X48012D02*
X48212D01*
X48112D01*
Y27190D01*
X48012Y27090D01*
X40010Y22910D02*
Y22310D01*
Y22510D01*
X40410Y22910D01*
X40110Y22610D01*
X40410Y22310D01*
X40610D02*
X40810D01*
X40710D01*
Y22910D01*
X40610Y22810D01*
X12050Y26200D02*
X11850D01*
X11950D01*
Y25700D01*
X11850Y25600D01*
X11750D01*
X11650Y25700D01*
X12250Y25600D02*
X12450D01*
X12350D01*
Y26200D01*
X12250Y26100D01*
X18851D02*
X18751Y26200D01*
X18551D01*
X18451Y26100D01*
Y25700D01*
X18551Y25600D01*
X18751D01*
X18851Y25700D01*
X19051Y25600D02*
X19251D01*
X19151D01*
Y26200D01*
X19051Y26100D01*
D15*
X30048Y21617D02*
G03*
X30048Y21617I-39J0D01*
G01*
D16*
X39106Y15915D02*
Y16033D01*
X40917D01*
Y15915D02*
Y16033D01*
Y15167D02*
Y15285D01*
X39106Y15167D02*
X40917D01*
X39106D02*
Y15285D01*
X40012Y15167D02*
Y16033D01*
X39769Y18676D02*
Y18873D01*
X38431D02*
X39769D01*
X38431Y18676D02*
Y18873D01*
Y18086D02*
Y18283D01*
Y18086D02*
X39769D01*
Y18283D01*
X11175Y27176D02*
Y27254D01*
X12514D01*
Y27176D02*
Y27254D01*
X11175Y26546D02*
Y26624D01*
Y26546D02*
X12514D01*
Y26624D01*
X11844Y26546D02*
Y27254D01*
X16016Y25365D02*
Y25483D01*
X17827D01*
Y25365D02*
Y25483D01*
Y24617D02*
Y24735D01*
X16016Y24617D02*
X17827D01*
X16016D02*
Y24735D01*
X16921Y24617D02*
Y25483D01*
X14446Y15675D02*
X14524D01*
X14446D02*
Y17014D01*
X14524D01*
X15076Y15675D02*
X15154D01*
Y17014D01*
X15076D02*
X15154D01*
X14446Y16344D02*
X15154D01*
X30106Y20369D02*
X30303D01*
X30106Y19031D02*
Y20369D01*
Y19031D02*
X30303D01*
X30697D02*
X30894D01*
Y20369D01*
X30697D02*
X30894D01*
X34606Y20269D02*
X34803D01*
X34606Y18931D02*
Y20269D01*
Y18931D02*
X34803D01*
X35197D02*
X35394D01*
Y20269D01*
X35197D02*
X35394D01*
X21644Y12865D02*
X21743D01*
Y14735D01*
X21644D02*
X21743D01*
X20857D02*
X20956D01*
X20857Y12865D02*
Y14735D01*
Y12865D02*
X20956D01*
X20857Y13800D02*
X21743D01*
X20044Y12865D02*
X20143D01*
Y14735D01*
X20044D02*
X20143D01*
X19257D02*
X19356D01*
X19257Y12865D02*
Y14735D01*
Y12865D02*
X19356D01*
X19257Y13800D02*
X20143D01*
X31215Y13706D02*
X31333D01*
Y11894D02*
Y13706D01*
X31215Y11894D02*
X31333D01*
X30467D02*
X30585D01*
X30467D02*
Y13706D01*
X30585D01*
X30467Y12800D02*
X31333D01*
X36594Y12815D02*
Y12933D01*
X38406D01*
Y12815D02*
Y12933D01*
Y12067D02*
Y12185D01*
X36594Y12067D02*
X38406D01*
X36594D02*
Y12185D01*
X37500Y12067D02*
Y12933D01*
X42906Y22267D02*
Y22385D01*
X41094Y22267D02*
X42906D01*
X41094D02*
Y22385D01*
Y23015D02*
Y23133D01*
X42906D01*
Y23015D02*
Y23133D01*
X42000Y22267D02*
Y23133D01*
X28244Y21115D02*
X28343D01*
Y22985D01*
X28244D02*
X28343D01*
X27457D02*
X27556D01*
X27457Y21115D02*
Y22985D01*
Y21115D02*
X27556D01*
X27457Y22050D02*
X28343D01*
X35517Y13444D02*
X35635D01*
X35517D02*
Y15256D01*
X35635D01*
X36265D02*
X36383D01*
Y13444D02*
Y15256D01*
X36265Y13444D02*
X36383D01*
X35517Y14350D02*
X36383D01*
X27294Y14915D02*
Y15033D01*
X29106D01*
Y14915D02*
Y15033D01*
Y14167D02*
Y14285D01*
X27294Y14167D02*
X29106D01*
X27294D02*
Y14285D01*
X28200Y14167D02*
Y15033D01*
X29697Y17331D02*
X29894D01*
Y18669D01*
X29697D02*
X29894D01*
X29106D02*
X29303D01*
X29106Y17331D02*
Y18669D01*
Y17331D02*
X29303D01*
X26344Y17365D02*
Y17483D01*
X28156D01*
Y17365D02*
Y17483D01*
Y16617D02*
Y16735D01*
X26344Y16617D02*
X28156D01*
X26344D02*
Y16735D01*
X27250Y16617D02*
Y17483D01*
X29647Y19231D02*
X29844D01*
Y20569D01*
X29647D02*
X29844D01*
X29056D02*
X29253D01*
X29056Y19231D02*
Y20569D01*
Y19231D02*
X29253D01*
X19315Y23456D02*
X19433D01*
Y21644D02*
Y23456D01*
X19315Y21644D02*
X19433D01*
X18567D02*
X18685D01*
X18567D02*
Y23456D01*
X18685D01*
X18567Y22550D02*
X19433D01*
X25569Y22797D02*
Y22994D01*
X24231D02*
X25569D01*
X24231Y22797D02*
Y22994D01*
Y22206D02*
Y22403D01*
Y22206D02*
X25569D01*
Y22403D01*
X24356Y21934D02*
X24553D01*
X24356Y20596D02*
Y21934D01*
Y20596D02*
X24553D01*
X24947D02*
X25144D01*
Y21934D01*
X24947D02*
X25144D01*
X20497Y17031D02*
X20694D01*
Y18369D01*
X20497D02*
X20694D01*
X19906D02*
X20103D01*
X19906Y17031D02*
Y18369D01*
Y17031D02*
X20103D01*
X17967Y17894D02*
X18085D01*
X17967D02*
Y19706D01*
X18085D01*
X18715D02*
X18833D01*
Y17894D02*
Y19706D01*
X18715Y17894D02*
X18833D01*
X17967Y18800D02*
X18833D01*
X19531Y18556D02*
Y18753D01*
Y18556D02*
X20869D01*
Y18753D01*
Y19147D02*
Y19344D01*
X19531D02*
X20869D01*
X19531Y19147D02*
Y19344D01*
X13297Y21116D02*
X13494D01*
Y22454D01*
X13297D02*
X13494D01*
X12706D02*
X12903D01*
X12706Y21116D02*
Y22454D01*
Y21116D02*
X12903D01*
X37557Y25985D02*
X37656D01*
X37557Y24115D02*
Y25985D01*
Y24115D02*
X37656D01*
X38344D02*
X38443D01*
Y25985D01*
X38344D02*
X38443D01*
X37557Y25050D02*
X38443D01*
X18378Y25269D02*
X18574D01*
X18378Y23931D02*
Y25269D01*
Y23931D02*
X18574D01*
X18968D02*
X19165D01*
Y25269D01*
X18968D02*
X19165D01*
D17*
X21178Y17684D02*
X21200D01*
X21178Y18216D02*
X21200D01*
X20900D02*
X20922D01*
X20900Y17684D02*
X20922D01*
D18*
X31731Y18722D02*
D03*
M02*
