G04*
G04 #@! TF.GenerationSoftware,Altium Limited,Altium Designer,19.1.6 (110)*
G04*
G04 Layer_Color=255*
%FSLAX24Y24*%
%MOIN*%
G70*
G01*
G75*
%ADD19R,0.0472X0.0650*%
%ADD25R,0.0453X0.0531*%
%ADD28R,0.0551X0.0512*%
%ADD29R,0.0709X0.0512*%
%ADD76C,0.1575*%
%ADD77C,0.0630*%
%ADD78C,0.0354*%
%ADD79O,0.0787X0.1181*%
%ADD80O,0.0984X0.0689*%
%ADD81C,0.0394*%
%ADD82C,0.0787*%
%ADD83C,0.0472*%
%ADD84C,0.1024*%
%ADD85C,0.0886*%
%ADD86C,0.0709*%
%ADD88R,0.0512X0.0709*%
%ADD89R,0.0866X0.1063*%
%ADD90R,0.0394X0.0236*%
D19*
X42551Y13800D02*
D03*
X41449D02*
D03*
D25*
X14444Y16500D02*
D03*
X13756D02*
D03*
D28*
X14500Y17785D02*
D03*
Y18415D02*
D03*
X17200Y17500D02*
D03*
Y16870D02*
D03*
D29*
X18200Y14371D02*
D03*
Y13229D02*
D03*
X19500Y19471D02*
D03*
Y18329D02*
D03*
D76*
X63700Y27000D02*
D03*
D77*
X39889Y14598D02*
D03*
Y13598D02*
D03*
X39500Y12500D02*
D03*
Y11500D02*
D03*
X32200Y12700D02*
D03*
Y11700D02*
D03*
D78*
X37520Y16971D02*
D03*
Y14294D02*
D03*
X27556Y26622D02*
D03*
X24879D02*
D03*
X16021Y26480D02*
D03*
X13344D02*
D03*
X16280Y18079D02*
D03*
Y20756D02*
D03*
D79*
X28500Y11600D02*
D03*
X27500D02*
D03*
D80*
X13050Y15700D02*
D03*
Y14700D02*
D03*
X13050Y13000D02*
D03*
Y12000D02*
D03*
Y18400D02*
D03*
Y17400D02*
D03*
Y24500D02*
D03*
Y23500D02*
D03*
D81*
X61230Y26311D02*
D03*
Y21389D02*
D03*
X61280Y19811D02*
D03*
Y14889D02*
D03*
D82*
X23150Y15500D02*
D03*
Y13500D02*
D03*
X25150Y15500D02*
D03*
Y13500D02*
D03*
D83*
X16950Y13100D02*
D03*
Y14478D02*
D03*
X21300Y22650D02*
D03*
X22300D02*
D03*
X23300D02*
D03*
D84*
X51603Y24350D02*
D03*
D85*
X48650D02*
D03*
X54556D02*
D03*
D86*
X41599Y17904D02*
D03*
Y20896D02*
D03*
X48705Y17904D02*
D03*
X50674D02*
D03*
X53233D02*
D03*
X55201D02*
D03*
X48705Y20896D02*
D03*
X50674D02*
D03*
X53233D02*
D03*
X55201D02*
D03*
D88*
X18171Y15400D02*
D03*
X17029D02*
D03*
X19571Y16445D02*
D03*
X18429D02*
D03*
D89*
X15300Y15204D02*
D03*
Y13196D02*
D03*
D90*
X15359Y16974D02*
D03*
Y16600D02*
D03*
Y16226D02*
D03*
X16441D02*
D03*
Y16600D02*
D03*
Y16974D02*
D03*
M02*
