G04*
G04 #@! TF.GenerationSoftware,Altium Limited,Altium Designer,19.1.6 (110)*
G04*
G04 Layer_Color=16711935*
%FSLAX24Y24*%
%MOIN*%
G70*
G01*
G75*
%ADD12C,0.0079*%
%ADD14C,0.0100*%
%ADD16C,0.0039*%
%ADD17C,0.0059*%
D12*
X62707Y21744D02*
Y25956D01*
X61447D02*
X62707D01*
X61447D02*
Y26586D01*
X61014D02*
X61447D01*
X61014Y25956D02*
Y26586D01*
X59793Y25956D02*
X61014D01*
X59793Y21744D02*
Y25956D01*
Y21744D02*
X61014D01*
Y21114D02*
Y21744D01*
Y21114D02*
X61447D01*
Y21744D01*
X62707D01*
X62757Y15244D02*
Y19456D01*
X61497D02*
X62757D01*
X61497D02*
Y20086D01*
X61064D02*
X61497D01*
X61064Y19456D02*
Y20086D01*
X59843Y19456D02*
X61064D01*
X59843Y15244D02*
Y19456D01*
Y15244D02*
X61064D01*
Y14614D02*
Y15244D01*
Y14614D02*
X61497D01*
Y15244D01*
X62757D01*
X23599Y9146D02*
Y10051D01*
X22654Y9146D02*
X23599D01*
X22654Y7571D02*
Y9146D01*
X25646Y7571D02*
Y9146D01*
X24701D02*
X25646D01*
X24701D02*
Y10051D01*
X22654Y7571D02*
X25646D01*
X29261Y21850D02*
X34655D01*
Y25950D01*
X29261D02*
X34655D01*
X29261Y21850D02*
Y25950D01*
D14*
X10000Y10000D02*
X65000D01*
Y28000D01*
X10000D02*
X65000D01*
X10000Y10000D02*
Y28000D01*
D16*
X27050Y18886D02*
Y18689D01*
X27089Y18650D01*
X27168D01*
X27207Y18689D01*
Y18886D01*
X27444Y18650D02*
X27286D01*
X27444Y18807D01*
Y18847D01*
X27404Y18886D01*
X27325D01*
X27286Y18847D01*
D17*
X22130Y19377D02*
Y19115D01*
X22182Y19062D01*
X22287D01*
X22340Y19115D01*
Y19377D01*
X22445Y19325D02*
X22497Y19377D01*
X22602D01*
X22655Y19325D01*
Y19272D01*
X22602Y19220D01*
X22550D01*
X22602D01*
X22655Y19167D01*
Y19115D01*
X22602Y19062D01*
X22497D01*
X22445Y19115D01*
M02*
