M48
;Layer_Color=9474304
;FILE_FORMAT=2:4
INCH,LZ
;TYPE=PLATED
T1F00S00C0.0276
T2F00S00C0.0280
T3F00S00C0.0315
T4F00S00C0.0433
T5F00S00C0.0472
T6F00S00C0.0512
T7F00S00C0.0591
T8F00S00C0.1378
;TYPE=NON_PLATED
T9F00S00C0.0354
T10F00S00C0.0669
T11F00S00C0.1024
%
T01
X01695Y0131
Y014478
X0213Y02265
X0223
X0233
T02
X0197Y0152
X0213
X0297Y0154
X036Y0162
X03628Y0177
Y01865
X037235Y018555
X0377Y0194
X0378Y0161
X0413
X0406Y0202
X0442Y0187
X035Y0206
X0365Y0226
X0305Y0207
Y017
X030293Y016207
X0279Y019
X0268Y0215
X0259Y0264
X0207Y0275
X0198Y0237
X0194Y0174
X0213Y0172
X0141Y0158
X0131Y0208
X0147Y0227
X0151Y0246
X0139Y0264
T03
X02315Y0135
Y0155
X02515
Y0135
X0322Y0127
Y0117
X0395Y0115
Y0125
X039889Y013598
Y014598
T04
X01305Y012
Y013
X01305Y0147
Y0157
X01305Y0174
Y0184
Y0235
Y0245
T05
X0275Y0116
X0285
T06
X048705Y017904
X050674
X053233
X055201
Y020896
X053233
X050674
X048705
X041599
Y017904
T07
X04865Y02435
X054556
T08
X0637Y027
T09
X03752Y014294
Y016971
X027556Y026622
X024879
X016021Y02648
X01628Y020756
Y018079
X013344Y02648
T10
X06128Y014889
Y019811
X06123Y021389
Y026311
T11
X051603Y02435
M30
