G04*
G04 #@! TF.GenerationSoftware,Altium Limited,Altium Designer,20.0.10 (225)*
G04*
G04 Layer_Color=65535*
%FSLAX24Y24*%
%MOIN*%
G70*
G01*
G75*
%ADD10C,0.0050*%
%ADD11C,0.0098*%
%ADD12C,0.0079*%
%ADD13C,0.0236*%
%ADD14C,0.0100*%
%ADD15C,0.0197*%
%ADD16C,0.0059*%
%ADD17C,0.0039*%
G36*
X18279Y15216D02*
X15631D01*
X15867Y15452D01*
X16143Y15590D01*
X16903Y15757D01*
X17351D01*
X18023Y15472D01*
X18279Y15216D01*
D02*
G37*
G36*
X31987Y18978D02*
Y18879D01*
X31830Y18722D01*
X31731D01*
Y18978D01*
X31987D01*
D02*
G37*
G36*
X29497Y21850D02*
Y21971D01*
X29340Y22128D01*
X29253D01*
Y21850D01*
X29497D01*
D02*
G37*
G36*
X60547Y14092D02*
X60549Y14092D01*
X60551Y14092D01*
X60557Y14091D01*
X60563Y14089D01*
X60570Y14086D01*
X60574Y14084D01*
X60577Y14081D01*
X60581Y14078D01*
X60584Y14075D01*
X60584Y14075D01*
X60585Y14075D01*
X60586Y14074D01*
X60587Y14072D01*
X60588Y14071D01*
X60590Y14069D01*
X60593Y14064D01*
X60596Y14058D01*
X60599Y14051D01*
X60601Y14043D01*
X60601Y14039D01*
X60601Y14035D01*
Y14034D01*
Y14034D01*
Y14032D01*
X60601Y14031D01*
X60601Y14029D01*
X60600Y14026D01*
X60599Y14021D01*
X60597Y14014D01*
X60595Y14011D01*
X60593Y14008D01*
X60591Y14004D01*
X60589Y14000D01*
X60586Y13997D01*
X60582Y13994D01*
X60582Y13993D01*
X60581Y13993D01*
X60580Y13992D01*
X60579Y13991D01*
X60577Y13990D01*
X60575Y13989D01*
X60572Y13987D01*
X60570Y13986D01*
X60563Y13982D01*
X60555Y13980D01*
X60547Y13978D01*
X60542Y13977D01*
X60537Y13977D01*
X60534D01*
X60533Y13977D01*
X60530Y13978D01*
X60528Y13978D01*
X60522Y13979D01*
X60514Y13981D01*
X60507Y13984D01*
X60503Y13986D01*
X60499Y13988D01*
X60496Y13991D01*
X60492Y13994D01*
X60492Y13994D01*
X60491Y13994D01*
X60490Y13995D01*
X60489Y13997D01*
X60488Y13998D01*
X60486Y14000D01*
X60483Y14005D01*
X60479Y14011D01*
X60476Y14018D01*
X60475Y14022D01*
X60474Y14026D01*
X60474Y14030D01*
X60473Y14035D01*
Y14035D01*
Y14037D01*
X60474Y14039D01*
Y14041D01*
X60474Y14044D01*
X60475Y14048D01*
X60477Y14054D01*
X60448D01*
X60446Y14054D01*
X60443Y14053D01*
X60440Y14053D01*
X60436Y14051D01*
X60432Y14049D01*
X60428Y14047D01*
X60425Y14043D01*
X60425Y14042D01*
X60424Y14041D01*
X60422Y14038D01*
X60420Y14035D01*
X60418Y14031D01*
X60417Y14027D01*
X60416Y14022D01*
X60415Y14017D01*
Y14016D01*
Y14015D01*
X60416Y14012D01*
X60416Y14009D01*
X60417Y14004D01*
X60419Y13999D01*
X60420Y13992D01*
X60423Y13985D01*
Y13984D01*
X60423Y13984D01*
X60424Y13983D01*
X60424Y13981D01*
X60426Y13977D01*
X60427Y13973D01*
X60428Y13968D01*
X60429Y13962D01*
X60430Y13957D01*
X60431Y13952D01*
Y13951D01*
X60430Y13950D01*
X60429Y13947D01*
X60428Y13946D01*
X60427Y13944D01*
X60426Y13942D01*
X60424Y13940D01*
X60422Y13937D01*
X60419Y13935D01*
X60416Y13933D01*
X60412Y13930D01*
X60407Y13928D01*
X60403Y13925D01*
X60402Y13925D01*
X60401Y13924D01*
X60399Y13923D01*
X60396Y13922D01*
X60393Y13920D01*
X60389Y13919D01*
X60385Y13916D01*
X60381Y13914D01*
X60372Y13909D01*
X60363Y13905D01*
X60359Y13902D01*
X60356Y13900D01*
X60353Y13898D01*
X60350Y13896D01*
X60350Y13895D01*
X60349Y13895D01*
X60347Y13893D01*
X60346Y13891D01*
X60344Y13889D01*
X60341Y13886D01*
X60339Y13883D01*
X60336Y13879D01*
X60333Y13875D01*
X60331Y13870D01*
X60328Y13865D01*
X60326Y13860D01*
X60325Y13854D01*
X60323Y13847D01*
X60322Y13841D01*
X60322Y13834D01*
Y13833D01*
Y13832D01*
X60322Y13831D01*
X60323Y13829D01*
X60323Y13827D01*
X60324Y13824D01*
X60325Y13821D01*
X60326Y13818D01*
X60328Y13815D01*
X60330Y13812D01*
X60333Y13808D01*
X60336Y13805D01*
X60340Y13803D01*
X60344Y13800D01*
X60349Y13798D01*
X60355Y13796D01*
X60355D01*
X60355Y13796D01*
X60356D01*
X60358Y13795D01*
X60360Y13795D01*
X60362Y13795D01*
X60365Y13794D01*
X60368Y13794D01*
X60371Y13793D01*
X60376Y13793D01*
X60380Y13793D01*
X60385Y13792D01*
X60391Y13792D01*
X60397D01*
X60404Y13792D01*
X60587D01*
X60626Y13917D01*
X60712D01*
X60687Y13835D01*
X60761Y13899D01*
X60761Y13899D01*
X60762Y13900D01*
X60764Y13901D01*
X60766Y13903D01*
X60769Y13905D01*
X60773Y13907D01*
X60776Y13909D01*
X60781Y13912D01*
X60785Y13914D01*
X60790Y13916D01*
X60796Y13918D01*
X60801Y13920D01*
X60807Y13922D01*
X60814Y13923D01*
X60820Y13924D01*
X60828D01*
X60829Y13924D01*
X60830Y13923D01*
X60834Y13922D01*
X60839Y13921D01*
X60841Y13919D01*
X60843Y13917D01*
X60845Y13915D01*
X60847Y13913D01*
X60848Y13910D01*
X60850Y13907D01*
X60850Y13904D01*
X60851Y13899D01*
Y13899D01*
Y13898D01*
X60850Y13896D01*
Y13893D01*
X60850Y13891D01*
X60849Y13887D01*
X60848Y13884D01*
X60847Y13880D01*
X60819Y13792D01*
X60914D01*
X60945Y13879D01*
X60945Y13879D01*
X60943Y13879D01*
X60940Y13880D01*
X60937Y13882D01*
X60933Y13884D01*
X60929Y13886D01*
X60925Y13889D01*
X60921Y13893D01*
X60921Y13894D01*
X60920Y13895D01*
X60918Y13898D01*
X60917Y13901D01*
X60915Y13905D01*
X60913Y13910D01*
X60912Y13915D01*
X60912Y13921D01*
Y13921D01*
Y13922D01*
X60912Y13923D01*
Y13925D01*
X60913Y13928D01*
X60913Y13930D01*
X60915Y13936D01*
X60917Y13940D01*
X60918Y13943D01*
X60920Y13947D01*
X60923Y13950D01*
X60926Y13954D01*
X60929Y13957D01*
X60933Y13961D01*
X60938Y13964D01*
X60938D01*
X60939Y13964D01*
X60940Y13965D01*
X60941Y13966D01*
X60943Y13967D01*
X60946Y13968D01*
X60949Y13969D01*
X60952Y13970D01*
X60956Y13971D01*
X60960Y13972D01*
X60968Y13974D01*
X60978Y13976D01*
X60989Y13976D01*
X61028D01*
X61007Y13917D01*
X61136D01*
X61097Y13792D01*
X61197D01*
X61197Y13793D01*
X61199Y13800D01*
X61235Y13917D01*
X61322D01*
X61283Y13792D01*
X61381D01*
X61380Y13795D01*
X61379Y13803D01*
X61378Y13811D01*
Y13812D01*
Y13812D01*
Y13814D01*
X61379Y13817D01*
X61379Y13820D01*
X61379Y13825D01*
X61380Y13829D01*
X61381Y13834D01*
X61382Y13839D01*
Y13840D01*
X61383Y13841D01*
X61384Y13843D01*
X61385Y13846D01*
X61386Y13849D01*
X61388Y13853D01*
X61390Y13858D01*
X61392Y13862D01*
X61395Y13867D01*
X61398Y13872D01*
X61402Y13877D01*
X61407Y13882D01*
X61411Y13887D01*
X61417Y13892D01*
X61422Y13896D01*
X61429Y13900D01*
X61429Y13901D01*
X61430Y13901D01*
X61432Y13902D01*
X61434Y13903D01*
X61437Y13904D01*
X61440Y13906D01*
X61444Y13907D01*
X61449Y13909D01*
X61454Y13910D01*
X61459Y13912D01*
X61465Y13913D01*
X61471Y13915D01*
X61478Y13916D01*
X61485Y13917D01*
X61492Y13917D01*
X61499Y13917D01*
X61633D01*
X61594Y13792D01*
X61694D01*
Y13793D01*
X61694Y13796D01*
X61695Y13799D01*
X61697Y13806D01*
X61737Y13917D01*
X61825D01*
X61780Y13792D01*
X61829D01*
X61874Y13917D01*
X61961D01*
X61917Y13792D01*
X62015D01*
Y13791D01*
X62014Y13791D01*
X62014Y13790D01*
X62014Y13788D01*
X62012Y13785D01*
X62010Y13780D01*
X62007Y13775D01*
X62003Y13770D01*
X61998Y13765D01*
X61992Y13761D01*
X61992Y13761D01*
X61990Y13760D01*
X61987Y13759D01*
X61984Y13757D01*
X61980Y13756D01*
X61975Y13754D01*
X61969Y13753D01*
X61964Y13753D01*
X61860D01*
X61857Y13753D01*
X61855Y13754D01*
X61852Y13754D01*
X61845Y13756D01*
X61842Y13757D01*
X61839Y13759D01*
X61836Y13760D01*
X61833Y13763D01*
X61831Y13765D01*
X61829Y13768D01*
X61828Y13772D01*
X61827Y13776D01*
X61827Y13775D01*
X61826Y13775D01*
X61825Y13774D01*
X61824Y13772D01*
X61822Y13770D01*
X61820Y13768D01*
X61817Y13766D01*
X61814Y13764D01*
X61811Y13762D01*
X61807Y13760D01*
X61802Y13758D01*
X61798Y13757D01*
X61793Y13755D01*
X61788Y13754D01*
X61782Y13753D01*
X61777Y13753D01*
X61732D01*
X61731Y13753D01*
X61727Y13754D01*
X61723Y13754D01*
X61718Y13755D01*
X61713Y13757D01*
X61708Y13760D01*
X61703Y13763D01*
X61703Y13763D01*
X61702Y13764D01*
X61700Y13767D01*
X61698Y13769D01*
X61697Y13773D01*
X61695Y13777D01*
X61694Y13782D01*
X61694Y13788D01*
Y13788D01*
Y13789D01*
X61694Y13791D01*
Y13791D01*
X61694Y13791D01*
X61693Y13790D01*
X61693Y13788D01*
X61691Y13785D01*
X61688Y13780D01*
X61684Y13775D01*
X61679Y13769D01*
X61676Y13767D01*
X61673Y13764D01*
X61669Y13762D01*
X61665Y13760D01*
X61665D01*
X61665Y13760D01*
X61663Y13759D01*
X61659Y13758D01*
X61656Y13757D01*
X61651Y13755D01*
X61645Y13754D01*
X61639Y13753D01*
X61632Y13753D01*
X61581D01*
X61550Y13654D01*
X61529D01*
X61528Y13654D01*
X61524Y13655D01*
X61520Y13656D01*
X61514Y13657D01*
X61509Y13659D01*
X61503Y13662D01*
X61497Y13667D01*
X61497D01*
X61496Y13667D01*
X61495Y13669D01*
X61492Y13672D01*
X61489Y13676D01*
X61486Y13681D01*
X61484Y13686D01*
X61482Y13693D01*
X61482Y13697D01*
X61481Y13701D01*
Y13701D01*
Y13702D01*
X61482Y13704D01*
Y13706D01*
X61482Y13709D01*
X61483Y13712D01*
X61484Y13716D01*
X61485Y13720D01*
X61503Y13778D01*
X61503Y13777D01*
X61502Y13776D01*
X61501Y13775D01*
X61499Y13773D01*
X61496Y13771D01*
X61493Y13768D01*
X61490Y13765D01*
X61486Y13763D01*
X61481Y13760D01*
X61476Y13758D01*
X61471Y13755D01*
X61465Y13753D01*
X61459Y13751D01*
X61452Y13749D01*
X61445Y13748D01*
X61438Y13748D01*
X61434D01*
X61432Y13748D01*
X61429D01*
X61423Y13749D01*
X61423D01*
X61422Y13749D01*
X61421D01*
X61420Y13750D01*
X61416Y13751D01*
X61411Y13753D01*
X61406Y13756D01*
X61400Y13759D01*
X61394Y13764D01*
X61392Y13767D01*
X61390Y13770D01*
Y13770D01*
X61389Y13771D01*
X61389Y13772D01*
X61388Y13773D01*
X61387Y13775D01*
X61386Y13777D01*
X61384Y13782D01*
X61382Y13787D01*
X61382Y13789D01*
X61381Y13788D01*
X61380Y13785D01*
X61377Y13780D01*
X61373Y13775D01*
X61369Y13769D01*
X61363Y13764D01*
X61356Y13760D01*
X61356Y13760D01*
X61354Y13759D01*
X61351Y13758D01*
X61347Y13757D01*
X61343Y13755D01*
X61337Y13754D01*
X61331Y13753D01*
X61326Y13753D01*
X61229D01*
X61227Y13753D01*
X61225D01*
X61222Y13754D01*
X61219Y13755D01*
X61216Y13755D01*
X61213Y13757D01*
X61210Y13758D01*
X61206Y13760D01*
X61204Y13763D01*
X61201Y13765D01*
X61199Y13768D01*
X61197Y13772D01*
X61196Y13777D01*
X61196Y13781D01*
X61194Y13777D01*
X61193Y13775D01*
X61191Y13772D01*
X61188Y13770D01*
X61186Y13767D01*
X61183Y13765D01*
X61180Y13763D01*
X61180D01*
X61179Y13763D01*
X61178Y13762D01*
X61177Y13761D01*
X61174Y13760D01*
X61169Y13758D01*
X61164Y13756D01*
X61159Y13755D01*
X61152Y13753D01*
X61145Y13753D01*
X61051D01*
X61050Y13753D01*
X61047D01*
X61044Y13754D01*
X61042Y13755D01*
X61038Y13756D01*
X61035Y13757D01*
X61031Y13758D01*
X61028Y13760D01*
X61025Y13763D01*
X61022Y13766D01*
X61020Y13769D01*
X61018Y13773D01*
X61017Y13778D01*
X61016Y13783D01*
Y13784D01*
Y13785D01*
X61017Y13786D01*
Y13788D01*
X61017Y13791D01*
X61018Y13794D01*
X61019Y13800D01*
X61044Y13879D01*
X60995D01*
X60959Y13809D01*
Y13809D01*
X60959Y13808D01*
X60958Y13806D01*
X60957Y13804D01*
X60954Y13801D01*
X60951Y13797D01*
X60947Y13794D01*
X60941Y13792D01*
X60938Y13792D01*
X60935Y13792D01*
X60919D01*
Y13791D01*
X60919Y13791D01*
X60918Y13790D01*
X60918Y13788D01*
X60916Y13785D01*
X60913Y13780D01*
X60909Y13775D01*
X60904Y13769D01*
X60898Y13764D01*
X60895Y13762D01*
X60891Y13760D01*
X60891D01*
X60890Y13760D01*
X60888Y13759D01*
X60885Y13758D01*
X60881Y13757D01*
X60876Y13755D01*
X60871Y13754D01*
X60865Y13753D01*
X60858Y13753D01*
X60759D01*
X60757Y13753D01*
X60755Y13754D01*
X60752Y13754D01*
X60746Y13756D01*
X60739Y13758D01*
X60736Y13760D01*
X60734Y13762D01*
X60732Y13764D01*
X60730Y13767D01*
X60729Y13771D01*
X60729Y13775D01*
Y13775D01*
Y13776D01*
X60729Y13778D01*
Y13780D01*
X60730Y13782D01*
X60730Y13785D01*
X60731Y13788D01*
X60732Y13791D01*
X60749Y13844D01*
X60666Y13773D01*
X60666Y13773D01*
X60665Y13772D01*
X60664Y13771D01*
X60661Y13770D01*
X60659Y13769D01*
X60656Y13767D01*
X60653Y13765D01*
X60650Y13763D01*
X60642Y13760D01*
X60634Y13756D01*
X60630Y13755D01*
X60626Y13754D01*
X60622Y13753D01*
X60619Y13753D01*
X60575D01*
X60584Y13782D01*
X60584Y13781D01*
X60581Y13776D01*
X60577Y13771D01*
X60574Y13769D01*
X60572Y13766D01*
X60569Y13764D01*
X60565Y13762D01*
X60565D01*
X60565Y13762D01*
X60564Y13761D01*
X60562Y13761D01*
X60559Y13759D01*
X60554Y13758D01*
X60549Y13756D01*
X60543Y13754D01*
X60536Y13753D01*
X60529Y13753D01*
X60326D01*
X60323Y13753D01*
X60319D01*
X60314Y13754D01*
X60309Y13754D01*
X60304Y13755D01*
X60298Y13756D01*
X60292Y13757D01*
X60280Y13759D01*
X60267Y13763D01*
X60261Y13765D01*
X60255Y13768D01*
X60254Y13768D01*
X60253Y13769D01*
X60251Y13770D01*
X60248Y13772D01*
X60245Y13774D01*
X60242Y13776D01*
X60239Y13780D01*
X60235Y13783D01*
X60231Y13787D01*
X60228Y13791D01*
X60224Y13796D01*
X60222Y13802D01*
X60219Y13807D01*
X60217Y13814D01*
X60216Y13820D01*
X60215Y13827D01*
Y13828D01*
Y13829D01*
X60216Y13832D01*
X60216Y13835D01*
X60217Y13839D01*
X60218Y13843D01*
X60219Y13848D01*
X60221Y13853D01*
X60223Y13859D01*
X60226Y13866D01*
X60229Y13872D01*
X60233Y13879D01*
X60238Y13886D01*
X60244Y13892D01*
X60251Y13899D01*
X60258Y13906D01*
X60259Y13906D01*
X60260Y13907D01*
X60262Y13909D01*
X60264Y13911D01*
X60268Y13913D01*
X60272Y13916D01*
X60277Y13919D01*
X60282Y13922D01*
X60288Y13926D01*
X60294Y13929D01*
X60301Y13932D01*
X60308Y13936D01*
X60316Y13939D01*
X60324Y13943D01*
X60333Y13946D01*
X60342Y13948D01*
Y13949D01*
X60341Y13949D01*
X60340Y13951D01*
X60339Y13953D01*
X60338Y13956D01*
X60337Y13959D01*
X60336Y13963D01*
X60335Y13966D01*
X60332Y13975D01*
X60330Y13984D01*
X60328Y13993D01*
X60328Y14003D01*
Y14004D01*
Y14005D01*
X60328Y14008D01*
X60328Y14011D01*
X60329Y14015D01*
X60330Y14019D01*
X60332Y14024D01*
X60334Y14030D01*
X60337Y14035D01*
X60340Y14041D01*
X60344Y14047D01*
X60349Y14053D01*
X60354Y14059D01*
X60361Y14064D01*
X60368Y14070D01*
X60377Y14074D01*
X60378Y14074D01*
X60379Y14075D01*
X60381Y14076D01*
X60384Y14077D01*
X60388Y14078D01*
X60392Y14080D01*
X60397Y14082D01*
X60403Y14084D01*
X60409Y14085D01*
X60417Y14087D01*
X60424Y14089D01*
X60432Y14090D01*
X60441Y14091D01*
X60450Y14092D01*
X60459Y14092D01*
X60469Y14093D01*
X60545D01*
X60547Y14092D01*
D02*
G37*
G36*
X61299Y14074D02*
X61301Y14073D01*
X61304Y14073D01*
X61310Y14072D01*
X61317Y14070D01*
X61325Y14067D01*
X61329Y14065D01*
X61332Y14063D01*
X61336Y14060D01*
X61340Y14057D01*
X61340Y14057D01*
X61341Y14056D01*
X61341Y14055D01*
X61343Y14054D01*
X61344Y14052D01*
X61346Y14051D01*
X61349Y14046D01*
X61353Y14040D01*
X61356Y14032D01*
X61357Y14029D01*
X61358Y14025D01*
X61358Y14020D01*
X61359Y14016D01*
Y14016D01*
Y14015D01*
Y14014D01*
X61358Y14012D01*
X61358Y14010D01*
X61358Y14008D01*
X61356Y14002D01*
X61354Y13995D01*
X61352Y13992D01*
X61351Y13989D01*
X61349Y13985D01*
X61346Y13982D01*
X61343Y13978D01*
X61340Y13975D01*
X61339Y13975D01*
X61339Y13974D01*
X61338Y13973D01*
X61336Y13972D01*
X61334Y13971D01*
X61332Y13970D01*
X61330Y13968D01*
X61327Y13967D01*
X61321Y13964D01*
X61313Y13961D01*
X61304Y13959D01*
X61300Y13959D01*
X61295Y13958D01*
X61292D01*
X61290Y13959D01*
X61288Y13959D01*
X61285Y13959D01*
X61279Y13960D01*
X61272Y13962D01*
X61265Y13966D01*
X61261Y13967D01*
X61257Y13969D01*
X61253Y13972D01*
X61249Y13975D01*
X61249Y13975D01*
X61249Y13976D01*
X61248Y13977D01*
X61247Y13978D01*
X61245Y13980D01*
X61244Y13982D01*
X61240Y13987D01*
X61237Y13992D01*
X61234Y14000D01*
X61232Y14003D01*
X61231Y14008D01*
X61231Y14012D01*
X61231Y14016D01*
Y14016D01*
Y14017D01*
Y14018D01*
X61231Y14020D01*
X61231Y14022D01*
X61232Y14025D01*
X61233Y14030D01*
X61235Y14037D01*
X61237Y14040D01*
X61239Y14044D01*
X61241Y14047D01*
X61243Y14051D01*
X61246Y14054D01*
X61249Y14057D01*
X61250Y14057D01*
X61250Y14058D01*
X61251Y14059D01*
X61253Y14060D01*
X61255Y14061D01*
X61257Y14062D01*
X61259Y14064D01*
X61262Y14066D01*
X61269Y14069D01*
X61276Y14072D01*
X61285Y14073D01*
X61290Y14074D01*
X61295Y14074D01*
X61297D01*
X61299Y14074D01*
D02*
G37*
G36*
X57870Y14074D02*
X57873Y14073D01*
X57875Y14073D01*
X57882Y14072D01*
X57889Y14070D01*
X57896Y14067D01*
X57900Y14065D01*
X57904Y14063D01*
X57907Y14060D01*
X57911Y14057D01*
X57911Y14057D01*
X57912Y14056D01*
X57913Y14055D01*
X57914Y14054D01*
X57915Y14052D01*
X57917Y14051D01*
X57921Y14046D01*
X57924Y14040D01*
X57927Y14032D01*
X57928Y14029D01*
X57929Y14025D01*
X57930Y14020D01*
X57930Y14016D01*
Y14016D01*
Y14015D01*
Y14014D01*
X57930Y14012D01*
X57929Y14010D01*
X57929Y14008D01*
X57928Y14002D01*
X57926Y13995D01*
X57924Y13992D01*
X57922Y13989D01*
X57920Y13985D01*
X57917Y13982D01*
X57914Y13978D01*
X57911Y13975D01*
X57911Y13975D01*
X57910Y13974D01*
X57909Y13973D01*
X57908Y13972D01*
X57906Y13971D01*
X57904Y13970D01*
X57901Y13968D01*
X57899Y13967D01*
X57892Y13964D01*
X57884Y13961D01*
X57876Y13959D01*
X57871Y13959D01*
X57866Y13958D01*
X57864D01*
X57862Y13959D01*
X57860Y13959D01*
X57857Y13959D01*
X57850Y13960D01*
X57844Y13962D01*
X57836Y13966D01*
X57832Y13967D01*
X57828Y13969D01*
X57824Y13972D01*
X57821Y13975D01*
X57821Y13975D01*
X57820Y13976D01*
X57819Y13977D01*
X57818Y13978D01*
X57817Y13980D01*
X57815Y13982D01*
X57812Y13987D01*
X57808Y13992D01*
X57805Y14000D01*
X57804Y14003D01*
X57803Y14008D01*
X57803Y14012D01*
X57802Y14016D01*
Y14016D01*
Y14017D01*
Y14018D01*
X57803Y14020D01*
X57803Y14022D01*
X57803Y14025D01*
X57804Y14030D01*
X57807Y14037D01*
X57808Y14040D01*
X57810Y14044D01*
X57812Y14047D01*
X57815Y14051D01*
X57818Y14054D01*
X57821Y14057D01*
X57821Y14057D01*
X57822Y14058D01*
X57823Y14059D01*
X57824Y14060D01*
X57826Y14061D01*
X57828Y14062D01*
X57831Y14064D01*
X57834Y14066D01*
X57840Y14069D01*
X57848Y14072D01*
X57857Y14073D01*
X57861Y14074D01*
X57866Y14074D01*
X57869D01*
X57870Y14074D01*
D02*
G37*
G36*
X62170Y13917D02*
X62173D01*
X62177Y13917D01*
X62180Y13916D01*
X62189Y13915D01*
X62198Y13913D01*
X62207Y13911D01*
X62216Y13908D01*
X62216D01*
X62217Y13907D01*
X62219Y13907D01*
X62221Y13906D01*
X62223Y13904D01*
X62226Y13903D01*
X62232Y13898D01*
X62238Y13893D01*
X62240Y13890D01*
X62243Y13887D01*
X62245Y13883D01*
X62247Y13879D01*
X62248Y13874D01*
X62249Y13870D01*
Y13869D01*
Y13869D01*
Y13867D01*
X62248Y13866D01*
X62248Y13863D01*
X62248Y13861D01*
X62246Y13855D01*
X62245Y13851D01*
X62243Y13848D01*
X62241Y13844D01*
X62238Y13841D01*
X62235Y13837D01*
X62232Y13834D01*
X62228Y13830D01*
X62224Y13827D01*
X62144D01*
X62170Y13879D01*
X62119D01*
X62099Y13820D01*
Y13820D01*
X62099Y13819D01*
X62098Y13819D01*
Y13817D01*
X62098Y13814D01*
X62097Y13811D01*
Y13811D01*
Y13810D01*
X62098Y13809D01*
X62098Y13808D01*
X62099Y13805D01*
X62100Y13803D01*
X62101Y13802D01*
X62103Y13800D01*
X62105Y13798D01*
X62108Y13796D01*
X62110Y13795D01*
X62114Y13793D01*
X62118Y13793D01*
X62123Y13792D01*
X62129Y13792D01*
X62317D01*
Y13791D01*
X62317Y13791D01*
X62316Y13790D01*
X62316Y13789D01*
X62314Y13785D01*
X62312Y13781D01*
X62309Y13776D01*
X62305Y13771D01*
X62300Y13766D01*
X62294Y13762D01*
X62293D01*
X62293Y13762D01*
X62292Y13761D01*
X62291Y13761D01*
X62288Y13759D01*
X62283Y13758D01*
X62278Y13756D01*
X62272Y13754D01*
X62264Y13753D01*
X62257Y13753D01*
X62117D01*
X62115Y13753D01*
X62111D01*
X62108Y13754D01*
X62104Y13754D01*
X62100Y13755D01*
X62095Y13755D01*
X62085Y13757D01*
X62075Y13759D01*
X62064Y13762D01*
X62053Y13765D01*
X62042Y13770D01*
X62032Y13776D01*
X62028Y13779D01*
X62024Y13783D01*
X62020Y13787D01*
X62016Y13791D01*
X62013Y13795D01*
X62010Y13800D01*
X62008Y13805D01*
X62006Y13811D01*
X62006Y13817D01*
X62005Y13824D01*
Y13824D01*
Y13826D01*
X62006Y13828D01*
X62006Y13831D01*
X62006Y13835D01*
X62007Y13839D01*
X62008Y13844D01*
X62010Y13849D01*
X62012Y13855D01*
X62015Y13861D01*
X62018Y13867D01*
X62022Y13873D01*
X62027Y13879D01*
X62032Y13885D01*
X62038Y13890D01*
X62045Y13895D01*
X62046Y13895D01*
X62047Y13896D01*
X62049Y13897D01*
X62051Y13899D01*
X62055Y13900D01*
X62059Y13902D01*
X62063Y13904D01*
X62068Y13906D01*
X62074Y13908D01*
X62080Y13910D01*
X62087Y13912D01*
X62094Y13914D01*
X62102Y13915D01*
X62110Y13916D01*
X62118Y13917D01*
X62127Y13917D01*
X62168D01*
X62170Y13917D01*
D02*
G37*
G36*
X59117Y13792D02*
X59218D01*
Y13791D01*
X59217Y13790D01*
X59217Y13788D01*
X59215Y13786D01*
X59214Y13783D01*
X59212Y13780D01*
X59209Y13776D01*
X59206Y13772D01*
X59202Y13769D01*
X59198Y13765D01*
X59193Y13762D01*
X59188Y13759D01*
X59181Y13757D01*
X59175Y13755D01*
X59167Y13753D01*
X59158Y13753D01*
X59065D01*
X59063Y13753D01*
X59060D01*
X59057Y13754D01*
X59054Y13754D01*
X59046Y13756D01*
X59043Y13758D01*
X59039Y13759D01*
X59036Y13761D01*
X59033Y13764D01*
X59031Y13766D01*
X59029Y13770D01*
X59028Y13774D01*
X59027Y13778D01*
X59027Y13778D01*
X59026Y13777D01*
X59025Y13775D01*
X59022Y13773D01*
X59020Y13771D01*
X59016Y13768D01*
X59013Y13765D01*
X59008Y13763D01*
X59004Y13760D01*
X58998Y13757D01*
X58992Y13754D01*
X58986Y13752D01*
X58979Y13750D01*
X58972Y13748D01*
X58964Y13747D01*
X58956Y13747D01*
X58953D01*
X58951Y13747D01*
X58949Y13748D01*
X58946Y13748D01*
X58942Y13748D01*
X58939Y13749D01*
X58931Y13751D01*
X58924Y13754D01*
X58920Y13756D01*
X58916Y13758D01*
X58912Y13761D01*
X58909Y13764D01*
X58908Y13764D01*
X58908Y13764D01*
X58907Y13765D01*
X58906Y13766D01*
X58904Y13768D01*
X58903Y13770D01*
X58901Y13773D01*
X58899Y13776D01*
X58897Y13779D01*
X58896Y13782D01*
X58894Y13786D01*
X58893Y13785D01*
X58891Y13781D01*
X58888Y13776D01*
X58884Y13771D01*
X58879Y13766D01*
X58873Y13762D01*
X58872D01*
X58872Y13762D01*
X58871Y13761D01*
X58870Y13761D01*
X58867Y13759D01*
X58862Y13758D01*
X58857Y13756D01*
X58850Y13754D01*
X58843Y13753D01*
X58836Y13753D01*
X58696D01*
X58694Y13753D01*
X58690D01*
X58687Y13754D01*
X58683Y13754D01*
X58679Y13755D01*
X58674Y13755D01*
X58664Y13757D01*
X58654Y13759D01*
X58643Y13762D01*
X58632Y13765D01*
X58621Y13770D01*
X58611Y13776D01*
X58607Y13779D01*
X58603Y13783D01*
X58599Y13787D01*
X58595Y13790D01*
X58595Y13790D01*
X58594Y13788D01*
X58592Y13785D01*
X58590Y13780D01*
X58586Y13775D01*
X58581Y13769D01*
X58575Y13764D01*
X58572Y13762D01*
X58568Y13760D01*
X58567D01*
X58567Y13760D01*
X58565Y13759D01*
X58562Y13758D01*
X58558Y13757D01*
X58553Y13755D01*
X58547Y13754D01*
X58541Y13753D01*
X58535Y13753D01*
X58436D01*
X58434Y13753D01*
X58431Y13754D01*
X58428Y13754D01*
X58422Y13756D01*
X58416Y13758D01*
X58413Y13760D01*
X58411Y13762D01*
X58409Y13764D01*
X58407Y13767D01*
X58406Y13771D01*
X58406Y13775D01*
Y13775D01*
Y13776D01*
X58406Y13778D01*
Y13780D01*
X58406Y13782D01*
X58407Y13785D01*
X58408Y13788D01*
X58409Y13791D01*
X58425Y13844D01*
X58343Y13773D01*
X58343Y13773D01*
X58342Y13772D01*
X58340Y13771D01*
X58338Y13770D01*
X58336Y13769D01*
X58333Y13767D01*
X58330Y13765D01*
X58326Y13763D01*
X58319Y13760D01*
X58311Y13756D01*
X58307Y13755D01*
X58303Y13754D01*
X58299Y13753D01*
X58295Y13753D01*
X58252D01*
X58260Y13778D01*
X58258Y13776D01*
X58254Y13772D01*
X58250Y13769D01*
X58245Y13765D01*
X58238Y13762D01*
X58232Y13759D01*
X58224Y13757D01*
X58215Y13755D01*
X58205Y13753D01*
X58194Y13753D01*
X58150D01*
X58150Y13752D01*
X58149Y13750D01*
X58148Y13747D01*
X58146Y13743D01*
X58144Y13739D01*
X58142Y13733D01*
X58140Y13727D01*
X58137Y13721D01*
X58131Y13707D01*
X58123Y13693D01*
X58120Y13686D01*
X58116Y13680D01*
X58112Y13674D01*
X58108Y13669D01*
X58108Y13668D01*
X58107Y13667D01*
X58105Y13665D01*
X58102Y13663D01*
X58099Y13660D01*
X58096Y13657D01*
X58091Y13653D01*
X58087Y13650D01*
X58081Y13646D01*
X58075Y13642D01*
X58069Y13639D01*
X58062Y13636D01*
X58055Y13634D01*
X58047Y13632D01*
X58039Y13631D01*
X58030Y13630D01*
X58028D01*
X58026Y13631D01*
X58024D01*
X58021Y13631D01*
X58015Y13632D01*
X58008Y13634D01*
X58001Y13637D01*
X57994Y13641D01*
X57991Y13643D01*
X57988Y13646D01*
X57988Y13646D01*
X57987Y13646D01*
X57987Y13647D01*
X57986Y13648D01*
X57984Y13650D01*
X57983Y13652D01*
X57980Y13657D01*
X57977Y13662D01*
X57975Y13670D01*
X57973Y13678D01*
X57972Y13682D01*
X57972Y13687D01*
Y13688D01*
Y13690D01*
X57972Y13692D01*
Y13696D01*
X57973Y13700D01*
X57974Y13705D01*
X57975Y13710D01*
X57976Y13716D01*
X57978Y13721D01*
X57980Y13727D01*
X57982Y13733D01*
X57985Y13738D01*
X57988Y13743D01*
X57992Y13748D01*
X57997Y13752D01*
X58003Y13755D01*
X58002D01*
X58002Y13755D01*
X58000Y13756D01*
X57999Y13756D01*
X57997Y13757D01*
X57995Y13758D01*
X57989Y13760D01*
X57984Y13763D01*
X57977Y13766D01*
X57971Y13771D01*
X57965Y13776D01*
X57965Y13776D01*
X57965Y13777D01*
X57964Y13778D01*
X57963Y13779D01*
X57961Y13781D01*
X57960Y13783D01*
X57957Y13788D01*
X57953Y13794D01*
X57951Y13802D01*
X57949Y13810D01*
X57948Y13814D01*
X57948Y13819D01*
Y13819D01*
Y13821D01*
X57948Y13823D01*
Y13826D01*
X57949Y13828D01*
X57949Y13832D01*
X57951Y13840D01*
Y13840D01*
X57952Y13842D01*
X57952Y13844D01*
X57953Y13846D01*
X57955Y13850D01*
X57956Y13853D01*
X57958Y13858D01*
X57961Y13862D01*
X57963Y13867D01*
X57967Y13872D01*
X57970Y13877D01*
X57974Y13882D01*
X57979Y13887D01*
X57984Y13891D01*
X57989Y13895D01*
X57995Y13899D01*
X57996Y13900D01*
X57997Y13900D01*
X57998Y13901D01*
X58001Y13902D01*
X58004Y13904D01*
X58007Y13905D01*
X58011Y13907D01*
X58016Y13908D01*
X58021Y13910D01*
X58026Y13912D01*
X58032Y13913D01*
X58038Y13914D01*
X58045Y13916D01*
X58052Y13917D01*
X58060Y13917D01*
X58068Y13917D01*
X58202D01*
X58157Y13792D01*
X58264D01*
X58303Y13917D01*
X58389D01*
X58363Y13835D01*
X58438Y13899D01*
X58438Y13899D01*
X58439Y13900D01*
X58441Y13901D01*
X58443Y13903D01*
X58446Y13905D01*
X58449Y13907D01*
X58453Y13909D01*
X58458Y13912D01*
X58462Y13914D01*
X58467Y13916D01*
X58473Y13918D01*
X58478Y13920D01*
X58484Y13922D01*
X58490Y13923D01*
X58497Y13924D01*
X58504D01*
X58506Y13924D01*
X58507Y13923D01*
X58511Y13922D01*
X58516Y13921D01*
X58518Y13919D01*
X58520Y13917D01*
X58522Y13915D01*
X58524Y13913D01*
X58525Y13910D01*
X58526Y13907D01*
X58527Y13904D01*
X58527Y13899D01*
Y13899D01*
Y13898D01*
X58527Y13896D01*
Y13893D01*
X58526Y13891D01*
X58526Y13887D01*
X58525Y13884D01*
X58523Y13880D01*
X58496Y13792D01*
X58594D01*
X58592Y13795D01*
X58589Y13800D01*
X58587Y13805D01*
X58585Y13811D01*
X58584Y13817D01*
X58584Y13824D01*
Y13824D01*
Y13826D01*
X58584Y13828D01*
X58585Y13831D01*
X58585Y13835D01*
X58586Y13839D01*
X58587Y13844D01*
X58589Y13849D01*
X58591Y13855D01*
X58594Y13861D01*
X58597Y13867D01*
X58601Y13873D01*
X58605Y13879D01*
X58611Y13885D01*
X58617Y13890D01*
X58624Y13895D01*
X58624Y13895D01*
X58626Y13896D01*
X58628Y13897D01*
X58630Y13899D01*
X58634Y13900D01*
X58638Y13902D01*
X58642Y13904D01*
X58647Y13906D01*
X58653Y13908D01*
X58659Y13910D01*
X58666Y13912D01*
X58673Y13914D01*
X58681Y13915D01*
X58689Y13916D01*
X58697Y13917D01*
X58706Y13917D01*
X58747D01*
X58749Y13917D01*
X58752D01*
X58756Y13917D01*
X58759Y13916D01*
X58768Y13915D01*
X58777Y13913D01*
X58786Y13911D01*
X58795Y13908D01*
X58795D01*
X58796Y13907D01*
X58798Y13907D01*
X58800Y13906D01*
X58802Y13904D01*
X58805Y13903D01*
X58811Y13898D01*
X58817Y13893D01*
X58819Y13890D01*
X58822Y13887D01*
X58824Y13883D01*
X58826Y13879D01*
X58827Y13874D01*
X58828Y13870D01*
Y13869D01*
Y13869D01*
Y13867D01*
X58827Y13866D01*
X58827Y13863D01*
X58827Y13861D01*
X58825Y13855D01*
X58824Y13851D01*
X58822Y13848D01*
X58820Y13844D01*
X58817Y13841D01*
X58814Y13837D01*
X58811Y13834D01*
X58807Y13830D01*
X58803Y13827D01*
X58723D01*
X58749Y13879D01*
X58698D01*
X58678Y13820D01*
Y13820D01*
X58678Y13819D01*
X58677Y13819D01*
Y13817D01*
X58677Y13814D01*
X58676Y13811D01*
Y13811D01*
Y13810D01*
X58677Y13809D01*
X58677Y13808D01*
X58678Y13805D01*
X58679Y13803D01*
X58680Y13802D01*
X58682Y13800D01*
X58684Y13798D01*
X58686Y13796D01*
X58689Y13795D01*
X58693Y13793D01*
X58697Y13793D01*
X58702Y13792D01*
X58707Y13792D01*
X58892Y13792D01*
X58891Y13794D01*
X58890Y13799D01*
X58890Y13804D01*
X58890Y13809D01*
Y13810D01*
Y13811D01*
X58890Y13814D01*
X58890Y13818D01*
X58891Y13822D01*
X58892Y13827D01*
X58893Y13833D01*
X58895Y13839D01*
X58897Y13846D01*
X58900Y13852D01*
X58903Y13859D01*
X58907Y13866D01*
X58912Y13873D01*
X58917Y13879D01*
X58924Y13886D01*
X58931Y13891D01*
X58931Y13892D01*
X58932Y13892D01*
X58934Y13894D01*
X58937Y13895D01*
X58941Y13897D01*
X58945Y13900D01*
X58950Y13902D01*
X58956Y13905D01*
X58962Y13907D01*
X58969Y13909D01*
X58976Y13911D01*
X58984Y13913D01*
X58993Y13915D01*
X59001Y13916D01*
X59011Y13917D01*
X59020Y13917D01*
X59069D01*
X59109Y14045D01*
X59196D01*
X59117Y13792D01*
D02*
G37*
G36*
X57633Y13992D02*
X57635Y13991D01*
X57638Y13991D01*
X57641Y13990D01*
X57644Y13989D01*
X57648Y13987D01*
X57652Y13985D01*
X57656Y13983D01*
X57659Y13980D01*
X57663Y13977D01*
X57666Y13974D01*
X57668Y13970D01*
X57670Y13966D01*
X57672Y13961D01*
X57672Y13956D01*
Y13955D01*
Y13955D01*
Y13954D01*
Y13953D01*
X57671Y13949D01*
X57671Y13945D01*
X57669Y13940D01*
X57668Y13935D01*
X57665Y13929D01*
X57661Y13924D01*
Y13923D01*
X57662Y13923D01*
X57662Y13921D01*
X57663Y13920D01*
X57664Y13917D01*
X57665Y13915D01*
X57666Y13912D01*
X57667Y13909D01*
X57670Y13902D01*
X57673Y13894D01*
X57676Y13885D01*
X57680Y13876D01*
Y13876D01*
X57680Y13875D01*
X57681Y13873D01*
X57681Y13871D01*
X57682Y13869D01*
X57683Y13866D01*
X57684Y13862D01*
X57685Y13859D01*
X57687Y13851D01*
X57689Y13843D01*
X57690Y13835D01*
X57691Y13827D01*
Y13827D01*
Y13826D01*
Y13825D01*
X57690Y13824D01*
X57690Y13822D01*
X57690Y13820D01*
X57689Y13815D01*
X57687Y13809D01*
X57684Y13803D01*
X57682Y13800D01*
X57680Y13797D01*
X57677Y13794D01*
X57674Y13792D01*
X57768D01*
X57768Y13793D01*
X57770Y13800D01*
X57807Y13917D01*
X57893D01*
X57854Y13792D01*
X57954D01*
Y13791D01*
X57954Y13791D01*
X57953Y13790D01*
X57953Y13788D01*
X57951Y13785D01*
X57948Y13780D01*
X57945Y13775D01*
X57940Y13769D01*
X57935Y13764D01*
X57928Y13760D01*
X57927Y13760D01*
X57925Y13759D01*
X57922Y13758D01*
X57919Y13757D01*
X57914Y13755D01*
X57909Y13754D01*
X57903Y13753D01*
X57897Y13753D01*
X57800D01*
X57798Y13753D01*
X57796D01*
X57794Y13754D01*
X57791Y13755D01*
X57787Y13755D01*
X57784Y13757D01*
X57781Y13758D01*
X57778Y13760D01*
X57775Y13763D01*
X57772Y13765D01*
X57770Y13768D01*
X57769Y13772D01*
X57767Y13777D01*
X57767Y13781D01*
X57765Y13778D01*
X57762Y13773D01*
X57760Y13771D01*
X57758Y13768D01*
X57755Y13766D01*
X57752Y13764D01*
X57751D01*
X57751Y13764D01*
X57750Y13763D01*
X57749Y13763D01*
X57745Y13761D01*
X57741Y13759D01*
X57735Y13757D01*
X57728Y13755D01*
X57721Y13753D01*
X57714Y13753D01*
X57528D01*
X57525Y13753D01*
X57522Y13754D01*
X57518Y13754D01*
X57514Y13755D01*
X57509Y13756D01*
X57504Y13757D01*
X57499Y13759D01*
X57494Y13761D01*
X57490Y13764D01*
X57486Y13766D01*
X57482Y13770D01*
X57480Y13775D01*
X57478Y13780D01*
X57477Y13785D01*
X57475Y13781D01*
X57472Y13776D01*
X57468Y13771D01*
X57463Y13766D01*
X57457Y13762D01*
X57456D01*
X57456Y13762D01*
X57455Y13761D01*
X57454Y13761D01*
X57451Y13759D01*
X57446Y13758D01*
X57441Y13756D01*
X57435Y13754D01*
X57427Y13753D01*
X57420Y13753D01*
X57280D01*
X57278Y13753D01*
X57274D01*
X57271Y13754D01*
X57267Y13754D01*
X57263Y13755D01*
X57258Y13755D01*
X57248Y13757D01*
X57238Y13759D01*
X57227Y13762D01*
X57216Y13765D01*
X57205Y13770D01*
X57195Y13776D01*
X57191Y13779D01*
X57187Y13783D01*
X57183Y13787D01*
X57179Y13791D01*
X57176Y13795D01*
X57173Y13800D01*
X57171Y13805D01*
X57169Y13811D01*
X57168Y13817D01*
X57168Y13824D01*
Y13824D01*
Y13826D01*
X57168Y13828D01*
X57169Y13831D01*
X57169Y13835D01*
X57170Y13839D01*
X57171Y13844D01*
X57173Y13849D01*
X57175Y13855D01*
X57178Y13861D01*
X57181Y13867D01*
X57185Y13873D01*
X57189Y13879D01*
X57195Y13885D01*
X57201Y13890D01*
X57208Y13895D01*
X57209Y13895D01*
X57210Y13896D01*
X57212Y13897D01*
X57214Y13899D01*
X57218Y13900D01*
X57222Y13902D01*
X57226Y13904D01*
X57231Y13906D01*
X57237Y13908D01*
X57243Y13910D01*
X57250Y13912D01*
X57257Y13914D01*
X57265Y13915D01*
X57273Y13916D01*
X57281Y13917D01*
X57290Y13917D01*
X57331D01*
X57333Y13917D01*
X57336D01*
X57340Y13917D01*
X57343Y13916D01*
X57352Y13915D01*
X57361Y13913D01*
X57370Y13911D01*
X57379Y13908D01*
X57379D01*
X57380Y13907D01*
X57382Y13907D01*
X57384Y13906D01*
X57386Y13904D01*
X57389Y13903D01*
X57395Y13898D01*
X57401Y13893D01*
X57403Y13890D01*
X57406Y13887D01*
X57408Y13883D01*
X57410Y13879D01*
X57411Y13874D01*
X57412Y13870D01*
Y13869D01*
Y13869D01*
Y13867D01*
X57411Y13866D01*
X57411Y13863D01*
X57411Y13861D01*
X57409Y13855D01*
X57408Y13851D01*
X57406Y13848D01*
X57404Y13844D01*
X57401Y13841D01*
X57398Y13837D01*
X57395Y13834D01*
X57391Y13830D01*
X57387Y13827D01*
X57307D01*
X57333Y13879D01*
X57282D01*
X57262Y13820D01*
Y13820D01*
X57262Y13819D01*
X57261Y13819D01*
Y13817D01*
X57261Y13814D01*
X57260Y13811D01*
Y13811D01*
Y13810D01*
X57261Y13809D01*
X57261Y13808D01*
X57262Y13805D01*
X57263Y13803D01*
X57264Y13802D01*
X57266Y13800D01*
X57268Y13798D01*
X57270Y13796D01*
X57273Y13795D01*
X57277Y13793D01*
X57281Y13793D01*
X57286Y13792D01*
X57291Y13792D01*
X57478D01*
Y13792D01*
X57478Y13794D01*
X57479Y13797D01*
X57481Y13800D01*
X57482Y13804D01*
X57485Y13807D01*
X57489Y13811D01*
X57493Y13814D01*
X57494Y13814D01*
X57495Y13815D01*
X57498Y13816D01*
X57501Y13818D01*
X57505Y13819D01*
X57509Y13820D01*
X57514Y13821D01*
X57520Y13821D01*
X57521D01*
X57522Y13821D01*
X57525Y13820D01*
X57527Y13820D01*
X57530Y13819D01*
X57534Y13818D01*
X57538Y13817D01*
X57543Y13815D01*
X57548Y13813D01*
X57554Y13811D01*
X57560Y13808D01*
X57567Y13805D01*
X57575Y13801D01*
X57582Y13797D01*
X57591Y13792D01*
Y13792D01*
X57591Y13793D01*
X57593Y13795D01*
X57595Y13798D01*
X57597Y13802D01*
X57599Y13807D01*
X57601Y13812D01*
X57603Y13818D01*
X57603Y13824D01*
Y13825D01*
Y13826D01*
X57603Y13828D01*
X57602Y13830D01*
X57602Y13832D01*
X57601Y13834D01*
X57601Y13837D01*
X57600Y13840D01*
X57599Y13844D01*
X57598Y13847D01*
X57597Y13852D01*
X57595Y13857D01*
X57593Y13862D01*
X57566Y13837D01*
X57517D01*
X57581Y13896D01*
X57581Y13897D01*
X57581Y13898D01*
X57580Y13899D01*
X57579Y13901D01*
X57577Y13905D01*
X57576Y13909D01*
Y13909D01*
X57575Y13910D01*
X57575Y13912D01*
X57574Y13915D01*
X57573Y13918D01*
X57573Y13921D01*
X57572Y13925D01*
Y13929D01*
X57632Y13992D01*
X57632D01*
X57633Y13992D01*
D02*
G37*
G36*
X64204Y13792D02*
X64307D01*
Y13791D01*
X64307Y13791D01*
X64306Y13790D01*
X64306Y13788D01*
X64304Y13785D01*
X64301Y13780D01*
X64298Y13775D01*
X64293Y13769D01*
X64290Y13767D01*
X64287Y13764D01*
X64283Y13762D01*
X64279Y13760D01*
X64279D01*
X64279Y13760D01*
X64277Y13759D01*
X64273Y13758D01*
X64269Y13757D01*
X64264Y13755D01*
X64259Y13754D01*
X64253Y13753D01*
X64246Y13753D01*
X64152D01*
X64150Y13753D01*
X64148D01*
X64145Y13754D01*
X64142Y13754D01*
X64136Y13756D01*
X64133Y13757D01*
X64129Y13759D01*
X64126Y13761D01*
X64124Y13763D01*
X64121Y13766D01*
X64120Y13769D01*
X64118Y13773D01*
X64118Y13777D01*
Y13778D01*
Y13778D01*
Y13780D01*
X64118Y13782D01*
X64119Y13784D01*
X64119Y13784D01*
X64116Y13780D01*
X64113Y13775D01*
X64108Y13769D01*
X64105Y13767D01*
X64102Y13764D01*
X64098Y13762D01*
X64094Y13760D01*
X64094D01*
X64094Y13760D01*
X64092Y13759D01*
X64088Y13758D01*
X64084Y13757D01*
X64079Y13755D01*
X64074Y13754D01*
X64068Y13753D01*
X64061Y13753D01*
X63967D01*
X63965Y13753D01*
X63963D01*
X63960Y13754D01*
X63957Y13754D01*
X63951Y13756D01*
X63948Y13757D01*
X63944Y13759D01*
X63941Y13761D01*
X63939Y13763D01*
X63936Y13766D01*
X63935Y13769D01*
X63933Y13773D01*
X63933Y13777D01*
Y13778D01*
Y13778D01*
Y13780D01*
X63933Y13782D01*
X63934Y13784D01*
X63934Y13786D01*
X63934Y13786D01*
X63934Y13785D01*
X63932Y13781D01*
X63929Y13776D01*
X63924Y13771D01*
X63919Y13766D01*
X63913Y13762D01*
X63913D01*
X63913Y13762D01*
X63912Y13761D01*
X63910Y13761D01*
X63907Y13759D01*
X63903Y13758D01*
X63897Y13756D01*
X63891Y13754D01*
X63884Y13753D01*
X63876Y13753D01*
X63737D01*
X63734Y13753D01*
X63731D01*
X63727Y13754D01*
X63723Y13754D01*
X63719Y13755D01*
X63714Y13755D01*
X63705Y13757D01*
X63694Y13759D01*
X63683Y13762D01*
X63672Y13765D01*
X63662Y13770D01*
X63652Y13776D01*
X63647Y13779D01*
X63643Y13783D01*
X63639Y13787D01*
X63635Y13791D01*
X63632Y13795D01*
X63629Y13800D01*
X63627Y13805D01*
X63626Y13811D01*
X63625Y13817D01*
X63625Y13824D01*
Y13824D01*
Y13826D01*
X63625Y13828D01*
X63625Y13831D01*
X63626Y13835D01*
X63626Y13839D01*
X63628Y13844D01*
X63629Y13849D01*
X63632Y13855D01*
X63634Y13861D01*
X63638Y13867D01*
X63642Y13873D01*
X63646Y13879D01*
X63651Y13885D01*
X63658Y13890D01*
X63665Y13895D01*
X63665Y13895D01*
X63666Y13896D01*
X63668Y13897D01*
X63671Y13899D01*
X63674Y13900D01*
X63678Y13902D01*
X63683Y13904D01*
X63688Y13906D01*
X63693Y13908D01*
X63700Y13910D01*
X63707Y13912D01*
X63714Y13914D01*
X63721Y13915D01*
X63729Y13916D01*
X63738Y13917D01*
X63747Y13917D01*
X63787D01*
X63790Y13917D01*
X63792D01*
X63796Y13917D01*
X63800Y13916D01*
X63808Y13915D01*
X63817Y13913D01*
X63827Y13911D01*
X63835Y13908D01*
X63836D01*
X63837Y13907D01*
X63838Y13907D01*
X63840Y13906D01*
X63843Y13904D01*
X63845Y13903D01*
X63851Y13898D01*
X63857Y13893D01*
X63860Y13890D01*
X63862Y13887D01*
X63864Y13883D01*
X63866Y13879D01*
X63867Y13874D01*
X63868Y13870D01*
Y13869D01*
Y13869D01*
Y13867D01*
X63868Y13866D01*
X63867Y13863D01*
X63867Y13861D01*
X63865Y13855D01*
X63864Y13851D01*
X63862Y13848D01*
X63860Y13844D01*
X63858Y13841D01*
X63855Y13837D01*
X63851Y13834D01*
X63848Y13830D01*
X63843Y13827D01*
X63763D01*
X63789Y13879D01*
X63738D01*
X63718Y13820D01*
Y13820D01*
X63718Y13819D01*
X63718Y13819D01*
Y13817D01*
X63717Y13814D01*
X63717Y13811D01*
Y13811D01*
Y13810D01*
X63717Y13809D01*
X63717Y13808D01*
X63718Y13805D01*
X63719Y13803D01*
X63721Y13802D01*
X63722Y13800D01*
X63724Y13798D01*
X63727Y13796D01*
X63730Y13795D01*
X63733Y13793D01*
X63738Y13793D01*
X63742Y13792D01*
X63748Y13792D01*
X63936D01*
X64014Y14044D01*
X64098D01*
X64019Y13792D01*
X64121D01*
X64199Y14044D01*
X64283D01*
X64204Y13792D01*
D02*
G37*
G36*
X57030Y14092D02*
X57035Y14092D01*
X57041Y14092D01*
X57047Y14091D01*
X57055Y14090D01*
X57063Y14088D01*
X57071Y14087D01*
X57079Y14084D01*
X57087Y14082D01*
X57096Y14079D01*
X57105Y14075D01*
X57112Y14072D01*
X57120Y14067D01*
X57121Y14067D01*
X57122Y14066D01*
X57125Y14064D01*
X57128Y14061D01*
X57131Y14058D01*
X57135Y14054D01*
X57140Y14050D01*
X57144Y14045D01*
X57149Y14039D01*
X57153Y14032D01*
X57157Y14025D01*
X57161Y14017D01*
X57164Y14009D01*
X57166Y14000D01*
X57168Y13990D01*
X57168Y13980D01*
Y13979D01*
Y13978D01*
X57168Y13976D01*
Y13972D01*
X57167Y13968D01*
X57167Y13963D01*
X57166Y13958D01*
X57164Y13952D01*
X57163Y13945D01*
X57161Y13938D01*
X57158Y13930D01*
X57155Y13922D01*
X57152Y13913D01*
X57147Y13905D01*
X57143Y13896D01*
X57137Y13887D01*
Y13886D01*
X57137Y13886D01*
X57136Y13885D01*
X57135Y13884D01*
X57133Y13880D01*
X57130Y13876D01*
X57126Y13870D01*
X57120Y13864D01*
X57114Y13857D01*
X57107Y13849D01*
X57100Y13842D01*
X57091Y13833D01*
X57081Y13825D01*
X57070Y13817D01*
X57059Y13808D01*
X57047Y13801D01*
X57034Y13793D01*
X57020Y13786D01*
X57019D01*
X57019Y13785D01*
X57018Y13785D01*
X57016Y13785D01*
X57015Y13784D01*
X57012Y13783D01*
X57010Y13782D01*
X57007Y13781D01*
X57004Y13780D01*
X57001Y13778D01*
X56993Y13775D01*
X56984Y13772D01*
X56974Y13769D01*
X56963Y13766D01*
X56951Y13764D01*
X56938Y13761D01*
X56925Y13758D01*
X56911Y13756D01*
X56897Y13754D01*
X56881Y13753D01*
X56866Y13753D01*
X56787D01*
X56863Y14001D01*
X56950D01*
X56884Y13792D01*
X56887D01*
X56889Y13792D01*
X56893D01*
X56897Y13793D01*
X56902Y13793D01*
X56908Y13794D01*
X56915Y13795D01*
X56922Y13797D01*
X56929Y13799D01*
X56937Y13801D01*
X56945Y13804D01*
X56954Y13807D01*
X56962Y13811D01*
X56971Y13816D01*
X56980Y13821D01*
X56981Y13821D01*
X56982Y13822D01*
X56984Y13824D01*
X56988Y13826D01*
X56992Y13829D01*
X56996Y13832D01*
X57001Y13836D01*
X57006Y13841D01*
X57012Y13846D01*
X57018Y13851D01*
X57024Y13857D01*
X57029Y13864D01*
X57035Y13870D01*
X57040Y13877D01*
X57045Y13885D01*
X57049Y13893D01*
X57050Y13893D01*
X57050Y13894D01*
X57051Y13896D01*
X57052Y13899D01*
X57054Y13902D01*
X57056Y13906D01*
X57057Y13910D01*
X57059Y13915D01*
X57063Y13925D01*
X57066Y13935D01*
X57067Y13941D01*
X57068Y13946D01*
X57069Y13951D01*
X57069Y13956D01*
Y13956D01*
Y13958D01*
Y13960D01*
X57069Y13963D01*
X57068Y13966D01*
X57068Y13970D01*
X57067Y13974D01*
X57066Y13979D01*
X57065Y13984D01*
X57064Y13989D01*
X57062Y13994D01*
X57059Y13999D01*
X57057Y14004D01*
X57053Y14008D01*
X57050Y14012D01*
X57046Y14016D01*
X57045Y14016D01*
X57045Y14016D01*
X57044Y14017D01*
X57042Y14018D01*
X57040Y14019D01*
X57037Y14021D01*
X57034Y14022D01*
X57030Y14024D01*
X57026Y14025D01*
X57021Y14027D01*
X57016Y14028D01*
X57010Y14029D01*
X57004Y14030D01*
X56997Y14031D01*
X56990Y14031D01*
X56982Y14032D01*
X56749D01*
X56786Y14093D01*
X57025D01*
X57030Y14092D01*
D02*
G37*
G36*
X62693Y14092D02*
X62696Y14092D01*
X62699Y14092D01*
X62704Y14090D01*
X62707Y14089D01*
X62710Y14087D01*
X62713Y14086D01*
X62716Y14083D01*
X62718Y14081D01*
X62719Y14078D01*
X62720Y14074D01*
X62721Y14070D01*
Y14070D01*
Y14069D01*
X62720Y14067D01*
X62720Y14064D01*
X62720Y14061D01*
X62719Y14057D01*
X62718Y14053D01*
X62716Y14049D01*
X62669Y13898D01*
X62775Y14017D01*
X62775Y14017D01*
X62776Y14018D01*
X62777Y14019D01*
X62778Y14020D01*
X62781Y14024D01*
X62785Y14028D01*
X62789Y14033D01*
X62794Y14037D01*
X62798Y14041D01*
X62800Y14043D01*
X62802Y14044D01*
X62802D01*
X62803Y14044D01*
X62804Y14045D01*
X62805Y14046D01*
X62806Y14046D01*
X62808Y14047D01*
X62813Y14049D01*
X62819Y14051D01*
X62826Y14052D01*
X62833Y14054D01*
X62842Y14054D01*
X62844D01*
X62845Y14054D01*
X62847Y14053D01*
X62849Y14053D01*
X62851Y14052D01*
X62854Y14051D01*
X62857Y14049D01*
X62858Y14049D01*
X62859Y14048D01*
X62861Y14046D01*
X62863Y14043D01*
X62866Y14040D01*
X62867Y14036D01*
X62869Y14031D01*
X62869Y14025D01*
Y14025D01*
Y14024D01*
X62869Y14022D01*
X62869Y14019D01*
X62868Y14016D01*
X62867Y14012D01*
X62866Y14008D01*
X62864Y14004D01*
X62826Y13879D01*
X62927Y13969D01*
X62928Y13969D01*
X62928Y13970D01*
X62929Y13971D01*
X62930Y13972D01*
X62934Y13976D01*
X62938Y13980D01*
X62942Y13984D01*
X62947Y13989D01*
X62950Y13992D01*
X62952Y13993D01*
X62953Y13994D01*
X62954Y13994D01*
X62955Y13995D01*
X62958Y13996D01*
X62961Y13997D01*
X62966Y13999D01*
X62971Y14000D01*
X62978Y14000D01*
X62986Y14001D01*
X62987D01*
X62989Y14000D01*
X62991Y14000D01*
X62993Y13999D01*
X62996Y13998D01*
X63000Y13996D01*
X63003Y13994D01*
X63004D01*
X63004Y13994D01*
X63006Y13992D01*
X63008Y13990D01*
X63011Y13987D01*
X63013Y13983D01*
X63015Y13979D01*
X63017Y13973D01*
X63017Y13970D01*
Y13967D01*
Y13967D01*
Y13965D01*
X63017Y13963D01*
X63017Y13960D01*
X63016Y13957D01*
X63015Y13953D01*
X63014Y13949D01*
X63013Y13944D01*
X62955Y13792D01*
X63061D01*
X63060Y13793D01*
X63058Y13798D01*
X63056Y13803D01*
X63054Y13807D01*
X63053Y13813D01*
X63052Y13819D01*
X63052Y13825D01*
Y13825D01*
Y13826D01*
Y13827D01*
X63052Y13829D01*
X63052Y13833D01*
X63053Y13838D01*
Y13838D01*
X63053Y13840D01*
X63054Y13842D01*
X63054Y13844D01*
X63055Y13847D01*
X63057Y13850D01*
X63058Y13854D01*
X63060Y13859D01*
X63062Y13863D01*
X63065Y13868D01*
X63068Y13873D01*
X63071Y13877D01*
X63075Y13882D01*
X63079Y13887D01*
X63084Y13891D01*
X63089Y13895D01*
X63090Y13895D01*
X63091Y13896D01*
X63092Y13897D01*
X63095Y13899D01*
X63098Y13900D01*
X63102Y13902D01*
X63107Y13904D01*
X63112Y13906D01*
X63117Y13908D01*
X63124Y13910D01*
X63131Y13912D01*
X63138Y13914D01*
X63147Y13915D01*
X63155Y13916D01*
X63164Y13917D01*
X63174Y13917D01*
X63347D01*
X63346Y13921D01*
Y13921D01*
Y13922D01*
X63347Y13923D01*
Y13925D01*
X63347Y13928D01*
X63348Y13930D01*
X63350Y13936D01*
X63351Y13940D01*
X63353Y13943D01*
X63355Y13947D01*
X63357Y13950D01*
X63360Y13954D01*
X63363Y13957D01*
X63367Y13961D01*
X63372Y13964D01*
X63372D01*
X63373Y13964D01*
X63374Y13965D01*
X63376Y13966D01*
X63378Y13967D01*
X63380Y13968D01*
X63383Y13969D01*
X63386Y13970D01*
X63390Y13971D01*
X63394Y13972D01*
X63403Y13974D01*
X63412Y13976D01*
X63423Y13976D01*
X63462D01*
X63442Y13917D01*
X63474D01*
X63570D01*
X63531Y13792D01*
X63633D01*
Y13791D01*
Y13791D01*
Y13790D01*
X63633Y13789D01*
X63632Y13786D01*
X63631Y13782D01*
X63628Y13777D01*
X63627Y13775D01*
X63625Y13772D01*
X63623Y13770D01*
X63621Y13767D01*
X63618Y13765D01*
X63614Y13763D01*
X63614D01*
X63614Y13763D01*
X63613Y13762D01*
X63611Y13761D01*
X63608Y13760D01*
X63604Y13758D01*
X63599Y13756D01*
X63593Y13755D01*
X63586Y13753D01*
X63580Y13753D01*
X63486D01*
X63484Y13753D01*
X63482D01*
X63479Y13754D01*
X63476Y13755D01*
X63472Y13756D01*
X63469Y13757D01*
X63466Y13758D01*
X63462Y13760D01*
X63459Y13763D01*
X63457Y13766D01*
X63454Y13769D01*
X63452Y13773D01*
X63451Y13778D01*
X63451Y13783D01*
Y13784D01*
Y13785D01*
X63451Y13786D01*
Y13788D01*
X63451Y13791D01*
X63452Y13794D01*
X63454Y13800D01*
X63478Y13879D01*
X63430D01*
X63394Y13809D01*
Y13809D01*
X63393Y13808D01*
X63392Y13806D01*
X63391Y13804D01*
X63388Y13801D01*
X63385Y13797D01*
X63381Y13794D01*
X63376Y13792D01*
X63373Y13792D01*
X63369Y13792D01*
X63348D01*
X63380Y13879D01*
D01*
X63265D01*
X63265Y13878D01*
X63266Y13878D01*
X63268Y13876D01*
X63269Y13874D01*
X63272Y13871D01*
X63274Y13868D01*
X63276Y13864D01*
X63278Y13859D01*
X63278Y13858D01*
X63278Y13857D01*
X63279Y13854D01*
X63280Y13851D01*
X63281Y13847D01*
X63282Y13843D01*
X63282Y13838D01*
Y13834D01*
Y13834D01*
X63282Y13833D01*
X63281Y13830D01*
X63281Y13828D01*
X63280Y13824D01*
X63279Y13820D01*
X63278Y13816D01*
X63276Y13811D01*
X63274Y13806D01*
X63272Y13801D01*
X63269Y13796D01*
X63265Y13791D01*
X63261Y13785D01*
X63257Y13780D01*
X63252Y13776D01*
X63246Y13771D01*
X63246Y13771D01*
X63245Y13770D01*
X63243Y13769D01*
X63241Y13768D01*
X63238Y13766D01*
X63234Y13764D01*
X63230Y13762D01*
X63225Y13760D01*
X63219Y13758D01*
X63214Y13756D01*
X63207Y13754D01*
X63200Y13753D01*
X63192Y13751D01*
X63184Y13750D01*
X63175Y13749D01*
X63167Y13749D01*
X63161D01*
X63157Y13749D01*
X63153Y13750D01*
X63147Y13750D01*
X63141Y13751D01*
X63134Y13752D01*
X63127Y13753D01*
X63120Y13754D01*
X63113Y13756D01*
X63106Y13758D01*
X63098Y13761D01*
X63092Y13764D01*
X63085Y13767D01*
X63079Y13771D01*
X63079Y13772D01*
X63078Y13772D01*
X63076Y13773D01*
X63075Y13775D01*
X63073Y13777D01*
X63071Y13780D01*
X63068Y13783D01*
X63066Y13786D01*
X63063Y13789D01*
X63063Y13790D01*
X63062Y13788D01*
X63061Y13786D01*
X63059Y13783D01*
X63057Y13780D01*
X63054Y13776D01*
X63051Y13772D01*
X63047Y13769D01*
X63042Y13765D01*
X63037Y13762D01*
X63031Y13759D01*
X63024Y13757D01*
X63015Y13755D01*
X63006Y13753D01*
X62996Y13753D01*
X62906D01*
X62903Y13753D01*
X62900Y13754D01*
X62897Y13754D01*
X62889Y13756D01*
X62886Y13757D01*
X62882Y13759D01*
X62879Y13761D01*
X62875Y13763D01*
X62873Y13765D01*
X62871Y13769D01*
X62869Y13772D01*
X62869Y13776D01*
Y13777D01*
Y13778D01*
X62869Y13780D01*
X62870Y13782D01*
X62870Y13785D01*
X62871Y13789D01*
X62872Y13793D01*
X62874Y13798D01*
X62914Y13902D01*
X62786Y13780D01*
X62786Y13779D01*
X62786Y13778D01*
X62785Y13777D01*
X62784Y13775D01*
X62782Y13773D01*
X62780Y13770D01*
X62775Y13764D01*
X62769Y13759D01*
X62766Y13756D01*
X62763Y13754D01*
X62760Y13752D01*
X62756Y13751D01*
X62752Y13750D01*
X62748Y13749D01*
X62746D01*
X62744Y13750D01*
X62740Y13750D01*
X62740D01*
X62739Y13751D01*
X62738D01*
X62736Y13751D01*
X62732Y13753D01*
X62728Y13755D01*
X62725Y13756D01*
X62723Y13758D01*
X62721Y13761D01*
X62719Y13763D01*
X62718Y13766D01*
X62716Y13769D01*
X62716Y13773D01*
X62715Y13778D01*
Y13778D01*
Y13779D01*
X62716Y13781D01*
X62716Y13784D01*
X62716Y13786D01*
X62717Y13790D01*
X62718Y13794D01*
X62720Y13798D01*
X62767Y13951D01*
X62623Y13778D01*
Y13778D01*
X62622Y13777D01*
X62621Y13776D01*
X62620Y13774D01*
X62617Y13770D01*
X62613Y13766D01*
X62607Y13761D01*
X62600Y13757D01*
X62596Y13755D01*
X62592Y13754D01*
X62587Y13753D01*
X62582Y13753D01*
X62537D01*
X62624Y14032D01*
X62501D01*
X62535Y14093D01*
X62691D01*
X62693Y14092D01*
D02*
G37*
G36*
X59492Y13792D02*
X59494D01*
X59497Y13792D01*
X59500D01*
X59505Y13793D01*
X59509Y13794D01*
X59515Y13795D01*
X59521Y13797D01*
X59526Y13799D01*
X59533Y13802D01*
X59539Y13805D01*
X59545Y13809D01*
X59551Y13814D01*
X59557Y13820D01*
X59562Y13826D01*
X59566Y13834D01*
X59566Y13834D01*
X59565Y13834D01*
X59564Y13835D01*
X59563Y13836D01*
X59559Y13839D01*
X59555Y13844D01*
X59551Y13849D01*
X59547Y13856D01*
X59546Y13859D01*
X59545Y13863D01*
X59544Y13867D01*
X59544Y13872D01*
Y13872D01*
Y13873D01*
Y13874D01*
X59544Y13875D01*
X59545Y13878D01*
X59546Y13883D01*
X59547Y13888D01*
X59550Y13893D01*
X59554Y13899D01*
X59556Y13901D01*
X59558Y13904D01*
X59559D01*
X59559Y13905D01*
X59561Y13906D01*
X59564Y13908D01*
X59568Y13911D01*
X59573Y13913D01*
X59579Y13915D01*
X59586Y13917D01*
X59593Y13917D01*
X59734D01*
D01*
X59821D01*
X59843D01*
X59843Y13917D01*
X59842Y13916D01*
X59841Y13914D01*
X59840Y13911D01*
X59838Y13908D01*
X59836Y13905D01*
X59833Y13902D01*
X59830Y13898D01*
X59827Y13894D01*
X59823Y13891D01*
X59818Y13887D01*
X59814Y13885D01*
X59809Y13883D01*
X59780Y13792D01*
X59824D01*
X59863Y13917D01*
X59949D01*
X59910Y13792D01*
X60017D01*
X60016Y13791D01*
X60016Y13790D01*
X60015Y13788D01*
X60014Y13786D01*
X60012Y13783D01*
X60010Y13780D01*
X60007Y13776D01*
X60004Y13772D01*
X60000Y13769D01*
X59996Y13765D01*
X59992Y13762D01*
X59987Y13759D01*
X59981Y13757D01*
X59975Y13755D01*
X59968Y13753D01*
X59961Y13753D01*
X59899D01*
X59899Y13752D01*
X59898Y13750D01*
X59897Y13748D01*
X59895Y13744D01*
X59894Y13739D01*
X59892Y13734D01*
X59889Y13728D01*
X59886Y13721D01*
X59879Y13707D01*
X59872Y13694D01*
X59868Y13687D01*
X59864Y13680D01*
X59860Y13674D01*
X59856Y13669D01*
X59856Y13668D01*
X59855Y13667D01*
X59853Y13665D01*
X59851Y13663D01*
X59847Y13660D01*
X59844Y13657D01*
X59839Y13653D01*
X59834Y13650D01*
X59829Y13646D01*
X59823Y13642D01*
X59817Y13639D01*
X59810Y13636D01*
X59802Y13634D01*
X59794Y13632D01*
X59786Y13631D01*
X59778Y13630D01*
X59775D01*
X59773Y13631D01*
X59771Y13631D01*
X59768Y13631D01*
X59761Y13633D01*
X59754Y13635D01*
X59746Y13638D01*
X59743Y13640D01*
X59739Y13642D01*
X59736Y13645D01*
X59732Y13648D01*
Y13648D01*
X59732Y13649D01*
X59731Y13650D01*
X59730Y13651D01*
X59728Y13654D01*
X59726Y13659D01*
X59723Y13664D01*
X59721Y13671D01*
X59719Y13679D01*
X59719Y13688D01*
Y13688D01*
Y13689D01*
Y13690D01*
Y13691D01*
X59719Y13693D01*
Y13695D01*
X59720Y13700D01*
X59721Y13706D01*
X59722Y13712D01*
X59724Y13719D01*
X59727Y13725D01*
Y13726D01*
X59727Y13726D01*
X59728Y13727D01*
X59729Y13728D01*
X59730Y13732D01*
X59733Y13736D01*
X59736Y13740D01*
X59740Y13745D01*
X59744Y13749D01*
X59749Y13753D01*
X59728D01*
X59725Y13754D01*
X59721Y13754D01*
X59717Y13755D01*
X59712Y13757D01*
X59708Y13759D01*
X59704Y13763D01*
X59704Y13763D01*
X59702Y13764D01*
X59701Y13766D01*
X59699Y13769D01*
X59697Y13773D01*
X59695Y13777D01*
X59694Y13782D01*
X59694Y13787D01*
Y13787D01*
Y13788D01*
Y13790D01*
X59694Y13791D01*
X59695Y13796D01*
X59696Y13801D01*
X59721Y13879D01*
X59659D01*
Y13878D01*
Y13878D01*
X59659Y13877D01*
X59659Y13876D01*
X59658Y13874D01*
X59658Y13872D01*
X59657Y13867D01*
X59655Y13862D01*
X59653Y13855D01*
X59650Y13848D01*
X59647Y13840D01*
X59643Y13832D01*
X59638Y13823D01*
X59632Y13815D01*
X59625Y13806D01*
X59617Y13798D01*
X59609Y13790D01*
X59599Y13783D01*
X59588Y13777D01*
X59587Y13776D01*
X59586Y13776D01*
X59583Y13774D01*
X59580Y13773D01*
X59575Y13771D01*
X59570Y13769D01*
X59564Y13767D01*
X59558Y13765D01*
X59550Y13763D01*
X59542Y13761D01*
X59533Y13759D01*
X59524Y13757D01*
X59514Y13755D01*
X59504Y13754D01*
X59493Y13753D01*
X59482Y13753D01*
X59436D01*
X59434Y13753D01*
X59431Y13754D01*
X59428Y13754D01*
X59424Y13755D01*
X59421Y13757D01*
X59417Y13759D01*
X59417Y13759D01*
X59415Y13760D01*
X59414Y13762D01*
X59411Y13764D01*
X59409Y13768D01*
X59407Y13772D01*
X59406Y13777D01*
X59405Y13782D01*
Y13783D01*
Y13784D01*
X59406Y13785D01*
Y13788D01*
X59406Y13791D01*
X59407Y13794D01*
X59408Y13798D01*
X59409Y13802D01*
X59485Y14044D01*
X59570D01*
X59492Y13792D01*
D02*
G37*
G36*
X64223Y13543D02*
X64226Y13543D01*
X64228Y13543D01*
X64235Y13542D01*
X64242Y13539D01*
X64249Y13536D01*
X64253Y13534D01*
X64257Y13532D01*
X64261Y13530D01*
X64264Y13527D01*
X64264Y13526D01*
X64265Y13526D01*
X64266Y13525D01*
X64267Y13524D01*
X64268Y13522D01*
X64270Y13520D01*
X64274Y13515D01*
X64277Y13509D01*
X64280Y13502D01*
X64282Y13498D01*
X64282Y13494D01*
X64283Y13490D01*
X64283Y13486D01*
Y13485D01*
Y13485D01*
Y13483D01*
X64283Y13482D01*
X64282Y13480D01*
X64282Y13477D01*
X64281Y13472D01*
X64279Y13465D01*
X64277Y13462D01*
X64275Y13458D01*
X64273Y13455D01*
X64270Y13451D01*
X64267Y13448D01*
X64264Y13445D01*
X64264Y13444D01*
X64263Y13444D01*
X64262Y13443D01*
X64261Y13442D01*
X64259Y13441D01*
X64257Y13439D01*
X64254Y13438D01*
X64252Y13436D01*
X64245Y13433D01*
X64237Y13431D01*
X64229Y13429D01*
X64224Y13428D01*
X64219Y13428D01*
X64217D01*
X64215Y13428D01*
X64213Y13429D01*
X64210Y13429D01*
X64203Y13430D01*
X64197Y13432D01*
X64189Y13435D01*
X64185Y13437D01*
X64181Y13439D01*
X64178Y13442D01*
X64174Y13445D01*
X64174Y13445D01*
X64173Y13445D01*
X64172Y13446D01*
X64171Y13448D01*
X64170Y13449D01*
X64168Y13451D01*
X64165Y13456D01*
X64161Y13462D01*
X64158Y13469D01*
X64157Y13473D01*
X64156Y13477D01*
X64156Y13481D01*
X64155Y13486D01*
Y13486D01*
Y13487D01*
Y13488D01*
X64156Y13490D01*
X64156Y13492D01*
X64156Y13494D01*
X64158Y13500D01*
X64160Y13506D01*
X64161Y13510D01*
X64163Y13513D01*
X64165Y13516D01*
X64168Y13520D01*
X64171Y13523D01*
X64174Y13527D01*
X64174Y13527D01*
X64175Y13527D01*
X64176Y13528D01*
X64177Y13529D01*
X64179Y13531D01*
X64181Y13532D01*
X64184Y13534D01*
X64187Y13535D01*
X64193Y13538D01*
X64201Y13541D01*
X64210Y13543D01*
X64214Y13543D01*
X64219Y13544D01*
X64222D01*
X64223Y13543D01*
D02*
G37*
G36*
X62561Y13562D02*
X62565D01*
X62571Y13562D01*
X62577Y13561D01*
X62583Y13561D01*
X62589Y13560D01*
X62596Y13559D01*
X62610Y13556D01*
X62617Y13555D01*
X62623Y13553D01*
X62630Y13551D01*
X62635Y13549D01*
X62636Y13548D01*
X62637Y13548D01*
X62639Y13547D01*
X62642Y13545D01*
X62645Y13543D01*
X62648Y13540D01*
X62652Y13537D01*
X62656Y13533D01*
X62660Y13529D01*
X62663Y13524D01*
X62667Y13518D01*
X62670Y13513D01*
X62672Y13506D01*
X62675Y13498D01*
X62676Y13490D01*
X62676Y13482D01*
Y13481D01*
Y13481D01*
Y13480D01*
X62676Y13478D01*
Y13477D01*
X62676Y13475D01*
X62675Y13470D01*
X62673Y13464D01*
X62671Y13456D01*
X62668Y13448D01*
X62664Y13440D01*
X62661Y13435D01*
X62658Y13430D01*
X62655Y13425D01*
X62652Y13420D01*
X62648Y13415D01*
X62643Y13410D01*
X62639Y13405D01*
X62634Y13400D01*
X62628Y13394D01*
X62622Y13389D01*
X62616Y13384D01*
X62609Y13379D01*
X62601Y13374D01*
X62593Y13369D01*
X62585Y13364D01*
X62576Y13359D01*
X62575D01*
X62575Y13359D01*
X62574Y13358D01*
X62573Y13357D01*
X62571Y13357D01*
X62569Y13356D01*
X62566Y13354D01*
X62564Y13353D01*
X62560Y13352D01*
X62557Y13350D01*
X62549Y13347D01*
X62540Y13343D01*
X62530Y13339D01*
X62519Y13335D01*
X62507Y13331D01*
X62494Y13327D01*
X62480Y13322D01*
X62465Y13318D01*
X62449Y13314D01*
X62433Y13310D01*
X62416Y13307D01*
X62390Y13223D01*
X62303D01*
X62380Y13470D01*
X62466D01*
X62430Y13354D01*
X62431D01*
X62432Y13355D01*
X62435Y13355D01*
X62438Y13356D01*
X62442Y13357D01*
X62448Y13359D01*
X62453Y13360D01*
X62459Y13362D01*
X62466Y13364D01*
X62473Y13367D01*
X62488Y13372D01*
X62502Y13379D01*
X62517Y13387D01*
X62518Y13388D01*
X62519Y13389D01*
X62522Y13391D01*
X62525Y13393D01*
X62530Y13396D01*
X62534Y13399D01*
X62539Y13404D01*
X62544Y13408D01*
X62549Y13413D01*
X62554Y13419D01*
X62559Y13425D01*
X62563Y13432D01*
X62566Y13438D01*
X62569Y13446D01*
X62571Y13453D01*
X62572Y13461D01*
Y13461D01*
Y13462D01*
Y13463D01*
Y13465D01*
X62572Y13467D01*
X62572Y13470D01*
X62570Y13475D01*
X62568Y13481D01*
X62567Y13484D01*
X62565Y13487D01*
X62563Y13490D01*
X62560Y13492D01*
X62557Y13494D01*
X62554Y13496D01*
X62553Y13496D01*
X62552Y13497D01*
X62550Y13497D01*
X62549Y13498D01*
X62547Y13498D01*
X62544Y13499D01*
X62542Y13499D01*
X62539Y13500D01*
X62535Y13500D01*
X62532Y13501D01*
X62527Y13501D01*
X62523D01*
X62518Y13501D01*
X62266D01*
X62303Y13562D01*
X62557D01*
X62561Y13562D01*
D02*
G37*
G36*
X64031Y13387D02*
X64090D01*
Y13387D01*
X64089Y13385D01*
X64088Y13383D01*
X64087Y13381D01*
X64085Y13378D01*
X64083Y13375D01*
X64080Y13371D01*
X64077Y13368D01*
X64074Y13364D01*
X64070Y13360D01*
X64065Y13357D01*
X64060Y13354D01*
X64054Y13352D01*
X64048Y13350D01*
X64041Y13349D01*
X64033Y13348D01*
X64019D01*
X63992Y13261D01*
X64121D01*
X64121Y13262D01*
X64123Y13269D01*
X64160Y13387D01*
X64246D01*
X64207Y13261D01*
X64307D01*
Y13261D01*
X64307Y13260D01*
X64306Y13259D01*
X64306Y13258D01*
X64304Y13254D01*
X64302Y13249D01*
X64298Y13244D01*
X64293Y13239D01*
X64288Y13234D01*
X64281Y13230D01*
X64280Y13229D01*
X64278Y13229D01*
X64275Y13227D01*
X64272Y13226D01*
X64267Y13225D01*
X64262Y13224D01*
X64256Y13223D01*
X64250Y13223D01*
X64153D01*
X64151Y13223D01*
X64149D01*
X64147Y13224D01*
X64144Y13224D01*
X64140Y13225D01*
X64138Y13226D01*
X64134Y13228D01*
X64131Y13230D01*
X64128Y13232D01*
X64125Y13235D01*
X64123Y13238D01*
X64122Y13242D01*
X64120Y13247D01*
X64120Y13251D01*
Y13252D01*
Y13253D01*
X64120Y13254D01*
Y13255D01*
X64119Y13252D01*
X64117Y13249D01*
X64114Y13246D01*
X64111Y13242D01*
X64108Y13238D01*
X64103Y13235D01*
X64098Y13231D01*
X64093Y13228D01*
X64086Y13226D01*
X64079Y13224D01*
X64071Y13223D01*
X64062Y13223D01*
X63937D01*
X63936Y13223D01*
X63933D01*
X63931Y13223D01*
X63928Y13224D01*
X63921Y13226D01*
X63918Y13227D01*
X63915Y13229D01*
X63912Y13231D01*
X63909Y13233D01*
X63907Y13236D01*
X63905Y13239D01*
X63904Y13243D01*
X63904Y13247D01*
Y13248D01*
Y13248D01*
Y13250D01*
X63904Y13251D01*
X63904Y13253D01*
X63904Y13252D01*
X63902Y13249D01*
X63899Y13246D01*
X63896Y13242D01*
X63893Y13238D01*
X63888Y13235D01*
X63883Y13231D01*
X63878Y13228D01*
X63871Y13226D01*
X63864Y13224D01*
X63856Y13223D01*
X63848Y13223D01*
X63723D01*
X63721Y13223D01*
X63719D01*
X63716Y13223D01*
X63713Y13224D01*
X63707Y13226D01*
X63703Y13227D01*
X63700Y13229D01*
X63697Y13231D01*
X63694Y13233D01*
X63692Y13236D01*
X63690Y13239D01*
X63689Y13243D01*
X63689Y13247D01*
Y13248D01*
Y13248D01*
Y13250D01*
X63689Y13251D01*
X63689Y13253D01*
X63690Y13256D01*
X63691Y13261D01*
X63718Y13348D01*
X63683D01*
X63608D01*
X63608Y13348D01*
X63609Y13347D01*
X63611Y13346D01*
X63612Y13344D01*
X63615Y13341D01*
X63617Y13338D01*
X63619Y13333D01*
X63621Y13329D01*
X63621Y13328D01*
X63622Y13326D01*
X63623Y13324D01*
X63623Y13320D01*
X63624Y13316D01*
X63625Y13312D01*
X63625Y13308D01*
Y13304D01*
Y13304D01*
X63625Y13302D01*
X63625Y13300D01*
X63624Y13297D01*
X63623Y13294D01*
X63622Y13290D01*
X63621Y13286D01*
X63619Y13281D01*
X63617Y13276D01*
X63615Y13271D01*
X63612Y13266D01*
X63608Y13260D01*
X63605Y13255D01*
X63600Y13250D01*
X63595Y13245D01*
X63589Y13241D01*
X63589Y13240D01*
X63588Y13240D01*
X63586Y13239D01*
X63584Y13237D01*
X63581Y13236D01*
X63577Y13234D01*
X63573Y13232D01*
X63568Y13230D01*
X63563Y13228D01*
X63557Y13226D01*
X63550Y13224D01*
X63543Y13222D01*
X63535Y13221D01*
X63527Y13220D01*
X63519Y13219D01*
X63510Y13219D01*
X63504D01*
X63500Y13219D01*
X63496Y13219D01*
X63490Y13220D01*
X63484Y13220D01*
X63477Y13221D01*
X63470Y13223D01*
X63463Y13224D01*
X63456Y13226D01*
X63449Y13228D01*
X63441Y13230D01*
X63435Y13233D01*
X63428Y13237D01*
X63422Y13241D01*
X63422Y13241D01*
X63421Y13242D01*
X63420Y13243D01*
X63418Y13245D01*
X63416Y13247D01*
X63414Y13249D01*
X63411Y13252D01*
X63409Y13255D01*
X63406Y13259D01*
X63403Y13263D01*
X63401Y13267D01*
X63399Y13272D01*
X63398Y13277D01*
X63396Y13283D01*
X63395Y13289D01*
X63395Y13294D01*
Y13295D01*
Y13295D01*
Y13297D01*
X63395Y13299D01*
X63396Y13303D01*
X63396Y13308D01*
Y13308D01*
X63397Y13309D01*
X63397Y13311D01*
X63398Y13313D01*
X63399Y13317D01*
X63400Y13320D01*
X63401Y13324D01*
X63403Y13328D01*
X63405Y13333D01*
X63408Y13337D01*
X63411Y13342D01*
X63414Y13347D01*
X63418Y13352D01*
X63422Y13356D01*
X63427Y13361D01*
X63432Y13365D01*
X63433Y13365D01*
X63434Y13366D01*
X63436Y13367D01*
X63438Y13368D01*
X63441Y13370D01*
X63445Y13372D01*
X63450Y13374D01*
X63455Y13376D01*
X63461Y13378D01*
X63467Y13380D01*
X63474Y13382D01*
X63482Y13383D01*
X63490Y13385D01*
X63498Y13386D01*
X63507Y13387D01*
X63517Y13387D01*
X63696D01*
X63697D01*
X63698Y13388D01*
X63700Y13388D01*
X63703Y13389D01*
X63706Y13390D01*
X63709Y13391D01*
X63714Y13393D01*
X63718Y13394D01*
X63728Y13398D01*
X63737Y13403D01*
X63746Y13409D01*
X63750Y13412D01*
X63754Y13414D01*
X63754Y13415D01*
X63755Y13415D01*
X63756Y13416D01*
X63757Y13418D01*
X63759Y13420D01*
X63762Y13423D01*
X63765Y13426D01*
X63768Y13430D01*
X63771Y13435D01*
X63774Y13440D01*
X63778Y13445D01*
X63782Y13452D01*
X63786Y13459D01*
X63790Y13466D01*
X63795Y13474D01*
X63799Y13484D01*
X63847D01*
X63816Y13387D01*
X63817D01*
D01*
X63875D01*
Y13387D01*
X63874Y13385D01*
X63873Y13383D01*
X63872Y13381D01*
X63870Y13378D01*
X63868Y13375D01*
X63866Y13371D01*
X63862Y13368D01*
X63859Y13364D01*
X63855Y13360D01*
X63850Y13357D01*
X63845Y13354D01*
X63839Y13352D01*
X63833Y13350D01*
X63826Y13349D01*
X63818Y13348D01*
X63804D01*
X63777Y13261D01*
X63906D01*
X63933Y13348D01*
X63897D01*
X63911Y13387D01*
X63912D01*
X63913Y13388D01*
X63915Y13388D01*
X63917Y13389D01*
X63921Y13390D01*
X63924Y13391D01*
X63929Y13393D01*
X63933Y13394D01*
X63942Y13398D01*
X63952Y13403D01*
X63961Y13409D01*
X63965Y13412D01*
X63969Y13414D01*
X63969Y13415D01*
X63970Y13415D01*
X63971Y13416D01*
X63972Y13418D01*
X63974Y13420D01*
X63977Y13423D01*
X63979Y13426D01*
X63982Y13430D01*
X63986Y13435D01*
X63989Y13440D01*
X63993Y13445D01*
X63997Y13452D01*
X64001Y13459D01*
X64005Y13466D01*
X64010Y13474D01*
X64014Y13484D01*
X64061D01*
X64031Y13387D01*
D02*
G37*
G36*
X63259Y13562D02*
X63264Y13562D01*
X63270Y13561D01*
X63277Y13560D01*
X63284Y13559D01*
X63292Y13558D01*
X63300Y13556D01*
X63308Y13554D01*
X63317Y13552D01*
X63325Y13549D01*
X63334Y13545D01*
X63342Y13541D01*
X63350Y13536D01*
X63350Y13536D01*
X63352Y13535D01*
X63354Y13533D01*
X63357Y13531D01*
X63361Y13528D01*
X63365Y13524D01*
X63369Y13519D01*
X63374Y13514D01*
X63378Y13509D01*
X63382Y13502D01*
X63386Y13495D01*
X63390Y13487D01*
X63393Y13479D01*
X63396Y13470D01*
X63397Y13460D01*
X63398Y13450D01*
Y13449D01*
Y13448D01*
X63397Y13445D01*
Y13442D01*
X63397Y13438D01*
X63396Y13433D01*
X63395Y13428D01*
X63394Y13421D01*
X63392Y13414D01*
X63390Y13407D01*
X63387Y13400D01*
X63384Y13391D01*
X63381Y13383D01*
X63377Y13374D01*
X63372Y13365D01*
X63367Y13356D01*
Y13356D01*
X63366Y13355D01*
X63366Y13354D01*
X63365Y13353D01*
X63362Y13350D01*
X63359Y13345D01*
X63355Y13340D01*
X63350Y13334D01*
X63344Y13327D01*
X63337Y13319D01*
X63329Y13311D01*
X63320Y13303D01*
X63310Y13295D01*
X63300Y13286D01*
X63288Y13278D01*
X63276Y13270D01*
X63263Y13262D01*
X63249Y13255D01*
X63249D01*
X63248Y13255D01*
X63247Y13255D01*
X63246Y13254D01*
X63244Y13253D01*
X63242Y13252D01*
X63239Y13251D01*
X63236Y13250D01*
X63233Y13249D01*
X63230Y13248D01*
X63222Y13245D01*
X63213Y13242D01*
X63203Y13239D01*
X63192Y13236D01*
X63180Y13233D01*
X63168Y13230D01*
X63154Y13228D01*
X63140Y13226D01*
X63126Y13224D01*
X63111Y13223D01*
X63096Y13223D01*
X63016D01*
X63093Y13470D01*
X63179D01*
X63114Y13261D01*
X63116D01*
X63119Y13262D01*
X63122D01*
X63127Y13262D01*
X63132Y13263D01*
X63137Y13264D01*
X63144Y13265D01*
X63151Y13267D01*
X63158Y13268D01*
X63166Y13271D01*
X63175Y13274D01*
X63183Y13277D01*
X63192Y13281D01*
X63200Y13285D01*
X63209Y13290D01*
X63210Y13291D01*
X63211Y13292D01*
X63214Y13293D01*
X63217Y13296D01*
X63221Y13299D01*
X63225Y13302D01*
X63231Y13306D01*
X63236Y13310D01*
X63241Y13315D01*
X63247Y13321D01*
X63253Y13327D01*
X63259Y13333D01*
X63264Y13340D01*
X63270Y13347D01*
X63275Y13354D01*
X63279Y13362D01*
X63279Y13363D01*
X63280Y13364D01*
X63281Y13366D01*
X63282Y13369D01*
X63283Y13372D01*
X63285Y13376D01*
X63287Y13380D01*
X63289Y13385D01*
X63292Y13394D01*
X63296Y13405D01*
X63297Y13411D01*
X63298Y13416D01*
X63298Y13421D01*
X63298Y13426D01*
Y13426D01*
Y13428D01*
Y13430D01*
X63298Y13432D01*
X63298Y13436D01*
X63297Y13440D01*
X63297Y13444D01*
X63296Y13449D01*
X63294Y13453D01*
X63293Y13458D01*
X63291Y13463D01*
X63289Y13468D01*
X63286Y13473D01*
X63283Y13477D01*
X63279Y13482D01*
X63275Y13485D01*
X63275Y13486D01*
X63274Y13486D01*
X63273Y13487D01*
X63271Y13488D01*
X63269Y13489D01*
X63266Y13491D01*
X63263Y13492D01*
X63259Y13493D01*
X63255Y13495D01*
X63251Y13496D01*
X63245Y13498D01*
X63239Y13499D01*
X63233Y13500D01*
X63226Y13501D01*
X63219Y13501D01*
X63211Y13501D01*
X62978D01*
X63015Y13562D01*
X63255D01*
X63259Y13562D01*
D02*
G37*
G36*
X61951Y13261D02*
X62052D01*
Y13261D01*
X62052Y13260D01*
X62051Y13258D01*
X62050Y13255D01*
X62048Y13252D01*
X62046Y13249D01*
X62044Y13246D01*
X62041Y13242D01*
X62037Y13238D01*
X62033Y13235D01*
X62028Y13231D01*
X62022Y13228D01*
X62016Y13226D01*
X62009Y13224D01*
X62002Y13223D01*
X61993Y13223D01*
X61899D01*
X61897Y13223D01*
X61895D01*
X61892Y13223D01*
X61888Y13224D01*
X61881Y13226D01*
X61877Y13227D01*
X61874Y13229D01*
X61870Y13231D01*
X61867Y13233D01*
X61865Y13236D01*
X61863Y13239D01*
X61862Y13243D01*
X61862Y13247D01*
X61862Y13247D01*
X61861Y13246D01*
X61859Y13245D01*
X61857Y13243D01*
X61854Y13240D01*
X61851Y13238D01*
X61847Y13235D01*
X61843Y13232D01*
X61838Y13229D01*
X61833Y13227D01*
X61827Y13224D01*
X61821Y13222D01*
X61814Y13220D01*
X61806Y13218D01*
X61799Y13217D01*
X61790Y13217D01*
X61787D01*
X61785Y13217D01*
X61783Y13217D01*
X61780Y13218D01*
X61777Y13218D01*
X61774Y13219D01*
X61766Y13221D01*
X61758Y13224D01*
X61754Y13226D01*
X61750Y13228D01*
X61747Y13230D01*
X61743Y13233D01*
X61743Y13233D01*
X61742Y13234D01*
X61741Y13235D01*
X61740Y13236D01*
X61739Y13238D01*
X61737Y13240D01*
X61736Y13242D01*
X61734Y13245D01*
X61732Y13248D01*
X61730Y13251D01*
X61729Y13254D01*
X61729Y13254D01*
X61726Y13249D01*
X61722Y13244D01*
X61718Y13239D01*
X61712Y13234D01*
X61708Y13232D01*
X61704Y13230D01*
X61704D01*
X61704Y13229D01*
X61702Y13229D01*
X61698Y13227D01*
X61695Y13226D01*
X61690Y13225D01*
X61684Y13224D01*
X61678Y13223D01*
X61672Y13223D01*
X61573D01*
X61570Y13223D01*
X61568Y13223D01*
X61565Y13224D01*
X61559Y13225D01*
X61553Y13228D01*
X61550Y13229D01*
X61548Y13232D01*
X61545Y13234D01*
X61544Y13237D01*
X61543Y13240D01*
X61542Y13244D01*
Y13245D01*
Y13246D01*
X61543Y13247D01*
Y13249D01*
X61543Y13251D01*
X61544Y13254D01*
X61545Y13258D01*
X61546Y13261D01*
X61562Y13313D01*
X61480Y13243D01*
X61479Y13243D01*
X61478Y13242D01*
X61477Y13241D01*
X61475Y13240D01*
X61473Y13238D01*
X61470Y13236D01*
X61466Y13235D01*
X61463Y13233D01*
X61455Y13229D01*
X61448Y13226D01*
X61444Y13225D01*
X61440Y13224D01*
X61436Y13223D01*
X61432Y13223D01*
X61389D01*
X61398Y13254D01*
X61397Y13252D01*
X61395Y13249D01*
X61393Y13246D01*
X61390Y13242D01*
X61386Y13238D01*
X61382Y13235D01*
X61377Y13231D01*
X61371Y13228D01*
X61366Y13226D01*
X61358Y13224D01*
X61351Y13223D01*
X61342Y13223D01*
X61249D01*
X61248Y13223D01*
X61245D01*
X61242Y13223D01*
X61239Y13224D01*
X61232Y13226D01*
X61228Y13227D01*
X61225Y13229D01*
X61221Y13231D01*
X61218Y13233D01*
X61216Y13236D01*
X61214Y13239D01*
X61212Y13243D01*
X61212Y13247D01*
X61212Y13247D01*
X61211Y13246D01*
X61209Y13245D01*
X61207Y13243D01*
X61205Y13241D01*
X61202Y13238D01*
X61198Y13235D01*
X61194Y13233D01*
X61190Y13230D01*
X61185Y13227D01*
X61179Y13225D01*
X61174Y13222D01*
X61167Y13220D01*
X61161Y13219D01*
X61154Y13218D01*
X61147Y13218D01*
X61145D01*
X61143Y13218D01*
X61140Y13218D01*
X61137Y13219D01*
X61131Y13220D01*
X61124Y13222D01*
X61116Y13225D01*
X61112Y13227D01*
X61108Y13229D01*
X61105Y13232D01*
X61101Y13235D01*
X61101Y13235D01*
X61101Y13236D01*
X61100Y13237D01*
X61099Y13238D01*
X61097Y13240D01*
X61096Y13242D01*
X61094Y13245D01*
X61093Y13247D01*
X61089Y13254D01*
X61086Y13262D01*
X61084Y13270D01*
X61084Y13275D01*
X61084Y13280D01*
Y13281D01*
Y13283D01*
X61084Y13285D01*
X61084Y13289D01*
X61085Y13293D01*
X61086Y13298D01*
X61087Y13303D01*
X61088Y13309D01*
X61090Y13315D01*
X61093Y13322D01*
X61096Y13329D01*
X61100Y13335D01*
X61104Y13342D01*
X61109Y13348D01*
X61115Y13354D01*
X61122Y13360D01*
X61122Y13360D01*
X61123Y13361D01*
X61125Y13363D01*
X61128Y13364D01*
X61131Y13366D01*
X61135Y13369D01*
X61140Y13371D01*
X61145Y13373D01*
X61151Y13376D01*
X61157Y13378D01*
X61164Y13381D01*
X61172Y13383D01*
X61180Y13384D01*
X61188Y13386D01*
X61197Y13387D01*
X61206Y13387D01*
X61341D01*
X61301Y13261D01*
X61401D01*
X61439Y13387D01*
X61526D01*
X61500Y13305D01*
X61575Y13369D01*
X61575Y13369D01*
X61576Y13370D01*
X61577Y13371D01*
X61580Y13372D01*
X61583Y13374D01*
X61586Y13377D01*
X61590Y13379D01*
X61594Y13381D01*
X61599Y13384D01*
X61604Y13386D01*
X61609Y13388D01*
X61615Y13390D01*
X61621Y13391D01*
X61627Y13392D01*
X61634Y13393D01*
X61641D01*
X61642Y13393D01*
X61644Y13393D01*
X61648Y13392D01*
X61652Y13390D01*
X61654Y13389D01*
X61657Y13387D01*
X61658Y13385D01*
X61660Y13383D01*
X61662Y13380D01*
X61663Y13377D01*
X61664Y13373D01*
X61664Y13369D01*
Y13369D01*
Y13367D01*
X61664Y13366D01*
Y13363D01*
X61663Y13360D01*
X61662Y13357D01*
X61661Y13353D01*
X61660Y13349D01*
X61632Y13261D01*
X61727D01*
X61726Y13264D01*
X61725Y13268D01*
X61725Y13273D01*
X61724Y13279D01*
Y13279D01*
Y13281D01*
X61725Y13284D01*
X61725Y13287D01*
X61726Y13292D01*
X61727Y13297D01*
X61728Y13303D01*
X61730Y13309D01*
X61732Y13315D01*
X61735Y13322D01*
X61738Y13329D01*
X61742Y13335D01*
X61746Y13342D01*
X61752Y13349D01*
X61758Y13355D01*
X61765Y13361D01*
X61766Y13361D01*
X61767Y13362D01*
X61769Y13363D01*
X61772Y13365D01*
X61776Y13367D01*
X61780Y13369D01*
X61785Y13371D01*
X61790Y13374D01*
X61797Y13376D01*
X61803Y13379D01*
X61811Y13381D01*
X61819Y13383D01*
X61827Y13385D01*
X61836Y13386D01*
X61845Y13387D01*
X61855Y13387D01*
X61904D01*
X61944Y13514D01*
X62031D01*
X61951Y13261D01*
D02*
G37*
G36*
X62739Y13292D02*
X62742Y13292D01*
X62746Y13291D01*
X62750Y13290D01*
X62755Y13288D01*
X62760Y13285D01*
X62765Y13281D01*
X62766Y13281D01*
X62767Y13279D01*
X62769Y13277D01*
X62771Y13273D01*
X62774Y13269D01*
X62776Y13265D01*
X62777Y13260D01*
X62778Y13254D01*
Y13253D01*
Y13253D01*
X62777Y13251D01*
X62777Y13248D01*
X62776Y13244D01*
X62775Y13240D01*
X62772Y13235D01*
X62769Y13231D01*
X62765Y13226D01*
X62765Y13226D01*
X62763Y13225D01*
X62760Y13223D01*
X62757Y13221D01*
X62752Y13219D01*
X62747Y13217D01*
X62742Y13215D01*
X62736Y13215D01*
X62734D01*
X62733Y13215D01*
X62729Y13216D01*
X62725Y13216D01*
X62721Y13218D01*
X62716Y13220D01*
X62711Y13223D01*
X62706Y13226D01*
X62705Y13227D01*
X62704Y13228D01*
X62702Y13231D01*
X62700Y13234D01*
X62698Y13238D01*
X62696Y13243D01*
X62694Y13248D01*
X62694Y13254D01*
Y13254D01*
Y13254D01*
X62694Y13256D01*
X62694Y13259D01*
X62695Y13263D01*
X62697Y13268D01*
X62699Y13272D01*
X62702Y13277D01*
X62706Y13281D01*
X62706Y13282D01*
X62708Y13283D01*
X62711Y13285D01*
X62714Y13287D01*
X62719Y13289D01*
X62723Y13291D01*
X62729Y13292D01*
X62736Y13293D01*
X62737D01*
X62739Y13292D01*
D02*
G37*
G36*
X64092Y13137D02*
X64097D01*
X64102Y13137D01*
X64108Y13136D01*
X64114Y13135D01*
X64127Y13134D01*
X64141Y13131D01*
X64148Y13129D01*
X64155Y13127D01*
X64160Y13125D01*
X64166Y13122D01*
X64166Y13122D01*
X64168Y13121D01*
X64169Y13120D01*
X64171Y13119D01*
X64174Y13117D01*
X64177Y13114D01*
X64180Y13111D01*
X64183Y13108D01*
X64186Y13104D01*
X64189Y13099D01*
X64192Y13094D01*
X64195Y13089D01*
X64197Y13082D01*
X64199Y13076D01*
X64200Y13069D01*
X64200Y13061D01*
Y13061D01*
Y13059D01*
X64200Y13058D01*
X64200Y13055D01*
X64199Y13052D01*
X64198Y13048D01*
X64197Y13044D01*
X64196Y13039D01*
X64194Y13035D01*
X64191Y13029D01*
X64188Y13024D01*
X64184Y13018D01*
X64180Y13012D01*
X64175Y13006D01*
X64169Y13000D01*
X64162Y12995D01*
X64162Y12994D01*
X64161Y12994D01*
X64160Y12993D01*
X64158Y12991D01*
X64156Y12990D01*
X64153Y12987D01*
X64150Y12985D01*
X64146Y12982D01*
X64141Y12979D01*
X64136Y12976D01*
X64130Y12973D01*
X64124Y12969D01*
X64117Y12966D01*
X64110Y12962D01*
X64102Y12958D01*
X64094Y12954D01*
X64095Y12953D01*
X64095Y12952D01*
X64096Y12950D01*
X64097Y12948D01*
X64098Y12945D01*
X64100Y12942D01*
X64102Y12938D01*
X64104Y12934D01*
X64107Y12925D01*
X64110Y12916D01*
X64111Y12910D01*
X64112Y12905D01*
X64113Y12900D01*
X64113Y12895D01*
Y12895D01*
Y12893D01*
X64113Y12890D01*
X64112Y12886D01*
X64111Y12882D01*
X64109Y12877D01*
X64107Y12871D01*
X64104Y12865D01*
X64100Y12859D01*
X64096Y12852D01*
X64090Y12845D01*
X64084Y12839D01*
X64080Y12835D01*
X64076Y12833D01*
X64071Y12829D01*
X64066Y12826D01*
X64061Y12823D01*
X64056Y12821D01*
X64050Y12818D01*
X64043Y12815D01*
X64043Y12815D01*
X64041Y12815D01*
X64038Y12814D01*
X64035Y12813D01*
X64030Y12811D01*
X64024Y12810D01*
X64017Y12808D01*
X64010Y12807D01*
X64002Y12805D01*
X63993Y12803D01*
X63984Y12802D01*
X63974Y12800D01*
X63963Y12799D01*
X63951Y12798D01*
X63939Y12798D01*
X63927Y12797D01*
X63802D01*
X63889Y13045D01*
X63976D01*
X63902Y12836D01*
X63921D01*
X63925Y12836D01*
X63929Y12837D01*
X63934D01*
X63939Y12837D01*
X63944Y12838D01*
X63950Y12838D01*
X63962Y12840D01*
X63974Y12842D01*
X63986Y12846D01*
X63986Y12846D01*
X63988Y12846D01*
X63990Y12847D01*
X63993Y12849D01*
X63996Y12850D01*
X63999Y12852D01*
X64003Y12854D01*
X64007Y12857D01*
X64011Y12860D01*
X64015Y12864D01*
X64019Y12868D01*
X64022Y12872D01*
X64025Y12877D01*
X64027Y12882D01*
X64029Y12888D01*
X64029Y12894D01*
Y12894D01*
Y12895D01*
X64028Y12898D01*
X64028Y12901D01*
X64027Y12905D01*
X64025Y12909D01*
X64022Y12914D01*
X64019Y12919D01*
Y12919D01*
X64019Y12920D01*
X64018Y12921D01*
X64016Y12924D01*
X64015Y12927D01*
X64013Y12931D01*
X64011Y12935D01*
X64010Y12938D01*
X64010Y12941D01*
Y12941D01*
Y12943D01*
Y12944D01*
X64010Y12946D01*
X64010Y12946D01*
X64011Y12948D01*
X64013Y12950D01*
X64015Y12952D01*
X64018Y12955D01*
X64023Y12959D01*
X64026Y12961D01*
X64029Y12962D01*
X64032Y12964D01*
X64036Y12966D01*
X64036Y12967D01*
X64037Y12967D01*
X64039Y12968D01*
X64041Y12969D01*
X64043Y12970D01*
X64046Y12972D01*
X64053Y12975D01*
X64060Y12979D01*
X64067Y12983D01*
X64074Y12988D01*
X64077Y12990D01*
X64080Y12993D01*
X64080Y12993D01*
X64081Y12994D01*
X64082Y12995D01*
X64083Y12996D01*
X64085Y12998D01*
X64087Y13000D01*
X64089Y13003D01*
X64092Y13006D01*
X64096Y13013D01*
X64099Y13020D01*
X64101Y13025D01*
X64102Y13029D01*
X64103Y13034D01*
X64103Y13039D01*
Y13039D01*
Y13040D01*
X64103Y13042D01*
X64102Y13045D01*
X64101Y13047D01*
X64100Y13051D01*
X64098Y13054D01*
X64096Y13058D01*
X64093Y13061D01*
X64089Y13064D01*
X64085Y13068D01*
X64079Y13070D01*
X64073Y13073D01*
X64065Y13075D01*
X64056Y13076D01*
X64052Y13076D01*
X63825D01*
X63825Y13075D01*
X63825Y13073D01*
X63824Y13070D01*
X63823Y13065D01*
X63821Y13058D01*
X63819Y13055D01*
X63817Y13051D01*
X63815Y13048D01*
X63812Y13044D01*
X63810Y13041D01*
X63806Y13038D01*
X63806Y13038D01*
X63805Y13037D01*
X63804Y13036D01*
X63803Y13035D01*
X63801Y13034D01*
X63799Y13033D01*
X63796Y13031D01*
X63793Y13030D01*
X63787Y13026D01*
X63779Y13024D01*
X63770Y13022D01*
X63766Y13021D01*
X63761Y13021D01*
X63758D01*
X63756Y13021D01*
X63754Y13022D01*
X63751Y13022D01*
X63745Y13023D01*
X63738Y13025D01*
X63730Y13028D01*
X63727Y13030D01*
X63723Y13032D01*
X63719Y13035D01*
X63715Y13038D01*
X63715Y13038D01*
X63715Y13039D01*
X63714Y13039D01*
X63712Y13041D01*
X63711Y13042D01*
X63709Y13044D01*
X63706Y13049D01*
X63703Y13055D01*
X63700Y13062D01*
X63698Y13066D01*
X63697Y13070D01*
X63697Y13074D01*
X63697Y13079D01*
Y13079D01*
Y13080D01*
Y13081D01*
X63697Y13082D01*
Y13084D01*
X63697Y13087D01*
X63698Y13090D01*
X63698Y13093D01*
X63698D01*
X63697Y13094D01*
X63695D01*
X63692Y13094D01*
X63688Y13094D01*
X63683D01*
X63681Y13094D01*
X63679D01*
X63676Y13093D01*
X63673Y13093D01*
X63670Y13092D01*
X63667Y13090D01*
X63663Y13089D01*
X63660Y13087D01*
X63657Y13084D01*
X63654Y13081D01*
X63651Y13078D01*
X63650Y13074D01*
X63648Y13069D01*
X63648Y13063D01*
Y13063D01*
Y13063D01*
Y13062D01*
X63648Y13060D01*
X63649Y13058D01*
X63649Y13056D01*
X63650Y13053D01*
X63651Y13049D01*
X63652Y13044D01*
X63653Y13039D01*
X63655Y13034D01*
X63657Y13027D01*
X63660Y13020D01*
X63663Y13012D01*
X63666Y13003D01*
X63670Y12993D01*
X63670Y12992D01*
X63671Y12991D01*
X63672Y12988D01*
X63673Y12984D01*
X63675Y12979D01*
X63677Y12974D01*
X63679Y12968D01*
X63681Y12962D01*
X63683Y12955D01*
X63685Y12948D01*
X63688Y12934D01*
X63689Y12927D01*
X63690Y12920D01*
X63691Y12914D01*
X63691Y12908D01*
Y12907D01*
Y12907D01*
Y12906D01*
Y12905D01*
X63691Y12901D01*
X63690Y12897D01*
X63689Y12891D01*
X63687Y12885D01*
X63685Y12878D01*
X63682Y12870D01*
X63678Y12862D01*
X63673Y12854D01*
X63667Y12846D01*
X63661Y12838D01*
X63656Y12834D01*
X63652Y12830D01*
X63647Y12826D01*
X63642Y12822D01*
X63637Y12818D01*
X63631Y12815D01*
X63625Y12812D01*
X63618Y12808D01*
X63617Y12808D01*
X63615Y12807D01*
X63612Y12806D01*
X63608Y12804D01*
X63603Y12803D01*
X63597Y12801D01*
X63590Y12798D01*
X63582Y12796D01*
X63573Y12794D01*
X63563Y12792D01*
X63552Y12790D01*
X63541Y12788D01*
X63529Y12786D01*
X63517Y12785D01*
X63504Y12784D01*
X63490Y12784D01*
X63484D01*
X63479Y12784D01*
X63473Y12785D01*
X63466Y12785D01*
X63459Y12786D01*
X63450Y12786D01*
X63441Y12787D01*
X63432Y12789D01*
X63422Y12790D01*
X63412Y12792D01*
X63402Y12794D01*
X63392Y12796D01*
X63381Y12799D01*
X63372Y12802D01*
X63371D01*
X63371Y12803D01*
X63370Y12803D01*
X63369Y12804D01*
X63365Y12805D01*
X63360Y12807D01*
X63355Y12810D01*
X63349Y12813D01*
X63342Y12817D01*
X63336Y12822D01*
X63329Y12828D01*
X63322Y12833D01*
X63316Y12840D01*
X63311Y12847D01*
X63306Y12855D01*
X63302Y12864D01*
X63301Y12868D01*
X63300Y12873D01*
X63299Y12878D01*
X63299Y12883D01*
Y12883D01*
Y12884D01*
Y12885D01*
X63299Y12886D01*
X63300Y12888D01*
X63300Y12890D01*
X63301Y12895D01*
X63303Y12901D01*
X63306Y12908D01*
X63308Y12911D01*
X63310Y12915D01*
X63313Y12918D01*
X63316Y12922D01*
X63319Y12926D01*
X63323Y12930D01*
X63327Y12933D01*
X63332Y12937D01*
X63337Y12940D01*
X63343Y12943D01*
X63349Y12947D01*
X63356Y12949D01*
X63363Y12952D01*
X63371Y12955D01*
X63380Y12957D01*
X63389Y12958D01*
X63399Y12960D01*
X63409Y12961D01*
X63421Y12961D01*
X63433Y12962D01*
X63525D01*
X63543Y12923D01*
X63466D01*
X63464Y12923D01*
X63461D01*
X63458Y12922D01*
X63455Y12922D01*
X63447Y12921D01*
X63440Y12919D01*
X63432Y12917D01*
X63424Y12914D01*
X63423D01*
X63423Y12913D01*
X63421Y12912D01*
X63420Y12911D01*
X63416Y12908D01*
X63411Y12904D01*
X63406Y12899D01*
X63402Y12893D01*
X63400Y12889D01*
X63399Y12885D01*
X63398Y12881D01*
X63398Y12877D01*
Y12876D01*
Y12875D01*
X63398Y12874D01*
X63399Y12872D01*
X63399Y12870D01*
X63400Y12867D01*
X63401Y12864D01*
X63402Y12861D01*
X63404Y12858D01*
X63407Y12854D01*
X63409Y12851D01*
X63413Y12847D01*
X63417Y12844D01*
X63422Y12840D01*
X63427Y12837D01*
X63434Y12834D01*
X63434D01*
X63435Y12833D01*
X63437Y12833D01*
X63439Y12832D01*
X63441Y12832D01*
X63444Y12831D01*
X63448Y12829D01*
X63452Y12828D01*
X63456Y12827D01*
X63461Y12826D01*
X63470Y12824D01*
X63482Y12823D01*
X63493Y12822D01*
X63497D01*
X63500Y12823D01*
X63503Y12823D01*
X63507Y12823D01*
X63512Y12824D01*
X63517Y12825D01*
X63527Y12827D01*
X63538Y12830D01*
X63544Y12832D01*
X63549Y12834D01*
X63555Y12837D01*
X63560Y12840D01*
X63560Y12840D01*
X63561Y12841D01*
X63563Y12842D01*
X63565Y12844D01*
X63567Y12846D01*
X63570Y12848D01*
X63573Y12851D01*
X63576Y12855D01*
X63579Y12858D01*
X63582Y12863D01*
X63584Y12868D01*
X63586Y12873D01*
X63588Y12879D01*
X63590Y12885D01*
X63591Y12891D01*
X63591Y12898D01*
Y12898D01*
Y12899D01*
Y12901D01*
X63591Y12903D01*
X63591Y12906D01*
X63590Y12909D01*
X63590Y12913D01*
X63589Y12917D01*
X63588Y12922D01*
X63586Y12928D01*
X63585Y12934D01*
X63583Y12941D01*
X63581Y12948D01*
X63578Y12956D01*
X63575Y12964D01*
X63571Y12973D01*
X63571Y12974D01*
X63570Y12975D01*
X63569Y12977D01*
X63568Y12981D01*
X63567Y12985D01*
X63565Y12990D01*
X63564Y12995D01*
X63562Y13001D01*
X63558Y13013D01*
X63555Y13026D01*
X63554Y13032D01*
X63553Y13038D01*
X63552Y13044D01*
X63552Y13049D01*
Y13049D01*
Y13050D01*
Y13051D01*
X63552Y13053D01*
X63552Y13055D01*
X63553Y13057D01*
X63554Y13063D01*
X63556Y13069D01*
X63558Y13073D01*
X63560Y13077D01*
X63562Y13081D01*
X63564Y13085D01*
X63567Y13089D01*
X63570Y13093D01*
X63574Y13097D01*
X63578Y13101D01*
X63583Y13105D01*
X63588Y13109D01*
X63594Y13113D01*
X63601Y13117D01*
X63607Y13120D01*
X63615Y13123D01*
X63623Y13126D01*
X63632Y13129D01*
X63642Y13131D01*
X63652Y13133D01*
X63663Y13135D01*
X63675Y13136D01*
X63688Y13137D01*
X63702Y13137D01*
X63763D01*
X63765Y13137D01*
X63767Y13137D01*
X63770Y13136D01*
X63776Y13135D01*
X63783Y13133D01*
X63790Y13130D01*
X63794Y13128D01*
X63795Y13128D01*
X63801Y13137D01*
X64088D01*
X64092Y13137D01*
D02*
G37*
G36*
X60964Y13142D02*
X60967D01*
X60970Y13142D01*
X60973Y13141D01*
X60977Y13141D01*
X60984Y13139D01*
X60992Y13137D01*
X61001Y13133D01*
X61004Y13130D01*
X61008Y13128D01*
X61009Y13127D01*
X61009Y13127D01*
X61010Y13126D01*
X61012Y13125D01*
X61014Y13123D01*
X61016Y13121D01*
X61018Y13119D01*
X61020Y13116D01*
X61024Y13110D01*
X61027Y13102D01*
X61029Y13098D01*
X61030Y13094D01*
X61030Y13089D01*
X61031Y13084D01*
Y13083D01*
Y13083D01*
Y13081D01*
X61030Y13080D01*
X61030Y13078D01*
X61030Y13075D01*
X61028Y13069D01*
X61026Y13063D01*
X61024Y13059D01*
X61022Y13056D01*
X61020Y13052D01*
X61017Y13049D01*
X61014Y13045D01*
X61010Y13042D01*
X61010Y13042D01*
X61009Y13041D01*
X61008Y13041D01*
X61007Y13039D01*
X61005Y13039D01*
X61003Y13037D01*
X61001Y13036D01*
X60998Y13034D01*
X60991Y13031D01*
X60984Y13029D01*
X60976Y13027D01*
X60971Y13026D01*
X60966Y13026D01*
X60964D01*
X60962Y13026D01*
X60959Y13027D01*
X60957Y13027D01*
X60953Y13028D01*
X60950Y13028D01*
X60942Y13031D01*
X60935Y13034D01*
X60931Y13036D01*
X60927Y13039D01*
X60923Y13041D01*
X60919Y13044D01*
X60919Y13045D01*
X60919Y13045D01*
X60918Y13046D01*
X60916Y13048D01*
X60915Y13050D01*
X60913Y13052D01*
X60912Y13054D01*
X60910Y13057D01*
X60908Y13060D01*
X60907Y13064D01*
X60904Y13072D01*
X60903Y13077D01*
X60903Y13081D01*
X60902Y13086D01*
X60903Y13091D01*
X60899D01*
X60897Y13091D01*
X60894Y13090D01*
X60890Y13089D01*
X60885Y13087D01*
X60879Y13085D01*
X60879Y13085D01*
X60878Y13084D01*
X60876Y13083D01*
X60874Y13081D01*
X60871Y13079D01*
X60868Y13075D01*
X60864Y13071D01*
X60861Y13065D01*
X60858Y13058D01*
X60856Y13055D01*
X60854Y13050D01*
X60852Y13046D01*
X60850Y13041D01*
X60849Y13036D01*
X60847Y13030D01*
X60845Y13024D01*
X60844Y13018D01*
X60842Y13011D01*
X60841Y13004D01*
X60840Y12996D01*
X60839Y12988D01*
X60838Y12979D01*
X60837Y12970D01*
Y12970D01*
Y12969D01*
X60837Y12968D01*
X60837Y12966D01*
X60836Y12964D01*
X60836Y12961D01*
X60835Y12958D01*
X60834Y12955D01*
X60833Y12951D01*
X60832Y12947D01*
X60829Y12937D01*
X60825Y12928D01*
X60820Y12917D01*
X60817Y12911D01*
X60814Y12906D01*
X60810Y12900D01*
X60806Y12895D01*
X60801Y12889D01*
X60796Y12883D01*
X60791Y12878D01*
X60785Y12873D01*
X60779Y12867D01*
X60773Y12862D01*
X60766Y12857D01*
X60758Y12852D01*
X60750Y12848D01*
X60741Y12844D01*
X60733Y12840D01*
X60723Y12836D01*
X61007D01*
X61006Y12836D01*
X61004Y12845D01*
X61004Y12850D01*
X61004Y12855D01*
Y12856D01*
Y12857D01*
X61004Y12860D01*
X61004Y12863D01*
X61005Y12868D01*
X61006Y12873D01*
X61007Y12878D01*
X61008Y12884D01*
X61010Y12890D01*
X61013Y12897D01*
X61016Y12903D01*
X61020Y12910D01*
X61024Y12917D01*
X61029Y12923D01*
X61035Y12929D01*
X61042Y12935D01*
X61042Y12935D01*
X61043Y12936D01*
X61045Y12937D01*
X61048Y12939D01*
X61051Y12941D01*
X61055Y12943D01*
X61060Y12946D01*
X61065Y12948D01*
X61071Y12951D01*
X61077Y12953D01*
X61084Y12956D01*
X61092Y12957D01*
X61100Y12959D01*
X61108Y12961D01*
X61117Y12961D01*
X61126Y12962D01*
X61261D01*
X61221Y12836D01*
X61322D01*
Y12836D01*
X61321Y12834D01*
X61320Y12833D01*
X61319Y12830D01*
X61317Y12827D01*
X61315Y12824D01*
X61313Y12820D01*
X61310Y12817D01*
X61306Y12813D01*
X61302Y12810D01*
X61297Y12806D01*
X61291Y12803D01*
X61286Y12801D01*
X61278Y12799D01*
X61271Y12798D01*
X61262Y12797D01*
X61169D01*
X61167Y12798D01*
X61165D01*
X61162Y12798D01*
X61159Y12799D01*
X61152Y12801D01*
X61148Y12802D01*
X61145Y12804D01*
X61141Y12806D01*
X61138Y12808D01*
X61136Y12811D01*
X61134Y12814D01*
X61132Y12818D01*
X61132Y12822D01*
X61132Y12822D01*
X61131Y12821D01*
X61129Y12820D01*
X61127Y12818D01*
X61125Y12815D01*
X61122Y12813D01*
X61118Y12810D01*
X61114Y12808D01*
X61110Y12805D01*
X61105Y12802D01*
X61099Y12799D01*
X61094Y12797D01*
X61087Y12795D01*
X61081Y12794D01*
X61074Y12793D01*
X61067Y12793D01*
X61064D01*
X61063Y12793D01*
X61060Y12793D01*
X61057Y12793D01*
X61051Y12795D01*
X61043Y12797D01*
X61036Y12800D01*
X61032Y12802D01*
X61028Y12804D01*
X61025Y12807D01*
X61021Y12810D01*
X61021Y12810D01*
X61021Y12811D01*
X61020Y12812D01*
X61019Y12813D01*
X61017Y12815D01*
X61016Y12817D01*
X61014Y12819D01*
X61013Y12822D01*
X61009Y12829D01*
X61008Y12832D01*
X61007Y12830D01*
X61005Y12827D01*
X61003Y12824D01*
X61001Y12820D01*
X60997Y12817D01*
X60994Y12813D01*
X60989Y12810D01*
X60984Y12806D01*
X60978Y12803D01*
X60971Y12801D01*
X60963Y12799D01*
X60954Y12798D01*
X60944Y12797D01*
X60501D01*
Y12798D01*
X60502Y12798D01*
X60502Y12800D01*
X60504Y12803D01*
X60505Y12807D01*
X60507Y12811D01*
X60510Y12816D01*
X60512Y12821D01*
X60516Y12827D01*
X60519Y12832D01*
X60523Y12837D01*
X60528Y12843D01*
X60532Y12847D01*
X60537Y12851D01*
X60542Y12854D01*
X60548Y12855D01*
X60550Y12856D01*
X60556D01*
X60557Y12856D01*
X60559Y12855D01*
X60562Y12855D01*
X60564Y12855D01*
X60567Y12854D01*
X60571Y12854D01*
X60575Y12853D01*
X60579Y12852D01*
X60584Y12850D01*
X60589Y12849D01*
X60595Y12847D01*
X60601Y12845D01*
X60601D01*
X60603Y12845D01*
X60604Y12844D01*
X60607Y12844D01*
X60610Y12843D01*
X60613Y12842D01*
X60616Y12841D01*
X60620Y12840D01*
X60628Y12838D01*
X60636Y12836D01*
X60644Y12835D01*
X60648Y12835D01*
X60653D01*
X60655Y12835D01*
X60658Y12836D01*
X60661Y12837D01*
X60666Y12839D01*
X60671Y12841D01*
X60675Y12844D01*
X60681Y12848D01*
X60687Y12853D01*
X60693Y12859D01*
X60695Y12863D01*
X60698Y12867D01*
X60701Y12871D01*
X60704Y12875D01*
X60707Y12880D01*
X60710Y12885D01*
X60713Y12891D01*
X60716Y12897D01*
X60718Y12903D01*
X60721Y12910D01*
X60749Y13021D01*
Y13022D01*
X60749Y13023D01*
X60750Y13024D01*
X60751Y13027D01*
X60752Y13029D01*
X60754Y13033D01*
X60756Y13036D01*
X60758Y13040D01*
X60760Y13045D01*
X60764Y13050D01*
X60767Y13055D01*
X60771Y13060D01*
X60775Y13065D01*
X60780Y13071D01*
X60785Y13077D01*
X60791Y13082D01*
X60797Y13088D01*
X60804Y13094D01*
X60811Y13099D01*
X60819Y13104D01*
X60827Y13110D01*
X60836Y13115D01*
X60845Y13120D01*
X60856Y13124D01*
X60866Y13128D01*
X60878Y13132D01*
X60890Y13135D01*
X60902Y13138D01*
X60916Y13140D01*
X60930Y13141D01*
X60944Y13142D01*
X60960Y13143D01*
X60962D01*
X60964Y13142D01*
D02*
G37*
G36*
X63237Y13137D02*
X63239Y13137D01*
X63242Y13136D01*
X63248Y13135D01*
X63254Y13133D01*
X63261Y13130D01*
X63265Y13128D01*
X63268Y13125D01*
X63272Y13122D01*
X63275Y13119D01*
X63276Y13119D01*
X63276Y13119D01*
X63277Y13118D01*
X63278Y13116D01*
X63279Y13114D01*
X63281Y13112D01*
X63285Y13107D01*
X63288Y13101D01*
X63291Y13095D01*
X63292Y13091D01*
X63293Y13087D01*
X63294Y13082D01*
X63294Y13078D01*
Y13078D01*
Y13077D01*
Y13076D01*
X63294Y13074D01*
X63293Y13072D01*
X63293Y13069D01*
X63291Y13063D01*
X63289Y13057D01*
X63287Y13053D01*
X63285Y13050D01*
X63283Y13046D01*
X63280Y13042D01*
X63277Y13039D01*
X63274Y13036D01*
X63273Y13035D01*
X63273Y13035D01*
X63272Y13034D01*
X63270Y13033D01*
X63268Y13032D01*
X63266Y13030D01*
X63264Y13029D01*
X63261Y13027D01*
X63254Y13024D01*
X63247Y13022D01*
X63238Y13020D01*
X63234Y13019D01*
X63229Y13019D01*
X63226D01*
X63225Y13019D01*
X63222Y13020D01*
X63220Y13020D01*
X63214Y13021D01*
X63207Y13023D01*
X63199Y13026D01*
X63195Y13028D01*
X63192Y13030D01*
X63188Y13033D01*
X63184Y13036D01*
X63184Y13036D01*
X63183Y13036D01*
X63182Y13037D01*
X63181Y13039D01*
X63179Y13040D01*
X63178Y13042D01*
X63174Y13047D01*
X63170Y13054D01*
X63167Y13061D01*
X63166Y13065D01*
X63165Y13069D01*
X63164Y13074D01*
X63164Y13078D01*
Y13079D01*
Y13080D01*
Y13081D01*
X63164Y13083D01*
X63165Y13088D01*
X63166Y13093D01*
X63163D01*
X63161Y13093D01*
X63157Y13092D01*
X63153Y13091D01*
X63147Y13090D01*
X63141Y13088D01*
X63135Y13086D01*
X63128Y13083D01*
X63120Y13080D01*
X63113Y13075D01*
X63105Y13070D01*
X63096Y13064D01*
X63088Y13057D01*
X63080Y13049D01*
X63072Y13039D01*
X63072Y13039D01*
X63071Y13037D01*
X63069Y13034D01*
X63066Y13031D01*
X63063Y13026D01*
X63060Y13020D01*
X63056Y13014D01*
X63052Y13007D01*
X63049Y13000D01*
X63045Y12992D01*
X63042Y12983D01*
X63039Y12975D01*
X63036Y12965D01*
X63034Y12956D01*
X63033Y12946D01*
X63033Y12936D01*
Y12936D01*
Y12935D01*
Y12934D01*
X63033Y12932D01*
X63033Y12929D01*
X63034Y12927D01*
X63034Y12924D01*
X63035Y12920D01*
X63037Y12913D01*
X63040Y12904D01*
X63042Y12900D01*
X63044Y12895D01*
X63046Y12891D01*
X63049Y12886D01*
X63052Y12881D01*
X63056Y12877D01*
X63060Y12872D01*
X63065Y12868D01*
X63070Y12863D01*
X63075Y12859D01*
X63081Y12855D01*
X63088Y12852D01*
X63095Y12848D01*
X63102Y12845D01*
X63111Y12843D01*
X63120Y12840D01*
X63130Y12839D01*
X63140Y12837D01*
X63151Y12836D01*
X63163Y12836D01*
X63284D01*
Y12836D01*
X63284Y12834D01*
X63283Y12833D01*
X63282Y12830D01*
X63281Y12827D01*
X63279Y12824D01*
X63277Y12820D01*
X63274Y12817D01*
X63271Y12813D01*
X63266Y12810D01*
X63262Y12806D01*
X63256Y12803D01*
X63250Y12801D01*
X63243Y12799D01*
X63235Y12798D01*
X63225Y12797D01*
X63131D01*
X63128Y12798D01*
X63122D01*
X63115Y12798D01*
X63107Y12799D01*
X63098Y12799D01*
X63088Y12800D01*
X63077Y12802D01*
X63067Y12803D01*
X63055Y12805D01*
X63044Y12808D01*
X63033Y12810D01*
X63022Y12813D01*
X63011Y12817D01*
X63001Y12821D01*
X63001D01*
X63000Y12822D01*
X62999Y12822D01*
X62998Y12823D01*
X62994Y12825D01*
X62990Y12828D01*
X62985Y12832D01*
X62979Y12836D01*
X62972Y12841D01*
X62966Y12848D01*
X62959Y12854D01*
X62952Y12863D01*
X62947Y12872D01*
X62941Y12881D01*
X62937Y12892D01*
X62933Y12904D01*
X62932Y12910D01*
X62931Y12916D01*
X62931Y12923D01*
Y12930D01*
Y12931D01*
Y12932D01*
X62931Y12934D01*
Y12937D01*
X62932Y12941D01*
X62932Y12945D01*
X62933Y12951D01*
X62934Y12956D01*
X62935Y12962D01*
X62937Y12969D01*
X62939Y12976D01*
X62942Y12983D01*
X62945Y12991D01*
X62948Y12998D01*
X62952Y13006D01*
X62956Y13014D01*
Y13014D01*
X62957Y13015D01*
X62958Y13017D01*
X62960Y13019D01*
X62963Y13023D01*
X62966Y13028D01*
X62970Y13034D01*
X62976Y13040D01*
X62982Y13047D01*
X62988Y13054D01*
X62995Y13061D01*
X63004Y13069D01*
X63012Y13077D01*
X63022Y13084D01*
X63032Y13091D01*
X63043Y13098D01*
X63054Y13105D01*
X63055D01*
X63055Y13105D01*
X63056Y13105D01*
X63057Y13106D01*
X63061Y13108D01*
X63065Y13110D01*
X63071Y13112D01*
X63077Y13115D01*
X63085Y13118D01*
X63094Y13121D01*
X63103Y13124D01*
X63113Y13127D01*
X63124Y13130D01*
X63135Y13132D01*
X63147Y13134D01*
X63160Y13136D01*
X63173Y13137D01*
X63185Y13137D01*
X63236D01*
X63237Y13137D01*
D02*
G37*
G36*
X59400Y12828D02*
X59400Y12828D01*
X59400Y12827D01*
X59398Y12825D01*
X59397Y12823D01*
X59395Y12821D01*
X59393Y12818D01*
X59390Y12815D01*
X59387Y12813D01*
X59384Y12810D01*
X59380Y12807D01*
X59376Y12805D01*
X59371Y12802D01*
X59366Y12800D01*
X59360Y12799D01*
X59354Y12798D01*
X59348Y12797D01*
X59318D01*
Y13012D01*
X59199Y12827D01*
X59198Y12827D01*
X59198Y12826D01*
X59197Y12824D01*
X59195Y12822D01*
X59193Y12820D01*
X59191Y12818D01*
X59188Y12815D01*
X59185Y12812D01*
X59181Y12810D01*
X59177Y12807D01*
X59172Y12804D01*
X59167Y12802D01*
X59161Y12800D01*
X59156Y12799D01*
X59149Y12798D01*
X59142Y12797D01*
X59108D01*
X59134Y13076D01*
X59021D01*
X59058Y13137D01*
X59168D01*
X59172Y13137D01*
X59177Y13136D01*
X59182Y13135D01*
X59187Y13133D01*
X59193Y13131D01*
X59198Y13128D01*
X59199D01*
X59199Y13127D01*
X59200Y13127D01*
X59201Y13126D01*
X59204Y13123D01*
X59208Y13119D01*
X59212Y13113D01*
X59215Y13107D01*
X59216Y13103D01*
X59217Y13099D01*
X59217Y13095D01*
X59218Y13090D01*
Y13089D01*
Y13089D01*
Y13087D01*
X59217Y13085D01*
X59217Y13082D01*
X59199Y12918D01*
X59315Y13101D01*
Y13101D01*
X59315Y13102D01*
X59316Y13103D01*
X59317Y13104D01*
X59319Y13107D01*
X59322Y13112D01*
X59325Y13116D01*
X59329Y13120D01*
X59333Y13124D01*
X59337Y13127D01*
X59337Y13128D01*
X59339Y13129D01*
X59342Y13131D01*
X59346Y13132D01*
X59352Y13134D01*
X59358Y13136D01*
X59365Y13137D01*
X59374Y13137D01*
X59398D01*
Y12923D01*
X59513Y13137D01*
X59571D01*
X59400Y12828D01*
D02*
G37*
G36*
X58677Y12961D02*
X58680D01*
X58684Y12961D01*
X58687Y12960D01*
X58696Y12959D01*
X58705Y12958D01*
X58714Y12956D01*
X58723Y12952D01*
X58724D01*
X58725Y12952D01*
X58726Y12951D01*
X58728Y12950D01*
X58730Y12949D01*
X58733Y12947D01*
X58739Y12943D01*
X58745Y12937D01*
X58747Y12934D01*
X58750Y12931D01*
X58752Y12927D01*
X58754Y12923D01*
X58755Y12919D01*
X58756Y12914D01*
Y12914D01*
Y12913D01*
Y12912D01*
X58755Y12910D01*
X58755Y12908D01*
X58755Y12905D01*
X58753Y12899D01*
X58752Y12896D01*
X58750Y12892D01*
X58748Y12889D01*
X58746Y12885D01*
X58743Y12881D01*
X58739Y12878D01*
X58735Y12874D01*
X58731Y12871D01*
X58651D01*
X58677Y12923D01*
X58626D01*
X58606Y12865D01*
Y12864D01*
X58606Y12864D01*
X58605Y12863D01*
Y12862D01*
X58605Y12859D01*
X58604Y12855D01*
Y12855D01*
Y12854D01*
X58605Y12854D01*
X58605Y12853D01*
X58606Y12849D01*
X58607Y12848D01*
X58608Y12846D01*
X58610Y12844D01*
X58612Y12842D01*
X58615Y12841D01*
X58618Y12839D01*
X58621Y12838D01*
X58625Y12837D01*
X58630Y12836D01*
X58636Y12836D01*
X58824D01*
Y12836D01*
X58824Y12835D01*
X58824Y12834D01*
X58823Y12833D01*
X58822Y12830D01*
X58819Y12825D01*
X58816Y12821D01*
X58812Y12816D01*
X58807Y12811D01*
X58801Y12807D01*
X58801D01*
X58800Y12806D01*
X58799Y12806D01*
X58798Y12805D01*
X58795Y12804D01*
X58790Y12802D01*
X58785Y12800D01*
X58779Y12799D01*
X58771Y12798D01*
X58764Y12797D01*
X58624D01*
X58622Y12798D01*
X58619D01*
X58615Y12798D01*
X58611Y12798D01*
X58607Y12799D01*
X58602Y12800D01*
X58592Y12801D01*
X58582Y12803D01*
X58571Y12806D01*
X58560Y12810D01*
X58549Y12815D01*
X58540Y12820D01*
X58535Y12824D01*
X58531Y12827D01*
X58527Y12831D01*
X58523Y12835D01*
X58520Y12840D01*
X58517Y12845D01*
X58515Y12850D01*
X58514Y12855D01*
X58513Y12861D01*
X58512Y12868D01*
Y12869D01*
Y12870D01*
X58513Y12872D01*
X58513Y12875D01*
X58514Y12879D01*
X58514Y12884D01*
X58516Y12889D01*
X58517Y12894D01*
X58520Y12900D01*
X58522Y12905D01*
X58525Y12911D01*
X58529Y12917D01*
X58534Y12923D01*
X58539Y12929D01*
X58545Y12935D01*
X58552Y12939D01*
X58553Y12940D01*
X58554Y12940D01*
X58556Y12941D01*
X58559Y12943D01*
X58562Y12945D01*
X58566Y12947D01*
X58570Y12949D01*
X58576Y12951D01*
X58581Y12953D01*
X58587Y12955D01*
X58594Y12957D01*
X58602Y12958D01*
X58609Y12960D01*
X58617Y12961D01*
X58625Y12961D01*
X58634Y12962D01*
X58675D01*
X58677Y12961D01*
D02*
G37*
G36*
X62850Y13147D02*
X62853Y13146D01*
X62856Y13146D01*
X62859Y13146D01*
X62863Y13145D01*
X62870Y13143D01*
X62879Y13140D01*
X62883Y13138D01*
X62887Y13136D01*
X62891Y13133D01*
X62895Y13130D01*
X62895Y13130D01*
X62896Y13129D01*
X62897Y13128D01*
X62899Y13127D01*
X62900Y13125D01*
X62902Y13123D01*
X62904Y13120D01*
X62906Y13118D01*
X62908Y13114D01*
X62910Y13111D01*
X62914Y13103D01*
X62915Y13099D01*
X62916Y13094D01*
X62917Y13089D01*
X62917Y13084D01*
Y13083D01*
Y13082D01*
Y13081D01*
X62917Y13079D01*
Y13076D01*
X62916Y13073D01*
X62916Y13069D01*
X62915Y13064D01*
X62915Y13059D01*
X62914Y13054D01*
X62913Y13048D01*
X62911Y13042D01*
X62910Y13035D01*
X62908Y13028D01*
X62906Y13020D01*
X62904Y13012D01*
Y13012D01*
X62904Y13011D01*
X62903Y13009D01*
X62902Y13006D01*
X62901Y13003D01*
X62900Y12999D01*
X62898Y12995D01*
X62897Y12990D01*
X62895Y12985D01*
X62893Y12979D01*
X62888Y12968D01*
X62884Y12956D01*
X62878Y12944D01*
Y12944D01*
X62878Y12943D01*
X62877Y12942D01*
X62877Y12940D01*
X62876Y12938D01*
X62874Y12936D01*
X62873Y12934D01*
X62872Y12931D01*
X62868Y12924D01*
X62864Y12916D01*
X62859Y12908D01*
X62854Y12899D01*
X62848Y12890D01*
X62843Y12880D01*
X62836Y12871D01*
X62830Y12861D01*
X62823Y12853D01*
X62816Y12844D01*
X62809Y12836D01*
X62802Y12830D01*
X62802Y12830D01*
X62800Y12828D01*
X62797Y12826D01*
X62793Y12824D01*
X62789Y12820D01*
X62783Y12817D01*
X62776Y12813D01*
X62768Y12810D01*
X62759Y12806D01*
X62750Y12802D01*
X62739Y12798D01*
X62728Y12795D01*
X62715Y12793D01*
X62702Y12791D01*
X62688Y12789D01*
X62673Y12789D01*
X62669D01*
X62666Y12789D01*
X62662Y12790D01*
X62659Y12790D01*
X62654Y12791D01*
X62649Y12791D01*
X62638Y12793D01*
X62626Y12796D01*
X62621Y12799D01*
X62615Y12801D01*
X62610Y12804D01*
X62605Y12807D01*
X62604Y12807D01*
X62603Y12808D01*
X62602Y12809D01*
X62600Y12811D01*
X62598Y12813D01*
X62595Y12816D01*
X62593Y12819D01*
X62590Y12823D01*
X62587Y12827D01*
X62584Y12831D01*
X62581Y12836D01*
X62579Y12842D01*
X62578Y12848D01*
X62576Y12854D01*
X62575Y12861D01*
X62575Y12869D01*
Y12869D01*
Y12870D01*
Y12871D01*
Y12872D01*
X62575Y12874D01*
Y12875D01*
X62576Y12880D01*
X62576Y12886D01*
X62577Y12893D01*
X62579Y12899D01*
X62581Y12907D01*
X62634Y13076D01*
X62507D01*
X62542Y13137D01*
X62739D01*
X62670Y12911D01*
Y12911D01*
X62670Y12911D01*
X62669Y12910D01*
X62669Y12908D01*
X62668Y12905D01*
X62667Y12900D01*
X62666Y12895D01*
X62665Y12889D01*
X62664Y12883D01*
X62664Y12876D01*
Y12876D01*
Y12876D01*
Y12875D01*
X62664Y12874D01*
X62664Y12870D01*
X62665Y12866D01*
X62667Y12861D01*
X62669Y12856D01*
X62672Y12852D01*
X62676Y12848D01*
X62677Y12847D01*
X62678Y12846D01*
X62681Y12845D01*
X62684Y12843D01*
X62688Y12841D01*
X62694Y12839D01*
X62700Y12838D01*
X62706Y12838D01*
X62708D01*
X62709Y12838D01*
X62713Y12838D01*
X62717Y12839D01*
X62723Y12841D01*
X62730Y12844D01*
X62737Y12847D01*
X62745Y12852D01*
X62750Y12854D01*
X62754Y12857D01*
X62759Y12861D01*
X62764Y12864D01*
X62768Y12869D01*
X62773Y12873D01*
X62778Y12878D01*
X62783Y12884D01*
X62788Y12890D01*
X62793Y12896D01*
X62798Y12903D01*
X62803Y12911D01*
X62808Y12919D01*
X62813Y12928D01*
X62818Y12937D01*
X62822Y12947D01*
X62823Y12948D01*
X62823Y12949D01*
X62824Y12951D01*
X62826Y12954D01*
X62827Y12958D01*
X62829Y12962D01*
X62830Y12967D01*
X62833Y12972D01*
X62835Y12978D01*
X62837Y12984D01*
X62841Y12997D01*
X62845Y13009D01*
X62847Y13021D01*
X62845D01*
X62842Y13022D01*
X62840Y13022D01*
X62837Y13022D01*
X62834Y13023D01*
X62830Y13023D01*
X62823Y13025D01*
X62814Y13029D01*
X62810Y13030D01*
X62806Y13033D01*
X62802Y13035D01*
X62798Y13038D01*
X62797Y13039D01*
X62797Y13039D01*
X62796Y13040D01*
X62794Y13041D01*
X62792Y13043D01*
X62790Y13045D01*
X62788Y13048D01*
X62786Y13051D01*
X62782Y13057D01*
X62779Y13065D01*
X62777Y13070D01*
X62776Y13074D01*
X62775Y13079D01*
X62775Y13084D01*
Y13084D01*
Y13085D01*
Y13087D01*
X62775Y13089D01*
X62776Y13091D01*
X62776Y13094D01*
X62778Y13100D01*
X62780Y13107D01*
X62782Y13111D01*
X62784Y13115D01*
X62787Y13119D01*
X62790Y13122D01*
X62793Y13126D01*
X62797Y13129D01*
X62797Y13130D01*
X62798Y13130D01*
X62799Y13131D01*
X62801Y13132D01*
X62803Y13134D01*
X62805Y13135D01*
X62808Y13137D01*
X62811Y13138D01*
X62818Y13141D01*
X62826Y13144D01*
X62836Y13146D01*
X62841Y13147D01*
X62846Y13147D01*
X62848D01*
X62850Y13147D01*
D02*
G37*
G36*
X62234Y12962D02*
X62293D01*
Y12961D01*
X62292Y12960D01*
X62291Y12958D01*
X62290Y12956D01*
X62288Y12953D01*
X62286Y12950D01*
X62283Y12946D01*
X62280Y12942D01*
X62277Y12939D01*
X62273Y12935D01*
X62268Y12932D01*
X62263Y12929D01*
X62257Y12927D01*
X62251Y12925D01*
X62244Y12923D01*
X62236Y12923D01*
X62222D01*
X62195Y12836D01*
X62326D01*
Y12836D01*
X62325Y12834D01*
X62325Y12833D01*
X62323Y12830D01*
X62322Y12827D01*
X62320Y12824D01*
X62317Y12820D01*
X62314Y12817D01*
X62311Y12813D01*
X62306Y12810D01*
X62301Y12806D01*
X62295Y12803D01*
X62289Y12801D01*
X62282Y12799D01*
X62274Y12798D01*
X62265Y12797D01*
X62140D01*
X62139Y12798D01*
X62136D01*
X62134Y12798D01*
X62131Y12799D01*
X62124Y12801D01*
X62121Y12802D01*
X62118Y12804D01*
X62115Y12806D01*
X62112Y12808D01*
X62110Y12811D01*
X62108Y12814D01*
X62107Y12818D01*
X62107Y12822D01*
Y12823D01*
Y12823D01*
Y12825D01*
X62107Y12826D01*
X62107Y12827D01*
X62105Y12824D01*
X62103Y12820D01*
X62100Y12817D01*
X62096Y12813D01*
X62092Y12810D01*
X62087Y12806D01*
X62081Y12803D01*
X62075Y12801D01*
X62068Y12799D01*
X62061Y12798D01*
X62052Y12797D01*
X61959D01*
X61957Y12798D01*
X61955D01*
X61952Y12798D01*
X61948Y12799D01*
X61942Y12801D01*
X61938Y12802D01*
X61934Y12804D01*
X61931Y12806D01*
X61928Y12808D01*
X61925Y12811D01*
X61924Y12814D01*
X61922Y12818D01*
X61922Y12822D01*
X61922Y12822D01*
X61921Y12821D01*
X61919Y12820D01*
X61917Y12818D01*
X61915Y12815D01*
X61911Y12813D01*
X61908Y12810D01*
X61904Y12808D01*
X61900Y12805D01*
X61895Y12802D01*
X61889Y12799D01*
X61883Y12797D01*
X61877Y12795D01*
X61871Y12794D01*
X61864Y12793D01*
X61857Y12793D01*
X61854D01*
X61852Y12793D01*
X61850Y12793D01*
X61847Y12793D01*
X61841Y12795D01*
X61833Y12797D01*
X61826Y12800D01*
X61822Y12802D01*
X61818Y12804D01*
X61815Y12807D01*
X61811Y12810D01*
X61811Y12810D01*
X61810Y12811D01*
X61809Y12812D01*
X61808Y12813D01*
X61807Y12815D01*
X61805Y12817D01*
X61804Y12819D01*
X61802Y12822D01*
X61799Y12829D01*
X61796Y12836D01*
X61794Y12845D01*
X61794Y12850D01*
X61794Y12855D01*
Y12856D01*
Y12857D01*
X61794Y12860D01*
X61794Y12863D01*
X61795Y12868D01*
X61796Y12873D01*
X61797Y12878D01*
X61798Y12884D01*
X61800Y12890D01*
X61803Y12897D01*
X61806Y12903D01*
X61810Y12910D01*
X61814Y12917D01*
X61819Y12923D01*
X61825Y12929D01*
X61831Y12935D01*
X61832Y12935D01*
X61833Y12936D01*
X61835Y12937D01*
X61838Y12939D01*
X61841Y12941D01*
X61845Y12943D01*
X61849Y12946D01*
X61855Y12948D01*
X61861Y12951D01*
X61867Y12953D01*
X61874Y12956D01*
X61882Y12957D01*
X61889Y12959D01*
X61898Y12961D01*
X61907Y12961D01*
X61916Y12962D01*
X62050D01*
X62011Y12836D01*
X62109D01*
X62136Y12923D01*
X62100D01*
X62114Y12962D01*
X62114D01*
X62116Y12962D01*
X62118Y12963D01*
X62120Y12964D01*
X62124Y12965D01*
X62127Y12966D01*
X62131Y12968D01*
X62136Y12969D01*
X62145Y12973D01*
X62155Y12978D01*
X62164Y12983D01*
X62168Y12986D01*
X62171Y12989D01*
X62172Y12990D01*
X62172Y12990D01*
X62174Y12991D01*
X62175Y12993D01*
X62177Y12995D01*
X62180Y12998D01*
X62182Y13001D01*
X62185Y13005D01*
X62189Y13010D01*
X62192Y13015D01*
X62196Y13020D01*
X62200Y13027D01*
X62204Y13034D01*
X62208Y13041D01*
X62212Y13049D01*
X62217Y13059D01*
X62264D01*
X62234Y12962D01*
D02*
G37*
G36*
X60211Y12836D02*
X60312D01*
Y12836D01*
X60312Y12834D01*
X60311Y12833D01*
X60310Y12830D01*
X60308Y12827D01*
X60306Y12824D01*
X60304Y12820D01*
X60301Y12817D01*
X60297Y12813D01*
X60293Y12810D01*
X60288Y12806D01*
X60282Y12803D01*
X60276Y12801D01*
X60269Y12799D01*
X60262Y12798D01*
X60253Y12797D01*
X60159D01*
X60157Y12798D01*
X60155D01*
X60152Y12798D01*
X60148Y12799D01*
X60141Y12801D01*
X60137Y12802D01*
X60134Y12804D01*
X60130Y12806D01*
X60127Y12808D01*
X60125Y12811D01*
X60123Y12814D01*
X60122Y12818D01*
X60122Y12822D01*
X60121Y12822D01*
X60120Y12821D01*
X60119Y12819D01*
X60117Y12817D01*
X60114Y12815D01*
X60111Y12813D01*
X60107Y12810D01*
X60103Y12807D01*
X60098Y12804D01*
X60093Y12801D01*
X60087Y12799D01*
X60080Y12796D01*
X60074Y12794D01*
X60066Y12793D01*
X60058Y12792D01*
X60050Y12792D01*
X60047D01*
X60045Y12792D01*
X60043Y12792D01*
X60040Y12793D01*
X60037Y12793D01*
X60034Y12793D01*
X60026Y12795D01*
X60018Y12798D01*
X60014Y12800D01*
X60010Y12803D01*
X60007Y12805D01*
X60003Y12808D01*
X60003Y12808D01*
X60002Y12809D01*
X60001Y12810D01*
X60000Y12811D01*
X59999Y12813D01*
X59997Y12815D01*
X59996Y12817D01*
X59994Y12820D01*
X59992Y12823D01*
X59990Y12826D01*
X59989Y12830D01*
X59988Y12829D01*
X59985Y12824D01*
X59982Y12819D01*
X59977Y12814D01*
X59974Y12811D01*
X59971Y12809D01*
X59967Y12807D01*
X59963Y12805D01*
X59963D01*
X59963Y12804D01*
X59961Y12804D01*
X59957Y12802D01*
X59954Y12801D01*
X59949Y12800D01*
X59943Y12798D01*
X59937Y12798D01*
X59931Y12797D01*
X59836D01*
X59834Y12798D01*
X59832D01*
X59830Y12798D01*
X59827Y12799D01*
X59820Y12800D01*
X59817Y12802D01*
X59813Y12803D01*
X59811Y12805D01*
X59808Y12808D01*
X59806Y12811D01*
X59804Y12814D01*
X59803Y12817D01*
X59802Y12822D01*
Y12822D01*
Y12823D01*
Y12824D01*
X59803Y12826D01*
X59803Y12828D01*
X59803Y12830D01*
X59803Y12830D01*
X59803Y12830D01*
X59801Y12825D01*
X59798Y12821D01*
X59793Y12816D01*
X59789Y12811D01*
X59782Y12807D01*
X59782D01*
X59782Y12806D01*
X59781Y12806D01*
X59779Y12805D01*
X59776Y12804D01*
X59772Y12802D01*
X59766Y12800D01*
X59760Y12799D01*
X59753Y12798D01*
X59745Y12797D01*
X59606D01*
X59603Y12798D01*
X59600D01*
X59596Y12798D01*
X59592Y12798D01*
X59588Y12799D01*
X59584Y12800D01*
X59574Y12801D01*
X59563Y12803D01*
X59552Y12806D01*
X59541Y12810D01*
X59531Y12815D01*
X59521Y12820D01*
X59516Y12824D01*
X59512Y12827D01*
X59508Y12831D01*
X59505Y12835D01*
X59501Y12840D01*
X59499Y12845D01*
X59497Y12850D01*
X59495Y12855D01*
X59494Y12861D01*
X59494Y12868D01*
Y12869D01*
Y12870D01*
X59494Y12872D01*
X59494Y12875D01*
X59495Y12879D01*
X59496Y12884D01*
X59497Y12889D01*
X59499Y12894D01*
X59501Y12900D01*
X59504Y12905D01*
X59507Y12911D01*
X59511Y12917D01*
X59515Y12923D01*
X59521Y12929D01*
X59527Y12935D01*
X59534Y12939D01*
X59534Y12940D01*
X59535Y12940D01*
X59537Y12941D01*
X59540Y12943D01*
X59543Y12945D01*
X59547Y12947D01*
X59552Y12949D01*
X59557Y12951D01*
X59563Y12953D01*
X59569Y12955D01*
X59576Y12957D01*
X59583Y12958D01*
X59590Y12960D01*
X59599Y12961D01*
X59607Y12961D01*
X59616Y12962D01*
X59656D01*
X59659Y12961D01*
X59662D01*
X59665Y12961D01*
X59669Y12960D01*
X59677Y12959D01*
X59686Y12958D01*
X59696Y12956D01*
X59705Y12952D01*
X59705D01*
X59706Y12952D01*
X59708Y12951D01*
X59710Y12950D01*
X59712Y12949D01*
X59714Y12947D01*
X59720Y12943D01*
X59726Y12937D01*
X59729Y12934D01*
X59731Y12931D01*
X59733Y12927D01*
X59735Y12923D01*
X59736Y12919D01*
X59737Y12914D01*
Y12914D01*
Y12913D01*
Y12912D01*
X59737Y12910D01*
X59736Y12908D01*
X59736Y12905D01*
X59734Y12899D01*
X59733Y12896D01*
X59731Y12892D01*
X59730Y12889D01*
X59727Y12885D01*
X59724Y12881D01*
X59721Y12878D01*
X59717Y12874D01*
X59712Y12871D01*
X59632D01*
X59658Y12923D01*
X59608D01*
X59587Y12865D01*
Y12864D01*
X59587Y12864D01*
X59587Y12863D01*
Y12862D01*
X59586Y12859D01*
X59586Y12855D01*
Y12855D01*
Y12854D01*
X59586Y12854D01*
X59587Y12853D01*
X59587Y12849D01*
X59588Y12848D01*
X59590Y12846D01*
X59591Y12844D01*
X59593Y12842D01*
X59596Y12841D01*
X59599Y12839D01*
X59603Y12838D01*
X59607Y12837D01*
X59611Y12836D01*
X59617Y12836D01*
X59805D01*
X59883Y13089D01*
X59968D01*
X59889Y12836D01*
X59987D01*
X59986Y12839D01*
X59985Y12843D01*
X59985Y12848D01*
X59984Y12854D01*
Y12854D01*
Y12856D01*
X59985Y12858D01*
X59985Y12862D01*
X59986Y12867D01*
X59987Y12872D01*
X59988Y12877D01*
X59990Y12883D01*
X59992Y12890D01*
X59995Y12897D01*
X59998Y12903D01*
X60002Y12910D01*
X60006Y12917D01*
X60012Y12924D01*
X60018Y12930D01*
X60025Y12936D01*
X60026Y12936D01*
X60027Y12937D01*
X60029Y12938D01*
X60032Y12940D01*
X60036Y12942D01*
X60040Y12944D01*
X60045Y12946D01*
X60050Y12949D01*
X60057Y12951D01*
X60063Y12954D01*
X60071Y12956D01*
X60079Y12958D01*
X60087Y12959D01*
X60096Y12961D01*
X60105Y12961D01*
X60115Y12962D01*
X60164D01*
X60204Y13089D01*
X60291D01*
X60211Y12836D01*
D02*
G37*
G36*
X58287Y12879D02*
X58363Y12943D01*
X58363Y12943D01*
X58364Y12944D01*
X58366Y12945D01*
X58368Y12947D01*
X58371Y12949D01*
X58374Y12951D01*
X58378Y12953D01*
X58382Y12955D01*
X58387Y12957D01*
X58392Y12960D01*
X58397Y12962D01*
X58403Y12964D01*
X58409Y12965D01*
X58416Y12967D01*
X58422Y12967D01*
X58429Y12968D01*
X58431D01*
X58433Y12967D01*
X58437Y12966D01*
X58441Y12965D01*
X58444Y12963D01*
X58446Y12962D01*
X58448Y12960D01*
X58450Y12957D01*
X58451Y12955D01*
X58453Y12951D01*
X58453Y12948D01*
X58454Y12943D01*
Y12943D01*
Y12942D01*
X58453Y12940D01*
X58453Y12937D01*
X58453Y12935D01*
X58452Y12931D01*
X58451Y12927D01*
X58449Y12923D01*
X58421Y12836D01*
X58521D01*
Y12836D01*
X58521Y12835D01*
X58520Y12834D01*
X58520Y12833D01*
X58518Y12829D01*
X58515Y12824D01*
X58511Y12819D01*
X58507Y12814D01*
X58501Y12809D01*
X58494Y12805D01*
X58493Y12804D01*
X58491Y12804D01*
X58488Y12802D01*
X58484Y12801D01*
X58480Y12800D01*
X58475Y12798D01*
X58469Y12798D01*
X58462Y12797D01*
X58357D01*
X58355Y12798D01*
X58351Y12798D01*
X58346Y12800D01*
X58341Y12802D01*
X58338Y12804D01*
X58337Y12806D01*
X58335Y12808D01*
X58334Y12811D01*
X58333Y12813D01*
X58332Y12817D01*
Y12817D01*
Y12818D01*
X58333Y12820D01*
Y12822D01*
X58333Y12825D01*
X58334Y12828D01*
X58335Y12832D01*
X58336Y12836D01*
X58352Y12888D01*
X58261Y12812D01*
X58261D01*
X58260Y12811D01*
X58259Y12811D01*
X58258Y12810D01*
X58255Y12807D01*
X58250Y12805D01*
X58245Y12802D01*
X58239Y12800D01*
X58233Y12798D01*
X58229Y12798D01*
X58226Y12797D01*
X58176D01*
X58185Y12825D01*
X58184Y12824D01*
X58182Y12820D01*
X58179Y12817D01*
X58175Y12813D01*
X58171Y12810D01*
X58166Y12806D01*
X58160Y12803D01*
X58154Y12801D01*
X58147Y12799D01*
X58139Y12798D01*
X58130Y12797D01*
X58005D01*
X58003Y12798D01*
X58001D01*
X57998Y12798D01*
X57995Y12799D01*
X57989Y12801D01*
X57986Y12802D01*
X57982Y12804D01*
X57979Y12806D01*
X57977Y12808D01*
X57974Y12811D01*
X57973Y12814D01*
X57971Y12818D01*
X57971Y12822D01*
Y12823D01*
Y12823D01*
Y12825D01*
X57971Y12826D01*
X57972Y12828D01*
X57972Y12831D01*
X57974Y12836D01*
X58001Y12923D01*
X57965D01*
X57979Y12962D01*
X57979D01*
X57980Y12962D01*
X57982Y12963D01*
X57985Y12964D01*
X57988Y12965D01*
X57992Y12966D01*
X57996Y12968D01*
X58000Y12969D01*
X58010Y12973D01*
X58019Y12978D01*
X58028Y12983D01*
X58032Y12986D01*
X58036Y12989D01*
X58036Y12990D01*
X58037Y12990D01*
X58038Y12991D01*
X58040Y12993D01*
X58042Y12995D01*
X58044Y12998D01*
X58047Y13001D01*
X58050Y13005D01*
X58053Y13010D01*
X58057Y13015D01*
X58060Y13020D01*
X58064Y13027D01*
X58069Y13034D01*
X58073Y13041D01*
X58077Y13049D01*
X58082Y13059D01*
X58129D01*
X58099Y12962D01*
X58157D01*
Y12961D01*
X58156Y12960D01*
X58155Y12958D01*
X58154Y12956D01*
X58152Y12953D01*
X58151Y12950D01*
X58148Y12946D01*
X58145Y12942D01*
X58141Y12939D01*
X58137Y12935D01*
X58132Y12932D01*
X58127Y12929D01*
X58122Y12927D01*
X58115Y12925D01*
X58108Y12923D01*
X58101Y12923D01*
X58086D01*
X58060Y12836D01*
X58188D01*
X58267Y13089D01*
X58353D01*
X58287Y12879D01*
D02*
G37*
G36*
X61407Y12836D02*
X61410D01*
X61412Y12837D01*
X61416D01*
X61420Y12837D01*
X61425Y12838D01*
X61430Y12839D01*
X61436Y12841D01*
X61442Y12843D01*
X61448Y12846D01*
X61454Y12850D01*
X61461Y12854D01*
X61467Y12858D01*
X61472Y12864D01*
X61477Y12871D01*
X61482Y12878D01*
X61481Y12878D01*
X61481Y12879D01*
X61480Y12879D01*
X61478Y12881D01*
X61475Y12884D01*
X61471Y12888D01*
X61467Y12894D01*
X61463Y12900D01*
X61461Y12904D01*
X61460Y12908D01*
X61460Y12912D01*
X61459Y12916D01*
Y12916D01*
Y12917D01*
Y12918D01*
X61460Y12919D01*
X61460Y12923D01*
X61461Y12927D01*
X61463Y12932D01*
X61466Y12937D01*
X61469Y12943D01*
X61471Y12946D01*
X61474Y12948D01*
X61474D01*
X61474Y12949D01*
X61476Y12950D01*
X61479Y12953D01*
X61484Y12955D01*
X61489Y12957D01*
X61495Y12960D01*
X61501Y12961D01*
X61509Y12962D01*
X61759D01*
X61758Y12961D01*
X61758Y12960D01*
X61757Y12958D01*
X61756Y12956D01*
X61754Y12953D01*
X61752Y12950D01*
X61749Y12946D01*
X61746Y12942D01*
X61742Y12939D01*
X61739Y12935D01*
X61734Y12932D01*
X61729Y12929D01*
X61724Y12927D01*
X61718Y12925D01*
X61712Y12923D01*
X61705Y12923D01*
X61575D01*
Y12923D01*
Y12922D01*
X61575Y12921D01*
X61574Y12920D01*
X61574Y12918D01*
X61574Y12916D01*
X61573Y12912D01*
X61571Y12906D01*
X61569Y12899D01*
X61566Y12892D01*
X61562Y12884D01*
X61558Y12876D01*
X61553Y12868D01*
X61547Y12859D01*
X61541Y12851D01*
X61533Y12843D01*
X61524Y12835D01*
X61514Y12828D01*
X61503Y12821D01*
X61503Y12821D01*
X61501Y12820D01*
X61499Y12819D01*
X61495Y12817D01*
X61491Y12815D01*
X61486Y12813D01*
X61480Y12812D01*
X61473Y12809D01*
X61466Y12807D01*
X61458Y12805D01*
X61449Y12803D01*
X61440Y12801D01*
X61430Y12800D01*
X61419Y12798D01*
X61409Y12798D01*
X61397Y12797D01*
X61351D01*
X61349Y12798D01*
X61347Y12798D01*
X61343Y12799D01*
X61340Y12800D01*
X61336Y12801D01*
X61333Y12803D01*
X61332Y12803D01*
X61331Y12805D01*
X61329Y12806D01*
X61327Y12809D01*
X61325Y12812D01*
X61323Y12816D01*
X61322Y12821D01*
X61321Y12827D01*
Y12827D01*
Y12828D01*
X61321Y12830D01*
Y12833D01*
X61322Y12835D01*
X61323Y12839D01*
X61323Y12843D01*
X61325Y12847D01*
X61400Y13089D01*
X61486D01*
X61407Y12836D01*
D02*
G37*
G36*
X57086Y12962D02*
X57327D01*
Y12962D01*
X57328Y12962D01*
X57500D01*
X57500Y12965D01*
Y12965D01*
Y12966D01*
X57500Y12968D01*
Y12970D01*
X57501Y12972D01*
X57501Y12975D01*
X57503Y12981D01*
X57505Y12984D01*
X57506Y12988D01*
X57508Y12991D01*
X57511Y12995D01*
X57514Y12998D01*
X57517Y13002D01*
X57521Y13005D01*
X57526Y13008D01*
X57526D01*
X57527Y13009D01*
X57528Y13009D01*
X57530Y13010D01*
X57532Y13011D01*
X57534Y13012D01*
X57537Y13013D01*
X57540Y13015D01*
X57544Y13016D01*
X57548Y13017D01*
X57557Y13019D01*
X57566Y13020D01*
X57577Y13021D01*
X57616D01*
X57596Y12962D01*
X57724D01*
X57685Y12836D01*
X57787D01*
Y12836D01*
Y12835D01*
Y12834D01*
X57786Y12833D01*
X57786Y12830D01*
X57784Y12826D01*
X57782Y12822D01*
X57781Y12819D01*
X57779Y12817D01*
X57777Y12814D01*
X57774Y12812D01*
X57771Y12810D01*
X57768Y12807D01*
X57768D01*
X57767Y12807D01*
X57766Y12806D01*
X57765Y12806D01*
X57762Y12804D01*
X57758Y12802D01*
X57752Y12801D01*
X57747Y12799D01*
X57740Y12798D01*
X57734Y12797D01*
X57639D01*
X57638Y12798D01*
X57636D01*
X57633Y12798D01*
X57630Y12799D01*
X57626Y12800D01*
X57623Y12801D01*
X57619Y12803D01*
X57616Y12805D01*
X57613Y12807D01*
X57610Y12810D01*
X57608Y12813D01*
X57606Y12818D01*
X57605Y12822D01*
X57604Y12828D01*
Y12828D01*
Y12829D01*
X57605Y12831D01*
Y12833D01*
X57605Y12835D01*
X57606Y12838D01*
X57607Y12844D01*
X57632Y12923D01*
X57583D01*
X57547Y12853D01*
Y12853D01*
X57547Y12853D01*
X57546Y12851D01*
X57545Y12848D01*
X57542Y12845D01*
X57539Y12842D01*
X57535Y12839D01*
X57530Y12837D01*
X57526Y12836D01*
X57523Y12836D01*
X57502D01*
X57534Y12923D01*
X57418D01*
X57419Y12923D01*
X57420Y12922D01*
X57421Y12920D01*
X57423Y12918D01*
X57425Y12916D01*
X57427Y12913D01*
X57430Y12908D01*
X57432Y12903D01*
X57432Y12903D01*
X57432Y12901D01*
X57433Y12898D01*
X57434Y12895D01*
X57435Y12891D01*
X57435Y12887D01*
X57436Y12883D01*
Y12879D01*
Y12878D01*
X57435Y12877D01*
X57435Y12875D01*
X57435Y12872D01*
X57434Y12869D01*
X57433Y12865D01*
X57432Y12860D01*
X57430Y12856D01*
X57428Y12851D01*
X57426Y12846D01*
X57423Y12840D01*
X57419Y12835D01*
X57415Y12830D01*
X57411Y12825D01*
X57406Y12820D01*
X57400Y12815D01*
X57400Y12815D01*
X57399Y12814D01*
X57397Y12813D01*
X57394Y12812D01*
X57392Y12811D01*
X57388Y12809D01*
X57384Y12807D01*
X57379Y12805D01*
X57373Y12803D01*
X57367Y12801D01*
X57361Y12799D01*
X57353Y12797D01*
X57346Y12796D01*
X57338Y12794D01*
X57329Y12794D01*
X57320Y12793D01*
X57315D01*
X57311Y12794D01*
X57306Y12794D01*
X57301Y12794D01*
X57294Y12795D01*
X57288Y12796D01*
X57281Y12797D01*
X57274Y12799D01*
X57267Y12801D01*
X57259Y12803D01*
X57252Y12805D01*
X57245Y12808D01*
X57239Y12812D01*
X57233Y12816D01*
X57232Y12816D01*
X57231Y12817D01*
X57230Y12818D01*
X57229Y12819D01*
X57227Y12821D01*
X57224Y12824D01*
X57222Y12827D01*
X57219Y12830D01*
X57217Y12834D01*
X57214Y12838D01*
X57212Y12842D01*
X57210Y12847D01*
X57208Y12852D01*
X57207Y12857D01*
X57206Y12863D01*
X57206Y12869D01*
Y12870D01*
Y12870D01*
Y12872D01*
X57206Y12874D01*
X57206Y12877D01*
X57207Y12882D01*
Y12883D01*
X57207Y12884D01*
X57208Y12886D01*
X57208Y12888D01*
X57209Y12892D01*
X57210Y12895D01*
X57212Y12899D01*
X57214Y12903D01*
X57216Y12908D01*
X57218Y12912D01*
X57221Y12917D01*
X57225Y12922D01*
X57226Y12923D01*
X57105D01*
X57105Y12923D01*
X57106Y12922D01*
X57106Y12921D01*
X57108Y12919D01*
X57109Y12917D01*
X57111Y12914D01*
X57113Y12910D01*
X57115Y12906D01*
X57117Y12902D01*
X57119Y12896D01*
X57121Y12890D01*
X57122Y12884D01*
X57124Y12876D01*
X57125Y12869D01*
X57125Y12860D01*
Y12851D01*
Y12850D01*
Y12850D01*
Y12849D01*
X57125Y12848D01*
X57124Y12845D01*
X57124Y12840D01*
X57122Y12835D01*
X57121Y12829D01*
X57119Y12822D01*
X57116Y12814D01*
X57112Y12806D01*
X57108Y12797D01*
X57103Y12788D01*
X57096Y12779D01*
X57089Y12770D01*
X57080Y12760D01*
X57076Y12756D01*
X57071Y12751D01*
X57065Y12747D01*
X57060Y12742D01*
X57059Y12742D01*
X57057Y12740D01*
X57054Y12738D01*
X57050Y12735D01*
X57045Y12732D01*
X57039Y12728D01*
X57032Y12725D01*
X57025Y12721D01*
X57017Y12716D01*
X57008Y12713D01*
X56999Y12709D01*
X56990Y12706D01*
X56981Y12703D01*
X56971Y12701D01*
X56961Y12700D01*
X56951Y12700D01*
X56951D01*
X56950Y12700D01*
X56948Y12701D01*
X56945Y12701D01*
X56943Y12702D01*
X56940Y12704D01*
X56937Y12705D01*
X56934Y12708D01*
X56933Y12708D01*
X56932Y12709D01*
X56931Y12711D01*
X56930Y12713D01*
X56928Y12716D01*
X56927Y12719D01*
X56926Y12722D01*
X56926Y12726D01*
Y12726D01*
Y12727D01*
X56926Y12729D01*
X56927Y12731D01*
X56928Y12734D01*
X56988Y12907D01*
X56988Y12907D01*
X56986Y12908D01*
X56984Y12909D01*
X56981Y12910D01*
X56978Y12912D01*
X56975Y12914D01*
X56971Y12916D01*
X56968Y12920D01*
X56967Y12920D01*
X56966Y12922D01*
X56965Y12924D01*
X56963Y12927D01*
X56961Y12931D01*
X56960Y12935D01*
X56959Y12939D01*
X56958Y12944D01*
Y12945D01*
Y12946D01*
X56959Y12947D01*
X56959Y12950D01*
X56959Y12952D01*
X56960Y12955D01*
X56961Y12958D01*
X56962Y12962D01*
X57007D01*
X57053Y13089D01*
X57140D01*
X57086Y12962D01*
D02*
G37*
G36*
X64268Y12867D02*
X64271Y12867D01*
X64275Y12866D01*
X64280Y12865D01*
X64285Y12863D01*
X64290Y12860D01*
X64295Y12856D01*
X64295Y12855D01*
X64297Y12854D01*
X64299Y12852D01*
X64301Y12848D01*
X64303Y12844D01*
X64305Y12840D01*
X64306Y12834D01*
X64307Y12829D01*
Y12828D01*
Y12828D01*
X64307Y12826D01*
X64306Y12823D01*
X64305Y12819D01*
X64304Y12815D01*
X64302Y12810D01*
X64299Y12806D01*
X64295Y12801D01*
X64294Y12801D01*
X64292Y12799D01*
X64290Y12797D01*
X64286Y12795D01*
X64282Y12793D01*
X64277Y12792D01*
X64271Y12790D01*
X64265Y12790D01*
X64263D01*
X64262Y12790D01*
X64259Y12791D01*
X64255Y12791D01*
X64250Y12793D01*
X64245Y12794D01*
X64240Y12797D01*
X64235Y12801D01*
X64235Y12802D01*
X64233Y12803D01*
X64231Y12806D01*
X64229Y12809D01*
X64227Y12813D01*
X64225Y12817D01*
X64224Y12823D01*
X64223Y12829D01*
Y12829D01*
Y12829D01*
X64223Y12831D01*
X64224Y12834D01*
X64225Y12838D01*
X64226Y12842D01*
X64228Y12847D01*
X64231Y12852D01*
X64235Y12856D01*
X64236Y12857D01*
X64238Y12858D01*
X64240Y12860D01*
X64243Y12862D01*
X64248Y12864D01*
X64253Y12866D01*
X64259Y12867D01*
X64265Y12868D01*
X64267D01*
X64268Y12867D01*
D02*
G37*
G36*
X51352Y27445D02*
X51347D01*
X51339Y27447D01*
X51334Y27450D01*
X51332Y27452D01*
Y27456D01*
X51337Y27460D01*
X51339Y27462D01*
X51345Y27469D01*
X51350Y27473D01*
X51352Y27475D01*
Y27445D01*
D02*
G37*
G36*
X51287Y27441D02*
X51291Y27434D01*
X51293Y27426D01*
Y27417D01*
X51263D01*
Y27419D01*
Y27421D01*
X51265Y27432D01*
X51270Y27441D01*
X51274Y27443D01*
X51278Y27445D01*
X51281D01*
X51287Y27441D01*
D02*
G37*
G36*
X52321Y27417D02*
Y27387D01*
X52290Y27417D01*
X52282D01*
X52271Y27415D01*
X52258Y27411D01*
X52243Y27402D01*
X52230Y27393D01*
X52215Y27378D01*
X52204Y27359D01*
Y27329D01*
X52232Y27298D01*
X52321D01*
X52262Y27240D01*
X52232D01*
X52204Y27270D01*
X52174Y27298D01*
Y27359D01*
Y27387D01*
X52204Y27417D01*
Y27445D01*
X52290D01*
X52321Y27417D01*
D02*
G37*
G36*
X51626Y27482D02*
X51637Y27475D01*
X51643Y27465D01*
X51645Y27445D01*
Y27417D01*
Y27415D01*
Y27413D01*
X51641Y27402D01*
X51632Y27391D01*
X51626Y27389D01*
X51615Y27387D01*
X51611D01*
X51600Y27389D01*
X51585Y27393D01*
X51572Y27402D01*
X51570Y27404D01*
X51565Y27413D01*
X51559Y27426D01*
X51557Y27445D01*
Y27475D01*
X51587D01*
X51589Y27478D01*
X51596Y27480D01*
X51606Y27482D01*
X51617Y27484D01*
X51626Y27482D01*
D02*
G37*
G36*
X51205Y27387D02*
Y27385D01*
Y27383D01*
X51203Y27374D01*
X51199Y27363D01*
X51194Y27361D01*
X51190Y27359D01*
X51175D01*
Y27387D01*
Y27417D01*
X51205Y27387D01*
D02*
G37*
G36*
X52996Y27359D02*
Y27240D01*
X52968D01*
X52908Y27298D01*
X52880Y27387D01*
Y27329D01*
Y27270D01*
X52849D01*
Y27329D01*
Y27331D01*
Y27335D01*
Y27344D01*
X52852Y27355D01*
X52854Y27378D01*
X52860Y27402D01*
X52865Y27413D01*
X52871Y27421D01*
X52877Y27426D01*
X52886Y27428D01*
X52897Y27426D01*
X52908Y27419D01*
X52923Y27406D01*
X52938Y27387D01*
X52968Y27329D01*
Y27387D01*
Y27445D01*
X52996D01*
Y27359D01*
D02*
G37*
G36*
X54582Y27417D02*
Y27387D01*
Y27359D01*
X54554D01*
Y27329D01*
X54582Y27298D01*
X54524D01*
X54494Y27329D01*
Y27298D01*
X54466Y27270D01*
Y27359D01*
Y27445D01*
X54554D01*
X54582Y27417D01*
D02*
G37*
G36*
X52116D02*
Y27359D01*
Y27298D01*
X52085Y27270D01*
X52083Y27268D01*
X52077Y27266D01*
X52066Y27262D01*
X52053Y27260D01*
X52038Y27257D01*
X52023D01*
X52010Y27262D01*
X51997Y27270D01*
X51969Y27298D01*
Y27359D01*
Y27445D01*
X51997D01*
Y27387D01*
Y27298D01*
X52085D01*
Y27359D01*
Y27445D01*
X52116Y27417D01*
D02*
G37*
G36*
X51704Y27387D02*
X51734D01*
Y27359D01*
Y27357D01*
Y27350D01*
X51732Y27339D01*
X51727Y27329D01*
X51719Y27318D01*
X51710Y27307D01*
X51695Y27301D01*
X51675Y27298D01*
X51645Y27329D01*
Y27387D01*
X51675Y27417D01*
X51704Y27387D01*
D02*
G37*
G36*
X51145Y27327D02*
X51142Y27320D01*
X51127Y27303D01*
X51119Y27296D01*
X51108Y27292D01*
X51097D01*
X51086Y27298D01*
Y27303D01*
Y27311D01*
Y27318D01*
Y27329D01*
X51147D01*
X51145Y27327D01*
D02*
G37*
G36*
X54349Y27443D02*
X54356Y27434D01*
X54366Y27421D01*
X54377Y27402D01*
X54388Y27376D01*
X54399Y27346D01*
X54405Y27311D01*
X54407Y27270D01*
X54377D01*
X54347Y27298D01*
X54289D01*
Y27270D01*
X54259D01*
X54319Y27445D01*
X54347D01*
X54349Y27443D01*
D02*
G37*
G36*
X54026Y27417D02*
Y27387D01*
Y27359D01*
X53995D01*
X53965Y27329D01*
X53995Y27298D01*
X53997Y27296D01*
X54000Y27294D01*
X54010Y27286D01*
X54021Y27275D01*
X54023Y27273D01*
X54026Y27270D01*
X53965Y27298D01*
X53937Y27329D01*
Y27298D01*
X53907Y27270D01*
Y27273D01*
Y27275D01*
Y27281D01*
Y27292D01*
Y27307D01*
Y27329D01*
Y27359D01*
Y27445D01*
X53965D01*
X54026Y27417D01*
D02*
G37*
G36*
X53790D02*
X53792Y27413D01*
X53797Y27404D01*
X53799Y27398D01*
X53803Y27387D01*
Y27385D01*
X53805Y27383D01*
X53812Y27370D01*
X53816Y27350D01*
X53818Y27329D01*
X53849Y27270D01*
X53818D01*
X53790Y27298D01*
X53730D01*
X53702Y27270D01*
X53672D01*
Y27273D01*
Y27277D01*
Y27283D01*
X53674Y27294D01*
X53676Y27318D01*
X53682Y27348D01*
X53693Y27378D01*
X53708Y27406D01*
X53730Y27430D01*
X53745Y27439D01*
X53760Y27445D01*
X53790Y27417D01*
D02*
G37*
G36*
X53292Y27443D02*
X53298Y27434D01*
X53309Y27421D01*
X53320Y27402D01*
X53328Y27376D01*
X53339Y27346D01*
X53346Y27311D01*
X53348Y27270D01*
X53320D01*
X53290Y27298D01*
X53231D01*
Y27270D01*
X53201D01*
Y27275D01*
Y27286D01*
X53205Y27303D01*
X53210Y27327D01*
X53216Y27352D01*
X53227Y27383D01*
X53242Y27413D01*
X53262Y27445D01*
X53290D01*
X53292Y27443D01*
D02*
G37*
G36*
X53173Y27417D02*
X53143D01*
X53115Y27329D01*
Y27327D01*
Y27320D01*
X53113Y27309D01*
X53111Y27301D01*
X53108Y27290D01*
X53102Y27279D01*
X53095Y27273D01*
X53085Y27270D01*
Y27329D01*
Y27417D01*
X53026D01*
Y27419D01*
X53029Y27421D01*
X53033Y27426D01*
X53041Y27432D01*
X53054Y27437D01*
X53076Y27441D01*
X53089Y27443D01*
X53104D01*
X53123Y27445D01*
X53173D01*
Y27417D01*
D02*
G37*
G36*
X54731Y27443D02*
X54733Y27439D01*
X54740Y27432D01*
X54748Y27421D01*
X54757Y27409D01*
X54766Y27391D01*
X54777Y27370D01*
X54787Y27344D01*
X54789Y27342D01*
X54792Y27333D01*
X54796Y27320D01*
X54798Y27307D01*
X54800Y27294D01*
Y27281D01*
X54796Y27273D01*
X54787Y27270D01*
Y27268D01*
Y27266D01*
X54783Y27260D01*
X54781Y27257D01*
X54777D01*
X54768Y27262D01*
X54759Y27270D01*
Y27298D01*
X54671D01*
Y27270D01*
Y27268D01*
Y27266D01*
X54666Y27260D01*
X54664Y27257D01*
X54658D01*
X54651Y27262D01*
X54641Y27270D01*
X54701Y27445D01*
X54729D01*
X54731Y27443D01*
D02*
G37*
G36*
X52733D02*
Y27441D01*
X52735Y27430D01*
X52739Y27415D01*
X52746Y27402D01*
X52748Y27400D01*
X52754Y27391D01*
X52759Y27378D01*
X52761Y27359D01*
X52791Y27270D01*
Y27268D01*
Y27266D01*
X52787Y27260D01*
X52785Y27257D01*
X52778D01*
X52772Y27262D01*
X52761Y27270D01*
Y27298D01*
X52672D01*
Y27270D01*
X52614D01*
Y27273D01*
Y27275D01*
Y27281D01*
X52616Y27290D01*
X52618Y27311D01*
X52625Y27335D01*
X52636Y27365D01*
X52651Y27393D01*
X52672Y27421D01*
X52703Y27445D01*
X52733D01*
Y27443D01*
D02*
G37*
G36*
X54200Y27417D02*
Y27387D01*
Y27385D01*
Y27378D01*
Y27368D01*
Y27359D01*
Y27348D01*
Y27337D01*
Y27331D01*
Y27329D01*
Y27298D01*
X54172Y27270D01*
X54142Y27240D01*
X54112D01*
X54084Y27270D01*
Y27275D01*
Y27283D01*
Y27290D01*
Y27298D01*
Y27301D01*
Y27303D01*
Y27318D01*
Y27337D01*
Y27359D01*
Y27445D01*
X54172D01*
X54200Y27417D01*
D02*
G37*
G36*
X53613D02*
X53618D01*
X53622Y27415D01*
X53628Y27411D01*
X53635Y27402D01*
X53639Y27393D01*
X53641Y27378D01*
X53644Y27359D01*
Y27298D01*
X53613Y27270D01*
X53611Y27268D01*
X53609Y27266D01*
X53594Y27255D01*
X53577Y27245D01*
X53566Y27242D01*
X53555Y27240D01*
X53525D01*
Y27359D01*
Y27445D01*
X53613D01*
Y27417D01*
D02*
G37*
G36*
X52562Y27430D02*
X52575Y27426D01*
X52586Y27417D01*
X52547D01*
X52537Y27415D01*
X52528Y27413D01*
X52517Y27411D01*
X52506Y27404D01*
X52500Y27398D01*
X52498Y27387D01*
X52526Y27359D01*
X52528D01*
X52530Y27357D01*
X52543Y27352D01*
X52560Y27346D01*
X52578Y27337D01*
X52593Y27324D01*
X52599Y27318D01*
X52601Y27309D01*
Y27301D01*
Y27292D01*
X52595Y27281D01*
X52586Y27270D01*
X52556Y27240D01*
X52526D01*
X52467Y27270D01*
X52526Y27298D01*
X52556D01*
Y27329D01*
X52526D01*
X52524Y27331D01*
X52517Y27333D01*
X52506Y27339D01*
X52498Y27348D01*
X52487Y27357D01*
X52476Y27365D01*
X52470Y27376D01*
X52467Y27387D01*
Y27389D01*
Y27391D01*
X52474Y27404D01*
X52478Y27411D01*
X52485Y27417D01*
X52495Y27424D01*
X52511Y27430D01*
X52513D01*
X52519Y27432D01*
X52526Y27434D01*
X52549D01*
X52562Y27430D01*
D02*
G37*
G36*
X51047Y27249D02*
X51058Y27240D01*
X51086D01*
X51084Y27238D01*
X51082Y27236D01*
X51073Y27227D01*
X51063Y27216D01*
X51060Y27214D01*
X51058Y27212D01*
X51028D01*
Y27240D01*
Y27242D01*
Y27245D01*
X51032Y27251D01*
X51035Y27253D01*
X51041D01*
X51047Y27249D01*
D02*
G37*
G36*
X51736Y27296D02*
X51738Y27294D01*
X51740Y27286D01*
X51745Y27277D01*
X51747Y27266D01*
Y27251D01*
X51742Y27234D01*
X51734Y27212D01*
X51732Y27210D01*
X51729Y27208D01*
X51714Y27201D01*
X51706Y27199D01*
X51697D01*
X51686Y27204D01*
X51675Y27212D01*
X51645Y27240D01*
X51675Y27270D01*
Y27273D01*
Y27275D01*
X51680Y27286D01*
X51688Y27294D01*
X51695Y27296D01*
X51704Y27298D01*
X51734D01*
X51736Y27296D01*
D02*
G37*
G36*
X51704Y27152D02*
Y27150D01*
Y27143D01*
X51701Y27132D01*
X51699Y27124D01*
X51697Y27113D01*
X51693Y27102D01*
X51684Y27096D01*
X51675Y27093D01*
X51673Y27096D01*
X51669Y27100D01*
X51660Y27109D01*
X51658Y27111D01*
X51654Y27119D01*
X51647Y27132D01*
X51645Y27152D01*
Y27182D01*
X51704D01*
Y27152D01*
D02*
G37*
G36*
X51028Y27124D02*
X51000Y27093D01*
Y27124D01*
Y27152D01*
X51028D01*
Y27124D01*
D02*
G37*
G36*
X54336Y27150D02*
X54356Y27145D01*
X54377Y27137D01*
X54379D01*
X54382Y27134D01*
X54397Y27130D01*
X54414Y27126D01*
X54436Y27124D01*
X54466D01*
Y27093D01*
Y27091D01*
Y27089D01*
X54461Y27078D01*
X54453Y27068D01*
X54446Y27065D01*
X54436Y27063D01*
Y27035D01*
X54377Y27063D01*
X54259D01*
X54231Y27035D01*
X54200Y27005D01*
X54142Y26977D01*
Y26888D01*
Y26830D01*
Y26770D01*
X54231Y26623D01*
X54407D01*
X54436Y26653D01*
X54466Y26623D01*
Y26619D01*
Y26612D01*
Y26604D01*
Y26595D01*
Y26565D01*
X54407Y26535D01*
X54231D01*
X54200Y26565D01*
X54192D01*
X54181Y26567D01*
X54168Y26569D01*
X54138Y26578D01*
X54125Y26584D01*
X54112Y26593D01*
X54110Y26595D01*
X54108Y26599D01*
X54101Y26606D01*
X54095Y26614D01*
X54086Y26627D01*
X54075Y26642D01*
X54064Y26662D01*
X54054Y26681D01*
X54026Y26711D01*
Y26830D01*
Y26916D01*
X54054Y26977D01*
X54084Y27035D01*
X54142Y27063D01*
X54231Y27124D01*
X54259Y27152D01*
X54323D01*
X54336Y27150D01*
D02*
G37*
G36*
X51645Y27063D02*
X51647Y27061D01*
X51650Y27059D01*
X51656Y27048D01*
X51658Y27039D01*
Y27033D01*
X51654Y27027D01*
X51645Y27020D01*
X51643D01*
X51641Y27018D01*
X51626Y27016D01*
X51617Y27018D01*
X51609Y27020D01*
X51598Y27027D01*
X51587Y27035D01*
Y27063D01*
Y27093D01*
X51645D01*
Y27063D01*
D02*
G37*
G36*
X51058Y27035D02*
Y27033D01*
Y27027D01*
X51056Y27018D01*
X51052Y27009D01*
X51043Y27003D01*
X51035Y26999D01*
X51019D01*
X51000Y27005D01*
Y27035D01*
X51028Y27063D01*
X51058Y27035D01*
D02*
G37*
G36*
X51587Y27005D02*
Y26977D01*
X51557Y26947D01*
X51552D01*
X51542Y26949D01*
X51527Y26953D01*
X51514Y26962D01*
X51511Y26964D01*
X51507Y26973D01*
X51501Y26986D01*
X51498Y27005D01*
X51529Y27035D01*
X51557D01*
X51587Y27005D01*
D02*
G37*
G36*
X51101Y26973D02*
X51112Y26964D01*
X51114Y26957D01*
X51117Y26947D01*
Y26916D01*
X51082D01*
X51073Y26921D01*
X51063Y26929D01*
X51060Y26936D01*
X51058Y26947D01*
Y26977D01*
X51091D01*
X51101Y26973D01*
D02*
G37*
G36*
X51470Y26975D02*
X51477Y26973D01*
X51483Y26966D01*
X51492Y26957D01*
X51494Y26949D01*
Y26938D01*
X51490Y26934D01*
X51486Y26927D01*
X51479Y26923D01*
X51468Y26916D01*
Y26888D01*
X51440Y26916D01*
Y26921D01*
Y26929D01*
Y26936D01*
Y26947D01*
Y26977D01*
X51468D01*
X51470Y26975D01*
D02*
G37*
G36*
X51410Y26916D02*
Y26888D01*
X51380Y26858D01*
X51352D01*
Y26888D01*
Y26916D01*
Y26947D01*
X51410D01*
Y26916D01*
D02*
G37*
G36*
X51205D02*
X51207Y26914D01*
X51209Y26912D01*
X51216Y26899D01*
X51218Y26891D01*
Y26880D01*
X51214Y26869D01*
X51205Y26858D01*
X51175D01*
Y26888D01*
X51173Y26891D01*
X51170Y26893D01*
X51164Y26904D01*
X51162Y26908D01*
X51164Y26912D01*
X51166Y26914D01*
X51175Y26916D01*
Y26947D01*
X51205Y26916D01*
D02*
G37*
G36*
X51464Y27538D02*
X51468Y27534D01*
X51466Y27527D01*
Y27523D01*
X51464Y27514D01*
X51462Y27503D01*
X51458Y27491D01*
X51453Y27471D01*
X51447Y27447D01*
X51440Y27419D01*
X51432Y27385D01*
X51421Y27346D01*
X51410Y27298D01*
X51395Y27245D01*
X51380Y27182D01*
X51378Y27178D01*
X51375Y27167D01*
X51371Y27152D01*
X51367Y27132D01*
X51356Y27089D01*
X51354Y27068D01*
X51352Y27048D01*
Y27046D01*
Y27042D01*
Y27027D01*
Y27011D01*
Y27007D01*
Y27005D01*
X51354Y27003D01*
X51358Y27001D01*
X51367Y27003D01*
X51380Y27007D01*
X51401Y27018D01*
X51414Y27027D01*
X51429Y27035D01*
X51449Y27048D01*
X51468Y27063D01*
X51529Y27093D01*
X51557Y27152D01*
X51615Y27182D01*
Y27240D01*
Y27298D01*
X51613Y27301D01*
X51611Y27303D01*
X51600Y27314D01*
X51585Y27324D01*
X51578Y27327D01*
X51572Y27329D01*
X51570D01*
X51565Y27331D01*
X51559Y27335D01*
X51557Y27344D01*
Y27346D01*
X51555Y27352D01*
X51550Y27357D01*
X51542Y27359D01*
X51540D01*
X51535Y27363D01*
X51531Y27372D01*
X51529Y27378D01*
Y27387D01*
X51587D01*
Y27359D01*
X51589D01*
X51596Y27357D01*
X51606Y27355D01*
X51617Y27348D01*
X51626Y27337D01*
X51637Y27322D01*
X51643Y27301D01*
X51645Y27270D01*
Y27212D01*
X51615Y27182D01*
X51613Y27180D01*
X51611Y27171D01*
X51604Y27160D01*
X51596Y27147D01*
X51572Y27113D01*
X51542Y27078D01*
X51540Y27076D01*
X51533Y27072D01*
X51524Y27063D01*
X51514Y27052D01*
X51498Y27042D01*
X51479Y27029D01*
X51460Y27018D01*
X51438Y27005D01*
X51436Y27003D01*
X51429Y27001D01*
X51419Y26996D01*
X51406Y26992D01*
X51378Y26981D01*
X51363Y26979D01*
X51352Y26977D01*
X51322D01*
Y26947D01*
Y26942D01*
Y26934D01*
Y26927D01*
Y26916D01*
X51293D01*
Y26888D01*
X51322Y26858D01*
X51268D01*
X51278Y26856D01*
X51289Y26852D01*
X51291Y26847D01*
X51293Y26843D01*
Y26839D01*
X51291Y26834D01*
X51289Y26826D01*
X51287Y26813D01*
X51281Y26796D01*
X51274Y26772D01*
X51263Y26742D01*
Y26740D01*
X51261Y26737D01*
X51255Y26722D01*
X51244Y26705D01*
X51231Y26683D01*
X51216Y26660D01*
X51201Y26642D01*
X51188Y26627D01*
X51181Y26625D01*
X51175Y26623D01*
Y26653D01*
X51205Y26742D01*
X51233Y26858D01*
X51263D01*
Y26863D01*
Y26871D01*
Y26878D01*
Y26888D01*
X51233D01*
X51263Y26916D01*
Y26947D01*
X51205D01*
X51147Y26977D01*
X51117Y27005D01*
X51058Y27035D01*
Y27093D01*
Y27124D01*
X51086Y27182D01*
X51088Y27184D01*
X51093Y27191D01*
X51099Y27201D01*
X51108Y27214D01*
X51119Y27229D01*
X51134Y27247D01*
X51149Y27266D01*
X51168Y27286D01*
X51209Y27322D01*
X51235Y27339D01*
X51261Y27355D01*
X51287Y27368D01*
X51317Y27378D01*
X51347Y27385D01*
X51380Y27387D01*
X51410Y27475D01*
X51412Y27480D01*
X51414Y27488D01*
X51421Y27501D01*
X51429Y27516D01*
X51438Y27529D01*
X51447Y27538D01*
X51453Y27540D01*
X51458D01*
X51464Y27538D01*
D02*
G37*
G36*
X54779Y27150D02*
X54792Y27147D01*
X54822Y27141D01*
X54835Y27132D01*
X54848Y27124D01*
Y27093D01*
Y27063D01*
X54671D01*
X54641Y27035D01*
Y27005D01*
X54638Y27003D01*
X54636Y27001D01*
X54630Y26988D01*
X54628Y26979D01*
X54630Y26968D01*
X54632Y26957D01*
X54641Y26947D01*
Y26916D01*
X54729Y26888D01*
X54733Y26886D01*
X54744Y26884D01*
X54759Y26878D01*
X54777Y26869D01*
X54796Y26860D01*
X54815Y26850D01*
X54833Y26839D01*
X54846Y26828D01*
X54848Y26826D01*
X54850Y26824D01*
X54854Y26815D01*
X54861Y26806D01*
X54867Y26796D01*
X54871Y26781D01*
X54874Y26763D01*
X54876Y26742D01*
X54878Y26740D01*
X54880Y26731D01*
X54882Y26720D01*
X54884Y26707D01*
Y26690D01*
X54882Y26673D01*
X54874Y26655D01*
X54861Y26638D01*
X54858Y26636D01*
X54852Y26632D01*
X54843Y26623D01*
X54833Y26612D01*
X54818Y26601D01*
X54800Y26588D01*
X54759Y26565D01*
X54729Y26535D01*
X54524D01*
Y26595D01*
Y26623D01*
X54641D01*
X54701Y26595D01*
X54729Y26623D01*
X54759Y26653D01*
X54787Y26681D01*
Y26683D01*
Y26686D01*
Y26696D01*
Y26707D01*
Y26709D01*
Y26711D01*
Y26742D01*
X54701Y26800D01*
X54554Y26888D01*
X54524Y26916D01*
Y26977D01*
Y27035D01*
X54554Y27063D01*
X54556Y27065D01*
X54559Y27068D01*
X54567Y27074D01*
X54576Y27083D01*
X54589Y27091D01*
X54602Y27102D01*
X54621Y27113D01*
X54641Y27124D01*
X54671Y27152D01*
X54768D01*
X54779Y27150D01*
D02*
G37*
G36*
X53937Y27124D02*
Y26830D01*
Y26535D01*
X53849D01*
Y26830D01*
Y27124D01*
X53879D01*
X53881Y27126D01*
X53883Y27128D01*
X53896Y27139D01*
X53915Y27147D01*
X53926Y27150D01*
X53937Y27152D01*
Y27124D01*
D02*
G37*
G36*
X53730D02*
Y27093D01*
Y27063D01*
X53583D01*
X53525Y27035D01*
X53497Y27005D01*
Y26977D01*
Y26947D01*
X53525Y26916D01*
X53531D01*
X53538Y26914D01*
X53546Y26912D01*
X53559Y26910D01*
X53574Y26906D01*
X53594Y26897D01*
X53613Y26888D01*
X53615D01*
X53620Y26886D01*
X53626Y26882D01*
X53637Y26878D01*
X53661Y26865D01*
X53687Y26845D01*
X53715Y26819D01*
X53736Y26789D01*
X53747Y26772D01*
X53754Y26752D01*
X53758Y26733D01*
X53760Y26711D01*
Y26653D01*
X53730Y26623D01*
Y26595D01*
X53672Y26565D01*
X53613Y26535D01*
X53436D01*
X53408Y26565D01*
Y26595D01*
X53436Y26623D01*
X53644D01*
X53672Y26653D01*
Y26711D01*
Y26742D01*
X53644Y26770D01*
X53641Y26772D01*
X53637Y26774D01*
X53628Y26778D01*
X53618Y26785D01*
X53600Y26791D01*
X53581Y26796D01*
X53555Y26798D01*
X53525Y26800D01*
X53467Y26830D01*
X53436Y26858D01*
X53408Y26916D01*
Y26977D01*
Y27035D01*
X53436Y27063D01*
X53439Y27065D01*
X53443Y27068D01*
X53449Y27074D01*
X53458Y27083D01*
X53471Y27091D01*
X53486Y27102D01*
X53505Y27113D01*
X53525Y27124D01*
X53583Y27152D01*
X53644D01*
X53730Y27124D01*
D02*
G37*
G36*
X52977Y27150D02*
X52988Y27147D01*
X53000Y27141D01*
X53016Y27130D01*
X53029Y27115D01*
X53044Y27093D01*
X53054Y27063D01*
X53057Y27061D01*
X53059Y27059D01*
X53063Y27050D01*
X53070Y27042D01*
X53076Y27031D01*
X53080Y27016D01*
X53082Y26999D01*
X53085Y26977D01*
X53173Y26858D01*
X53231Y26977D01*
Y26979D01*
X53234Y26983D01*
X53238Y26990D01*
X53240Y27001D01*
X53251Y27024D01*
X53262Y27050D01*
X53270Y27078D01*
X53281Y27100D01*
X53285Y27111D01*
X53287Y27117D01*
X53290Y27122D01*
Y27124D01*
X53296Y27126D01*
X53300D01*
X53307Y27130D01*
X53318Y27132D01*
X53333Y27137D01*
X53335D01*
X53339Y27139D01*
X53357Y27143D01*
X53372D01*
X53376Y27141D01*
X53378Y27137D01*
X53376Y27132D01*
X53374Y27124D01*
X53367Y27109D01*
X53363Y27098D01*
X53357Y27085D01*
X53350Y27070D01*
X53341Y27050D01*
X53331Y27031D01*
X53320Y27005D01*
X53305Y26979D01*
X53290Y26947D01*
X53201Y26770D01*
Y26653D01*
Y26535D01*
X53115D01*
Y26537D01*
Y26541D01*
Y26550D01*
Y26563D01*
Y26584D01*
Y26599D01*
Y26614D01*
Y26632D01*
Y26653D01*
Y26742D01*
X53026Y26916D01*
X53024Y26919D01*
X53022Y26927D01*
X53016Y26938D01*
X53009Y26953D01*
X53000Y26970D01*
X52992Y26992D01*
X52975Y27035D01*
X52959Y27078D01*
X52955Y27098D01*
X52951Y27115D01*
Y27130D01*
X52953Y27141D01*
X52959Y27150D01*
X52968Y27152D01*
X52970D01*
X52977Y27150D01*
D02*
G37*
G36*
X52467Y27124D02*
X52498D01*
Y27005D01*
Y26888D01*
X52761D01*
X52791Y27005D01*
Y27124D01*
X52849D01*
Y26830D01*
Y26535D01*
X52791D01*
Y26681D01*
X52761Y26800D01*
X52498D01*
Y26681D01*
Y26535D01*
X52467D01*
X52465Y26532D01*
X52463Y26530D01*
X52450Y26524D01*
X52442Y26522D01*
X52431Y26524D01*
X52420Y26526D01*
X52409Y26535D01*
X52379Y26565D01*
Y26830D01*
X52409Y27124D01*
X52439Y27152D01*
X52467Y27124D01*
D02*
G37*
G36*
X52174D02*
X52232D01*
X52262Y27093D01*
X52321Y27035D01*
Y26977D01*
Y26916D01*
Y26858D01*
X52319Y26854D01*
X52310Y26845D01*
X52293Y26830D01*
X52269Y26815D01*
X52254Y26806D01*
X52239Y26798D01*
X52219Y26791D01*
X52198Y26783D01*
X52174Y26778D01*
X52146Y26774D01*
X52118Y26770D01*
X52057D01*
Y26653D01*
Y26535D01*
X51969D01*
Y26537D01*
Y26543D01*
Y26550D01*
Y26560D01*
Y26571D01*
Y26586D01*
Y26606D01*
Y26627D01*
Y26653D01*
Y26683D01*
Y26720D01*
Y26761D01*
Y26806D01*
Y26858D01*
Y27124D01*
X52057Y27152D01*
X52144D01*
X52174Y27124D01*
D02*
G37*
G36*
X42815Y25362D02*
Y25302D01*
X42785Y25213D01*
X42757Y25127D01*
X42610D01*
X42580Y25155D01*
X42550Y25243D01*
X42522Y25362D01*
X42463Y25274D01*
X42433Y25185D01*
Y25155D01*
X42403Y25127D01*
X42256D01*
Y25155D01*
X42228Y25213D01*
Y25302D01*
X42198Y25390D01*
Y25420D01*
X42286D01*
X42317Y25302D01*
Y25213D01*
X42345D01*
Y25185D01*
X42403Y25302D01*
X42433Y25420D01*
X42580D01*
X42610Y25302D01*
X42668Y25185D01*
Y25213D01*
X42698D01*
Y25302D01*
X42727Y25420D01*
X42815D01*
Y25362D01*
D02*
G37*
G36*
X46076Y25390D02*
Y25274D01*
Y25155D01*
Y25127D01*
X45636D01*
Y25274D01*
Y25420D01*
X46046D01*
X46076Y25390D01*
D02*
G37*
G36*
X45489Y25274D02*
X45577Y25127D01*
X45489D01*
X45459Y25155D01*
X45428Y25185D01*
X45195D01*
Y25155D01*
X45165Y25127D01*
X45077D01*
X45165Y25274D01*
X45254Y25420D01*
X45400D01*
X45489Y25274D01*
D02*
G37*
G36*
X44695Y25302D02*
Y25185D01*
X45049D01*
Y25155D01*
Y25127D01*
X44636D01*
Y25155D01*
Y25274D01*
Y25420D01*
X44695D01*
Y25302D01*
D02*
G37*
G36*
X44313Y25390D02*
X44343Y25362D01*
Y25274D01*
Y25185D01*
X44313Y25155D01*
X44285Y25127D01*
X43842D01*
Y25274D01*
Y25420D01*
X44285D01*
X44313Y25390D01*
D02*
G37*
G36*
X43460Y25302D02*
Y25185D01*
X43814D01*
Y25155D01*
Y25127D01*
X43374D01*
Y25155D01*
Y25274D01*
Y25420D01*
X43460D01*
Y25302D01*
D02*
G37*
G36*
X43314Y25362D02*
Y25332D01*
X42962D01*
Y25302D01*
X43314D01*
Y25274D01*
Y25213D01*
X42962D01*
Y25185D01*
X43314D01*
Y25155D01*
Y25127D01*
X42873D01*
Y25155D01*
Y25274D01*
Y25390D01*
X42904Y25420D01*
X43314D01*
Y25362D01*
D02*
G37*
G36*
X43521Y24950D02*
Y24861D01*
X43402D01*
Y24950D01*
Y25008D01*
X43460D01*
Y24980D01*
X43490Y25008D01*
X43521D01*
Y24950D01*
D02*
G37*
G36*
X45810Y24980D02*
Y24950D01*
X45782D01*
Y24980D01*
X45752D01*
Y24950D01*
Y24892D01*
X45782D01*
Y24920D01*
X45810D01*
Y24892D01*
X45782Y24861D01*
X45724D01*
Y24892D01*
X45694Y24920D01*
X45724Y24980D01*
Y25008D01*
X45782D01*
X45810Y24980D01*
D02*
G37*
G36*
X45107Y24950D02*
Y24861D01*
X45077D01*
Y24892D01*
Y24920D01*
X45049D01*
Y24892D01*
Y24861D01*
X45018D01*
Y24950D01*
Y25008D01*
X45049D01*
Y24980D01*
Y24950D01*
X45077D01*
Y24980D01*
Y25008D01*
X45107D01*
Y24950D01*
D02*
G37*
G36*
X43903D02*
Y24861D01*
X43872D01*
X43842Y24892D01*
Y24861D01*
X43814D01*
Y24950D01*
Y25008D01*
X43842D01*
Y24980D01*
X43872Y24950D01*
Y24980D01*
Y25008D01*
X43903D01*
Y24950D01*
D02*
G37*
G36*
X42757Y24980D02*
Y24950D01*
Y24920D01*
X42698D01*
X42727Y24950D01*
Y24980D01*
X42698D01*
Y24950D01*
Y24920D01*
Y24892D01*
Y24861D01*
X42668D01*
Y24950D01*
Y25008D01*
X42757D01*
Y24980D01*
D02*
G37*
G36*
X45987D02*
Y24920D01*
Y24861D01*
X45899D01*
Y24892D01*
Y24920D01*
Y24980D01*
Y25008D01*
X45957D01*
X45987Y24980D01*
D02*
G37*
G36*
X45605Y24950D02*
Y24861D01*
X45577D01*
Y24950D01*
Y25008D01*
X45605D01*
Y24950D01*
D02*
G37*
G36*
X45459Y24980D02*
X45428D01*
Y24950D01*
X45459D01*
Y24920D01*
X45489Y24861D01*
X45400D01*
Y24892D01*
Y24920D01*
Y24980D01*
Y25008D01*
X45428D01*
X45459Y24980D01*
D02*
G37*
G36*
X45282Y24950D02*
X45254Y24861D01*
X45223D01*
Y24920D01*
Y24950D01*
Y24980D01*
X45195Y25008D01*
X45282D01*
Y24950D01*
D02*
G37*
G36*
X44900Y24980D02*
X44930Y24950D01*
Y24920D01*
X44872D01*
Y24892D01*
Y24861D01*
X44841D01*
Y24950D01*
Y25008D01*
X44872D01*
X44900Y24980D01*
D02*
G37*
G36*
X44606D02*
X44548D01*
Y24950D01*
X44578D01*
X44606Y24920D01*
X44548D01*
Y24892D01*
Y24861D01*
X44518D01*
Y24950D01*
Y25008D01*
X44548D01*
X44606Y24980D01*
D02*
G37*
G36*
X44401D02*
X44431D01*
Y24950D01*
Y24920D01*
X44401Y24892D01*
Y24861D01*
X44343D01*
X44313Y24920D01*
Y24950D01*
Y24980D01*
X44343Y25008D01*
X44401D01*
Y24980D01*
D02*
G37*
G36*
X44077D02*
X44049D01*
Y24920D01*
Y24861D01*
X44019D01*
Y24920D01*
Y24980D01*
X43989D01*
Y25008D01*
X44077D01*
Y24980D01*
D02*
G37*
G36*
X43726D02*
X43667D01*
Y24950D01*
X43695D01*
X43726Y24920D01*
X43667D01*
Y24892D01*
X43637Y24861D01*
Y24950D01*
Y25008D01*
X43667D01*
X43726Y24980D01*
D02*
G37*
G36*
X43314D02*
X43285D01*
Y24920D01*
Y24861D01*
X43255D01*
Y24920D01*
Y24980D01*
X43227Y25008D01*
X43314D01*
Y24980D01*
D02*
G37*
G36*
X43139D02*
Y24920D01*
Y24861D01*
X43109D01*
Y24892D01*
X43078Y24920D01*
Y24892D01*
Y24861D01*
X43050D01*
Y24950D01*
Y25008D01*
X43078D01*
X43139Y24980D01*
D02*
G37*
G36*
X42932Y24950D02*
X42962Y24861D01*
X42904D01*
Y24892D01*
X42873Y24861D01*
X42845D01*
X42873Y24920D01*
Y24980D01*
X42904Y25008D01*
X42932D01*
Y24950D01*
D02*
G37*
G36*
X42580Y24980D02*
X42522D01*
Y24950D01*
X42550D01*
X42580Y24920D01*
X42522D01*
Y24892D01*
X42491Y24861D01*
Y24950D01*
Y25008D01*
X42522D01*
X42580Y24980D01*
D02*
G37*
G36*
X42375D02*
Y24950D01*
Y24920D01*
Y24861D01*
X42286D01*
Y24950D01*
Y25008D01*
X42375D01*
Y24980D01*
D02*
G37*
%LPC*%
G36*
X61535Y13879D02*
X61488D01*
X61470Y13826D01*
Y13826D01*
X61469Y13826D01*
X61469Y13824D01*
X61469Y13823D01*
X61468Y13819D01*
X61468Y13815D01*
Y13815D01*
Y13814D01*
X61468Y13813D01*
X61468Y13811D01*
X61469Y13810D01*
X61470Y13808D01*
X61471Y13805D01*
X61473Y13804D01*
X61474Y13801D01*
X61477Y13799D01*
X61480Y13797D01*
X61484Y13795D01*
X61488Y13794D01*
X61494Y13793D01*
X61499Y13792D01*
X61506Y13792D01*
X61535Y13879D01*
D02*
G37*
G36*
X59057D02*
X59000D01*
X58981Y13826D01*
Y13826D01*
X58981Y13825D01*
X58981Y13824D01*
X58980Y13822D01*
X58979Y13818D01*
X58979Y13813D01*
Y13813D01*
Y13813D01*
X58979Y13811D01*
X58980Y13808D01*
X58982Y13805D01*
X58984Y13801D01*
X58986Y13800D01*
X58988Y13798D01*
X58990Y13797D01*
X58993Y13795D01*
X58996Y13794D01*
X58999Y13793D01*
X59000D01*
X59001Y13793D01*
X59003Y13792D01*
X59006D01*
X59010Y13792D01*
X59016Y13792D01*
X59019Y13791D01*
X59031D01*
X59057Y13879D01*
D02*
G37*
G36*
X58103Y13879D02*
X58057D01*
X58038Y13817D01*
Y13817D01*
X58037Y13816D01*
X58037Y13815D01*
Y13814D01*
X58036Y13811D01*
X58036Y13807D01*
Y13807D01*
Y13806D01*
X58036Y13805D01*
Y13804D01*
X58037Y13801D01*
X58040Y13797D01*
X58041Y13795D01*
X58043Y13793D01*
X58045Y13791D01*
X58048Y13790D01*
X58051Y13788D01*
X58054Y13787D01*
X58059Y13787D01*
X58064Y13786D01*
X58066D01*
X58069Y13787D01*
X58069D01*
X58070Y13787D01*
X58074D01*
X58103Y13879D01*
D02*
G37*
G36*
X58064Y13746D02*
X58063D01*
X58061Y13746D01*
X58058Y13745D01*
X58054Y13744D01*
X58050Y13742D01*
X58046Y13739D01*
X58043Y13737D01*
X58041Y13735D01*
X58038Y13732D01*
X58036Y13729D01*
Y13728D01*
X58035Y13728D01*
X58034Y13727D01*
X58034Y13726D01*
X58032Y13722D01*
X58029Y13718D01*
X58027Y13712D01*
X58025Y13706D01*
X58024Y13700D01*
X58023Y13693D01*
Y13692D01*
Y13692D01*
X58023Y13690D01*
X58024Y13687D01*
X58025Y13683D01*
X58026Y13680D01*
X58029Y13675D01*
X58032Y13671D01*
X58037Y13667D01*
X58064Y13746D01*
D02*
G37*
G36*
X63211Y13879D02*
X63155D01*
X63134Y13817D01*
Y13816D01*
X63133Y13816D01*
X63133Y13815D01*
Y13814D01*
X63132Y13811D01*
X63132Y13807D01*
Y13807D01*
Y13806D01*
X63132Y13805D01*
X63133Y13804D01*
X63133Y13803D01*
X63134Y13801D01*
X63135Y13799D01*
X63137Y13797D01*
X63139Y13795D01*
X63141Y13793D01*
X63144Y13792D01*
X63148Y13790D01*
X63153Y13789D01*
X63158Y13788D01*
X63164Y13787D01*
X63171Y13787D01*
X63179D01*
X63211Y13879D01*
D02*
G37*
G36*
X59811Y13746D02*
X59810D01*
X59808Y13746D01*
X59805Y13745D01*
X59802Y13744D01*
X59798Y13742D01*
X59793Y13739D01*
X59791Y13737D01*
X59788Y13735D01*
X59786Y13732D01*
X59784Y13729D01*
Y13728D01*
X59783Y13728D01*
X59783Y13727D01*
X59782Y13726D01*
X59780Y13722D01*
X59777Y13718D01*
X59775Y13712D01*
X59773Y13706D01*
X59772Y13700D01*
X59771Y13693D01*
Y13692D01*
Y13692D01*
X59771Y13690D01*
X59772Y13687D01*
X59773Y13683D01*
X59774Y13680D01*
X59777Y13675D01*
X59780Y13671D01*
X59785Y13667D01*
X59811Y13746D01*
D02*
G37*
G36*
X63554Y13348D02*
X63498D01*
X63477Y13286D01*
Y13286D01*
X63476Y13285D01*
X63476Y13285D01*
Y13283D01*
X63475Y13280D01*
X63475Y13277D01*
Y13277D01*
Y13276D01*
X63475Y13275D01*
X63476Y13274D01*
X63476Y13272D01*
X63477Y13270D01*
X63478Y13268D01*
X63480Y13267D01*
X63482Y13265D01*
X63484Y13263D01*
X63487Y13261D01*
X63491Y13260D01*
X63496Y13258D01*
X63501Y13257D01*
X63507Y13257D01*
X63514Y13256D01*
X63522D01*
X63554Y13348D01*
D02*
G37*
G36*
X61892D02*
X61834D01*
X61816Y13296D01*
Y13296D01*
X61816Y13295D01*
X61815Y13293D01*
X61815Y13292D01*
X61814Y13288D01*
X61814Y13283D01*
Y13283D01*
Y13282D01*
X61814Y13280D01*
X61815Y13278D01*
X61816Y13274D01*
X61819Y13271D01*
X61820Y13269D01*
X61822Y13268D01*
X61824Y13266D01*
X61827Y13265D01*
X61830Y13264D01*
X61834Y13263D01*
X61834D01*
X61836Y13262D01*
X61838Y13262D01*
X61841D01*
X61845Y13262D01*
X61850Y13261D01*
X61854Y13261D01*
X61865D01*
X61892Y13348D01*
D02*
G37*
G36*
X61243D02*
X61193D01*
X61176Y13292D01*
Y13291D01*
X61175Y13291D01*
Y13290D01*
X61175Y13289D01*
X61175Y13286D01*
X61174Y13282D01*
Y13282D01*
Y13281D01*
X61175Y13280D01*
X61175Y13279D01*
X61176Y13277D01*
X61177Y13275D01*
X61178Y13273D01*
X61180Y13271D01*
X61182Y13269D01*
X61185Y13268D01*
X61188Y13266D01*
X61192Y13264D01*
X61196Y13263D01*
X61202Y13262D01*
X61208Y13261D01*
X61215Y13261D01*
X61243Y13348D01*
D02*
G37*
G36*
X61163Y12923D02*
X61113D01*
X61096Y12867D01*
Y12866D01*
X61095Y12866D01*
Y12865D01*
X61095Y12863D01*
X61095Y12860D01*
X61094Y12857D01*
Y12856D01*
Y12856D01*
X61095Y12855D01*
X61095Y12854D01*
X61096Y12852D01*
X61097Y12850D01*
X61098Y12848D01*
X61100Y12846D01*
X61102Y12844D01*
X61104Y12842D01*
X61108Y12841D01*
X61112Y12839D01*
X61116Y12838D01*
X61122Y12837D01*
X61128Y12836D01*
X61135Y12836D01*
X61163Y12923D01*
D02*
G37*
G36*
X61952D02*
X61903D01*
X61885Y12867D01*
Y12866D01*
X61885Y12866D01*
Y12865D01*
X61885Y12863D01*
X61884Y12860D01*
X61884Y12857D01*
Y12856D01*
Y12856D01*
X61884Y12855D01*
X61885Y12854D01*
X61885Y12852D01*
X61886Y12850D01*
X61887Y12848D01*
X61889Y12846D01*
X61891Y12844D01*
X61894Y12842D01*
X61898Y12841D01*
X61902Y12839D01*
X61906Y12838D01*
X61912Y12837D01*
X61918Y12836D01*
X61925Y12836D01*
X61952Y12923D01*
D02*
G37*
G36*
X60152D02*
X60094D01*
X60076Y12871D01*
Y12871D01*
X60076Y12870D01*
X60075Y12868D01*
X60075Y12867D01*
X60074Y12862D01*
X60074Y12858D01*
Y12857D01*
Y12857D01*
X60074Y12855D01*
X60075Y12853D01*
X60076Y12849D01*
X60079Y12846D01*
X60080Y12844D01*
X60082Y12842D01*
X60084Y12841D01*
X60087Y12839D01*
X60090Y12838D01*
X60094Y12837D01*
X60094D01*
X60096Y12837D01*
X60098Y12837D01*
X60101D01*
X60105Y12836D01*
X60110Y12836D01*
X60114Y12836D01*
X60125D01*
X60152Y12923D01*
D02*
G37*
G36*
X57365Y12923D02*
X57309D01*
X57287Y12861D01*
Y12861D01*
X57287Y12860D01*
X57287Y12859D01*
Y12858D01*
X57286Y12855D01*
X57286Y12852D01*
Y12852D01*
Y12851D01*
X57286Y12850D01*
X57286Y12849D01*
X57287Y12847D01*
X57288Y12845D01*
X57289Y12843D01*
X57291Y12842D01*
X57292Y12840D01*
X57295Y12838D01*
X57298Y12836D01*
X57302Y12834D01*
X57306Y12833D01*
X57312Y12832D01*
X57317Y12832D01*
X57324Y12831D01*
X57332D01*
X57365Y12923D01*
D02*
G37*
G36*
X57047Y12876D02*
X57046Y12875D01*
X57046Y12874D01*
X57045Y12871D01*
X57043Y12867D01*
X57041Y12862D01*
X57038Y12856D01*
X57035Y12849D01*
X57032Y12841D01*
X57028Y12832D01*
X57023Y12821D01*
X57018Y12810D01*
X57012Y12797D01*
X57006Y12784D01*
X57000Y12769D01*
X56993Y12753D01*
X56985Y12736D01*
X56985D01*
X56986Y12737D01*
X56987Y12737D01*
X56988Y12738D01*
X56990Y12740D01*
X56992Y12741D01*
X56998Y12745D01*
X57004Y12750D01*
X57011Y12755D01*
X57014Y12759D01*
X57018Y12763D01*
X57022Y12767D01*
X57026Y12772D01*
X57026Y12772D01*
X57027Y12772D01*
X57028Y12774D01*
X57029Y12775D01*
X57031Y12777D01*
X57033Y12780D01*
X57037Y12786D01*
X57042Y12792D01*
X57046Y12799D01*
X57050Y12806D01*
X57052Y12810D01*
X57053Y12813D01*
Y12814D01*
X57054Y12814D01*
X57054Y12815D01*
X57054Y12816D01*
X57055Y12820D01*
X57057Y12824D01*
X57058Y12830D01*
X57059Y12835D01*
X57060Y12840D01*
X57060Y12846D01*
Y12846D01*
Y12847D01*
Y12848D01*
X57060Y12849D01*
X57059Y12853D01*
X57058Y12857D01*
X57057Y12862D01*
X57054Y12867D01*
X57051Y12872D01*
X57047Y12876D01*
D02*
G37*
G36*
X54524Y27417D02*
X54494D01*
Y27387D01*
Y27359D01*
X54524D01*
X54554Y27387D01*
Y27389D01*
Y27391D01*
X54550Y27402D01*
X54541Y27413D01*
X54535Y27415D01*
X54524Y27417D01*
D02*
G37*
G36*
X54347Y27387D02*
X54319D01*
Y27385D01*
Y27383D01*
Y27374D01*
Y27363D01*
Y27361D01*
Y27359D01*
Y27329D01*
X54347Y27359D01*
Y27363D01*
Y27372D01*
Y27378D01*
Y27387D01*
D02*
G37*
G36*
X53937Y27417D02*
Y27413D01*
Y27404D01*
Y27398D01*
Y27387D01*
Y27359D01*
X53965D01*
Y27387D01*
X53937Y27417D01*
D02*
G37*
G36*
X53760Y27387D02*
X53730Y27359D01*
Y27357D01*
Y27355D01*
X53734Y27344D01*
X53743Y27333D01*
X53749Y27331D01*
X53760Y27329D01*
X53790D01*
X53760Y27359D01*
Y27387D01*
D02*
G37*
G36*
X53270Y27359D02*
X53262D01*
Y27329D01*
X53266D01*
X53277Y27331D01*
X53285Y27335D01*
X53287Y27339D01*
X53290Y27344D01*
Y27346D01*
X53285Y27352D01*
X53279Y27357D01*
X53270Y27359D01*
D02*
G37*
G36*
X54729Y27383D02*
X54725Y27374D01*
X54718Y27363D01*
X54710Y27361D01*
X54701Y27359D01*
Y27329D01*
X54729D01*
Y27383D01*
D02*
G37*
G36*
X52711Y27376D02*
X52707D01*
X52705Y27372D01*
X52703Y27368D01*
Y27359D01*
Y27357D01*
Y27355D01*
Y27344D01*
Y27333D01*
Y27331D01*
Y27329D01*
X52733D01*
Y27331D01*
Y27333D01*
X52731Y27346D01*
X52726Y27359D01*
X52718Y27372D01*
X52716Y27374D01*
X52711Y27376D01*
D02*
G37*
G36*
X54142Y27417D02*
X54112D01*
Y27387D01*
Y27359D01*
X54142D01*
X54172Y27387D01*
X54168Y27391D01*
X54159Y27400D01*
X54153Y27406D01*
X54142Y27417D01*
D02*
G37*
G36*
X54172Y27329D02*
X54112D01*
Y27298D01*
X54172D01*
Y27329D01*
D02*
G37*
G36*
X53583Y27417D02*
X53555D01*
Y27387D01*
Y27359D01*
X53583D01*
Y27387D01*
Y27417D01*
D02*
G37*
G36*
X53613Y27329D02*
X53555D01*
Y27298D01*
X53583D01*
X53613Y27329D01*
D02*
G37*
G36*
X51380Y27359D02*
X51352D01*
X51347Y27357D01*
X51337Y27352D01*
X51319Y27346D01*
X51298Y27337D01*
X51274Y27324D01*
X51246Y27309D01*
X51218Y27292D01*
X51190Y27270D01*
X51188Y27268D01*
X51179Y27260D01*
X51166Y27249D01*
X51153Y27234D01*
X51140Y27216D01*
X51127Y27195D01*
X51119Y27173D01*
X51117Y27152D01*
X51086Y27093D01*
X51117Y27063D01*
Y27061D01*
Y27059D01*
X51119Y27048D01*
X51123Y27033D01*
X51132Y27020D01*
X51134Y27018D01*
X51140Y27014D01*
X51145Y27007D01*
X51147Y27005D01*
X51175Y26977D01*
X51237D01*
X51248Y26979D01*
X51259Y26983D01*
X51261Y26986D01*
X51263Y26990D01*
Y26994D01*
X51265Y27003D01*
X51270Y27016D01*
X51278Y27035D01*
X51283Y27050D01*
X51287Y27065D01*
X51296Y27083D01*
X51302Y27102D01*
X51311Y27126D01*
X51322Y27152D01*
X51324Y27156D01*
X51326Y27167D01*
X51332Y27182D01*
X51339Y27201D01*
X51352Y27245D01*
X51358Y27266D01*
X51365Y27283D01*
Y27286D01*
X51367Y27292D01*
X51369Y27298D01*
X51373Y27309D01*
X51378Y27335D01*
X51380Y27359D01*
D02*
G37*
G36*
X52144Y27063D02*
X52057D01*
Y26947D01*
Y26830D01*
X52090D01*
X52105Y26834D01*
X52122Y26843D01*
X52133Y26850D01*
X52144Y26858D01*
X52174D01*
X52204Y26888D01*
X52206Y26891D01*
X52208Y26899D01*
X52211Y26910D01*
X52215Y26925D01*
X52217Y26942D01*
Y26962D01*
X52213Y26983D01*
X52204Y27005D01*
Y27035D01*
X52144Y27063D01*
D02*
G37*
G36*
X45987Y25332D02*
X45694D01*
Y25302D01*
X45987D01*
Y25332D01*
D02*
G37*
G36*
Y25243D02*
X45694D01*
Y25213D01*
Y25185D01*
X45987D01*
Y25213D01*
Y25243D01*
D02*
G37*
G36*
X45342Y25332D02*
X45312D01*
X45282Y25274D01*
X45254Y25243D01*
X45400D01*
X45370Y25302D01*
X45342Y25332D01*
D02*
G37*
G36*
X44254D02*
X43931D01*
Y25274D01*
Y25185D01*
X44077Y25213D01*
X44254D01*
Y25274D01*
Y25332D01*
D02*
G37*
G36*
X45957Y24980D02*
X45929D01*
Y24950D01*
X45957D01*
Y24980D01*
D02*
G37*
G36*
Y24920D02*
X45929D01*
X45957Y24892D01*
Y24920D01*
D02*
G37*
G36*
X45459D02*
X45428D01*
Y24892D01*
X45459D01*
Y24920D01*
D02*
G37*
G36*
X44371Y24980D02*
X44343D01*
Y24950D01*
Y24892D01*
X44371D01*
Y24950D01*
Y24980D01*
D02*
G37*
G36*
X43109D02*
X43078D01*
Y24950D01*
Y24920D01*
X43109Y24950D01*
Y24980D01*
D02*
G37*
%LPD*%
D10*
X42055Y13528D02*
G03*
X42055Y14669I0J571D01*
G01*
X41665Y11429D02*
G03*
X41665Y12571I0J571D01*
G01*
X34365Y11629D02*
G03*
X34365Y12771I0J571D01*
G01*
X39102Y13232D02*
Y14965D01*
X41621D01*
Y13232D02*
Y14965D01*
X39102Y13232D02*
X41621D01*
Y14669D02*
X42055D01*
X41621Y13528D02*
X42055D01*
X38713Y11134D02*
Y12866D01*
X41232D01*
Y11134D02*
Y12866D01*
X38713Y11134D02*
X41232D01*
Y12571D02*
X41665D01*
X41232Y11429D02*
X41665D01*
X31413Y11334D02*
Y13066D01*
X33932D01*
Y11334D02*
Y13066D01*
X31413Y11334D02*
X33932D01*
Y12771D02*
X34365D01*
X33932Y11629D02*
X34365D01*
D11*
X38529Y14166D02*
G03*
X38529Y14166I-49J0D01*
G01*
X39751Y19101D02*
G03*
X39751Y19101I-49J0D01*
G01*
X24800Y25662D02*
G03*
X24800Y25662I-49J0D01*
G01*
X13265Y25520D02*
G03*
X13265Y25520I-49J0D01*
G01*
X36823Y18540D02*
G03*
X36823Y18540I-49J0D01*
G01*
X31485Y19035D02*
G03*
X31485Y19035I-49J0D01*
G01*
X30223Y13990D02*
G03*
X30223Y13990I-49J0D01*
G01*
X26616Y19825D02*
G03*
X26616Y19825I-49J0D01*
G01*
X21726Y21035D02*
G03*
X21726Y21035I-49J0D01*
G01*
X15792Y24485D02*
G03*
X15792Y24485I-49J0D01*
G01*
X15369Y20884D02*
G03*
X15369Y20884I-49J0D01*
G01*
X40054Y17900D02*
G03*
X40054Y17900I-49J0D01*
G01*
D12*
X31731Y18722D02*
G03*
X31987Y18978I0J256D01*
G01*
X18918Y13789D02*
G03*
X18918Y13789I-1969J0D01*
G01*
X29497Y21884D02*
G03*
X29253Y22128I-244J0D01*
G01*
X36831Y16026D02*
Y17306D01*
X38209D01*
Y17011D02*
Y17306D01*
Y15042D02*
Y16223D01*
X36831Y13959D02*
Y15239D01*
X38209Y13959D02*
Y14255D01*
X36831Y13959D02*
X38209D01*
X39003Y19190D02*
X39397D01*
X39003Y20410D02*
X39397D01*
Y19190D02*
Y20410D01*
X39003Y19190D02*
Y20410D01*
X28600Y10500D02*
Y10700D01*
X27400D02*
X28600D01*
X27400Y10500D02*
Y10700D01*
X27000Y10500D02*
Y12700D01*
X29000D01*
Y10500D02*
Y12700D01*
X27000Y10500D02*
X29000D01*
X27593Y23363D02*
X27907D01*
X27593Y24937D02*
X27907D01*
X26612Y27311D02*
X27891D01*
Y25933D02*
Y27311D01*
X27596Y25933D02*
X27891D01*
X25627D02*
X26808D01*
X24545Y27311D02*
X25824D01*
X24545Y25933D02*
X24840D01*
X24545D02*
Y27311D01*
X15076Y27169D02*
X16356D01*
Y25791D02*
Y27169D01*
X16061Y25791D02*
X16356D01*
X14092D02*
X15273D01*
X13009Y27169D02*
X14289D01*
X13009Y25791D02*
X13305D01*
X13009D02*
Y27169D01*
X11900Y15450D02*
Y15950D01*
X11790Y16050D02*
X11900Y15950D01*
X11790Y15350D02*
X11900Y15450D01*
X11790Y14350D02*
X11900Y14450D01*
X11790Y15050D02*
X11900Y14950D01*
Y14450D02*
Y14950D01*
X14310Y14176D02*
Y16263D01*
X11790D02*
X14310D01*
X11790Y14137D02*
Y16263D01*
Y14137D02*
X14310D01*
Y14176D01*
X36134Y18717D02*
X36528D01*
X36134D02*
Y18855D01*
Y19583D02*
X36528D01*
X36134Y19445D02*
Y19583D01*
X36764Y22550D02*
X36882D01*
X37157D02*
X37236D01*
X36882Y22353D02*
Y22707D01*
Y22353D02*
X37157Y22550D01*
X36882Y22707D02*
X37157Y22550D01*
Y22353D02*
Y22747D01*
X38850D02*
Y23810D01*
X38772Y22747D02*
X38850D01*
X38772D02*
Y23810D01*
Y21290D02*
Y22353D01*
X38850D01*
Y21290D02*
Y22353D01*
X35150Y21290D02*
Y21772D01*
Y23328D02*
Y23810D01*
Y21290D02*
X38850D01*
X35150Y23810D02*
X38850D01*
X31731Y14922D02*
X34369D01*
X31731Y18978D02*
X34369D01*
Y14922D02*
Y18978D01*
X31731Y14922D02*
Y18978D01*
X35843Y24413D02*
X36157D01*
X35843Y25987D02*
X36157D01*
X59793Y24342D02*
Y24736D01*
Y22964D02*
Y23358D01*
X62707Y21744D02*
Y25956D01*
X61742D02*
X62707D01*
X61742Y21744D02*
X62707D01*
X59793Y25720D02*
Y25956D01*
X60659D01*
X59793Y21744D02*
X60659D01*
X59793D02*
Y21980D01*
X59843Y17842D02*
Y18236D01*
Y16464D02*
Y16858D01*
X62757Y15244D02*
Y19456D01*
X61792D02*
X62757D01*
X61792Y15244D02*
X62757D01*
X59843Y19220D02*
Y19456D01*
X60709D01*
X59843Y15244D02*
X60709D01*
X59843D02*
Y15480D01*
X29534Y14167D02*
X29928D01*
X29534D02*
Y14305D01*
Y15033D02*
X29928D01*
X29534Y14895D02*
Y15033D01*
X26970Y17766D02*
X28230D01*
X26970Y19734D02*
X28230D01*
Y17766D02*
Y19734D01*
X26970Y17766D02*
Y19734D01*
X22120Y17478D02*
Y20922D01*
X23380Y17478D02*
Y20922D01*
X22120D02*
X23380D01*
X22120Y17478D02*
X23380D01*
X23559Y15012D02*
X24741D01*
X22221Y15209D02*
X22615D01*
X22221Y11823D02*
Y15209D01*
Y11823D02*
X22930D01*
Y10051D02*
Y11823D01*
Y10051D02*
X25370D01*
Y11823D01*
X26079D01*
Y15209D01*
X25685D02*
X26079D01*
X16750Y11309D02*
X17150D01*
X16950Y11109D02*
Y11509D01*
X16199Y22435D02*
X17443D01*
X16199Y24365D02*
X17443D01*
Y22435D02*
Y24365D01*
X16199Y22435D02*
Y24365D01*
X16969Y17744D02*
Y19024D01*
X15591Y17744D02*
X16969D01*
X15591D02*
Y18039D01*
Y18827D02*
Y20008D01*
X16969Y19811D02*
Y21091D01*
X15591Y20795D02*
Y21091D01*
X16969D01*
X11900Y12750D02*
Y13250D01*
X11790Y13350D02*
X11900Y13250D01*
X11790Y12650D02*
X11900Y12750D01*
X11790Y11650D02*
X11900Y11750D01*
X11790Y12350D02*
X11900Y12250D01*
Y11750D02*
Y12250D01*
X14310Y11476D02*
Y13563D01*
X11790D02*
X14310D01*
X11790Y11437D02*
Y13563D01*
Y11437D02*
X14310D01*
Y11476D01*
X11900Y18150D02*
Y18650D01*
X11790Y18750D02*
X11900Y18650D01*
X11790Y18050D02*
X11900Y18150D01*
X11790Y17050D02*
X11900Y17150D01*
X11790Y17750D02*
X11900Y17650D01*
Y17150D02*
Y17650D01*
X14310Y16876D02*
Y18963D01*
X11790D02*
X14310D01*
X11790Y16837D02*
Y18963D01*
Y16837D02*
X14310D01*
Y16876D01*
X29253Y25950D02*
X30088D01*
X30850D02*
X33050D01*
X33850D02*
X34655D01*
X33850Y21850D02*
X34655D01*
X31850D02*
X33050D01*
X30850D02*
X31050D01*
X29253D02*
X30088D01*
X29253D02*
Y25950D01*
X34655Y21850D02*
Y25950D01*
X31850Y21850D02*
X31859D01*
Y25950D01*
X33050Y21850D02*
Y25950D01*
Y25878D02*
Y25950D01*
X31859Y25672D02*
X32138Y25950D01*
X31859Y25278D02*
X32531Y25950D01*
X31859Y24884D02*
X32925Y25950D01*
X31859Y24491D02*
X33041Y25672D01*
X31859Y24097D02*
X33041Y25278D01*
X31859Y23703D02*
X33041Y24884D01*
X31859Y23309D02*
X33041Y24491D01*
X31859Y22916D02*
X33041Y24097D01*
X31859Y22522D02*
X33041Y23703D01*
X31859Y22128D02*
X33041Y23309D01*
X31975Y21850D02*
X33041Y22916D01*
X32378Y21850D02*
X33050Y22522D01*
X32772Y21850D02*
X33050Y22128D01*
X46800Y22500D02*
X56406D01*
Y26200D01*
X46800D02*
X56406D01*
X46800Y22500D02*
Y26200D01*
X40260Y16841D02*
Y21959D01*
Y16841D02*
X56008D01*
Y21959D01*
X40260D02*
X56008D01*
X11900Y24250D02*
Y24750D01*
X11790Y24850D02*
X11900Y24750D01*
X11790Y24150D02*
X11900Y24250D01*
X11790Y23150D02*
X11900Y23250D01*
X11790Y23850D02*
X11900Y23750D01*
Y23250D02*
Y23750D01*
X14310Y22976D02*
Y25063D01*
X11790D02*
X14310D01*
X11790Y22937D02*
Y25063D01*
Y22937D02*
X14310D01*
Y22976D01*
D13*
X27482Y19341D02*
G03*
X27482Y19341I-118J0D01*
G01*
X22632Y20539D02*
G03*
X22632Y20539I-118J0D01*
G01*
X16713Y23991D02*
G03*
X16713Y23991I-118J0D01*
G01*
D14*
X24175Y23650D02*
G03*
X24175Y23650I-1875J0D01*
G01*
X49700Y15419D02*
Y16019D01*
X50000D01*
X50100Y15919D01*
Y15719D01*
X50000Y15619D01*
X49700D01*
X49900D02*
X50100Y15419D01*
X50300Y16019D02*
Y15419D01*
X50700D01*
X50900Y16019D02*
Y15919D01*
X51100Y15719D01*
X51299Y15919D01*
Y16019D01*
X51100Y15719D02*
Y15419D01*
X51499Y15320D02*
X51899D01*
X52499Y16019D02*
X52099D01*
Y15719D01*
X52299D01*
X52099D01*
Y15419D01*
X53699Y15919D02*
X53599Y16019D01*
X53399D01*
X53299Y15919D01*
Y15519D01*
X53399Y15419D01*
X53599D01*
X53699Y15519D01*
X54199Y16019D02*
X53999D01*
X53899Y15919D01*
Y15519D01*
X53999Y15419D01*
X54199D01*
X54299Y15519D01*
Y15919D01*
X54199Y16019D01*
X54498Y15419D02*
Y16019D01*
X54898Y15419D01*
Y16019D01*
X55098D02*
Y15419D01*
X55398D01*
X55498Y15519D01*
Y15919D01*
X55398Y16019D01*
X55098D01*
X49700Y14960D02*
Y14360D01*
Y14660D01*
X50100D01*
Y14960D01*
Y14360D01*
X53099Y14960D02*
X52699D01*
Y14660D01*
X52899D01*
X52699D01*
Y14360D01*
X53399Y14760D02*
X53599D01*
X53699Y14660D01*
Y14360D01*
X53399D01*
X53299Y14460D01*
X53399Y14560D01*
X53699D01*
X53899Y14760D02*
Y14460D01*
X53999Y14360D01*
X54299D01*
Y14760D01*
X54498Y14360D02*
X54698D01*
X54598D01*
Y14960D01*
X54498D01*
X55098Y14860D02*
Y14760D01*
X54998D01*
X55198D01*
X55098D01*
Y14460D01*
X55198Y14360D01*
X49700Y14000D02*
Y13400D01*
X50100D01*
X52999Y14000D02*
X52799D01*
X52699Y13900D01*
Y13500D01*
X52799Y13400D01*
X52999D01*
X53099Y13500D01*
Y13900D01*
X52999Y14000D01*
X53299D02*
Y13400D01*
Y13600D01*
X53699Y14000D01*
X53399Y13700D01*
X53699Y13400D01*
X42900Y11300D02*
Y11900D01*
X43200D01*
X43300Y11800D01*
Y11600D01*
X43200Y11500D01*
X42900D01*
X43100D02*
X43300Y11300D01*
X43500Y11900D02*
Y11300D01*
X43900D01*
X44400Y11900D02*
X44200D01*
X44100Y11800D01*
Y11400D01*
X44200Y11300D01*
X44400D01*
X44499Y11400D01*
Y11800D01*
X44400Y11900D01*
X44699D02*
Y11300D01*
Y11500D01*
X45099Y11900D01*
X44799Y11600D01*
X45099Y11300D01*
X45299D02*
X45499D01*
X45399D01*
Y11900D01*
X45299Y11800D01*
X45899Y11200D02*
X45999Y11300D01*
Y11400D01*
X45899D01*
Y11300D01*
X45999D01*
X45899Y11200D01*
X45799Y11100D01*
X46799Y11300D02*
X46399D01*
X46799Y11700D01*
Y11800D01*
X46699Y11900D01*
X46499D01*
X46399Y11800D01*
X47598Y11300D02*
Y11700D01*
X47698D01*
X47798Y11600D01*
Y11300D01*
Y11600D01*
X47898Y11700D01*
X47998Y11600D01*
Y11300D01*
X48198Y11700D02*
Y11400D01*
X48298Y11300D01*
X48598D01*
Y11700D01*
X48798Y11300D02*
X49098D01*
X49198Y11400D01*
X49098Y11500D01*
X48898D01*
X48798Y11600D01*
X48898Y11700D01*
X49198D01*
X49498Y11800D02*
Y11700D01*
X49398D01*
X49598D01*
X49498D01*
Y11400D01*
X49598Y11300D01*
X50498Y11900D02*
Y11300D01*
X50797D01*
X50897Y11400D01*
Y11500D01*
Y11600D01*
X50797Y11700D01*
X50498D01*
X51397Y11300D02*
X51197D01*
X51097Y11400D01*
Y11600D01*
X51197Y11700D01*
X51397D01*
X51497Y11600D01*
Y11500D01*
X51097D01*
X52297Y11300D02*
X52497D01*
X52397D01*
Y11700D01*
X52297D01*
X52797Y11300D02*
Y11700D01*
X53097D01*
X53197Y11600D01*
Y11300D01*
X53996D02*
X54296D01*
X54396Y11400D01*
X54296Y11500D01*
X54096D01*
X53996Y11600D01*
X54096Y11700D01*
X54396D01*
X54696D02*
X54896D01*
X54996Y11600D01*
Y11300D01*
X54696D01*
X54596Y11400D01*
X54696Y11500D01*
X54996D01*
X55196Y11300D02*
Y11700D01*
X55296D01*
X55396Y11600D01*
Y11300D01*
Y11600D01*
X55496Y11700D01*
X55596Y11600D01*
Y11300D01*
X56096D02*
X55896D01*
X55796Y11400D01*
Y11600D01*
X55896Y11700D01*
X56096D01*
X56196Y11600D01*
Y11500D01*
X55796D01*
X56995Y11300D02*
X57295D01*
X57395Y11400D01*
X57295Y11500D01*
X57095D01*
X56995Y11600D01*
X57095Y11700D01*
X57395D01*
X57695Y11800D02*
Y11700D01*
X57595D01*
X57795D01*
X57695D01*
Y11400D01*
X57795Y11300D01*
X58195Y11700D02*
X58395D01*
X58495Y11600D01*
Y11300D01*
X58195D01*
X58095Y11400D01*
X58195Y11500D01*
X58495D01*
X58795Y11800D02*
Y11700D01*
X58695D01*
X58895D01*
X58795D01*
Y11400D01*
X58895Y11300D01*
X59495D02*
X59295D01*
X59195Y11400D01*
Y11600D01*
X59295Y11700D01*
X59495D01*
X59595Y11600D01*
Y11500D01*
X59195D01*
X63200Y24000D02*
Y23400D01*
X63600D01*
X63800Y23600D02*
Y24100D01*
Y23500D02*
Y23400D01*
X64000Y23600D02*
Y24100D01*
Y23500D02*
Y23400D01*
X64200Y23600D02*
Y24100D01*
Y23500D02*
Y23400D01*
X63600Y22300D02*
X63500Y22400D01*
X63300D01*
X63200Y22300D01*
Y21900D01*
X63300Y21800D01*
X63500D01*
X63600Y21900D01*
Y22100D01*
X63400D01*
X63800Y21800D02*
Y22400D01*
X64200Y21800D01*
Y22400D01*
X64400D02*
Y21800D01*
X64700D01*
X64799Y21900D01*
Y22300D01*
X64700Y22400D01*
X64400D01*
X63200Y24900D02*
Y25500D01*
X63600Y24900D01*
Y25500D01*
X63200Y18500D02*
Y19100D01*
X63600Y18500D01*
Y19100D01*
Y15900D02*
X63500Y16000D01*
X63300D01*
X63200Y15900D01*
Y15500D01*
X63300Y15400D01*
X63500D01*
X63600Y15500D01*
Y15700D01*
X63400D01*
X63800Y15400D02*
Y16000D01*
X64200Y15400D01*
Y16000D01*
X64400D02*
Y15400D01*
X64700D01*
X64799Y15500D01*
Y15900D01*
X64700Y16000D01*
X64400D01*
X63200Y17600D02*
Y17000D01*
X63600D01*
X63800Y17200D02*
Y17700D01*
Y17100D02*
Y17000D01*
X64000Y17200D02*
Y17700D01*
Y17100D02*
Y17000D01*
X64200Y17200D02*
Y17700D01*
Y17100D02*
Y17000D01*
X39200Y20800D02*
X39700D01*
X39800Y20900D01*
Y21100D01*
X39700Y21200D01*
X39200D01*
X39800Y21700D02*
X39200D01*
X39500Y21400D01*
Y21800D01*
X29400Y10500D02*
Y11100D01*
X29700D01*
X29800Y11000D01*
Y10800D01*
X29700Y10700D01*
X29400D01*
X29600D02*
X29800Y10500D01*
X30000Y11100D02*
Y10500D01*
X30400D01*
X30600Y11100D02*
Y11000D01*
X30800Y10800D01*
X30999Y11000D01*
Y11100D01*
X30800Y10800D02*
Y10500D01*
X31199Y10400D02*
X31599D01*
X32199Y11100D02*
X31799D01*
Y10800D01*
X31999D01*
X31799D01*
Y10500D01*
X42900Y13400D02*
Y14000D01*
X43200D01*
X43300Y13900D01*
Y13700D01*
X43200Y13600D01*
X42900D01*
X43100D02*
X43300Y13400D01*
X43500Y14000D02*
Y13400D01*
X43900D01*
X44400Y14000D02*
X44200D01*
X44100Y13900D01*
Y13500D01*
X44200Y13400D01*
X44400D01*
X44499Y13500D01*
Y13900D01*
X44400Y14000D01*
X44699D02*
Y13400D01*
Y13600D01*
X45099Y14000D01*
X44799Y13700D01*
X45099Y13400D01*
X45299D02*
X45499D01*
X45399D01*
Y14000D01*
X45299Y13900D01*
X42000Y15300D02*
Y15900D01*
X42300D01*
X42400Y15800D01*
Y15600D01*
X42300Y15500D01*
X42000D01*
X42200D02*
X42400Y15300D01*
X42600D02*
X42800D01*
X42700D01*
Y15900D01*
X42600Y15800D01*
X43400Y15300D02*
Y15900D01*
X43100Y15600D01*
X43500D01*
X39600Y17400D02*
X39700Y17500D01*
Y17700D01*
X39600Y17800D01*
X39200D01*
X39100Y17700D01*
Y17500D01*
X39200Y17400D01*
X39100Y17200D02*
Y17000D01*
Y17100D01*
X39700D01*
X39600Y17200D01*
Y16700D02*
X39700Y16600D01*
Y16400D01*
X39600Y16300D01*
X39500D01*
X39400Y16400D01*
Y16500D01*
Y16400D01*
X39300Y16300D01*
X39200D01*
X39100Y16400D01*
Y16600D01*
X39200Y16700D01*
X22500Y27000D02*
Y26400D01*
X22800D01*
X22900Y26500D01*
Y26600D01*
X22800Y26700D01*
X22500D01*
X22800D01*
X22900Y26800D01*
Y26900D01*
X22800Y27000D01*
X22500D01*
X23100D02*
Y26900D01*
X23300Y26700D01*
X23500Y26900D01*
Y27000D01*
X23300Y26700D02*
Y26400D01*
X23700D02*
Y27000D01*
X24000D01*
X24099Y26900D01*
Y26700D01*
X24000Y26600D01*
X23700D01*
X17300Y27200D02*
X17200Y27300D01*
X17000D01*
X16900Y27200D01*
Y27100D01*
X17000Y27000D01*
X17200D01*
X17300Y26900D01*
Y26800D01*
X17200Y26700D01*
X17000D01*
X16900Y26800D01*
X17500Y27300D02*
Y26700D01*
X17700Y26900D01*
X17900Y26700D01*
Y27300D01*
X18499D02*
X18100D01*
Y27000D01*
X18300Y27100D01*
X18400D01*
X18499Y27000D01*
Y26800D01*
X18400Y26700D01*
X18200D01*
X18100Y26800D01*
X18699Y27300D02*
Y26900D01*
X18899Y26700D01*
X19099Y26900D01*
Y27300D01*
X11244Y27580D02*
Y28180D01*
X11544D01*
X11644Y28080D01*
Y27880D01*
X11544Y27780D01*
X11244D01*
X11444D02*
X11644Y27580D01*
X11844D02*
X12044D01*
X11944D01*
Y28180D01*
X11844Y28080D01*
X12344D02*
X12444Y28180D01*
X12644D01*
X12744Y28080D01*
Y27980D01*
X12644Y27880D01*
X12544D01*
X12644D01*
X12744Y27780D01*
Y27680D01*
X12644Y27580D01*
X12444D01*
X12344Y27680D01*
X15500Y16900D02*
Y17500D01*
X15800D01*
X15900Y17400D01*
Y17200D01*
X15800Y17100D01*
X15500D01*
X15700D02*
X15900Y16900D01*
X16100D02*
X16300D01*
X16200D01*
Y17500D01*
X16100Y17400D01*
X17000Y16900D02*
X16600D01*
X17000Y17300D01*
Y17400D01*
X16900Y17500D01*
X16700D01*
X16600Y17400D01*
X11100Y14000D02*
X10500D01*
Y14300D01*
X10600Y14400D01*
X10800D01*
X10900Y14300D01*
Y14000D01*
X10500Y14900D02*
Y14700D01*
X10600Y14600D01*
X11000D01*
X11100Y14700D01*
Y14900D01*
X11000Y15000D01*
X10600D01*
X10500Y14900D01*
Y15200D02*
X11100D01*
X10900Y15400D01*
X11100Y15599D01*
X10500D01*
X11100Y15799D02*
Y15999D01*
Y15899D01*
X10500D01*
X10600Y15799D01*
X11100Y16699D02*
Y16299D01*
X10700Y16699D01*
X10600D01*
X10500Y16599D01*
Y16399D01*
X10600Y16299D01*
X31400Y19800D02*
X31300Y19700D01*
Y19500D01*
X31400Y19400D01*
X31800D01*
X31900Y19500D01*
Y19700D01*
X31800Y19800D01*
X31900Y20000D02*
Y20200D01*
Y20100D01*
X31300D01*
X31400Y20000D01*
X31300Y20900D02*
X31400Y20700D01*
X31600Y20500D01*
X31800D01*
X31900Y20600D01*
Y20800D01*
X31800Y20900D01*
X31700D01*
X31600Y20800D01*
Y20500D01*
X36100Y20500D02*
X36000Y20600D01*
X35800D01*
X35700Y20500D01*
Y20100D01*
X35800Y20000D01*
X36000D01*
X36100Y20100D01*
X36300Y20000D02*
X36500D01*
X36400D01*
Y20600D01*
X36300Y20500D01*
X37200Y20600D02*
X36800D01*
Y20300D01*
X37000Y20400D01*
X37100D01*
X37200Y20300D01*
Y20100D01*
X37100Y20000D01*
X36900D01*
X36800Y20100D01*
X38700Y10300D02*
Y10900D01*
X39000D01*
X39100Y10800D01*
Y10600D01*
X39000Y10500D01*
X38700D01*
X38900D02*
X39100Y10300D01*
X39300Y10900D02*
Y10300D01*
X39700D01*
X40200Y10900D02*
X40000D01*
X39900Y10800D01*
Y10400D01*
X40000Y10300D01*
X40200D01*
X40299Y10400D01*
Y10800D01*
X40200Y10900D01*
X40499D02*
Y10300D01*
Y10500D01*
X40899Y10900D01*
X40599Y10600D01*
X40899Y10300D01*
X41499D02*
X41099D01*
X41499Y10700D01*
Y10800D01*
X41399Y10900D01*
X41199D01*
X41099Y10800D01*
X30200Y11400D02*
X29600D01*
Y11700D01*
X29700Y11800D01*
X29900D01*
X30000Y11700D01*
Y11400D01*
Y11600D02*
X30200Y11800D01*
Y12000D02*
Y12200D01*
Y12100D01*
X29600D01*
X29700Y12000D01*
Y12500D02*
X29600Y12600D01*
Y12800D01*
X29700Y12900D01*
X30100D01*
X30200Y12800D01*
Y12600D01*
X30100Y12500D01*
X29700D01*
X36700Y11200D02*
Y11800D01*
X37000D01*
X37100Y11700D01*
Y11500D01*
X37000Y11400D01*
X36700D01*
X36900D02*
X37100Y11200D01*
X37300Y11300D02*
X37400Y11200D01*
X37600D01*
X37700Y11300D01*
Y11700D01*
X37600Y11800D01*
X37400D01*
X37300Y11700D01*
Y11600D01*
X37400Y11500D01*
X37700D01*
X41160Y23460D02*
Y24060D01*
X41460D01*
X41560Y23960D01*
Y23760D01*
X41460Y23660D01*
X41160D01*
X41360D02*
X41560Y23460D01*
X41760Y23960D02*
X41860Y24060D01*
X42060D01*
X42160Y23960D01*
Y23860D01*
X42060Y23760D01*
X42160Y23660D01*
Y23560D01*
X42060Y23460D01*
X41860D01*
X41760Y23560D01*
Y23660D01*
X41860Y23760D01*
X41760Y23860D01*
Y23960D01*
X41860Y23760D02*
X42060D01*
X31890Y13990D02*
X31490D01*
Y13690D01*
X31690D01*
X31490D01*
Y13390D01*
X32090D02*
Y13790D01*
X32290Y13990D01*
X32490Y13790D01*
Y13390D01*
Y13690D01*
X32090D01*
X32690Y13990D02*
X32890D01*
X32790D01*
Y13390D01*
X32690D01*
X32890D01*
X33189Y13990D02*
Y13390D01*
X33589D01*
X46813Y27190D02*
X47213Y26590D01*
Y27190D02*
X46813Y26590D01*
X47812Y27190D02*
X47413D01*
Y26890D01*
X47613D01*
X47413D01*
Y26590D01*
X48012D02*
X48212D01*
X48112D01*
Y27190D01*
X48012Y27090D01*
X24700Y18100D02*
Y17600D01*
X24800Y17500D01*
X25000D01*
X25100Y17600D01*
Y18100D01*
X25300Y18000D02*
X25400Y18100D01*
X25600D01*
X25700Y18000D01*
Y17900D01*
X25600Y17800D01*
X25500D01*
X25600D01*
X25700Y17700D01*
Y17600D01*
X25600Y17500D01*
X25400D01*
X25300Y17600D01*
X27050Y20700D02*
Y20200D01*
X27150Y20100D01*
X27350D01*
X27450Y20200D01*
Y20700D01*
X28050Y20100D02*
X27650D01*
X28050Y20500D01*
Y20600D01*
X27950Y20700D01*
X27750D01*
X27650Y20600D01*
X16871Y22100D02*
Y21600D01*
X16971Y21500D01*
X17171D01*
X17271Y21600D01*
Y22100D01*
X17471Y21500D02*
X17671D01*
X17571D01*
Y22100D01*
X17471Y22000D01*
X19800Y10500D02*
Y11100D01*
X20100D01*
X20200Y11000D01*
Y10800D01*
X20100Y10700D01*
X19800D01*
X20000D02*
X20200Y10500D01*
X20800Y11000D02*
X20700Y11100D01*
X20500D01*
X20400Y11000D01*
Y10900D01*
X20500Y10800D01*
X20700D01*
X20800Y10700D01*
Y10600D01*
X20700Y10500D01*
X20500D01*
X20400Y10600D01*
X21000Y11100D02*
X21399D01*
X21200D01*
Y10500D01*
X26900Y13200D02*
Y13800D01*
X27200D01*
X27300Y13700D01*
Y13500D01*
X27200Y13400D01*
X26900D01*
X27100D02*
X27300Y13200D01*
X27500Y13800D02*
X27900D01*
Y13700D01*
X27500Y13300D01*
Y13200D01*
X34100Y13550D02*
Y14150D01*
X34400D01*
X34500Y14050D01*
Y13850D01*
X34400Y13750D01*
X34100D01*
X34300D02*
X34500Y13550D01*
X35100Y14150D02*
X34900Y14050D01*
X34700Y13850D01*
Y13650D01*
X34800Y13550D01*
X35000D01*
X35100Y13650D01*
Y13750D01*
X35000Y13850D01*
X34700D01*
X17350Y19900D02*
Y20500D01*
X17650D01*
X17750Y20400D01*
Y20200D01*
X17650Y20100D01*
X17350D01*
X17550D02*
X17750Y19900D01*
X18350Y20500D02*
X17950D01*
Y20200D01*
X18150Y20300D01*
X18250D01*
X18350Y20200D01*
Y20000D01*
X18250Y19900D01*
X18050D01*
X17950Y20000D01*
X27250Y15700D02*
Y16300D01*
X27550D01*
X27650Y16200D01*
Y16000D01*
X27550Y15900D01*
X27250D01*
X27450D02*
X27650Y15700D01*
X28150D02*
Y16300D01*
X27850Y16000D01*
X28250D01*
X16900Y25800D02*
Y26400D01*
X17200D01*
X17300Y26300D01*
Y26100D01*
X17200Y26000D01*
X16900D01*
X17100D02*
X17300Y25800D01*
X17500Y26300D02*
X17600Y26400D01*
X17800D01*
X17900Y26300D01*
Y26200D01*
X17800Y26100D01*
X17700D01*
X17800D01*
X17900Y26000D01*
Y25900D01*
X17800Y25800D01*
X17600D01*
X17500Y25900D01*
X24857Y24550D02*
Y25150D01*
X25157D01*
X25257Y25050D01*
Y24850D01*
X25157Y24750D01*
X24857D01*
X25057D02*
X25257Y24550D01*
X25857D02*
X25457D01*
X25857Y24950D01*
Y25050D01*
X25757Y25150D01*
X25557D01*
X25457Y25050D01*
X18450Y20750D02*
Y21350D01*
X18750D01*
X18850Y21250D01*
Y21050D01*
X18750Y20950D01*
X18450D01*
X18650D02*
X18850Y20750D01*
X19050D02*
X19250D01*
X19150D01*
Y21350D01*
X19050Y21250D01*
X11100Y11100D02*
X10500D01*
Y11400D01*
X10600Y11500D01*
X10800D01*
X10900Y11400D01*
Y11100D01*
X10500Y12000D02*
Y11800D01*
X10600Y11700D01*
X11000D01*
X11100Y11800D01*
Y12000D01*
X11000Y12100D01*
X10600D01*
X10500Y12000D01*
Y12300D02*
X11100D01*
X10900Y12500D01*
X11100Y12699D01*
X10500D01*
Y13299D02*
Y12899D01*
X10800D01*
X10700Y13099D01*
Y13199D01*
X10800Y13299D01*
X11000D01*
X11100Y13199D01*
Y12999D01*
X11000Y12899D01*
X35350Y26850D02*
Y26250D01*
X35750D01*
X36350D02*
X35950D01*
X36350Y26650D01*
Y26750D01*
X36250Y26850D01*
X36050D01*
X35950Y26750D01*
X28200Y25900D02*
Y25300D01*
X28600D01*
X28800D02*
X29000D01*
X28900D01*
Y25900D01*
X28800Y25800D01*
X40010Y22910D02*
Y22310D01*
Y22510D01*
X40410Y22910D01*
X40110Y22610D01*
X40410Y22310D01*
X40610D02*
X40810D01*
X40710D01*
Y22910D01*
X40610Y22810D01*
X12050Y26200D02*
X11850D01*
X11950D01*
Y25700D01*
X11850Y25600D01*
X11750D01*
X11650Y25700D01*
X12250Y25600D02*
X12450D01*
X12350D01*
Y26200D01*
X12250Y26100D01*
X11800Y19900D02*
X12000D01*
X11900D01*
Y19300D01*
X11800D01*
X12000D01*
X12300D02*
Y19900D01*
X12700Y19300D01*
Y19900D01*
X12900D02*
X13300D01*
X13100D01*
Y19300D01*
X13499D02*
X13899Y19700D01*
X14499Y19800D02*
X14399Y19900D01*
X14199D01*
X14099Y19800D01*
Y19700D01*
X14199Y19600D01*
X14399D01*
X14499Y19500D01*
Y19400D01*
X14399Y19300D01*
X14199D01*
X14099Y19400D01*
X14699Y19900D02*
Y19300D01*
X14899Y19500D01*
X15099Y19300D01*
Y19900D01*
X28400Y13800D02*
X28600D01*
X28500D01*
Y13200D01*
X28400D01*
X28600D01*
X29300Y13700D02*
X29200Y13800D01*
X29000D01*
X28900Y13700D01*
Y13300D01*
X29000Y13200D01*
X29200D01*
X29300Y13300D01*
X29500Y13700D02*
X29600Y13800D01*
X29800D01*
X29900Y13700D01*
Y13600D01*
X29800Y13500D01*
X29700D01*
X29800D01*
X29900Y13400D01*
Y13300D01*
X29800Y13200D01*
X29600D01*
X29500Y13300D01*
X32200Y19900D02*
X32400D01*
X32300D01*
Y19300D01*
X32200D01*
X32400D01*
X33100Y19800D02*
X33000Y19900D01*
X32800D01*
X32700Y19800D01*
Y19400D01*
X32800Y19300D01*
X33000D01*
X33100Y19400D01*
X33700Y19300D02*
X33300D01*
X33700Y19700D01*
Y19800D01*
X33600Y19900D01*
X33400D01*
X33300Y19800D01*
X37400Y19000D02*
Y19200D01*
Y19100D01*
X38000D01*
Y19000D01*
Y19200D01*
X37500Y19900D02*
X37400Y19800D01*
Y19600D01*
X37500Y19500D01*
X37900D01*
X38000Y19600D01*
Y19800D01*
X37900Y19900D01*
X38000Y20100D02*
Y20300D01*
Y20200D01*
X37400D01*
X37500Y20100D01*
X10400Y17600D02*
Y17200D01*
X11000D01*
Y17600D01*
X10700Y17200D02*
Y17400D01*
X10400Y17800D02*
X11000Y18200D01*
X10400D02*
X11000Y17800D01*
X10400Y18400D02*
Y18799D01*
Y18600D01*
X11000D01*
X11100Y18999D02*
Y19399D01*
X10500Y19999D02*
X10400Y19899D01*
Y19699D01*
X10500Y19599D01*
X10600D01*
X10700Y19699D01*
Y19899D01*
X10800Y19999D01*
X10900D01*
X11000Y19899D01*
Y19699D01*
X10900Y19599D01*
X10400Y20199D02*
X11000D01*
X10800Y20399D01*
X11000Y20599D01*
X10400D01*
Y20799D02*
Y20999D01*
Y20899D01*
X11000D01*
Y20799D01*
Y20999D01*
X10400Y21299D02*
Y21699D01*
Y21499D01*
X11000D01*
X10500Y22298D02*
X10400Y22198D01*
Y21998D01*
X10500Y21898D01*
X10900D01*
X11000Y21998D01*
Y22198D01*
X10900Y22298D01*
X10400Y22498D02*
X11000D01*
X10700D01*
Y22898D01*
X10400D01*
X11000D01*
X39200Y24000D02*
Y23400D01*
X39500D01*
X39600Y23500D01*
Y23900D01*
X39500Y24000D01*
X39200D01*
X39800Y23400D02*
X40000D01*
X39900D01*
Y24000D01*
X39800Y23900D01*
X19700Y20100D02*
X19600Y20200D01*
X19400D01*
X19300Y20100D01*
Y19700D01*
X19400Y19600D01*
X19600D01*
X19700Y19700D01*
X19900Y19600D02*
X20100D01*
X20000D01*
Y20200D01*
X19900Y20100D01*
X20700Y19600D02*
Y20200D01*
X20400Y19900D01*
X20800D01*
X18200Y17650D02*
X18100Y17750D01*
X17900D01*
X17800Y17650D01*
Y17250D01*
X17900Y17150D01*
X18100D01*
X18200Y17250D01*
X18400Y17150D02*
X18600D01*
X18500D01*
Y17750D01*
X18400Y17650D01*
X19300Y17150D02*
X18900D01*
X19300Y17550D01*
Y17650D01*
X19200Y17750D01*
X19000D01*
X18900Y17650D01*
X24900Y20200D02*
X24800Y20300D01*
X24600D01*
X24500Y20200D01*
Y19800D01*
X24600Y19700D01*
X24800D01*
X24900Y19800D01*
X25100Y19700D02*
X25300D01*
X25200D01*
Y20300D01*
X25100Y20200D01*
X25600Y19700D02*
X25800D01*
X25700D01*
Y20300D01*
X25600Y20200D01*
X26600Y21700D02*
X26500Y21600D01*
Y21400D01*
X26600Y21300D01*
X27000D01*
X27100Y21400D01*
Y21600D01*
X27000Y21700D01*
X27100Y21900D02*
Y22100D01*
Y22000D01*
X26500D01*
X26600Y21900D01*
Y22400D02*
X26500Y22500D01*
Y22700D01*
X26600Y22800D01*
X27000D01*
X27100Y22700D01*
Y22500D01*
X27000Y22400D01*
X26600D01*
X38030Y26810D02*
X37930Y26910D01*
X37730D01*
X37630Y26810D01*
Y26410D01*
X37730Y26310D01*
X37930D01*
X38030Y26410D01*
X38230D02*
X38330Y26310D01*
X38530D01*
X38630Y26410D01*
Y26810D01*
X38530Y26910D01*
X38330D01*
X38230Y26810D01*
Y26710D01*
X38330Y26610D01*
X38630D01*
X21200Y12600D02*
X21100Y12700D01*
X20900D01*
X20800Y12600D01*
Y12200D01*
X20900Y12100D01*
X21100D01*
X21200Y12200D01*
X21400Y12600D02*
X21500Y12700D01*
X21700D01*
X21800Y12600D01*
Y12500D01*
X21700Y12400D01*
X21800Y12300D01*
Y12200D01*
X21700Y12100D01*
X21500D01*
X21400Y12200D01*
Y12300D01*
X21500Y12400D01*
X21400Y12500D01*
Y12600D01*
X21500Y12400D02*
X21700D01*
X19600Y12600D02*
X19500Y12700D01*
X19300D01*
X19200Y12600D01*
Y12200D01*
X19300Y12100D01*
X19500D01*
X19600Y12200D01*
X19800Y12700D02*
X20200D01*
Y12600D01*
X19800Y12200D01*
Y12100D01*
X18950Y11550D02*
X18850Y11650D01*
X18650D01*
X18550Y11550D01*
Y11150D01*
X18650Y11050D01*
X18850D01*
X18950Y11150D01*
X19550Y11650D02*
X19350Y11550D01*
X19150Y11350D01*
Y11150D01*
X19250Y11050D01*
X19450D01*
X19550Y11150D01*
Y11250D01*
X19450Y11350D01*
X19150D01*
X11800Y21785D02*
X11700Y21885D01*
X11500D01*
X11400Y21785D01*
Y21385D01*
X11500Y21285D01*
X11700D01*
X11800Y21385D01*
X12400Y21885D02*
X12000D01*
Y21585D01*
X12200Y21685D01*
X12300D01*
X12400Y21585D01*
Y21385D01*
X12300Y21285D01*
X12100D01*
X12000Y21385D01*
X29000Y21300D02*
X28900Y21400D01*
X28700D01*
X28600Y21300D01*
Y20900D01*
X28700Y20800D01*
X28900D01*
X29000Y20900D01*
X29500Y20800D02*
Y21400D01*
X29200Y21100D01*
X29600D01*
X29150Y17000D02*
X29050Y17100D01*
X28850D01*
X28750Y17000D01*
Y16600D01*
X28850Y16500D01*
X29050D01*
X29150Y16600D01*
X29350Y17000D02*
X29450Y17100D01*
X29650D01*
X29750Y17000D01*
Y16900D01*
X29650Y16800D01*
X29550D01*
X29650D01*
X29750Y16700D01*
Y16600D01*
X29650Y16500D01*
X29450D01*
X29350Y16600D01*
X25000Y23850D02*
X24900Y23950D01*
X24700D01*
X24600Y23850D01*
Y23450D01*
X24700Y23350D01*
X24900D01*
X25000Y23450D01*
X25600Y23350D02*
X25200D01*
X25600Y23750D01*
Y23850D01*
X25500Y23950D01*
X25300D01*
X25200Y23850D01*
X18851Y26100D02*
X18751Y26200D01*
X18551D01*
X18451Y26100D01*
Y25700D01*
X18551Y25600D01*
X18751D01*
X18851Y25700D01*
X19051Y25600D02*
X19251D01*
X19151D01*
Y26200D01*
X19051Y26100D01*
X57000Y26650D02*
X57400D01*
X57600Y26450D01*
X57400Y26250D01*
X57000D01*
X57300D01*
Y26650D01*
X57500Y25650D02*
X57600Y25750D01*
Y25950D01*
X57500Y26050D01*
X57100D01*
X57000Y25950D01*
Y25750D01*
X57100Y25650D01*
X56900Y25450D02*
Y25051D01*
X57000Y24851D02*
X57600D01*
Y24551D01*
X57500Y24451D01*
X57300D01*
X57200Y24551D01*
Y24851D01*
X57600Y23951D02*
Y24151D01*
X57500Y24251D01*
X57100D01*
X57000Y24151D01*
Y23951D01*
X57100Y23851D01*
X57500D01*
X57600Y23951D01*
Y23651D02*
X57000D01*
X57200Y23451D01*
X57000Y23251D01*
X57600D01*
X56900Y23051D02*
Y22651D01*
X57600Y22151D02*
Y22351D01*
X57500Y22451D01*
X57100D01*
X57000Y22351D01*
Y22151D01*
X57100Y22051D01*
X57500D01*
X57600Y22151D01*
Y21852D02*
X57100D01*
X57000Y21752D01*
Y21552D01*
X57100Y21452D01*
X57600D01*
Y21252D02*
Y20852D01*
Y21052D01*
X57000D01*
X56950Y19700D02*
X57350D01*
X57550Y19500D01*
X57350Y19300D01*
X56950D01*
X57250D01*
Y19700D01*
X57450Y18700D02*
X57550Y18800D01*
Y19000D01*
X57450Y19100D01*
X57050D01*
X56950Y19000D01*
Y18800D01*
X57050Y18700D01*
X56850Y18500D02*
Y18101D01*
X56950Y17901D02*
X57550D01*
Y17601D01*
X57450Y17501D01*
X57250D01*
X57150Y17601D01*
Y17901D01*
X57550Y17001D02*
Y17201D01*
X57450Y17301D01*
X57050D01*
X56950Y17201D01*
Y17001D01*
X57050Y16901D01*
X57450D01*
X57550Y17001D01*
Y16701D02*
X56950D01*
X57150Y16501D01*
X56950Y16301D01*
X57550D01*
X56850Y16101D02*
Y15701D01*
X57550Y15501D02*
Y15301D01*
Y15401D01*
X56950D01*
Y15501D01*
Y15301D01*
Y15002D02*
X57550D01*
X56950Y14602D01*
X57550D01*
X29160Y26800D02*
Y27200D01*
X29360Y27400D01*
X29560Y27200D01*
Y26800D01*
Y27100D01*
X29160D01*
X29760Y26800D02*
X29960D01*
X29860D01*
Y27400D01*
X29760Y27300D01*
X37400Y13700D02*
X37200D01*
X37100Y13600D01*
Y13200D01*
X37200Y13100D01*
X37400D01*
X37500Y13200D01*
Y13600D01*
X37400Y13700D01*
X37700Y13100D02*
Y13700D01*
X38100Y13100D01*
Y13700D01*
D15*
X30048Y21617D02*
G03*
X30048Y21617I-39J0D01*
G01*
D16*
X39106Y15915D02*
Y16033D01*
X40917D01*
Y15915D02*
Y16033D01*
Y15167D02*
Y15285D01*
X39106Y15167D02*
X40917D01*
X39106D02*
Y15285D01*
X40012Y15167D02*
Y16033D01*
X39769Y18676D02*
Y18873D01*
X38431D02*
X39769D01*
X38431Y18676D02*
Y18873D01*
Y18086D02*
Y18283D01*
Y18086D02*
X39769D01*
Y18283D01*
X11175Y27176D02*
Y27254D01*
X12514D01*
Y27176D02*
Y27254D01*
X11175Y26546D02*
Y26624D01*
Y26546D02*
X12514D01*
Y26624D01*
X11844Y26546D02*
Y27254D01*
X16016Y25365D02*
Y25483D01*
X17827D01*
Y25365D02*
Y25483D01*
Y24617D02*
Y24735D01*
X16016Y24617D02*
X17827D01*
X16016D02*
Y24735D01*
X16921Y24617D02*
Y25483D01*
X14446Y15675D02*
X14524D01*
X14446D02*
Y17014D01*
X14524D01*
X15076Y15675D02*
X15154D01*
Y17014D01*
X15076D02*
X15154D01*
X14446Y16344D02*
X15154D01*
X30106Y20369D02*
X30303D01*
X30106Y19031D02*
Y20369D01*
Y19031D02*
X30303D01*
X30697D02*
X30894D01*
Y20369D01*
X30697D02*
X30894D01*
X34606Y20269D02*
X34803D01*
X34606Y18931D02*
Y20269D01*
Y18931D02*
X34803D01*
X35197D02*
X35394D01*
Y20269D01*
X35197D02*
X35394D01*
X21644Y12865D02*
X21743D01*
Y14735D01*
X21644D02*
X21743D01*
X20857D02*
X20956D01*
X20857Y12865D02*
Y14735D01*
Y12865D02*
X20956D01*
X20857Y13800D02*
X21743D01*
X20044Y12865D02*
X20143D01*
Y14735D01*
X20044D02*
X20143D01*
X19257D02*
X19356D01*
X19257Y12865D02*
Y14735D01*
Y12865D02*
X19356D01*
X19257Y13800D02*
X20143D01*
X31215Y13706D02*
X31333D01*
Y11894D02*
Y13706D01*
X31215Y11894D02*
X31333D01*
X30467D02*
X30585D01*
X30467D02*
Y13706D01*
X30585D01*
X30467Y12800D02*
X31333D01*
X36594Y12815D02*
Y12933D01*
X38406D01*
Y12815D02*
Y12933D01*
Y12067D02*
Y12185D01*
X36594Y12067D02*
X38406D01*
X36594D02*
Y12185D01*
X37500Y12067D02*
Y12933D01*
X42906Y22267D02*
Y22385D01*
X41094Y22267D02*
X42906D01*
X41094D02*
Y22385D01*
Y23015D02*
Y23133D01*
X42906D01*
Y23015D02*
Y23133D01*
X42000Y22267D02*
Y23133D01*
X28244Y21115D02*
X28343D01*
Y22985D01*
X28244D02*
X28343D01*
X27457D02*
X27556D01*
X27457Y21115D02*
Y22985D01*
Y21115D02*
X27556D01*
X27457Y22050D02*
X28343D01*
X35517Y13444D02*
X35635D01*
X35517D02*
Y15256D01*
X35635D01*
X36265D02*
X36383D01*
Y13444D02*
Y15256D01*
X36265Y13444D02*
X36383D01*
X35517Y14350D02*
X36383D01*
X27294Y14915D02*
Y15033D01*
X29106D01*
Y14915D02*
Y15033D01*
Y14167D02*
Y14285D01*
X27294Y14167D02*
X29106D01*
X27294D02*
Y14285D01*
X28200Y14167D02*
Y15033D01*
X29697Y17331D02*
X29894D01*
Y18669D01*
X29697D02*
X29894D01*
X29106D02*
X29303D01*
X29106Y17331D02*
Y18669D01*
Y17331D02*
X29303D01*
X26344Y17365D02*
Y17483D01*
X28156D01*
Y17365D02*
Y17483D01*
Y16617D02*
Y16735D01*
X26344Y16617D02*
X28156D01*
X26344D02*
Y16735D01*
X27250Y16617D02*
Y17483D01*
X29647Y19231D02*
X29844D01*
Y20569D01*
X29647D02*
X29844D01*
X29056D02*
X29253D01*
X29056Y19231D02*
Y20569D01*
Y19231D02*
X29253D01*
X19315Y23456D02*
X19433D01*
Y21644D02*
Y23456D01*
X19315Y21644D02*
X19433D01*
X18567D02*
X18685D01*
X18567D02*
Y23456D01*
X18685D01*
X18567Y22550D02*
X19433D01*
X25569Y22797D02*
Y22994D01*
X24231D02*
X25569D01*
X24231Y22797D02*
Y22994D01*
Y22206D02*
Y22403D01*
Y22206D02*
X25569D01*
Y22403D01*
X24356Y21934D02*
X24553D01*
X24356Y20596D02*
Y21934D01*
Y20596D02*
X24553D01*
X24947D02*
X25144D01*
Y21934D01*
X24947D02*
X25144D01*
X20497Y17031D02*
X20694D01*
Y18369D01*
X20497D02*
X20694D01*
X19906D02*
X20103D01*
X19906Y17031D02*
Y18369D01*
Y17031D02*
X20103D01*
X17967Y17894D02*
X18085D01*
X17967D02*
Y19706D01*
X18085D01*
X18715D02*
X18833D01*
Y17894D02*
Y19706D01*
X18715Y17894D02*
X18833D01*
X17967Y18800D02*
X18833D01*
X19531Y18556D02*
Y18753D01*
Y18556D02*
X20869D01*
Y18753D01*
Y19147D02*
Y19344D01*
X19531D02*
X20869D01*
X19531Y19147D02*
Y19344D01*
X13297Y21116D02*
X13494D01*
Y22454D01*
X13297D02*
X13494D01*
X12706D02*
X12903D01*
X12706Y21116D02*
Y22454D01*
Y21116D02*
X12903D01*
X37557Y25985D02*
X37656D01*
X37557Y24115D02*
Y25985D01*
Y24115D02*
X37656D01*
X38344D02*
X38443D01*
Y25985D01*
X38344D02*
X38443D01*
X37557Y25050D02*
X38443D01*
X18378Y25269D02*
X18574D01*
X18378Y23931D02*
Y25269D01*
Y23931D02*
X18574D01*
X18968D02*
X19165D01*
Y25269D01*
X18968D02*
X19165D01*
D17*
X21228Y17684D02*
X21250D01*
X21228Y18216D02*
X21250D01*
X20850D02*
X20872D01*
X20850Y17684D02*
X20872D01*
M02*
